G75*
G70*
%OFA0B0*%
%FSLAX24Y24*%
%IPPOS*%
%LPD*%
%AMOC8*
5,1,8,0,0,1.08239X$1,22.5*
%
%ADD10C,0.0000*%
%ADD11C,0.0160*%
%ADD12C,0.0709*%
%ADD13C,0.0740*%
%ADD14C,0.1000*%
%ADD15C,0.1181*%
%ADD16R,0.0740X0.0740*%
%ADD17C,0.0520*%
%ADD18C,0.0240*%
%ADD19C,0.0080*%
D10*
X000180Y000180D02*
X000180Y016400D01*
X000180Y030101D01*
X047361Y030101D01*
X047361Y000180D01*
X000180Y000180D01*
X004050Y003180D02*
X004052Y003230D01*
X004058Y003280D01*
X004068Y003329D01*
X004082Y003377D01*
X004099Y003424D01*
X004120Y003469D01*
X004145Y003513D01*
X004173Y003554D01*
X004205Y003593D01*
X004239Y003630D01*
X004276Y003664D01*
X004316Y003694D01*
X004358Y003721D01*
X004402Y003745D01*
X004448Y003766D01*
X004495Y003782D01*
X004543Y003795D01*
X004593Y003804D01*
X004642Y003809D01*
X004693Y003810D01*
X004743Y003807D01*
X004792Y003800D01*
X004841Y003789D01*
X004889Y003774D01*
X004935Y003756D01*
X004980Y003734D01*
X005023Y003708D01*
X005064Y003679D01*
X005103Y003647D01*
X005139Y003612D01*
X005171Y003574D01*
X005201Y003534D01*
X005228Y003491D01*
X005251Y003447D01*
X005270Y003401D01*
X005286Y003353D01*
X005298Y003304D01*
X005306Y003255D01*
X005310Y003205D01*
X005310Y003155D01*
X005306Y003105D01*
X005298Y003056D01*
X005286Y003007D01*
X005270Y002959D01*
X005251Y002913D01*
X005228Y002869D01*
X005201Y002826D01*
X005171Y002786D01*
X005139Y002748D01*
X005103Y002713D01*
X005064Y002681D01*
X005023Y002652D01*
X004980Y002626D01*
X004935Y002604D01*
X004889Y002586D01*
X004841Y002571D01*
X004792Y002560D01*
X004743Y002553D01*
X004693Y002550D01*
X004642Y002551D01*
X004593Y002556D01*
X004543Y002565D01*
X004495Y002578D01*
X004448Y002594D01*
X004402Y002615D01*
X004358Y002639D01*
X004316Y002666D01*
X004276Y002696D01*
X004239Y002730D01*
X004205Y002767D01*
X004173Y002806D01*
X004145Y002847D01*
X004120Y002891D01*
X004099Y002936D01*
X004082Y002983D01*
X004068Y003031D01*
X004058Y003080D01*
X004052Y003130D01*
X004050Y003180D01*
X007924Y008680D02*
X007926Y008711D01*
X007932Y008742D01*
X007941Y008772D01*
X007954Y008801D01*
X007971Y008828D01*
X007991Y008852D01*
X008013Y008874D01*
X008039Y008893D01*
X008066Y008909D01*
X008095Y008921D01*
X008125Y008930D01*
X008156Y008935D01*
X008188Y008936D01*
X008219Y008933D01*
X008250Y008926D01*
X008280Y008916D01*
X008308Y008902D01*
X008334Y008884D01*
X008358Y008864D01*
X008379Y008840D01*
X008398Y008815D01*
X008413Y008787D01*
X008424Y008758D01*
X008432Y008727D01*
X008436Y008696D01*
X008436Y008664D01*
X008432Y008633D01*
X008424Y008602D01*
X008413Y008573D01*
X008398Y008545D01*
X008379Y008520D01*
X008358Y008496D01*
X008334Y008476D01*
X008308Y008458D01*
X008280Y008444D01*
X008250Y008434D01*
X008219Y008427D01*
X008188Y008424D01*
X008156Y008425D01*
X008125Y008430D01*
X008095Y008439D01*
X008066Y008451D01*
X008039Y008467D01*
X008013Y008486D01*
X007991Y008508D01*
X007971Y008532D01*
X007954Y008559D01*
X007941Y008588D01*
X007932Y008618D01*
X007926Y008649D01*
X007924Y008680D01*
X012924Y008680D02*
X012926Y008711D01*
X012932Y008742D01*
X012941Y008772D01*
X012954Y008801D01*
X012971Y008828D01*
X012991Y008852D01*
X013013Y008874D01*
X013039Y008893D01*
X013066Y008909D01*
X013095Y008921D01*
X013125Y008930D01*
X013156Y008935D01*
X013188Y008936D01*
X013219Y008933D01*
X013250Y008926D01*
X013280Y008916D01*
X013308Y008902D01*
X013334Y008884D01*
X013358Y008864D01*
X013379Y008840D01*
X013398Y008815D01*
X013413Y008787D01*
X013424Y008758D01*
X013432Y008727D01*
X013436Y008696D01*
X013436Y008664D01*
X013432Y008633D01*
X013424Y008602D01*
X013413Y008573D01*
X013398Y008545D01*
X013379Y008520D01*
X013358Y008496D01*
X013334Y008476D01*
X013308Y008458D01*
X013280Y008444D01*
X013250Y008434D01*
X013219Y008427D01*
X013188Y008424D01*
X013156Y008425D01*
X013125Y008430D01*
X013095Y008439D01*
X013066Y008451D01*
X013039Y008467D01*
X013013Y008486D01*
X012991Y008508D01*
X012971Y008532D01*
X012954Y008559D01*
X012941Y008588D01*
X012932Y008618D01*
X012926Y008649D01*
X012924Y008680D01*
X013924Y008680D02*
X013926Y008711D01*
X013932Y008742D01*
X013941Y008772D01*
X013954Y008801D01*
X013971Y008828D01*
X013991Y008852D01*
X014013Y008874D01*
X014039Y008893D01*
X014066Y008909D01*
X014095Y008921D01*
X014125Y008930D01*
X014156Y008935D01*
X014188Y008936D01*
X014219Y008933D01*
X014250Y008926D01*
X014280Y008916D01*
X014308Y008902D01*
X014334Y008884D01*
X014358Y008864D01*
X014379Y008840D01*
X014398Y008815D01*
X014413Y008787D01*
X014424Y008758D01*
X014432Y008727D01*
X014436Y008696D01*
X014436Y008664D01*
X014432Y008633D01*
X014424Y008602D01*
X014413Y008573D01*
X014398Y008545D01*
X014379Y008520D01*
X014358Y008496D01*
X014334Y008476D01*
X014308Y008458D01*
X014280Y008444D01*
X014250Y008434D01*
X014219Y008427D01*
X014188Y008424D01*
X014156Y008425D01*
X014125Y008430D01*
X014095Y008439D01*
X014066Y008451D01*
X014039Y008467D01*
X014013Y008486D01*
X013991Y008508D01*
X013971Y008532D01*
X013954Y008559D01*
X013941Y008588D01*
X013932Y008618D01*
X013926Y008649D01*
X013924Y008680D01*
X018924Y008680D02*
X018926Y008711D01*
X018932Y008742D01*
X018941Y008772D01*
X018954Y008801D01*
X018971Y008828D01*
X018991Y008852D01*
X019013Y008874D01*
X019039Y008893D01*
X019066Y008909D01*
X019095Y008921D01*
X019125Y008930D01*
X019156Y008935D01*
X019188Y008936D01*
X019219Y008933D01*
X019250Y008926D01*
X019280Y008916D01*
X019308Y008902D01*
X019334Y008884D01*
X019358Y008864D01*
X019379Y008840D01*
X019398Y008815D01*
X019413Y008787D01*
X019424Y008758D01*
X019432Y008727D01*
X019436Y008696D01*
X019436Y008664D01*
X019432Y008633D01*
X019424Y008602D01*
X019413Y008573D01*
X019398Y008545D01*
X019379Y008520D01*
X019358Y008496D01*
X019334Y008476D01*
X019308Y008458D01*
X019280Y008444D01*
X019250Y008434D01*
X019219Y008427D01*
X019188Y008424D01*
X019156Y008425D01*
X019125Y008430D01*
X019095Y008439D01*
X019066Y008451D01*
X019039Y008467D01*
X019013Y008486D01*
X018991Y008508D01*
X018971Y008532D01*
X018954Y008559D01*
X018941Y008588D01*
X018932Y008618D01*
X018926Y008649D01*
X018924Y008680D01*
X019924Y008680D02*
X019926Y008711D01*
X019932Y008742D01*
X019941Y008772D01*
X019954Y008801D01*
X019971Y008828D01*
X019991Y008852D01*
X020013Y008874D01*
X020039Y008893D01*
X020066Y008909D01*
X020095Y008921D01*
X020125Y008930D01*
X020156Y008935D01*
X020188Y008936D01*
X020219Y008933D01*
X020250Y008926D01*
X020280Y008916D01*
X020308Y008902D01*
X020334Y008884D01*
X020358Y008864D01*
X020379Y008840D01*
X020398Y008815D01*
X020413Y008787D01*
X020424Y008758D01*
X020432Y008727D01*
X020436Y008696D01*
X020436Y008664D01*
X020432Y008633D01*
X020424Y008602D01*
X020413Y008573D01*
X020398Y008545D01*
X020379Y008520D01*
X020358Y008496D01*
X020334Y008476D01*
X020308Y008458D01*
X020280Y008444D01*
X020250Y008434D01*
X020219Y008427D01*
X020188Y008424D01*
X020156Y008425D01*
X020125Y008430D01*
X020095Y008439D01*
X020066Y008451D01*
X020039Y008467D01*
X020013Y008486D01*
X019991Y008508D01*
X019971Y008532D01*
X019954Y008559D01*
X019941Y008588D01*
X019932Y008618D01*
X019926Y008649D01*
X019924Y008680D01*
X024924Y008680D02*
X024926Y008711D01*
X024932Y008742D01*
X024941Y008772D01*
X024954Y008801D01*
X024971Y008828D01*
X024991Y008852D01*
X025013Y008874D01*
X025039Y008893D01*
X025066Y008909D01*
X025095Y008921D01*
X025125Y008930D01*
X025156Y008935D01*
X025188Y008936D01*
X025219Y008933D01*
X025250Y008926D01*
X025280Y008916D01*
X025308Y008902D01*
X025334Y008884D01*
X025358Y008864D01*
X025379Y008840D01*
X025398Y008815D01*
X025413Y008787D01*
X025424Y008758D01*
X025432Y008727D01*
X025436Y008696D01*
X025436Y008664D01*
X025432Y008633D01*
X025424Y008602D01*
X025413Y008573D01*
X025398Y008545D01*
X025379Y008520D01*
X025358Y008496D01*
X025334Y008476D01*
X025308Y008458D01*
X025280Y008444D01*
X025250Y008434D01*
X025219Y008427D01*
X025188Y008424D01*
X025156Y008425D01*
X025125Y008430D01*
X025095Y008439D01*
X025066Y008451D01*
X025039Y008467D01*
X025013Y008486D01*
X024991Y008508D01*
X024971Y008532D01*
X024954Y008559D01*
X024941Y008588D01*
X024932Y008618D01*
X024926Y008649D01*
X024924Y008680D01*
X028924Y008680D02*
X028926Y008711D01*
X028932Y008742D01*
X028941Y008772D01*
X028954Y008801D01*
X028971Y008828D01*
X028991Y008852D01*
X029013Y008874D01*
X029039Y008893D01*
X029066Y008909D01*
X029095Y008921D01*
X029125Y008930D01*
X029156Y008935D01*
X029188Y008936D01*
X029219Y008933D01*
X029250Y008926D01*
X029280Y008916D01*
X029308Y008902D01*
X029334Y008884D01*
X029358Y008864D01*
X029379Y008840D01*
X029398Y008815D01*
X029413Y008787D01*
X029424Y008758D01*
X029432Y008727D01*
X029436Y008696D01*
X029436Y008664D01*
X029432Y008633D01*
X029424Y008602D01*
X029413Y008573D01*
X029398Y008545D01*
X029379Y008520D01*
X029358Y008496D01*
X029334Y008476D01*
X029308Y008458D01*
X029280Y008444D01*
X029250Y008434D01*
X029219Y008427D01*
X029188Y008424D01*
X029156Y008425D01*
X029125Y008430D01*
X029095Y008439D01*
X029066Y008451D01*
X029039Y008467D01*
X029013Y008486D01*
X028991Y008508D01*
X028971Y008532D01*
X028954Y008559D01*
X028941Y008588D01*
X028932Y008618D01*
X028926Y008649D01*
X028924Y008680D01*
X033924Y008680D02*
X033926Y008711D01*
X033932Y008742D01*
X033941Y008772D01*
X033954Y008801D01*
X033971Y008828D01*
X033991Y008852D01*
X034013Y008874D01*
X034039Y008893D01*
X034066Y008909D01*
X034095Y008921D01*
X034125Y008930D01*
X034156Y008935D01*
X034188Y008936D01*
X034219Y008933D01*
X034250Y008926D01*
X034280Y008916D01*
X034308Y008902D01*
X034334Y008884D01*
X034358Y008864D01*
X034379Y008840D01*
X034398Y008815D01*
X034413Y008787D01*
X034424Y008758D01*
X034432Y008727D01*
X034436Y008696D01*
X034436Y008664D01*
X034432Y008633D01*
X034424Y008602D01*
X034413Y008573D01*
X034398Y008545D01*
X034379Y008520D01*
X034358Y008496D01*
X034334Y008476D01*
X034308Y008458D01*
X034280Y008444D01*
X034250Y008434D01*
X034219Y008427D01*
X034188Y008424D01*
X034156Y008425D01*
X034125Y008430D01*
X034095Y008439D01*
X034066Y008451D01*
X034039Y008467D01*
X034013Y008486D01*
X033991Y008508D01*
X033971Y008532D01*
X033954Y008559D01*
X033941Y008588D01*
X033932Y008618D01*
X033926Y008649D01*
X033924Y008680D01*
X033924Y013680D02*
X033926Y013711D01*
X033932Y013742D01*
X033941Y013772D01*
X033954Y013801D01*
X033971Y013828D01*
X033991Y013852D01*
X034013Y013874D01*
X034039Y013893D01*
X034066Y013909D01*
X034095Y013921D01*
X034125Y013930D01*
X034156Y013935D01*
X034188Y013936D01*
X034219Y013933D01*
X034250Y013926D01*
X034280Y013916D01*
X034308Y013902D01*
X034334Y013884D01*
X034358Y013864D01*
X034379Y013840D01*
X034398Y013815D01*
X034413Y013787D01*
X034424Y013758D01*
X034432Y013727D01*
X034436Y013696D01*
X034436Y013664D01*
X034432Y013633D01*
X034424Y013602D01*
X034413Y013573D01*
X034398Y013545D01*
X034379Y013520D01*
X034358Y013496D01*
X034334Y013476D01*
X034308Y013458D01*
X034280Y013444D01*
X034250Y013434D01*
X034219Y013427D01*
X034188Y013424D01*
X034156Y013425D01*
X034125Y013430D01*
X034095Y013439D01*
X034066Y013451D01*
X034039Y013467D01*
X034013Y013486D01*
X033991Y013508D01*
X033971Y013532D01*
X033954Y013559D01*
X033941Y013588D01*
X033932Y013618D01*
X033926Y013649D01*
X033924Y013680D01*
X033924Y016680D02*
X033926Y016711D01*
X033932Y016742D01*
X033941Y016772D01*
X033954Y016801D01*
X033971Y016828D01*
X033991Y016852D01*
X034013Y016874D01*
X034039Y016893D01*
X034066Y016909D01*
X034095Y016921D01*
X034125Y016930D01*
X034156Y016935D01*
X034188Y016936D01*
X034219Y016933D01*
X034250Y016926D01*
X034280Y016916D01*
X034308Y016902D01*
X034334Y016884D01*
X034358Y016864D01*
X034379Y016840D01*
X034398Y016815D01*
X034413Y016787D01*
X034424Y016758D01*
X034432Y016727D01*
X034436Y016696D01*
X034436Y016664D01*
X034432Y016633D01*
X034424Y016602D01*
X034413Y016573D01*
X034398Y016545D01*
X034379Y016520D01*
X034358Y016496D01*
X034334Y016476D01*
X034308Y016458D01*
X034280Y016444D01*
X034250Y016434D01*
X034219Y016427D01*
X034188Y016424D01*
X034156Y016425D01*
X034125Y016430D01*
X034095Y016439D01*
X034066Y016451D01*
X034039Y016467D01*
X034013Y016486D01*
X033991Y016508D01*
X033971Y016532D01*
X033954Y016559D01*
X033941Y016588D01*
X033932Y016618D01*
X033926Y016649D01*
X033924Y016680D01*
X028924Y016680D02*
X028926Y016711D01*
X028932Y016742D01*
X028941Y016772D01*
X028954Y016801D01*
X028971Y016828D01*
X028991Y016852D01*
X029013Y016874D01*
X029039Y016893D01*
X029066Y016909D01*
X029095Y016921D01*
X029125Y016930D01*
X029156Y016935D01*
X029188Y016936D01*
X029219Y016933D01*
X029250Y016926D01*
X029280Y016916D01*
X029308Y016902D01*
X029334Y016884D01*
X029358Y016864D01*
X029379Y016840D01*
X029398Y016815D01*
X029413Y016787D01*
X029424Y016758D01*
X029432Y016727D01*
X029436Y016696D01*
X029436Y016664D01*
X029432Y016633D01*
X029424Y016602D01*
X029413Y016573D01*
X029398Y016545D01*
X029379Y016520D01*
X029358Y016496D01*
X029334Y016476D01*
X029308Y016458D01*
X029280Y016444D01*
X029250Y016434D01*
X029219Y016427D01*
X029188Y016424D01*
X029156Y016425D01*
X029125Y016430D01*
X029095Y016439D01*
X029066Y016451D01*
X029039Y016467D01*
X029013Y016486D01*
X028991Y016508D01*
X028971Y016532D01*
X028954Y016559D01*
X028941Y016588D01*
X028932Y016618D01*
X028926Y016649D01*
X028924Y016680D01*
X024924Y016680D02*
X024926Y016711D01*
X024932Y016742D01*
X024941Y016772D01*
X024954Y016801D01*
X024971Y016828D01*
X024991Y016852D01*
X025013Y016874D01*
X025039Y016893D01*
X025066Y016909D01*
X025095Y016921D01*
X025125Y016930D01*
X025156Y016935D01*
X025188Y016936D01*
X025219Y016933D01*
X025250Y016926D01*
X025280Y016916D01*
X025308Y016902D01*
X025334Y016884D01*
X025358Y016864D01*
X025379Y016840D01*
X025398Y016815D01*
X025413Y016787D01*
X025424Y016758D01*
X025432Y016727D01*
X025436Y016696D01*
X025436Y016664D01*
X025432Y016633D01*
X025424Y016602D01*
X025413Y016573D01*
X025398Y016545D01*
X025379Y016520D01*
X025358Y016496D01*
X025334Y016476D01*
X025308Y016458D01*
X025280Y016444D01*
X025250Y016434D01*
X025219Y016427D01*
X025188Y016424D01*
X025156Y016425D01*
X025125Y016430D01*
X025095Y016439D01*
X025066Y016451D01*
X025039Y016467D01*
X025013Y016486D01*
X024991Y016508D01*
X024971Y016532D01*
X024954Y016559D01*
X024941Y016588D01*
X024932Y016618D01*
X024926Y016649D01*
X024924Y016680D01*
X024924Y013680D02*
X024926Y013711D01*
X024932Y013742D01*
X024941Y013772D01*
X024954Y013801D01*
X024971Y013828D01*
X024991Y013852D01*
X025013Y013874D01*
X025039Y013893D01*
X025066Y013909D01*
X025095Y013921D01*
X025125Y013930D01*
X025156Y013935D01*
X025188Y013936D01*
X025219Y013933D01*
X025250Y013926D01*
X025280Y013916D01*
X025308Y013902D01*
X025334Y013884D01*
X025358Y013864D01*
X025379Y013840D01*
X025398Y013815D01*
X025413Y013787D01*
X025424Y013758D01*
X025432Y013727D01*
X025436Y013696D01*
X025436Y013664D01*
X025432Y013633D01*
X025424Y013602D01*
X025413Y013573D01*
X025398Y013545D01*
X025379Y013520D01*
X025358Y013496D01*
X025334Y013476D01*
X025308Y013458D01*
X025280Y013444D01*
X025250Y013434D01*
X025219Y013427D01*
X025188Y013424D01*
X025156Y013425D01*
X025125Y013430D01*
X025095Y013439D01*
X025066Y013451D01*
X025039Y013467D01*
X025013Y013486D01*
X024991Y013508D01*
X024971Y013532D01*
X024954Y013559D01*
X024941Y013588D01*
X024932Y013618D01*
X024926Y013649D01*
X024924Y013680D01*
X028924Y013680D02*
X028926Y013711D01*
X028932Y013742D01*
X028941Y013772D01*
X028954Y013801D01*
X028971Y013828D01*
X028991Y013852D01*
X029013Y013874D01*
X029039Y013893D01*
X029066Y013909D01*
X029095Y013921D01*
X029125Y013930D01*
X029156Y013935D01*
X029188Y013936D01*
X029219Y013933D01*
X029250Y013926D01*
X029280Y013916D01*
X029308Y013902D01*
X029334Y013884D01*
X029358Y013864D01*
X029379Y013840D01*
X029398Y013815D01*
X029413Y013787D01*
X029424Y013758D01*
X029432Y013727D01*
X029436Y013696D01*
X029436Y013664D01*
X029432Y013633D01*
X029424Y013602D01*
X029413Y013573D01*
X029398Y013545D01*
X029379Y013520D01*
X029358Y013496D01*
X029334Y013476D01*
X029308Y013458D01*
X029280Y013444D01*
X029250Y013434D01*
X029219Y013427D01*
X029188Y013424D01*
X029156Y013425D01*
X029125Y013430D01*
X029095Y013439D01*
X029066Y013451D01*
X029039Y013467D01*
X029013Y013486D01*
X028991Y013508D01*
X028971Y013532D01*
X028954Y013559D01*
X028941Y013588D01*
X028932Y013618D01*
X028926Y013649D01*
X028924Y013680D01*
X019924Y013680D02*
X019926Y013711D01*
X019932Y013742D01*
X019941Y013772D01*
X019954Y013801D01*
X019971Y013828D01*
X019991Y013852D01*
X020013Y013874D01*
X020039Y013893D01*
X020066Y013909D01*
X020095Y013921D01*
X020125Y013930D01*
X020156Y013935D01*
X020188Y013936D01*
X020219Y013933D01*
X020250Y013926D01*
X020280Y013916D01*
X020308Y013902D01*
X020334Y013884D01*
X020358Y013864D01*
X020379Y013840D01*
X020398Y013815D01*
X020413Y013787D01*
X020424Y013758D01*
X020432Y013727D01*
X020436Y013696D01*
X020436Y013664D01*
X020432Y013633D01*
X020424Y013602D01*
X020413Y013573D01*
X020398Y013545D01*
X020379Y013520D01*
X020358Y013496D01*
X020334Y013476D01*
X020308Y013458D01*
X020280Y013444D01*
X020250Y013434D01*
X020219Y013427D01*
X020188Y013424D01*
X020156Y013425D01*
X020125Y013430D01*
X020095Y013439D01*
X020066Y013451D01*
X020039Y013467D01*
X020013Y013486D01*
X019991Y013508D01*
X019971Y013532D01*
X019954Y013559D01*
X019941Y013588D01*
X019932Y013618D01*
X019926Y013649D01*
X019924Y013680D01*
X018924Y013680D02*
X018926Y013711D01*
X018932Y013742D01*
X018941Y013772D01*
X018954Y013801D01*
X018971Y013828D01*
X018991Y013852D01*
X019013Y013874D01*
X019039Y013893D01*
X019066Y013909D01*
X019095Y013921D01*
X019125Y013930D01*
X019156Y013935D01*
X019188Y013936D01*
X019219Y013933D01*
X019250Y013926D01*
X019280Y013916D01*
X019308Y013902D01*
X019334Y013884D01*
X019358Y013864D01*
X019379Y013840D01*
X019398Y013815D01*
X019413Y013787D01*
X019424Y013758D01*
X019432Y013727D01*
X019436Y013696D01*
X019436Y013664D01*
X019432Y013633D01*
X019424Y013602D01*
X019413Y013573D01*
X019398Y013545D01*
X019379Y013520D01*
X019358Y013496D01*
X019334Y013476D01*
X019308Y013458D01*
X019280Y013444D01*
X019250Y013434D01*
X019219Y013427D01*
X019188Y013424D01*
X019156Y013425D01*
X019125Y013430D01*
X019095Y013439D01*
X019066Y013451D01*
X019039Y013467D01*
X019013Y013486D01*
X018991Y013508D01*
X018971Y013532D01*
X018954Y013559D01*
X018941Y013588D01*
X018932Y013618D01*
X018926Y013649D01*
X018924Y013680D01*
X018924Y016680D02*
X018926Y016711D01*
X018932Y016742D01*
X018941Y016772D01*
X018954Y016801D01*
X018971Y016828D01*
X018991Y016852D01*
X019013Y016874D01*
X019039Y016893D01*
X019066Y016909D01*
X019095Y016921D01*
X019125Y016930D01*
X019156Y016935D01*
X019188Y016936D01*
X019219Y016933D01*
X019250Y016926D01*
X019280Y016916D01*
X019308Y016902D01*
X019334Y016884D01*
X019358Y016864D01*
X019379Y016840D01*
X019398Y016815D01*
X019413Y016787D01*
X019424Y016758D01*
X019432Y016727D01*
X019436Y016696D01*
X019436Y016664D01*
X019432Y016633D01*
X019424Y016602D01*
X019413Y016573D01*
X019398Y016545D01*
X019379Y016520D01*
X019358Y016496D01*
X019334Y016476D01*
X019308Y016458D01*
X019280Y016444D01*
X019250Y016434D01*
X019219Y016427D01*
X019188Y016424D01*
X019156Y016425D01*
X019125Y016430D01*
X019095Y016439D01*
X019066Y016451D01*
X019039Y016467D01*
X019013Y016486D01*
X018991Y016508D01*
X018971Y016532D01*
X018954Y016559D01*
X018941Y016588D01*
X018932Y016618D01*
X018926Y016649D01*
X018924Y016680D01*
X019924Y016680D02*
X019926Y016711D01*
X019932Y016742D01*
X019941Y016772D01*
X019954Y016801D01*
X019971Y016828D01*
X019991Y016852D01*
X020013Y016874D01*
X020039Y016893D01*
X020066Y016909D01*
X020095Y016921D01*
X020125Y016930D01*
X020156Y016935D01*
X020188Y016936D01*
X020219Y016933D01*
X020250Y016926D01*
X020280Y016916D01*
X020308Y016902D01*
X020334Y016884D01*
X020358Y016864D01*
X020379Y016840D01*
X020398Y016815D01*
X020413Y016787D01*
X020424Y016758D01*
X020432Y016727D01*
X020436Y016696D01*
X020436Y016664D01*
X020432Y016633D01*
X020424Y016602D01*
X020413Y016573D01*
X020398Y016545D01*
X020379Y016520D01*
X020358Y016496D01*
X020334Y016476D01*
X020308Y016458D01*
X020280Y016444D01*
X020250Y016434D01*
X020219Y016427D01*
X020188Y016424D01*
X020156Y016425D01*
X020125Y016430D01*
X020095Y016439D01*
X020066Y016451D01*
X020039Y016467D01*
X020013Y016486D01*
X019991Y016508D01*
X019971Y016532D01*
X019954Y016559D01*
X019941Y016588D01*
X019932Y016618D01*
X019926Y016649D01*
X019924Y016680D01*
X013924Y016680D02*
X013926Y016711D01*
X013932Y016742D01*
X013941Y016772D01*
X013954Y016801D01*
X013971Y016828D01*
X013991Y016852D01*
X014013Y016874D01*
X014039Y016893D01*
X014066Y016909D01*
X014095Y016921D01*
X014125Y016930D01*
X014156Y016935D01*
X014188Y016936D01*
X014219Y016933D01*
X014250Y016926D01*
X014280Y016916D01*
X014308Y016902D01*
X014334Y016884D01*
X014358Y016864D01*
X014379Y016840D01*
X014398Y016815D01*
X014413Y016787D01*
X014424Y016758D01*
X014432Y016727D01*
X014436Y016696D01*
X014436Y016664D01*
X014432Y016633D01*
X014424Y016602D01*
X014413Y016573D01*
X014398Y016545D01*
X014379Y016520D01*
X014358Y016496D01*
X014334Y016476D01*
X014308Y016458D01*
X014280Y016444D01*
X014250Y016434D01*
X014219Y016427D01*
X014188Y016424D01*
X014156Y016425D01*
X014125Y016430D01*
X014095Y016439D01*
X014066Y016451D01*
X014039Y016467D01*
X014013Y016486D01*
X013991Y016508D01*
X013971Y016532D01*
X013954Y016559D01*
X013941Y016588D01*
X013932Y016618D01*
X013926Y016649D01*
X013924Y016680D01*
X012924Y016680D02*
X012926Y016711D01*
X012932Y016742D01*
X012941Y016772D01*
X012954Y016801D01*
X012971Y016828D01*
X012991Y016852D01*
X013013Y016874D01*
X013039Y016893D01*
X013066Y016909D01*
X013095Y016921D01*
X013125Y016930D01*
X013156Y016935D01*
X013188Y016936D01*
X013219Y016933D01*
X013250Y016926D01*
X013280Y016916D01*
X013308Y016902D01*
X013334Y016884D01*
X013358Y016864D01*
X013379Y016840D01*
X013398Y016815D01*
X013413Y016787D01*
X013424Y016758D01*
X013432Y016727D01*
X013436Y016696D01*
X013436Y016664D01*
X013432Y016633D01*
X013424Y016602D01*
X013413Y016573D01*
X013398Y016545D01*
X013379Y016520D01*
X013358Y016496D01*
X013334Y016476D01*
X013308Y016458D01*
X013280Y016444D01*
X013250Y016434D01*
X013219Y016427D01*
X013188Y016424D01*
X013156Y016425D01*
X013125Y016430D01*
X013095Y016439D01*
X013066Y016451D01*
X013039Y016467D01*
X013013Y016486D01*
X012991Y016508D01*
X012971Y016532D01*
X012954Y016559D01*
X012941Y016588D01*
X012932Y016618D01*
X012926Y016649D01*
X012924Y016680D01*
X012924Y013680D02*
X012926Y013711D01*
X012932Y013742D01*
X012941Y013772D01*
X012954Y013801D01*
X012971Y013828D01*
X012991Y013852D01*
X013013Y013874D01*
X013039Y013893D01*
X013066Y013909D01*
X013095Y013921D01*
X013125Y013930D01*
X013156Y013935D01*
X013188Y013936D01*
X013219Y013933D01*
X013250Y013926D01*
X013280Y013916D01*
X013308Y013902D01*
X013334Y013884D01*
X013358Y013864D01*
X013379Y013840D01*
X013398Y013815D01*
X013413Y013787D01*
X013424Y013758D01*
X013432Y013727D01*
X013436Y013696D01*
X013436Y013664D01*
X013432Y013633D01*
X013424Y013602D01*
X013413Y013573D01*
X013398Y013545D01*
X013379Y013520D01*
X013358Y013496D01*
X013334Y013476D01*
X013308Y013458D01*
X013280Y013444D01*
X013250Y013434D01*
X013219Y013427D01*
X013188Y013424D01*
X013156Y013425D01*
X013125Y013430D01*
X013095Y013439D01*
X013066Y013451D01*
X013039Y013467D01*
X013013Y013486D01*
X012991Y013508D01*
X012971Y013532D01*
X012954Y013559D01*
X012941Y013588D01*
X012932Y013618D01*
X012926Y013649D01*
X012924Y013680D01*
X013924Y013680D02*
X013926Y013711D01*
X013932Y013742D01*
X013941Y013772D01*
X013954Y013801D01*
X013971Y013828D01*
X013991Y013852D01*
X014013Y013874D01*
X014039Y013893D01*
X014066Y013909D01*
X014095Y013921D01*
X014125Y013930D01*
X014156Y013935D01*
X014188Y013936D01*
X014219Y013933D01*
X014250Y013926D01*
X014280Y013916D01*
X014308Y013902D01*
X014334Y013884D01*
X014358Y013864D01*
X014379Y013840D01*
X014398Y013815D01*
X014413Y013787D01*
X014424Y013758D01*
X014432Y013727D01*
X014436Y013696D01*
X014436Y013664D01*
X014432Y013633D01*
X014424Y013602D01*
X014413Y013573D01*
X014398Y013545D01*
X014379Y013520D01*
X014358Y013496D01*
X014334Y013476D01*
X014308Y013458D01*
X014280Y013444D01*
X014250Y013434D01*
X014219Y013427D01*
X014188Y013424D01*
X014156Y013425D01*
X014125Y013430D01*
X014095Y013439D01*
X014066Y013451D01*
X014039Y013467D01*
X014013Y013486D01*
X013991Y013508D01*
X013971Y013532D01*
X013954Y013559D01*
X013941Y013588D01*
X013932Y013618D01*
X013926Y013649D01*
X013924Y013680D01*
X007924Y013680D02*
X007926Y013711D01*
X007932Y013742D01*
X007941Y013772D01*
X007954Y013801D01*
X007971Y013828D01*
X007991Y013852D01*
X008013Y013874D01*
X008039Y013893D01*
X008066Y013909D01*
X008095Y013921D01*
X008125Y013930D01*
X008156Y013935D01*
X008188Y013936D01*
X008219Y013933D01*
X008250Y013926D01*
X008280Y013916D01*
X008308Y013902D01*
X008334Y013884D01*
X008358Y013864D01*
X008379Y013840D01*
X008398Y013815D01*
X008413Y013787D01*
X008424Y013758D01*
X008432Y013727D01*
X008436Y013696D01*
X008436Y013664D01*
X008432Y013633D01*
X008424Y013602D01*
X008413Y013573D01*
X008398Y013545D01*
X008379Y013520D01*
X008358Y013496D01*
X008334Y013476D01*
X008308Y013458D01*
X008280Y013444D01*
X008250Y013434D01*
X008219Y013427D01*
X008188Y013424D01*
X008156Y013425D01*
X008125Y013430D01*
X008095Y013439D01*
X008066Y013451D01*
X008039Y013467D01*
X008013Y013486D01*
X007991Y013508D01*
X007971Y013532D01*
X007954Y013559D01*
X007941Y013588D01*
X007932Y013618D01*
X007926Y013649D01*
X007924Y013680D01*
X007924Y016680D02*
X007926Y016711D01*
X007932Y016742D01*
X007941Y016772D01*
X007954Y016801D01*
X007971Y016828D01*
X007991Y016852D01*
X008013Y016874D01*
X008039Y016893D01*
X008066Y016909D01*
X008095Y016921D01*
X008125Y016930D01*
X008156Y016935D01*
X008188Y016936D01*
X008219Y016933D01*
X008250Y016926D01*
X008280Y016916D01*
X008308Y016902D01*
X008334Y016884D01*
X008358Y016864D01*
X008379Y016840D01*
X008398Y016815D01*
X008413Y016787D01*
X008424Y016758D01*
X008432Y016727D01*
X008436Y016696D01*
X008436Y016664D01*
X008432Y016633D01*
X008424Y016602D01*
X008413Y016573D01*
X008398Y016545D01*
X008379Y016520D01*
X008358Y016496D01*
X008334Y016476D01*
X008308Y016458D01*
X008280Y016444D01*
X008250Y016434D01*
X008219Y016427D01*
X008188Y016424D01*
X008156Y016425D01*
X008125Y016430D01*
X008095Y016439D01*
X008066Y016451D01*
X008039Y016467D01*
X008013Y016486D01*
X007991Y016508D01*
X007971Y016532D01*
X007954Y016559D01*
X007941Y016588D01*
X007932Y016618D01*
X007926Y016649D01*
X007924Y016680D01*
X007924Y021680D02*
X007926Y021711D01*
X007932Y021742D01*
X007941Y021772D01*
X007954Y021801D01*
X007971Y021828D01*
X007991Y021852D01*
X008013Y021874D01*
X008039Y021893D01*
X008066Y021909D01*
X008095Y021921D01*
X008125Y021930D01*
X008156Y021935D01*
X008188Y021936D01*
X008219Y021933D01*
X008250Y021926D01*
X008280Y021916D01*
X008308Y021902D01*
X008334Y021884D01*
X008358Y021864D01*
X008379Y021840D01*
X008398Y021815D01*
X008413Y021787D01*
X008424Y021758D01*
X008432Y021727D01*
X008436Y021696D01*
X008436Y021664D01*
X008432Y021633D01*
X008424Y021602D01*
X008413Y021573D01*
X008398Y021545D01*
X008379Y021520D01*
X008358Y021496D01*
X008334Y021476D01*
X008308Y021458D01*
X008280Y021444D01*
X008250Y021434D01*
X008219Y021427D01*
X008188Y021424D01*
X008156Y021425D01*
X008125Y021430D01*
X008095Y021439D01*
X008066Y021451D01*
X008039Y021467D01*
X008013Y021486D01*
X007991Y021508D01*
X007971Y021532D01*
X007954Y021559D01*
X007941Y021588D01*
X007932Y021618D01*
X007926Y021649D01*
X007924Y021680D01*
X012924Y021680D02*
X012926Y021711D01*
X012932Y021742D01*
X012941Y021772D01*
X012954Y021801D01*
X012971Y021828D01*
X012991Y021852D01*
X013013Y021874D01*
X013039Y021893D01*
X013066Y021909D01*
X013095Y021921D01*
X013125Y021930D01*
X013156Y021935D01*
X013188Y021936D01*
X013219Y021933D01*
X013250Y021926D01*
X013280Y021916D01*
X013308Y021902D01*
X013334Y021884D01*
X013358Y021864D01*
X013379Y021840D01*
X013398Y021815D01*
X013413Y021787D01*
X013424Y021758D01*
X013432Y021727D01*
X013436Y021696D01*
X013436Y021664D01*
X013432Y021633D01*
X013424Y021602D01*
X013413Y021573D01*
X013398Y021545D01*
X013379Y021520D01*
X013358Y021496D01*
X013334Y021476D01*
X013308Y021458D01*
X013280Y021444D01*
X013250Y021434D01*
X013219Y021427D01*
X013188Y021424D01*
X013156Y021425D01*
X013125Y021430D01*
X013095Y021439D01*
X013066Y021451D01*
X013039Y021467D01*
X013013Y021486D01*
X012991Y021508D01*
X012971Y021532D01*
X012954Y021559D01*
X012941Y021588D01*
X012932Y021618D01*
X012926Y021649D01*
X012924Y021680D01*
X013924Y021680D02*
X013926Y021711D01*
X013932Y021742D01*
X013941Y021772D01*
X013954Y021801D01*
X013971Y021828D01*
X013991Y021852D01*
X014013Y021874D01*
X014039Y021893D01*
X014066Y021909D01*
X014095Y021921D01*
X014125Y021930D01*
X014156Y021935D01*
X014188Y021936D01*
X014219Y021933D01*
X014250Y021926D01*
X014280Y021916D01*
X014308Y021902D01*
X014334Y021884D01*
X014358Y021864D01*
X014379Y021840D01*
X014398Y021815D01*
X014413Y021787D01*
X014424Y021758D01*
X014432Y021727D01*
X014436Y021696D01*
X014436Y021664D01*
X014432Y021633D01*
X014424Y021602D01*
X014413Y021573D01*
X014398Y021545D01*
X014379Y021520D01*
X014358Y021496D01*
X014334Y021476D01*
X014308Y021458D01*
X014280Y021444D01*
X014250Y021434D01*
X014219Y021427D01*
X014188Y021424D01*
X014156Y021425D01*
X014125Y021430D01*
X014095Y021439D01*
X014066Y021451D01*
X014039Y021467D01*
X014013Y021486D01*
X013991Y021508D01*
X013971Y021532D01*
X013954Y021559D01*
X013941Y021588D01*
X013932Y021618D01*
X013926Y021649D01*
X013924Y021680D01*
X018924Y021680D02*
X018926Y021711D01*
X018932Y021742D01*
X018941Y021772D01*
X018954Y021801D01*
X018971Y021828D01*
X018991Y021852D01*
X019013Y021874D01*
X019039Y021893D01*
X019066Y021909D01*
X019095Y021921D01*
X019125Y021930D01*
X019156Y021935D01*
X019188Y021936D01*
X019219Y021933D01*
X019250Y021926D01*
X019280Y021916D01*
X019308Y021902D01*
X019334Y021884D01*
X019358Y021864D01*
X019379Y021840D01*
X019398Y021815D01*
X019413Y021787D01*
X019424Y021758D01*
X019432Y021727D01*
X019436Y021696D01*
X019436Y021664D01*
X019432Y021633D01*
X019424Y021602D01*
X019413Y021573D01*
X019398Y021545D01*
X019379Y021520D01*
X019358Y021496D01*
X019334Y021476D01*
X019308Y021458D01*
X019280Y021444D01*
X019250Y021434D01*
X019219Y021427D01*
X019188Y021424D01*
X019156Y021425D01*
X019125Y021430D01*
X019095Y021439D01*
X019066Y021451D01*
X019039Y021467D01*
X019013Y021486D01*
X018991Y021508D01*
X018971Y021532D01*
X018954Y021559D01*
X018941Y021588D01*
X018932Y021618D01*
X018926Y021649D01*
X018924Y021680D01*
X019924Y021680D02*
X019926Y021711D01*
X019932Y021742D01*
X019941Y021772D01*
X019954Y021801D01*
X019971Y021828D01*
X019991Y021852D01*
X020013Y021874D01*
X020039Y021893D01*
X020066Y021909D01*
X020095Y021921D01*
X020125Y021930D01*
X020156Y021935D01*
X020188Y021936D01*
X020219Y021933D01*
X020250Y021926D01*
X020280Y021916D01*
X020308Y021902D01*
X020334Y021884D01*
X020358Y021864D01*
X020379Y021840D01*
X020398Y021815D01*
X020413Y021787D01*
X020424Y021758D01*
X020432Y021727D01*
X020436Y021696D01*
X020436Y021664D01*
X020432Y021633D01*
X020424Y021602D01*
X020413Y021573D01*
X020398Y021545D01*
X020379Y021520D01*
X020358Y021496D01*
X020334Y021476D01*
X020308Y021458D01*
X020280Y021444D01*
X020250Y021434D01*
X020219Y021427D01*
X020188Y021424D01*
X020156Y021425D01*
X020125Y021430D01*
X020095Y021439D01*
X020066Y021451D01*
X020039Y021467D01*
X020013Y021486D01*
X019991Y021508D01*
X019971Y021532D01*
X019954Y021559D01*
X019941Y021588D01*
X019932Y021618D01*
X019926Y021649D01*
X019924Y021680D01*
X024924Y021680D02*
X024926Y021711D01*
X024932Y021742D01*
X024941Y021772D01*
X024954Y021801D01*
X024971Y021828D01*
X024991Y021852D01*
X025013Y021874D01*
X025039Y021893D01*
X025066Y021909D01*
X025095Y021921D01*
X025125Y021930D01*
X025156Y021935D01*
X025188Y021936D01*
X025219Y021933D01*
X025250Y021926D01*
X025280Y021916D01*
X025308Y021902D01*
X025334Y021884D01*
X025358Y021864D01*
X025379Y021840D01*
X025398Y021815D01*
X025413Y021787D01*
X025424Y021758D01*
X025432Y021727D01*
X025436Y021696D01*
X025436Y021664D01*
X025432Y021633D01*
X025424Y021602D01*
X025413Y021573D01*
X025398Y021545D01*
X025379Y021520D01*
X025358Y021496D01*
X025334Y021476D01*
X025308Y021458D01*
X025280Y021444D01*
X025250Y021434D01*
X025219Y021427D01*
X025188Y021424D01*
X025156Y021425D01*
X025125Y021430D01*
X025095Y021439D01*
X025066Y021451D01*
X025039Y021467D01*
X025013Y021486D01*
X024991Y021508D01*
X024971Y021532D01*
X024954Y021559D01*
X024941Y021588D01*
X024932Y021618D01*
X024926Y021649D01*
X024924Y021680D01*
X028924Y021680D02*
X028926Y021711D01*
X028932Y021742D01*
X028941Y021772D01*
X028954Y021801D01*
X028971Y021828D01*
X028991Y021852D01*
X029013Y021874D01*
X029039Y021893D01*
X029066Y021909D01*
X029095Y021921D01*
X029125Y021930D01*
X029156Y021935D01*
X029188Y021936D01*
X029219Y021933D01*
X029250Y021926D01*
X029280Y021916D01*
X029308Y021902D01*
X029334Y021884D01*
X029358Y021864D01*
X029379Y021840D01*
X029398Y021815D01*
X029413Y021787D01*
X029424Y021758D01*
X029432Y021727D01*
X029436Y021696D01*
X029436Y021664D01*
X029432Y021633D01*
X029424Y021602D01*
X029413Y021573D01*
X029398Y021545D01*
X029379Y021520D01*
X029358Y021496D01*
X029334Y021476D01*
X029308Y021458D01*
X029280Y021444D01*
X029250Y021434D01*
X029219Y021427D01*
X029188Y021424D01*
X029156Y021425D01*
X029125Y021430D01*
X029095Y021439D01*
X029066Y021451D01*
X029039Y021467D01*
X029013Y021486D01*
X028991Y021508D01*
X028971Y021532D01*
X028954Y021559D01*
X028941Y021588D01*
X028932Y021618D01*
X028926Y021649D01*
X028924Y021680D01*
X033924Y021680D02*
X033926Y021711D01*
X033932Y021742D01*
X033941Y021772D01*
X033954Y021801D01*
X033971Y021828D01*
X033991Y021852D01*
X034013Y021874D01*
X034039Y021893D01*
X034066Y021909D01*
X034095Y021921D01*
X034125Y021930D01*
X034156Y021935D01*
X034188Y021936D01*
X034219Y021933D01*
X034250Y021926D01*
X034280Y021916D01*
X034308Y021902D01*
X034334Y021884D01*
X034358Y021864D01*
X034379Y021840D01*
X034398Y021815D01*
X034413Y021787D01*
X034424Y021758D01*
X034432Y021727D01*
X034436Y021696D01*
X034436Y021664D01*
X034432Y021633D01*
X034424Y021602D01*
X034413Y021573D01*
X034398Y021545D01*
X034379Y021520D01*
X034358Y021496D01*
X034334Y021476D01*
X034308Y021458D01*
X034280Y021444D01*
X034250Y021434D01*
X034219Y021427D01*
X034188Y021424D01*
X034156Y021425D01*
X034125Y021430D01*
X034095Y021439D01*
X034066Y021451D01*
X034039Y021467D01*
X034013Y021486D01*
X033991Y021508D01*
X033971Y021532D01*
X033954Y021559D01*
X033941Y021588D01*
X033932Y021618D01*
X033926Y021649D01*
X033924Y021680D01*
X033050Y027180D02*
X033052Y027230D01*
X033058Y027280D01*
X033068Y027329D01*
X033082Y027377D01*
X033099Y027424D01*
X033120Y027469D01*
X033145Y027513D01*
X033173Y027554D01*
X033205Y027593D01*
X033239Y027630D01*
X033276Y027664D01*
X033316Y027694D01*
X033358Y027721D01*
X033402Y027745D01*
X033448Y027766D01*
X033495Y027782D01*
X033543Y027795D01*
X033593Y027804D01*
X033642Y027809D01*
X033693Y027810D01*
X033743Y027807D01*
X033792Y027800D01*
X033841Y027789D01*
X033889Y027774D01*
X033935Y027756D01*
X033980Y027734D01*
X034023Y027708D01*
X034064Y027679D01*
X034103Y027647D01*
X034139Y027612D01*
X034171Y027574D01*
X034201Y027534D01*
X034228Y027491D01*
X034251Y027447D01*
X034270Y027401D01*
X034286Y027353D01*
X034298Y027304D01*
X034306Y027255D01*
X034310Y027205D01*
X034310Y027155D01*
X034306Y027105D01*
X034298Y027056D01*
X034286Y027007D01*
X034270Y026959D01*
X034251Y026913D01*
X034228Y026869D01*
X034201Y026826D01*
X034171Y026786D01*
X034139Y026748D01*
X034103Y026713D01*
X034064Y026681D01*
X034023Y026652D01*
X033980Y026626D01*
X033935Y026604D01*
X033889Y026586D01*
X033841Y026571D01*
X033792Y026560D01*
X033743Y026553D01*
X033693Y026550D01*
X033642Y026551D01*
X033593Y026556D01*
X033543Y026565D01*
X033495Y026578D01*
X033448Y026594D01*
X033402Y026615D01*
X033358Y026639D01*
X033316Y026666D01*
X033276Y026696D01*
X033239Y026730D01*
X033205Y026767D01*
X033173Y026806D01*
X033145Y026847D01*
X033120Y026891D01*
X033099Y026936D01*
X033082Y026983D01*
X033068Y027031D01*
X033058Y027080D01*
X033052Y027130D01*
X033050Y027180D01*
X004050Y027180D02*
X004052Y027230D01*
X004058Y027280D01*
X004068Y027329D01*
X004082Y027377D01*
X004099Y027424D01*
X004120Y027469D01*
X004145Y027513D01*
X004173Y027554D01*
X004205Y027593D01*
X004239Y027630D01*
X004276Y027664D01*
X004316Y027694D01*
X004358Y027721D01*
X004402Y027745D01*
X004448Y027766D01*
X004495Y027782D01*
X004543Y027795D01*
X004593Y027804D01*
X004642Y027809D01*
X004693Y027810D01*
X004743Y027807D01*
X004792Y027800D01*
X004841Y027789D01*
X004889Y027774D01*
X004935Y027756D01*
X004980Y027734D01*
X005023Y027708D01*
X005064Y027679D01*
X005103Y027647D01*
X005139Y027612D01*
X005171Y027574D01*
X005201Y027534D01*
X005228Y027491D01*
X005251Y027447D01*
X005270Y027401D01*
X005286Y027353D01*
X005298Y027304D01*
X005306Y027255D01*
X005310Y027205D01*
X005310Y027155D01*
X005306Y027105D01*
X005298Y027056D01*
X005286Y027007D01*
X005270Y026959D01*
X005251Y026913D01*
X005228Y026869D01*
X005201Y026826D01*
X005171Y026786D01*
X005139Y026748D01*
X005103Y026713D01*
X005064Y026681D01*
X005023Y026652D01*
X004980Y026626D01*
X004935Y026604D01*
X004889Y026586D01*
X004841Y026571D01*
X004792Y026560D01*
X004743Y026553D01*
X004693Y026550D01*
X004642Y026551D01*
X004593Y026556D01*
X004543Y026565D01*
X004495Y026578D01*
X004448Y026594D01*
X004402Y026615D01*
X004358Y026639D01*
X004316Y026666D01*
X004276Y026696D01*
X004239Y026730D01*
X004205Y026767D01*
X004173Y026806D01*
X004145Y026847D01*
X004120Y026891D01*
X004099Y026936D01*
X004082Y026983D01*
X004068Y027031D01*
X004058Y027080D01*
X004052Y027130D01*
X004050Y027180D01*
X033050Y003180D02*
X033052Y003230D01*
X033058Y003280D01*
X033068Y003329D01*
X033082Y003377D01*
X033099Y003424D01*
X033120Y003469D01*
X033145Y003513D01*
X033173Y003554D01*
X033205Y003593D01*
X033239Y003630D01*
X033276Y003664D01*
X033316Y003694D01*
X033358Y003721D01*
X033402Y003745D01*
X033448Y003766D01*
X033495Y003782D01*
X033543Y003795D01*
X033593Y003804D01*
X033642Y003809D01*
X033693Y003810D01*
X033743Y003807D01*
X033792Y003800D01*
X033841Y003789D01*
X033889Y003774D01*
X033935Y003756D01*
X033980Y003734D01*
X034023Y003708D01*
X034064Y003679D01*
X034103Y003647D01*
X034139Y003612D01*
X034171Y003574D01*
X034201Y003534D01*
X034228Y003491D01*
X034251Y003447D01*
X034270Y003401D01*
X034286Y003353D01*
X034298Y003304D01*
X034306Y003255D01*
X034310Y003205D01*
X034310Y003155D01*
X034306Y003105D01*
X034298Y003056D01*
X034286Y003007D01*
X034270Y002959D01*
X034251Y002913D01*
X034228Y002869D01*
X034201Y002826D01*
X034171Y002786D01*
X034139Y002748D01*
X034103Y002713D01*
X034064Y002681D01*
X034023Y002652D01*
X033980Y002626D01*
X033935Y002604D01*
X033889Y002586D01*
X033841Y002571D01*
X033792Y002560D01*
X033743Y002553D01*
X033693Y002550D01*
X033642Y002551D01*
X033593Y002556D01*
X033543Y002565D01*
X033495Y002578D01*
X033448Y002594D01*
X033402Y002615D01*
X033358Y002639D01*
X033316Y002666D01*
X033276Y002696D01*
X033239Y002730D01*
X033205Y002767D01*
X033173Y002806D01*
X033145Y002847D01*
X033120Y002891D01*
X033099Y002936D01*
X033082Y002983D01*
X033068Y003031D01*
X033058Y003080D01*
X033052Y003130D01*
X033050Y003180D01*
D11*
X032870Y003192D02*
X032190Y003192D01*
X032190Y003094D02*
X032112Y002907D01*
X031969Y002763D01*
X031781Y002686D01*
X031579Y002686D01*
X031391Y002763D01*
X031248Y002907D01*
X031170Y003094D01*
X031170Y003297D01*
X031211Y003397D01*
X031160Y003449D01*
X031160Y004232D01*
X031160Y004233D01*
X031120Y004328D01*
X031120Y004432D01*
X031160Y004527D01*
X031233Y004600D01*
X031328Y004640D01*
X031432Y004640D01*
X031527Y004600D01*
X031600Y004527D01*
X031640Y004432D01*
X031640Y004328D01*
X031600Y004233D01*
X031600Y004232D01*
X031600Y003706D01*
X031781Y003706D01*
X031969Y003628D01*
X032112Y003485D01*
X032190Y003297D01*
X032190Y003094D01*
X032165Y003033D02*
X032870Y003033D01*
X032870Y003019D02*
X032993Y002721D01*
X033221Y002493D01*
X033519Y002370D01*
X033841Y002370D01*
X034139Y002493D01*
X034367Y002721D01*
X034490Y003019D01*
X034490Y003341D01*
X034367Y003639D01*
X034139Y003867D01*
X033841Y003990D01*
X033519Y003990D01*
X033221Y003867D01*
X032993Y003639D01*
X032870Y003341D01*
X032870Y003019D01*
X032930Y002875D02*
X032080Y002875D01*
X031854Y002716D02*
X032999Y002716D01*
X033157Y002558D02*
X030900Y002558D01*
X030900Y002716D02*
X031506Y002716D01*
X031280Y002875D02*
X030900Y002875D01*
X030900Y003033D02*
X031195Y003033D01*
X031170Y003192D02*
X030900Y003192D01*
X030900Y003350D02*
X031192Y003350D01*
X031160Y003509D02*
X030900Y003509D01*
X030900Y003667D02*
X031160Y003667D01*
X031160Y003826D02*
X030900Y003826D01*
X030900Y003984D02*
X031160Y003984D01*
X031160Y004143D02*
X030953Y004143D01*
X030940Y004113D02*
X030980Y004208D01*
X030980Y004312D01*
X030940Y004407D01*
X030938Y004410D01*
X030940Y004413D01*
X030980Y004508D01*
X030980Y004612D01*
X030940Y004707D01*
X030867Y004780D01*
X030840Y004792D01*
X030840Y009735D01*
X030020Y010555D01*
X030020Y010612D01*
X029980Y010707D01*
X029907Y010780D01*
X029884Y010790D01*
X030595Y011500D01*
X030652Y011500D01*
X030747Y011540D01*
X030820Y011613D01*
X030860Y011708D01*
X030860Y011729D01*
X031222Y011367D01*
X031186Y011278D01*
X031186Y011082D01*
X031261Y010900D01*
X031400Y010761D01*
X031582Y010686D01*
X031778Y010686D01*
X031960Y010761D01*
X032099Y010900D01*
X032174Y011082D01*
X032174Y011278D01*
X032099Y011460D01*
X031960Y011599D01*
X031778Y011674D01*
X031582Y011674D01*
X031550Y011661D01*
X031486Y011725D01*
X031582Y011686D01*
X031778Y011686D01*
X031960Y011761D01*
X032099Y011900D01*
X032174Y012082D01*
X032174Y012278D01*
X032099Y012460D01*
X031960Y012599D01*
X031778Y012674D01*
X031582Y012674D01*
X031400Y012599D01*
X031261Y012460D01*
X031186Y012278D01*
X031186Y012082D01*
X031225Y011986D01*
X030700Y012511D01*
X030700Y017191D01*
X030375Y017516D01*
X030403Y017582D01*
X030403Y017778D01*
X030327Y017960D01*
X030188Y018099D01*
X030007Y018174D01*
X029810Y018174D01*
X029628Y018099D01*
X029580Y018051D01*
X029580Y020309D01*
X029628Y020261D01*
X029810Y020186D01*
X030007Y020186D01*
X030188Y020261D01*
X030327Y020400D01*
X030403Y020582D01*
X030403Y020778D01*
X030327Y020960D01*
X030188Y021099D01*
X030060Y021152D01*
X030060Y024795D01*
X029955Y024900D01*
X029955Y024900D01*
X028580Y026275D01*
X028580Y026332D01*
X028568Y026360D01*
X030920Y026360D01*
X030920Y019649D01*
X031049Y019520D01*
X031216Y019352D01*
X031186Y019278D01*
X031186Y019082D01*
X031261Y018900D01*
X031400Y018761D01*
X031582Y018686D01*
X031778Y018686D01*
X031960Y018761D01*
X032099Y018900D01*
X032174Y019082D01*
X032174Y019278D01*
X032099Y019460D01*
X031960Y019599D01*
X031778Y019674D01*
X031582Y019674D01*
X031536Y019655D01*
X031452Y019740D01*
X031582Y019686D01*
X031778Y019686D01*
X031960Y019761D01*
X032099Y019900D01*
X032174Y020082D01*
X032174Y020278D01*
X032099Y020460D01*
X031960Y020599D01*
X031778Y020674D01*
X031582Y020674D01*
X031400Y020599D01*
X031360Y020559D01*
X031360Y026360D01*
X031940Y026360D01*
X031940Y026117D01*
X031891Y026097D01*
X031748Y025953D01*
X031670Y025766D01*
X031670Y025563D01*
X031748Y025375D01*
X031891Y025232D01*
X032040Y025170D01*
X032040Y024190D01*
X031891Y024128D01*
X031748Y023985D01*
X031670Y023797D01*
X031670Y023594D01*
X031748Y023407D01*
X031891Y023263D01*
X032079Y023186D01*
X032281Y023186D01*
X032469Y023263D01*
X032612Y023407D01*
X032690Y023594D01*
X032690Y023797D01*
X032612Y023985D01*
X032469Y024128D01*
X032400Y024157D01*
X032400Y024960D01*
X035219Y024960D01*
X035248Y024891D01*
X035391Y024748D01*
X035504Y024701D01*
X035469Y024690D01*
X035392Y024650D01*
X035322Y024600D01*
X035260Y024538D01*
X035210Y024468D01*
X035170Y024391D01*
X035144Y024309D01*
X035130Y024223D01*
X035130Y024200D01*
X035660Y024200D01*
X035660Y024160D01*
X035130Y024160D01*
X035130Y024137D01*
X035144Y024051D01*
X035170Y023969D01*
X035210Y023892D01*
X035260Y023822D01*
X035322Y023760D01*
X035364Y023730D01*
X035286Y023730D01*
X035241Y023718D01*
X035199Y023694D01*
X035166Y023661D01*
X035142Y023619D01*
X035130Y023574D01*
X035130Y023200D01*
X035660Y023200D01*
X035660Y024160D01*
X035700Y024160D01*
X035700Y024200D01*
X036230Y024200D01*
X036230Y024223D01*
X036216Y024309D01*
X036190Y024391D01*
X036150Y024468D01*
X036100Y024538D01*
X036038Y024600D01*
X035968Y024650D01*
X035891Y024690D01*
X035856Y024701D01*
X035969Y024748D01*
X036112Y024891D01*
X036166Y025020D01*
X036780Y025020D01*
X036780Y000360D01*
X000360Y000360D01*
X000360Y016000D01*
X003607Y016000D01*
X003607Y015172D01*
X003689Y015090D01*
X003967Y015090D01*
X003828Y015032D01*
X003685Y014889D01*
X003607Y014701D01*
X003607Y014499D01*
X003685Y014311D01*
X003828Y014168D01*
X003991Y014100D01*
X003828Y014032D01*
X003685Y013889D01*
X003607Y013701D01*
X003607Y013499D01*
X003685Y013311D01*
X003828Y013168D01*
X003991Y013100D01*
X003828Y013032D01*
X003685Y012889D01*
X003607Y012701D01*
X003607Y012499D01*
X003685Y012311D01*
X003828Y012168D01*
X003991Y012100D01*
X003828Y012032D01*
X003685Y011889D01*
X003607Y011701D01*
X003607Y011499D01*
X003685Y011311D01*
X003828Y011168D01*
X003991Y011100D01*
X003828Y011032D01*
X003685Y010889D01*
X003607Y010701D01*
X003607Y010499D01*
X003685Y010311D01*
X003828Y010168D01*
X004016Y010090D01*
X004218Y010090D01*
X004406Y010168D01*
X004549Y010311D01*
X004627Y010499D01*
X004627Y010701D01*
X004549Y010889D01*
X004406Y011032D01*
X004243Y011100D01*
X004406Y011168D01*
X004549Y011311D01*
X004627Y011499D01*
X004627Y011701D01*
X004549Y011889D01*
X004406Y012032D01*
X004243Y012100D01*
X004406Y012168D01*
X004549Y012311D01*
X004627Y012499D01*
X004627Y012701D01*
X004589Y012794D01*
X007035Y015240D01*
X007140Y015345D01*
X007140Y015412D01*
X007180Y015453D01*
X007220Y015548D01*
X007220Y015652D01*
X007217Y015660D01*
X007815Y015660D01*
X007920Y015765D01*
X007920Y016324D01*
X007933Y016310D01*
X008093Y016244D01*
X008267Y016244D01*
X008427Y016310D01*
X008550Y016433D01*
X008616Y016593D01*
X008616Y016767D01*
X008550Y016927D01*
X008427Y017050D01*
X008267Y017116D01*
X008093Y017116D01*
X007933Y017050D01*
X007920Y017036D01*
X007920Y017865D01*
X010186Y020131D01*
X010186Y020082D01*
X010261Y019900D01*
X010400Y019761D01*
X010582Y019686D01*
X010778Y019686D01*
X010864Y019721D01*
X011040Y019545D01*
X011040Y019519D01*
X010960Y019599D01*
X010778Y019674D01*
X010582Y019674D01*
X010400Y019599D01*
X010261Y019460D01*
X010186Y019278D01*
X010186Y019082D01*
X010261Y018900D01*
X010400Y018761D01*
X010582Y018686D01*
X010778Y018686D01*
X010960Y018761D01*
X011040Y018841D01*
X011040Y018519D01*
X010960Y018599D01*
X010778Y018674D01*
X010582Y018674D01*
X010400Y018599D01*
X010261Y018460D01*
X010186Y018278D01*
X010186Y018082D01*
X010261Y017900D01*
X010400Y017761D01*
X010500Y017719D01*
X010500Y016215D01*
X009986Y015700D01*
X009907Y015779D01*
X009760Y015840D01*
X009600Y015840D01*
X009453Y015779D01*
X009341Y015667D01*
X009280Y015520D01*
X009280Y014840D01*
X009341Y014693D01*
X009453Y014581D01*
X009600Y014520D01*
X009760Y014520D01*
X009907Y014581D01*
X010019Y014693D01*
X010080Y014840D01*
X010080Y015285D01*
X010280Y015485D01*
X010280Y014840D01*
X010341Y014693D01*
X010453Y014581D01*
X010600Y014520D01*
X010760Y014520D01*
X010907Y014581D01*
X011019Y014693D01*
X011080Y014840D01*
X011080Y015485D01*
X011145Y015420D01*
X011280Y015285D01*
X011280Y014840D01*
X011341Y014693D01*
X011453Y014581D01*
X011576Y014530D01*
X009945Y012900D01*
X009352Y012900D01*
X009327Y012960D01*
X009188Y013099D01*
X009007Y013174D01*
X008810Y013174D01*
X008628Y013099D01*
X008489Y012960D01*
X008414Y012778D01*
X008414Y012582D01*
X008489Y012400D01*
X008628Y012261D01*
X008810Y012186D01*
X009007Y012186D01*
X009188Y012261D01*
X009327Y012400D01*
X009385Y012540D01*
X010095Y012540D01*
X010200Y012645D01*
X012240Y014685D01*
X012240Y016425D01*
X015240Y019425D01*
X015240Y018047D01*
X015188Y018099D01*
X015007Y018174D01*
X014840Y018174D01*
X014840Y018232D01*
X014800Y018327D01*
X014727Y018400D01*
X014632Y018440D01*
X014528Y018440D01*
X014433Y018400D01*
X014360Y018327D01*
X014320Y018232D01*
X014320Y018175D01*
X013560Y017415D01*
X013560Y016902D01*
X013550Y016927D01*
X013427Y017050D01*
X013267Y017116D01*
X013093Y017116D01*
X012933Y017050D01*
X012810Y016927D01*
X012744Y016767D01*
X012744Y016593D01*
X012810Y016433D01*
X012933Y016310D01*
X013093Y016244D01*
X013267Y016244D01*
X013427Y016310D01*
X013550Y016433D01*
X013560Y016458D01*
X013560Y015823D01*
X013453Y015779D01*
X013341Y015667D01*
X013280Y015520D01*
X013280Y014840D01*
X013341Y014693D01*
X013453Y014581D01*
X013600Y014520D01*
X013725Y014520D01*
X013560Y014355D01*
X013560Y013902D01*
X013550Y013927D01*
X013427Y014050D01*
X013267Y014116D01*
X013093Y014116D01*
X012933Y014050D01*
X012900Y014016D01*
X012900Y014578D01*
X012907Y014581D01*
X013019Y014693D01*
X013080Y014840D01*
X013080Y015520D01*
X013019Y015667D01*
X012907Y015779D01*
X012760Y015840D01*
X012600Y015840D01*
X012453Y015779D01*
X012341Y015667D01*
X012280Y015520D01*
X012280Y014840D01*
X012341Y014693D01*
X012453Y014581D01*
X012540Y014545D01*
X012540Y014357D01*
X012532Y014360D01*
X012428Y014360D01*
X012333Y014320D01*
X012260Y014247D01*
X012220Y014152D01*
X012220Y014095D01*
X011145Y013020D01*
X011040Y012915D01*
X011040Y012519D01*
X010960Y012599D01*
X010778Y012674D01*
X010582Y012674D01*
X010400Y012599D01*
X010261Y012460D01*
X010186Y012278D01*
X010186Y012082D01*
X010261Y011900D01*
X010400Y011761D01*
X010582Y011686D01*
X010778Y011686D01*
X010960Y011761D01*
X011040Y011841D01*
X011040Y011519D01*
X010960Y011599D01*
X010778Y011674D01*
X010582Y011674D01*
X010400Y011599D01*
X010261Y011460D01*
X010186Y011278D01*
X010186Y011082D01*
X010261Y010900D01*
X010400Y010761D01*
X010582Y010686D01*
X010778Y010686D01*
X010960Y010761D01*
X011040Y010841D01*
X011040Y010815D01*
X010864Y010639D01*
X010778Y010674D01*
X010582Y010674D01*
X010400Y010599D01*
X010261Y010460D01*
X010186Y010278D01*
X010186Y010082D01*
X010261Y009900D01*
X010400Y009761D01*
X010582Y009686D01*
X010778Y009686D01*
X010960Y009761D01*
X011099Y009900D01*
X011174Y010082D01*
X011174Y010278D01*
X011127Y010392D01*
X011400Y010665D01*
X011400Y012765D01*
X012475Y013840D01*
X012532Y013840D01*
X012540Y013843D01*
X012540Y008385D01*
X012645Y008280D01*
X012700Y008225D01*
X012700Y008168D01*
X012740Y008073D01*
X012813Y008000D01*
X012900Y007963D01*
X012900Y006081D01*
X012869Y006112D01*
X012681Y006190D01*
X012479Y006190D01*
X012291Y006112D01*
X012148Y005969D01*
X012070Y005781D01*
X012070Y005579D01*
X012148Y005391D01*
X012291Y005248D01*
X012479Y005170D01*
X012681Y005170D01*
X012869Y005248D01*
X012900Y005279D01*
X012900Y002025D01*
X013005Y001920D01*
X028215Y001920D01*
X028320Y002025D01*
X029460Y003165D01*
X029460Y003645D01*
X029515Y003700D01*
X029572Y003700D01*
X029667Y003740D01*
X029740Y003813D01*
X029780Y003908D01*
X029780Y004012D01*
X029740Y004107D01*
X029667Y004180D01*
X029572Y004220D01*
X029468Y004220D01*
X029373Y004180D01*
X029300Y004107D01*
X029260Y004012D01*
X029260Y003955D01*
X029205Y003900D01*
X029144Y003838D01*
X029092Y003860D01*
X028988Y003860D01*
X028893Y003820D01*
X028820Y003747D01*
X028780Y003652D01*
X028780Y003595D01*
X028670Y003484D01*
X028660Y003507D01*
X028587Y003580D01*
X028492Y003620D01*
X028388Y003620D01*
X028293Y003580D01*
X028252Y003540D01*
X027557Y003540D01*
X027560Y003548D01*
X027560Y003580D01*
X027592Y003580D01*
X027687Y003620D01*
X027760Y003693D01*
X027800Y003788D01*
X027800Y003892D01*
X027776Y003949D01*
X027820Y003993D01*
X027860Y004088D01*
X027860Y004145D01*
X028815Y005100D01*
X028920Y005205D01*
X028920Y008324D01*
X028933Y008310D01*
X029093Y008244D01*
X029267Y008244D01*
X029427Y008310D01*
X029550Y008433D01*
X029616Y008593D01*
X029616Y008767D01*
X029550Y008927D01*
X029427Y009050D01*
X029267Y009116D01*
X029093Y009116D01*
X028933Y009050D01*
X028920Y009036D01*
X028920Y009825D01*
X029530Y010436D01*
X029540Y010413D01*
X029613Y010340D01*
X029708Y010300D01*
X029765Y010300D01*
X029891Y010174D01*
X029810Y010174D01*
X029628Y010099D01*
X029489Y009960D01*
X029414Y009778D01*
X029414Y009582D01*
X029489Y009400D01*
X029628Y009261D01*
X029660Y009248D01*
X029660Y007291D01*
X029169Y006800D01*
X029168Y006800D01*
X029073Y006760D01*
X029000Y006687D01*
X028960Y006592D01*
X028960Y006488D01*
X029000Y006393D01*
X029073Y006320D01*
X029168Y006280D01*
X029272Y006280D01*
X029367Y006320D01*
X029440Y006393D01*
X029480Y006488D01*
X029480Y006489D01*
X029971Y006980D01*
X030100Y007109D01*
X030100Y009224D01*
X030188Y009261D01*
X030327Y009400D01*
X030403Y009582D01*
X030403Y009663D01*
X030480Y009585D01*
X030480Y007337D01*
X030472Y007340D01*
X030368Y007340D01*
X030273Y007300D01*
X030200Y007227D01*
X030160Y007132D01*
X030160Y007028D01*
X030200Y006933D01*
X030240Y006892D01*
X030240Y006315D01*
X028445Y004520D01*
X028388Y004520D01*
X028293Y004480D01*
X028220Y004407D01*
X028180Y004312D01*
X028180Y004208D01*
X028220Y004113D01*
X028293Y004040D01*
X028388Y004000D01*
X028492Y004000D01*
X028587Y004040D01*
X028660Y004113D01*
X028700Y004208D01*
X028700Y004265D01*
X030480Y006045D01*
X030480Y004660D01*
X030460Y004612D01*
X030460Y004508D01*
X030500Y004413D01*
X030502Y004410D01*
X030500Y004407D01*
X030460Y004312D01*
X030460Y004208D01*
X030500Y004113D01*
X030540Y004072D01*
X030540Y002108D01*
X030500Y002067D01*
X030460Y001972D01*
X030460Y001868D01*
X030500Y001773D01*
X030573Y001700D01*
X030668Y001660D01*
X030772Y001660D01*
X030867Y001700D01*
X030940Y001773D01*
X030980Y001868D01*
X030980Y001972D01*
X030940Y002067D01*
X030900Y002108D01*
X030900Y004072D01*
X030940Y004113D01*
X030980Y004301D02*
X031131Y004301D01*
X031132Y004460D02*
X030960Y004460D01*
X031080Y004560D02*
X031680Y005160D01*
X031680Y005164D01*
X031680Y005220D01*
X034980Y008520D01*
X034980Y022500D01*
X035640Y023160D01*
X035680Y023180D01*
X035700Y023163D02*
X036780Y023163D01*
X036780Y023321D02*
X036230Y023321D01*
X036230Y023200D02*
X036230Y023574D01*
X036218Y023619D01*
X036194Y023661D01*
X036161Y023694D01*
X036119Y023718D01*
X036074Y023730D01*
X035996Y023730D01*
X036038Y023760D01*
X036100Y023822D01*
X036150Y023892D01*
X036190Y023969D01*
X036216Y024051D01*
X036230Y024137D01*
X036230Y024160D01*
X035700Y024160D01*
X035700Y023630D01*
X035700Y023200D01*
X036230Y023200D01*
X036230Y023160D02*
X035700Y023160D01*
X035700Y023200D01*
X035660Y023200D01*
X035660Y023160D01*
X035700Y023160D01*
X035700Y022630D01*
X036074Y022630D01*
X036119Y022642D01*
X036161Y022666D01*
X036194Y022699D01*
X036218Y022741D01*
X036230Y022786D01*
X036230Y023160D01*
X036230Y023004D02*
X036780Y023004D01*
X036780Y022846D02*
X036230Y022846D01*
X036182Y022687D02*
X036780Y022687D01*
X036780Y022529D02*
X031360Y022529D01*
X031360Y022687D02*
X035178Y022687D01*
X035166Y022699D02*
X035199Y022666D01*
X035241Y022642D01*
X035286Y022630D01*
X035660Y022630D01*
X035660Y023160D01*
X035130Y023160D01*
X035130Y022786D01*
X035142Y022741D01*
X035166Y022699D01*
X035130Y022846D02*
X031360Y022846D01*
X031360Y023004D02*
X035130Y023004D01*
X035660Y023004D02*
X035700Y023004D01*
X035700Y022846D02*
X035660Y022846D01*
X035660Y022687D02*
X035700Y022687D01*
X035660Y023163D02*
X031360Y023163D01*
X031360Y023321D02*
X031833Y023321D01*
X031718Y023480D02*
X031360Y023480D01*
X031360Y023638D02*
X031670Y023638D01*
X031670Y023797D02*
X031360Y023797D01*
X031360Y023955D02*
X031735Y023955D01*
X031877Y024114D02*
X031360Y024114D01*
X031360Y024272D02*
X032040Y024272D01*
X032040Y024431D02*
X031360Y024431D01*
X031360Y024589D02*
X032040Y024589D01*
X032040Y024748D02*
X031360Y024748D01*
X031360Y024906D02*
X032040Y024906D01*
X032040Y025065D02*
X031360Y025065D01*
X031360Y025223D02*
X031912Y025223D01*
X031745Y025382D02*
X031360Y025382D01*
X031360Y025540D02*
X031679Y025540D01*
X031670Y025699D02*
X031360Y025699D01*
X031360Y025857D02*
X031708Y025857D01*
X031810Y026016D02*
X031360Y026016D01*
X031360Y026174D02*
X031940Y026174D01*
X031940Y026333D02*
X031360Y026333D01*
X031140Y026580D02*
X031140Y019740D01*
X031680Y019200D01*
X031680Y019180D01*
X032141Y019359D02*
X036780Y019359D01*
X036780Y019517D02*
X032042Y019517D01*
X032033Y019834D02*
X036780Y019834D01*
X036780Y019676D02*
X031516Y019676D01*
X031052Y019517D02*
X029580Y019517D01*
X029580Y019359D02*
X031210Y019359D01*
X031186Y019200D02*
X029580Y019200D01*
X029580Y019042D02*
X031202Y019042D01*
X031278Y018883D02*
X029580Y018883D01*
X029580Y018725D02*
X031488Y018725D01*
X031582Y018674D02*
X031400Y018599D01*
X031261Y018460D01*
X031186Y018278D01*
X031186Y018082D01*
X031261Y017900D01*
X031400Y017761D01*
X031582Y017686D01*
X031778Y017686D01*
X031960Y017761D01*
X032099Y017900D01*
X032174Y018082D01*
X032174Y018278D01*
X032099Y018460D01*
X031960Y018599D01*
X031778Y018674D01*
X031582Y018674D01*
X031367Y018566D02*
X029580Y018566D01*
X029580Y018408D02*
X031239Y018408D01*
X031186Y018249D02*
X029580Y018249D01*
X029580Y018091D02*
X029620Y018091D01*
X029908Y017680D02*
X029940Y017640D01*
X030480Y017100D01*
X030480Y012420D01*
X031680Y011220D01*
X031680Y011180D01*
X032123Y010958D02*
X036780Y010958D01*
X036780Y010800D02*
X031999Y010800D01*
X031960Y010599D02*
X031778Y010674D01*
X031582Y010674D01*
X031400Y010599D01*
X031261Y010460D01*
X031186Y010278D01*
X031186Y010082D01*
X031261Y009900D01*
X031400Y009761D01*
X031582Y009686D01*
X031778Y009686D01*
X031960Y009761D01*
X032099Y009900D01*
X032174Y010082D01*
X032174Y010278D01*
X032099Y010460D01*
X031960Y010599D01*
X031859Y010641D02*
X036780Y010641D01*
X036780Y010483D02*
X032077Y010483D01*
X032155Y010324D02*
X036780Y010324D01*
X036780Y010166D02*
X032174Y010166D01*
X032143Y010007D02*
X036780Y010007D01*
X036780Y009849D02*
X032048Y009849D01*
X031789Y009690D02*
X036780Y009690D01*
X036780Y009532D02*
X030840Y009532D01*
X030840Y009690D02*
X031571Y009690D01*
X031312Y009849D02*
X030726Y009849D01*
X030568Y010007D02*
X031217Y010007D01*
X031186Y010166D02*
X030409Y010166D01*
X030251Y010324D02*
X031205Y010324D01*
X031283Y010483D02*
X030092Y010483D01*
X030008Y010641D02*
X031501Y010641D01*
X031361Y010800D02*
X029894Y010800D01*
X030053Y010958D02*
X031237Y010958D01*
X031186Y011117D02*
X030211Y011117D01*
X030370Y011275D02*
X031186Y011275D01*
X031155Y011434D02*
X030528Y011434D01*
X030800Y011592D02*
X030997Y011592D01*
X031144Y012068D02*
X031192Y012068D01*
X031186Y012226D02*
X030985Y012226D01*
X030827Y012385D02*
X031230Y012385D01*
X031344Y012543D02*
X030700Y012543D01*
X030700Y012702D02*
X035020Y012702D01*
X035020Y012760D02*
X035020Y012600D01*
X035081Y012453D01*
X035193Y012341D01*
X035340Y012280D01*
X036020Y012280D01*
X036167Y012341D01*
X036279Y012453D01*
X036340Y012600D01*
X036340Y012760D01*
X036279Y012907D01*
X036167Y013019D01*
X036020Y013080D01*
X035340Y013080D01*
X035193Y013019D01*
X035081Y012907D01*
X035020Y012760D01*
X035062Y012860D02*
X030700Y012860D01*
X030700Y013019D02*
X035193Y013019D01*
X035340Y013280D02*
X035193Y013341D01*
X035081Y013453D01*
X035020Y013600D01*
X035020Y013760D01*
X035081Y013907D01*
X035193Y014019D01*
X035340Y014080D01*
X036020Y014080D01*
X036167Y014019D01*
X036279Y013907D01*
X036340Y013760D01*
X036340Y013600D01*
X036279Y013453D01*
X036167Y013341D01*
X036020Y013280D01*
X035340Y013280D01*
X035206Y013336D02*
X034452Y013336D01*
X034427Y013310D02*
X034550Y013433D01*
X034616Y013593D01*
X034616Y013767D01*
X034550Y013927D01*
X034427Y014050D01*
X034267Y014116D01*
X034093Y014116D01*
X033933Y014050D01*
X033810Y013927D01*
X033744Y013767D01*
X033744Y013593D01*
X033810Y013433D01*
X033933Y013310D01*
X034093Y013244D01*
X034267Y013244D01*
X034427Y013310D01*
X034575Y013494D02*
X035064Y013494D01*
X035020Y013653D02*
X034616Y013653D01*
X034598Y013811D02*
X035041Y013811D01*
X035144Y013970D02*
X034507Y013970D01*
X033853Y013970D02*
X030700Y013970D01*
X030700Y014128D02*
X036780Y014128D01*
X036780Y013970D02*
X036216Y013970D01*
X036319Y013811D02*
X036780Y013811D01*
X036780Y013653D02*
X036340Y013653D01*
X036296Y013494D02*
X036780Y013494D01*
X036780Y013336D02*
X036154Y013336D01*
X036167Y013019D02*
X036780Y013019D01*
X036780Y013177D02*
X030700Y013177D01*
X030700Y013336D02*
X033908Y013336D01*
X033785Y013494D02*
X030700Y013494D01*
X030700Y013653D02*
X033744Y013653D01*
X033762Y013811D02*
X030700Y013811D01*
X030700Y014287D02*
X035325Y014287D01*
X035340Y014280D02*
X035193Y014341D01*
X035081Y014453D01*
X035020Y014600D01*
X035020Y014760D01*
X035081Y014907D01*
X035193Y015019D01*
X035340Y015080D01*
X036020Y015080D01*
X036167Y015019D01*
X036279Y014907D01*
X036340Y014760D01*
X036340Y014600D01*
X036279Y014453D01*
X036167Y014341D01*
X036020Y014280D01*
X035340Y014280D01*
X035089Y014445D02*
X030700Y014445D01*
X030700Y014604D02*
X035020Y014604D01*
X035021Y014762D02*
X030700Y014762D01*
X030700Y014921D02*
X035095Y014921D01*
X035338Y015079D02*
X030700Y015079D01*
X030700Y015238D02*
X036780Y015238D01*
X036780Y015396D02*
X036222Y015396D01*
X036167Y015341D02*
X036279Y015453D01*
X036340Y015600D01*
X036340Y015760D01*
X036279Y015907D01*
X036167Y016019D01*
X036020Y016080D01*
X035340Y016080D01*
X035193Y016019D01*
X035081Y015907D01*
X035020Y015760D01*
X035020Y015600D01*
X035081Y015453D01*
X035193Y015341D01*
X035340Y015280D01*
X036020Y015280D01*
X036167Y015341D01*
X036321Y015555D02*
X036780Y015555D01*
X036780Y015713D02*
X036340Y015713D01*
X036294Y015872D02*
X036780Y015872D01*
X036780Y016030D02*
X036140Y016030D01*
X036020Y016280D02*
X036167Y016341D01*
X036279Y016453D01*
X036340Y016600D01*
X036340Y016760D01*
X036279Y016907D01*
X036167Y017019D01*
X036020Y017080D01*
X035340Y017080D01*
X035193Y017019D01*
X035081Y016907D01*
X035020Y016760D01*
X035020Y016600D01*
X035081Y016453D01*
X035193Y016341D01*
X035340Y016280D01*
X036020Y016280D01*
X036173Y016347D02*
X036780Y016347D01*
X036780Y016189D02*
X030700Y016189D01*
X030700Y016347D02*
X033897Y016347D01*
X033933Y016310D02*
X033810Y016433D01*
X033744Y016593D01*
X033744Y016767D01*
X033810Y016927D01*
X033933Y017050D01*
X034093Y017116D01*
X034267Y017116D01*
X034427Y017050D01*
X034550Y016927D01*
X034616Y016767D01*
X034616Y016593D01*
X034550Y016433D01*
X034427Y016310D01*
X034267Y016244D01*
X034093Y016244D01*
X033933Y016310D01*
X033780Y016506D02*
X030700Y016506D01*
X030700Y016664D02*
X033744Y016664D01*
X033767Y016823D02*
X030700Y016823D01*
X030700Y016981D02*
X033865Y016981D01*
X034495Y016981D02*
X035155Y016981D01*
X035046Y016823D02*
X034593Y016823D01*
X034616Y016664D02*
X035020Y016664D01*
X035059Y016506D02*
X034580Y016506D01*
X034463Y016347D02*
X035187Y016347D01*
X035220Y016030D02*
X030700Y016030D01*
X030700Y015872D02*
X035066Y015872D01*
X035020Y015713D02*
X030700Y015713D01*
X030700Y015555D02*
X035039Y015555D01*
X035138Y015396D02*
X030700Y015396D01*
X030700Y017140D02*
X036780Y017140D01*
X036780Y017298D02*
X036063Y017298D01*
X036020Y017280D02*
X036167Y017341D01*
X036279Y017453D01*
X036340Y017600D01*
X036340Y017760D01*
X036279Y017907D01*
X036167Y018019D01*
X036020Y018080D01*
X035340Y018080D01*
X035193Y018019D01*
X035081Y017907D01*
X035020Y017760D01*
X035020Y017600D01*
X035081Y017453D01*
X035193Y017341D01*
X035340Y017280D01*
X036020Y017280D01*
X036280Y017457D02*
X036780Y017457D01*
X036780Y017615D02*
X036340Y017615D01*
X036334Y017774D02*
X036780Y017774D01*
X036780Y017932D02*
X036254Y017932D01*
X036167Y018341D02*
X036020Y018280D01*
X035340Y018280D01*
X035193Y018341D01*
X035081Y018453D01*
X035020Y018600D01*
X035020Y018760D01*
X035081Y018907D01*
X035193Y019019D01*
X035340Y019080D01*
X036020Y019080D01*
X036167Y019019D01*
X036279Y018907D01*
X036340Y018760D01*
X036340Y018600D01*
X036279Y018453D01*
X036167Y018341D01*
X036233Y018408D02*
X036780Y018408D01*
X036780Y018566D02*
X036326Y018566D01*
X036340Y018725D02*
X036780Y018725D01*
X036780Y018883D02*
X036289Y018883D01*
X036112Y019042D02*
X036780Y019042D01*
X036780Y019200D02*
X032174Y019200D01*
X032158Y019042D02*
X035248Y019042D01*
X035071Y018883D02*
X032082Y018883D01*
X031872Y018725D02*
X035020Y018725D01*
X035034Y018566D02*
X031993Y018566D01*
X032121Y018408D02*
X035127Y018408D01*
X035106Y017932D02*
X032112Y017932D01*
X032174Y018091D02*
X036780Y018091D01*
X036780Y018249D02*
X032174Y018249D01*
X031973Y017774D02*
X035026Y017774D01*
X035020Y017615D02*
X030403Y017615D01*
X030403Y017774D02*
X031387Y017774D01*
X031248Y017932D02*
X030339Y017932D01*
X030197Y018091D02*
X031186Y018091D01*
X030435Y017457D02*
X035080Y017457D01*
X035297Y017298D02*
X030593Y017298D01*
X030920Y019676D02*
X029580Y019676D01*
X029580Y019834D02*
X030920Y019834D01*
X030920Y019993D02*
X029580Y019993D01*
X029580Y020151D02*
X030920Y020151D01*
X030920Y020310D02*
X030237Y020310D01*
X030356Y020468D02*
X030920Y020468D01*
X030920Y020627D02*
X030403Y020627D01*
X030400Y020785D02*
X030920Y020785D01*
X030920Y020944D02*
X030334Y020944D01*
X030181Y021102D02*
X030920Y021102D01*
X030920Y021261D02*
X030060Y021261D01*
X030060Y021419D02*
X030920Y021419D01*
X030920Y021578D02*
X030060Y021578D01*
X030060Y021736D02*
X030920Y021736D01*
X030920Y021895D02*
X030060Y021895D01*
X030060Y022053D02*
X030920Y022053D01*
X030920Y022212D02*
X030060Y022212D01*
X030060Y022370D02*
X030920Y022370D01*
X030920Y022529D02*
X030060Y022529D01*
X030060Y022687D02*
X030920Y022687D01*
X030920Y022846D02*
X030060Y022846D01*
X030060Y023004D02*
X030920Y023004D01*
X030920Y023163D02*
X030060Y023163D01*
X030060Y023321D02*
X030920Y023321D01*
X030920Y023480D02*
X030060Y023480D01*
X030060Y023638D02*
X030920Y023638D01*
X030920Y023797D02*
X030060Y023797D01*
X030060Y023955D02*
X030920Y023955D01*
X030920Y024114D02*
X030060Y024114D01*
X030060Y024272D02*
X030920Y024272D01*
X030920Y024431D02*
X030060Y024431D01*
X030060Y024589D02*
X030920Y024589D01*
X030920Y024748D02*
X030060Y024748D01*
X029949Y024906D02*
X030920Y024906D01*
X030920Y025065D02*
X029790Y025065D01*
X029632Y025223D02*
X030920Y025223D01*
X030920Y025382D02*
X029473Y025382D01*
X029315Y025540D02*
X030920Y025540D01*
X030920Y025699D02*
X029156Y025699D01*
X028998Y025857D02*
X030920Y025857D01*
X030920Y026016D02*
X028839Y026016D01*
X028681Y026174D02*
X030920Y026174D01*
X030920Y026333D02*
X028580Y026333D01*
X028072Y026360D02*
X028060Y026332D01*
X028060Y026228D01*
X028084Y026171D01*
X028040Y026127D01*
X028000Y026032D01*
X028000Y025928D01*
X028040Y025833D01*
X028113Y025760D01*
X028208Y025720D01*
X028265Y025720D01*
X029336Y024650D01*
X029313Y024640D01*
X029272Y024600D01*
X028935Y024600D01*
X028875Y024660D01*
X025605Y024660D01*
X025500Y024555D01*
X025500Y021976D01*
X025427Y022050D01*
X025267Y022116D01*
X025260Y022116D01*
X025260Y024728D01*
X025287Y024740D01*
X025360Y024813D01*
X025400Y024908D01*
X025400Y025012D01*
X025360Y025107D01*
X025287Y025180D01*
X025192Y025220D01*
X025088Y025220D01*
X024993Y025180D01*
X024920Y025107D01*
X024906Y025075D01*
X024869Y025112D01*
X024681Y025190D01*
X024479Y025190D01*
X024291Y025112D01*
X024148Y024969D01*
X024080Y024806D01*
X024012Y024969D01*
X023869Y025112D01*
X023681Y025190D01*
X023479Y025190D01*
X023291Y025112D01*
X023148Y024969D01*
X023080Y024806D01*
X023012Y024969D01*
X022869Y025112D01*
X022681Y025190D01*
X022479Y025190D01*
X022291Y025112D01*
X022148Y024969D01*
X022080Y024806D01*
X022012Y024969D01*
X021869Y025112D01*
X021681Y025190D01*
X021665Y025190D01*
X023755Y027280D01*
X023812Y027280D01*
X023907Y027320D01*
X023980Y027393D01*
X024020Y027488D01*
X024020Y027592D01*
X023980Y027687D01*
X023907Y027760D01*
X023812Y027800D01*
X023708Y027800D01*
X023613Y027760D01*
X023540Y027687D01*
X023500Y027592D01*
X023500Y027535D01*
X020985Y025020D01*
X020973Y025008D01*
X020869Y025112D01*
X020708Y025179D01*
X020720Y025208D01*
X020720Y025312D01*
X020680Y025407D01*
X020607Y025480D01*
X020512Y025520D01*
X020408Y025520D01*
X020313Y025480D01*
X020240Y025407D01*
X020200Y025312D01*
X020200Y025255D01*
X020025Y025080D01*
X019963Y025018D01*
X019869Y025112D01*
X019681Y025190D01*
X019625Y025190D01*
X021955Y027520D01*
X022012Y027520D01*
X022107Y027560D01*
X022180Y027633D01*
X022220Y027728D01*
X022220Y027832D01*
X022180Y027927D01*
X022107Y028000D01*
X022012Y028040D01*
X021908Y028040D01*
X021813Y028000D01*
X021740Y027927D01*
X021700Y027832D01*
X021700Y027775D01*
X019005Y025080D01*
X018953Y025028D01*
X018869Y025112D01*
X018681Y025190D01*
X018479Y025190D01*
X018291Y025112D01*
X018148Y024969D01*
X018080Y024806D01*
X018012Y024969D01*
X017869Y025112D01*
X017681Y025190D01*
X017645Y025190D01*
X019495Y027040D01*
X019552Y027040D01*
X019647Y027080D01*
X019720Y027153D01*
X019760Y027248D01*
X019760Y027352D01*
X019720Y027447D01*
X019647Y027520D01*
X019552Y027560D01*
X019448Y027560D01*
X019353Y027520D01*
X019280Y027447D01*
X019240Y027352D01*
X019240Y027295D01*
X016590Y024645D01*
X016590Y024781D01*
X016512Y024969D01*
X016369Y025112D01*
X016181Y025190D01*
X015979Y025190D01*
X015791Y025112D01*
X015648Y024969D01*
X015580Y024806D01*
X015512Y024969D01*
X015369Y025112D01*
X015181Y025190D01*
X014979Y025190D01*
X014791Y025112D01*
X014648Y024969D01*
X014580Y024806D01*
X014512Y024969D01*
X014369Y025112D01*
X014181Y025190D01*
X013979Y025190D01*
X013791Y025112D01*
X013648Y024969D01*
X013580Y024806D01*
X013512Y024969D01*
X013369Y025112D01*
X013181Y025190D01*
X012979Y025190D01*
X012791Y025112D01*
X012648Y024969D01*
X012580Y024806D01*
X012512Y024969D01*
X012369Y025112D01*
X012181Y025190D01*
X011979Y025190D01*
X011791Y025112D01*
X011648Y024969D01*
X011580Y024806D01*
X011512Y024969D01*
X011369Y025112D01*
X011181Y025190D01*
X010979Y025190D01*
X010791Y025112D01*
X010648Y024969D01*
X010601Y024856D01*
X010590Y024891D01*
X010550Y024968D01*
X010500Y025038D01*
X010438Y025100D01*
X010368Y025150D01*
X010291Y025190D01*
X010209Y025216D01*
X010123Y025230D01*
X010100Y025230D01*
X010100Y024700D01*
X010060Y024700D01*
X010060Y025230D01*
X010037Y025230D01*
X009951Y025216D01*
X009869Y025190D01*
X009792Y025150D01*
X009722Y025100D01*
X009660Y025038D01*
X009610Y024968D01*
X009570Y024891D01*
X009559Y024856D01*
X009512Y024969D01*
X009369Y025112D01*
X009181Y025190D01*
X008979Y025190D01*
X008791Y025112D01*
X008648Y024969D01*
X008570Y024781D01*
X008570Y024579D01*
X008648Y024391D01*
X008791Y024248D01*
X008979Y024170D01*
X009181Y024170D01*
X009369Y024248D01*
X009512Y024391D01*
X009559Y024504D01*
X009570Y024469D01*
X009610Y024392D01*
X009660Y024322D01*
X009722Y024260D01*
X009792Y024210D01*
X009869Y024170D01*
X009951Y024144D01*
X010037Y024130D01*
X010060Y024130D01*
X010060Y024660D01*
X010100Y024660D01*
X010100Y024130D01*
X010123Y024130D01*
X010209Y024144D01*
X010291Y024170D01*
X010368Y024210D01*
X010438Y024260D01*
X010500Y024322D01*
X010550Y024392D01*
X010590Y024469D01*
X010601Y024504D01*
X010648Y024391D01*
X010791Y024248D01*
X010979Y024170D01*
X011181Y024170D01*
X011369Y024248D01*
X011512Y024391D01*
X011580Y024554D01*
X011648Y024391D01*
X011791Y024248D01*
X011979Y024170D01*
X012181Y024170D01*
X012369Y024248D01*
X012512Y024391D01*
X012580Y024554D01*
X012648Y024391D01*
X012791Y024248D01*
X012979Y024170D01*
X013181Y024170D01*
X013369Y024248D01*
X013512Y024391D01*
X013580Y024554D01*
X013648Y024391D01*
X013791Y024248D01*
X013979Y024170D01*
X014181Y024170D01*
X014369Y024248D01*
X014512Y024391D01*
X014580Y024554D01*
X014648Y024391D01*
X014791Y024248D01*
X014979Y024170D01*
X015181Y024170D01*
X015369Y024248D01*
X015512Y024391D01*
X015580Y024554D01*
X015648Y024391D01*
X015791Y024248D01*
X015979Y024170D01*
X016115Y024170D01*
X014865Y022920D01*
X014760Y022815D01*
X014760Y021154D01*
X014628Y021099D01*
X014489Y020960D01*
X014414Y020778D01*
X014414Y020582D01*
X014489Y020400D01*
X014628Y020261D01*
X014810Y020186D01*
X015007Y020186D01*
X015188Y020261D01*
X015327Y020400D01*
X015403Y020582D01*
X015403Y020778D01*
X015327Y020960D01*
X015188Y021099D01*
X015120Y021127D01*
X015120Y022665D01*
X017070Y024615D01*
X017070Y024579D01*
X017148Y024391D01*
X017291Y024248D01*
X017479Y024170D01*
X017681Y024170D01*
X017869Y024248D01*
X018012Y024391D01*
X018080Y024554D01*
X018148Y024391D01*
X018291Y024248D01*
X018479Y024170D01*
X018681Y024170D01*
X018869Y024248D01*
X018900Y024279D01*
X018900Y023595D01*
X011985Y016680D01*
X011880Y016575D01*
X011880Y015790D01*
X011760Y015840D01*
X011600Y015840D01*
X011453Y015779D01*
X011400Y015726D01*
X011400Y019695D01*
X011127Y019968D01*
X011174Y020082D01*
X011174Y020278D01*
X011099Y020460D01*
X010960Y020599D01*
X010778Y020674D01*
X010729Y020674D01*
X011035Y020980D01*
X011092Y020980D01*
X011187Y021020D01*
X011260Y021093D01*
X011300Y021188D01*
X011300Y021292D01*
X011260Y021387D01*
X011187Y021460D01*
X011164Y021470D01*
X012175Y022480D01*
X012232Y022480D01*
X012327Y022520D01*
X012400Y022593D01*
X012440Y022688D01*
X012440Y022792D01*
X012400Y022887D01*
X012327Y022960D01*
X012232Y023000D01*
X012128Y023000D01*
X012033Y022960D01*
X011960Y022887D01*
X011920Y022792D01*
X011920Y022735D01*
X007460Y018275D01*
X007460Y023673D01*
X007413Y023720D01*
X000360Y023720D01*
X000360Y029921D01*
X036780Y029921D01*
X036780Y026440D01*
X036124Y026440D01*
X036112Y026469D01*
X035969Y026612D01*
X035781Y026690D01*
X035579Y026690D01*
X035391Y026612D01*
X035248Y026469D01*
X035236Y026440D01*
X034010Y026440D01*
X034139Y026493D01*
X034367Y026721D01*
X034490Y027019D01*
X034490Y027341D01*
X034367Y027639D01*
X034139Y027867D01*
X033841Y027990D01*
X033519Y027990D01*
X033221Y027867D01*
X032993Y027639D01*
X032870Y027341D01*
X032870Y027019D01*
X032993Y026721D01*
X033221Y026493D01*
X033350Y026440D01*
X032380Y026440D01*
X032380Y026671D01*
X032251Y026800D01*
X027811Y026800D01*
X026149Y028463D01*
X026190Y028563D01*
X026190Y028766D01*
X026112Y028953D01*
X025969Y029097D01*
X025781Y029174D01*
X025579Y029174D01*
X025391Y029097D01*
X025248Y028953D01*
X025170Y028766D01*
X025170Y028563D01*
X025248Y028375D01*
X025391Y028232D01*
X025579Y028154D01*
X025781Y028154D01*
X025819Y028170D01*
X027500Y026489D01*
X027629Y026360D01*
X028072Y026360D01*
X028060Y026333D02*
X026095Y026333D01*
X026100Y026337D02*
X026038Y026276D01*
X025968Y026225D01*
X025891Y026186D01*
X025809Y026159D01*
X025723Y026146D01*
X025689Y026146D01*
X025689Y026687D01*
X025689Y026704D01*
X026230Y026704D01*
X026230Y026739D01*
X026216Y026825D01*
X026190Y026907D01*
X026150Y026984D01*
X026100Y027054D01*
X026038Y027115D01*
X025968Y027166D01*
X025891Y027205D01*
X025809Y027232D01*
X025723Y027246D01*
X025689Y027246D01*
X025689Y026704D01*
X025671Y026704D01*
X025671Y026687D01*
X025130Y026687D01*
X025130Y026652D01*
X025144Y026567D01*
X025170Y026485D01*
X025210Y026407D01*
X025260Y026337D01*
X025322Y026276D01*
X025392Y026225D01*
X025469Y026186D01*
X025551Y026159D01*
X025637Y026146D01*
X025671Y026146D01*
X025671Y026687D01*
X025689Y026687D01*
X026230Y026687D01*
X026230Y026652D01*
X026216Y026567D01*
X026190Y026485D01*
X026150Y026407D01*
X026100Y026337D01*
X026192Y026491D02*
X027498Y026491D01*
X027339Y026650D02*
X026230Y026650D01*
X026219Y026808D02*
X027181Y026808D01*
X027022Y026967D02*
X026159Y026967D01*
X026025Y027125D02*
X026864Y027125D01*
X026705Y027284D02*
X023820Y027284D01*
X024001Y027442D02*
X026547Y027442D01*
X026388Y027601D02*
X024016Y027601D01*
X023909Y027759D02*
X026230Y027759D01*
X026071Y027918D02*
X022184Y027918D01*
X022220Y027759D02*
X023611Y027759D01*
X023504Y027601D02*
X022148Y027601D01*
X021877Y027442D02*
X023407Y027442D01*
X023249Y027284D02*
X021718Y027284D01*
X021560Y027125D02*
X023090Y027125D01*
X022932Y026967D02*
X021401Y026967D01*
X021243Y026808D02*
X022773Y026808D01*
X022615Y026650D02*
X021084Y026650D01*
X020926Y026491D02*
X022456Y026491D01*
X022298Y026333D02*
X020767Y026333D01*
X020609Y026174D02*
X022139Y026174D01*
X021981Y026016D02*
X020450Y026016D01*
X020292Y025857D02*
X021822Y025857D01*
X021664Y025699D02*
X020133Y025699D01*
X019975Y025540D02*
X021505Y025540D01*
X021347Y025382D02*
X020691Y025382D01*
X020720Y025223D02*
X021188Y025223D01*
X021030Y025065D02*
X020917Y025065D01*
X021698Y025223D02*
X028762Y025223D01*
X028604Y025382D02*
X021856Y025382D01*
X022015Y025540D02*
X028445Y025540D01*
X028287Y025699D02*
X022173Y025699D01*
X022332Y025857D02*
X028030Y025857D01*
X028000Y026016D02*
X022490Y026016D01*
X022649Y026174D02*
X025506Y026174D01*
X025671Y026174D02*
X025689Y026174D01*
X025689Y026333D02*
X025671Y026333D01*
X025671Y026491D02*
X025689Y026491D01*
X025680Y026640D02*
X025680Y026696D01*
X025671Y026704D02*
X025130Y026704D01*
X025130Y026739D01*
X025144Y026825D01*
X025170Y026907D01*
X025210Y026984D01*
X025260Y027054D01*
X025322Y027115D01*
X025392Y027166D01*
X025469Y027205D01*
X025551Y027232D01*
X025637Y027246D01*
X025671Y027246D01*
X025671Y026704D01*
X025671Y026650D02*
X025689Y026650D01*
X025680Y026640D02*
X026700Y025620D01*
X026700Y025200D01*
X025854Y026174D02*
X028082Y026174D01*
X027720Y026580D02*
X031140Y026580D01*
X032160Y026580D01*
X032160Y026220D01*
X035640Y026220D01*
X035680Y026180D01*
X035700Y026220D01*
X041160Y026220D01*
X041180Y026180D01*
X041220Y024240D02*
X043200Y026220D01*
X043200Y028500D01*
X044340Y029640D01*
X044369Y029649D01*
X036780Y029661D02*
X000360Y029661D01*
X000360Y029503D02*
X036780Y029503D01*
X036780Y029344D02*
X000360Y029344D01*
X000360Y029186D02*
X036780Y029186D01*
X036780Y029027D02*
X026038Y029027D01*
X026147Y028869D02*
X036780Y028869D01*
X036780Y028710D02*
X026190Y028710D01*
X026185Y028552D02*
X036780Y028552D01*
X036780Y028393D02*
X026218Y028393D01*
X026377Y028235D02*
X036780Y028235D01*
X036780Y028076D02*
X026535Y028076D01*
X026694Y027918D02*
X033344Y027918D01*
X033114Y027759D02*
X026852Y027759D01*
X027011Y027601D02*
X032978Y027601D01*
X032912Y027442D02*
X027169Y027442D01*
X027328Y027284D02*
X032870Y027284D01*
X032870Y027125D02*
X027486Y027125D01*
X027645Y026967D02*
X032892Y026967D01*
X032957Y026808D02*
X027803Y026808D01*
X027720Y026580D02*
X025680Y028620D01*
X025680Y028664D01*
X025322Y029027D02*
X000360Y029027D01*
X000360Y028869D02*
X025213Y028869D01*
X025170Y028710D02*
X000360Y028710D01*
X000360Y028552D02*
X025175Y028552D01*
X025240Y028393D02*
X000360Y028393D01*
X000360Y028235D02*
X025388Y028235D01*
X025913Y028076D02*
X000360Y028076D01*
X000360Y027918D02*
X004344Y027918D01*
X004221Y027867D02*
X004519Y027990D01*
X004841Y027990D01*
X005139Y027867D01*
X005367Y027639D01*
X005490Y027341D01*
X005490Y027019D01*
X005367Y026721D01*
X005139Y026493D01*
X004841Y026370D01*
X004519Y026370D01*
X004221Y026493D01*
X003993Y026721D01*
X003870Y027019D01*
X003870Y027341D01*
X003993Y027639D01*
X004221Y027867D01*
X004114Y027759D02*
X000360Y027759D01*
X000360Y027601D02*
X003978Y027601D01*
X003912Y027442D02*
X000360Y027442D01*
X000360Y027284D02*
X003870Y027284D01*
X003870Y027125D02*
X000360Y027125D01*
X000360Y026967D02*
X003892Y026967D01*
X003957Y026808D02*
X000360Y026808D01*
X000360Y026650D02*
X004065Y026650D01*
X004227Y026491D02*
X000360Y026491D01*
X000360Y026333D02*
X018278Y026333D01*
X018436Y026491D02*
X005133Y026491D01*
X005295Y026650D02*
X018595Y026650D01*
X018753Y026808D02*
X005403Y026808D01*
X005468Y026967D02*
X018912Y026967D01*
X019070Y027125D02*
X005490Y027125D01*
X005490Y027284D02*
X019229Y027284D01*
X019277Y027442D02*
X005448Y027442D01*
X005382Y027601D02*
X021526Y027601D01*
X021684Y027759D02*
X005246Y027759D01*
X005016Y027918D02*
X021736Y027918D01*
X021367Y027442D02*
X019723Y027442D01*
X019760Y027284D02*
X021209Y027284D01*
X021050Y027125D02*
X019693Y027125D01*
X019421Y026967D02*
X020892Y026967D01*
X020733Y026808D02*
X019263Y026808D01*
X019104Y026650D02*
X020575Y026650D01*
X020416Y026491D02*
X018946Y026491D01*
X018787Y026333D02*
X020258Y026333D01*
X020099Y026174D02*
X018629Y026174D01*
X018470Y026016D02*
X019941Y026016D01*
X019782Y025857D02*
X018312Y025857D01*
X018153Y025699D02*
X019624Y025699D01*
X019465Y025540D02*
X017995Y025540D01*
X017836Y025382D02*
X019307Y025382D01*
X019148Y025223D02*
X017678Y025223D01*
X017917Y025065D02*
X018243Y025065D01*
X018122Y024906D02*
X018038Y024906D01*
X018917Y025065D02*
X018990Y025065D01*
X019658Y025223D02*
X020168Y025223D01*
X020229Y025382D02*
X019816Y025382D01*
X019917Y025065D02*
X020010Y025065D01*
X018900Y024272D02*
X018893Y024272D01*
X018900Y024114D02*
X016568Y024114D01*
X016727Y024272D02*
X017267Y024272D01*
X017131Y024431D02*
X016885Y024431D01*
X017044Y024589D02*
X017070Y024589D01*
X016851Y024906D02*
X016538Y024906D01*
X016590Y024748D02*
X016693Y024748D01*
X016417Y025065D02*
X017010Y025065D01*
X017168Y025223D02*
X010167Y025223D01*
X010100Y025223D02*
X010060Y025223D01*
X009993Y025223D02*
X000360Y025223D01*
X000360Y025065D02*
X008743Y025065D01*
X008622Y024906D02*
X000360Y024906D01*
X000360Y024748D02*
X008570Y024748D01*
X008570Y024589D02*
X000360Y024589D01*
X000360Y024431D02*
X008631Y024431D01*
X008767Y024272D02*
X000360Y024272D01*
X000360Y024114D02*
X016059Y024114D01*
X015900Y023955D02*
X000360Y023955D01*
X000360Y023797D02*
X015742Y023797D01*
X015583Y023638D02*
X007460Y023638D01*
X007460Y023480D02*
X015425Y023480D01*
X015266Y023321D02*
X007460Y023321D01*
X007460Y023163D02*
X015108Y023163D01*
X014949Y023004D02*
X007460Y023004D01*
X007460Y022846D02*
X011942Y022846D01*
X011872Y022687D02*
X007460Y022687D01*
X007460Y022529D02*
X011714Y022529D01*
X011555Y022370D02*
X007460Y022370D01*
X007460Y022212D02*
X011397Y022212D01*
X011238Y022053D02*
X008418Y022053D01*
X008427Y022050D02*
X008267Y022116D01*
X008093Y022116D01*
X007933Y022050D01*
X007810Y021927D01*
X007744Y021767D01*
X007744Y021593D01*
X007810Y021433D01*
X007933Y021310D01*
X008093Y021244D01*
X008267Y021244D01*
X008427Y021310D01*
X008550Y021433D01*
X008616Y021593D01*
X008616Y021767D01*
X008550Y021927D01*
X008427Y022050D01*
X008563Y021895D02*
X011080Y021895D01*
X010921Y021736D02*
X008616Y021736D01*
X008609Y021578D02*
X010763Y021578D01*
X010604Y021419D02*
X008535Y021419D01*
X008306Y021261D02*
X010446Y021261D01*
X010287Y021102D02*
X009181Y021102D01*
X009188Y021099D02*
X009007Y021174D01*
X008810Y021174D01*
X008628Y021099D01*
X008489Y020960D01*
X008414Y020778D01*
X008414Y020582D01*
X008489Y020400D01*
X008628Y020261D01*
X008810Y020186D01*
X009007Y020186D01*
X009188Y020261D01*
X009327Y020400D01*
X009403Y020582D01*
X009403Y020778D01*
X009327Y020960D01*
X009188Y021099D01*
X009334Y020944D02*
X010129Y020944D01*
X009970Y020785D02*
X009400Y020785D01*
X009403Y020627D02*
X009812Y020627D01*
X009653Y020468D02*
X009356Y020468D01*
X009237Y020310D02*
X009495Y020310D01*
X009336Y020151D02*
X007460Y020151D01*
X007460Y019993D02*
X009178Y019993D01*
X009019Y019834D02*
X007460Y019834D01*
X007460Y019676D02*
X008861Y019676D01*
X008702Y019517D02*
X007460Y019517D01*
X007460Y019359D02*
X008544Y019359D01*
X008385Y019200D02*
X007460Y019200D01*
X007460Y019042D02*
X008227Y019042D01*
X008068Y018883D02*
X007460Y018883D01*
X007460Y018725D02*
X007910Y018725D01*
X007751Y018566D02*
X007460Y018566D01*
X007460Y018408D02*
X007593Y018408D01*
X007987Y017932D02*
X008478Y017932D01*
X008489Y017960D02*
X008414Y017778D01*
X008414Y017582D01*
X008489Y017400D01*
X008628Y017261D01*
X008810Y017186D01*
X009007Y017186D01*
X009188Y017261D01*
X009327Y017400D01*
X009403Y017582D01*
X009403Y017778D01*
X009327Y017960D01*
X009188Y018099D01*
X009007Y018174D01*
X008810Y018174D01*
X008628Y018099D01*
X008489Y017960D01*
X008620Y018091D02*
X008145Y018091D01*
X008304Y018249D02*
X010186Y018249D01*
X010186Y018091D02*
X009197Y018091D01*
X009339Y017932D02*
X010248Y017932D01*
X010387Y017774D02*
X009403Y017774D01*
X009403Y017615D02*
X010500Y017615D01*
X010500Y017457D02*
X009351Y017457D01*
X009225Y017298D02*
X010500Y017298D01*
X010500Y017140D02*
X007920Y017140D01*
X007920Y017298D02*
X008591Y017298D01*
X008466Y017457D02*
X007920Y017457D01*
X007920Y017615D02*
X008414Y017615D01*
X008414Y017774D02*
X007920Y017774D01*
X008462Y018408D02*
X010239Y018408D01*
X010367Y018566D02*
X008621Y018566D01*
X008779Y018725D02*
X010488Y018725D01*
X010278Y018883D02*
X008938Y018883D01*
X009096Y019042D02*
X010202Y019042D01*
X010186Y019200D02*
X009255Y019200D01*
X009413Y019359D02*
X010219Y019359D01*
X010318Y019517D02*
X009572Y019517D01*
X009730Y019676D02*
X010910Y019676D01*
X011261Y019834D02*
X015139Y019834D01*
X014981Y019676D02*
X011400Y019676D01*
X011400Y019517D02*
X014822Y019517D01*
X014664Y019359D02*
X011400Y019359D01*
X011400Y019200D02*
X014505Y019200D01*
X014347Y019042D02*
X011400Y019042D01*
X011400Y018883D02*
X014188Y018883D01*
X014030Y018725D02*
X011400Y018725D01*
X011400Y018566D02*
X013871Y018566D01*
X013713Y018408D02*
X011400Y018408D01*
X011400Y018249D02*
X013554Y018249D01*
X013396Y018091D02*
X011400Y018091D01*
X011400Y017932D02*
X013237Y017932D01*
X013079Y017774D02*
X011400Y017774D01*
X011400Y017615D02*
X012920Y017615D01*
X012762Y017457D02*
X011400Y017457D01*
X011400Y017298D02*
X012603Y017298D01*
X012445Y017140D02*
X011400Y017140D01*
X011400Y016981D02*
X012286Y016981D01*
X012128Y016823D02*
X011400Y016823D01*
X011400Y016664D02*
X011969Y016664D01*
X011880Y016506D02*
X011400Y016506D01*
X011400Y016347D02*
X011880Y016347D01*
X011880Y016189D02*
X011400Y016189D01*
X011400Y016030D02*
X011880Y016030D01*
X011880Y015872D02*
X011400Y015872D01*
X012240Y015872D02*
X013560Y015872D01*
X013560Y016030D02*
X012240Y016030D01*
X012240Y016189D02*
X013560Y016189D01*
X013560Y016347D02*
X013463Y016347D01*
X012897Y016347D02*
X012240Y016347D01*
X012320Y016506D02*
X012780Y016506D01*
X012744Y016664D02*
X012479Y016664D01*
X012637Y016823D02*
X012767Y016823D01*
X012796Y016981D02*
X012865Y016981D01*
X012954Y017140D02*
X013560Y017140D01*
X013560Y017298D02*
X013113Y017298D01*
X013271Y017457D02*
X013602Y017457D01*
X013760Y017615D02*
X013430Y017615D01*
X013588Y017774D02*
X013919Y017774D01*
X014077Y017932D02*
X013747Y017932D01*
X013905Y018091D02*
X014236Y018091D01*
X014327Y018249D02*
X014064Y018249D01*
X014222Y018408D02*
X014450Y018408D01*
X014381Y018566D02*
X015240Y018566D01*
X015240Y018408D02*
X014710Y018408D01*
X014833Y018249D02*
X015240Y018249D01*
X015240Y018091D02*
X015197Y018091D01*
X015240Y018725D02*
X014539Y018725D01*
X014698Y018883D02*
X015240Y018883D01*
X015240Y019042D02*
X014856Y019042D01*
X015015Y019200D02*
X015240Y019200D01*
X015240Y019359D02*
X015173Y019359D01*
X015298Y019993D02*
X011137Y019993D01*
X011174Y020151D02*
X015456Y020151D01*
X015615Y020310D02*
X015237Y020310D01*
X015356Y020468D02*
X015773Y020468D01*
X015932Y020627D02*
X015403Y020627D01*
X015400Y020785D02*
X016090Y020785D01*
X016249Y020944D02*
X015334Y020944D01*
X015181Y021102D02*
X016407Y021102D01*
X016566Y021261D02*
X015120Y021261D01*
X015120Y021419D02*
X016724Y021419D01*
X016883Y021578D02*
X015120Y021578D01*
X015120Y021736D02*
X017041Y021736D01*
X017200Y021895D02*
X015120Y021895D01*
X015120Y022053D02*
X017358Y022053D01*
X017517Y022212D02*
X015120Y022212D01*
X015120Y022370D02*
X017675Y022370D01*
X017834Y022529D02*
X015120Y022529D01*
X015142Y022687D02*
X017992Y022687D01*
X018151Y022846D02*
X015300Y022846D01*
X015459Y023004D02*
X018309Y023004D01*
X018468Y023163D02*
X015617Y023163D01*
X015776Y023321D02*
X018626Y023321D01*
X018785Y023480D02*
X015934Y023480D01*
X016093Y023638D02*
X018900Y023638D01*
X018900Y023797D02*
X016251Y023797D01*
X016410Y023955D02*
X018900Y023955D01*
X018267Y024272D02*
X017893Y024272D01*
X018029Y024431D02*
X018131Y024431D01*
X017327Y025382D02*
X000360Y025382D01*
X000360Y025540D02*
X017485Y025540D01*
X017644Y025699D02*
X000360Y025699D01*
X000360Y025857D02*
X017802Y025857D01*
X017961Y026016D02*
X000360Y026016D01*
X000360Y026174D02*
X018119Y026174D01*
X015743Y025065D02*
X015417Y025065D01*
X015538Y024906D02*
X015622Y024906D01*
X014743Y025065D02*
X014417Y025065D01*
X014538Y024906D02*
X014622Y024906D01*
X014631Y024431D02*
X014529Y024431D01*
X014393Y024272D02*
X014767Y024272D01*
X015393Y024272D02*
X015767Y024272D01*
X015631Y024431D02*
X015529Y024431D01*
X013767Y024272D02*
X013393Y024272D01*
X013529Y024431D02*
X013631Y024431D01*
X013622Y024906D02*
X013538Y024906D01*
X013417Y025065D02*
X013743Y025065D01*
X012743Y025065D02*
X012417Y025065D01*
X012538Y024906D02*
X012622Y024906D01*
X012631Y024431D02*
X012529Y024431D01*
X012393Y024272D02*
X012767Y024272D01*
X011767Y024272D02*
X011393Y024272D01*
X011529Y024431D02*
X011631Y024431D01*
X011622Y024906D02*
X011538Y024906D01*
X011417Y025065D02*
X011743Y025065D01*
X010743Y025065D02*
X010473Y025065D01*
X010582Y024906D02*
X010622Y024906D01*
X010100Y024906D02*
X010060Y024906D01*
X010060Y024748D02*
X010100Y024748D01*
X010100Y024589D02*
X010060Y024589D01*
X010060Y024431D02*
X010100Y024431D01*
X010100Y024272D02*
X010060Y024272D01*
X009710Y024272D02*
X009393Y024272D01*
X009529Y024431D02*
X009590Y024431D01*
X009578Y024906D02*
X009538Y024906D01*
X009417Y025065D02*
X009687Y025065D01*
X010060Y025065D02*
X010100Y025065D01*
X010570Y024431D02*
X010631Y024431D01*
X010767Y024272D02*
X010450Y024272D01*
X012418Y022846D02*
X014791Y022846D01*
X014760Y022687D02*
X012439Y022687D01*
X012336Y022529D02*
X014760Y022529D01*
X014760Y022370D02*
X012065Y022370D01*
X011906Y022212D02*
X014760Y022212D01*
X014760Y022053D02*
X014418Y022053D01*
X014427Y022050D02*
X014267Y022116D01*
X014093Y022116D01*
X013933Y022050D01*
X013810Y021927D01*
X013744Y021767D01*
X013744Y021593D01*
X013810Y021433D01*
X013933Y021310D01*
X014093Y021244D01*
X014267Y021244D01*
X014427Y021310D01*
X014550Y021433D01*
X014616Y021593D01*
X014616Y021767D01*
X014550Y021927D01*
X014427Y022050D01*
X014563Y021895D02*
X014760Y021895D01*
X014760Y021736D02*
X014616Y021736D01*
X014609Y021578D02*
X014760Y021578D01*
X014760Y021419D02*
X014535Y021419D01*
X014760Y021261D02*
X014306Y021261D01*
X014054Y021261D02*
X013306Y021261D01*
X013267Y021244D02*
X013427Y021310D01*
X013550Y021433D01*
X013616Y021593D01*
X013616Y021767D01*
X013550Y021927D01*
X013427Y022050D01*
X013267Y022116D01*
X013093Y022116D01*
X012933Y022050D01*
X012810Y021927D01*
X012744Y021767D01*
X012744Y021593D01*
X012810Y021433D01*
X012933Y021310D01*
X013093Y021244D01*
X013267Y021244D01*
X013054Y021261D02*
X011300Y021261D01*
X011264Y021102D02*
X014635Y021102D01*
X014482Y020944D02*
X010998Y020944D01*
X010840Y020785D02*
X014417Y020785D01*
X014414Y020627D02*
X010894Y020627D01*
X011091Y020468D02*
X014461Y020468D01*
X014580Y020310D02*
X011161Y020310D01*
X010327Y019834D02*
X009889Y019834D01*
X010047Y019993D02*
X010223Y019993D01*
X008580Y020310D02*
X007460Y020310D01*
X007460Y020468D02*
X008461Y020468D01*
X008414Y020627D02*
X007460Y020627D01*
X007460Y020785D02*
X008417Y020785D01*
X008482Y020944D02*
X007460Y020944D01*
X007460Y021102D02*
X008635Y021102D01*
X008054Y021261D02*
X007460Y021261D01*
X007460Y021419D02*
X007825Y021419D01*
X007751Y021578D02*
X007460Y021578D01*
X007460Y021736D02*
X007744Y021736D01*
X007797Y021895D02*
X007460Y021895D01*
X007460Y022053D02*
X007942Y022053D01*
X007200Y023180D02*
X007200Y016400D01*
X000180Y016400D01*
X000180Y023180D01*
X007200Y023180D01*
X011272Y021578D02*
X012751Y021578D01*
X012744Y021736D02*
X011431Y021736D01*
X011589Y021895D02*
X012797Y021895D01*
X012942Y022053D02*
X011748Y022053D01*
X011229Y021419D02*
X012825Y021419D01*
X013535Y021419D02*
X013825Y021419D01*
X013751Y021578D02*
X013609Y021578D01*
X013616Y021736D02*
X013744Y021736D01*
X013797Y021895D02*
X013563Y021895D01*
X013418Y022053D02*
X013942Y022053D01*
X016680Y019180D02*
X016680Y019140D01*
X017220Y018600D01*
X017220Y011760D01*
X016680Y011220D01*
X016680Y011180D01*
X015960Y011117D02*
X013920Y011117D01*
X013920Y011275D02*
X015960Y011275D01*
X015960Y011434D02*
X013920Y011434D01*
X013920Y011592D02*
X015960Y011592D01*
X015960Y011751D02*
X013920Y011751D01*
X013920Y011909D02*
X015960Y011909D01*
X015960Y012068D02*
X013920Y012068D01*
X013920Y012226D02*
X014713Y012226D01*
X014628Y012261D02*
X014810Y012186D01*
X015007Y012186D01*
X015188Y012261D01*
X015327Y012400D01*
X015403Y012582D01*
X015403Y012778D01*
X015327Y012960D01*
X015240Y013047D01*
X015240Y015285D01*
X015280Y015325D01*
X015280Y014840D01*
X015341Y014693D01*
X015453Y014581D01*
X015600Y014520D01*
X015760Y014520D01*
X015907Y014581D01*
X015960Y014634D01*
X015960Y010785D01*
X016060Y010685D01*
X016060Y010628D01*
X016100Y010533D01*
X016173Y010460D01*
X016248Y010428D01*
X016186Y010278D01*
X016186Y010082D01*
X016261Y009900D01*
X016400Y009761D01*
X016582Y009686D01*
X016631Y009686D01*
X016620Y009675D01*
X016620Y006945D01*
X016725Y006840D01*
X016920Y006645D01*
X016920Y006113D01*
X016868Y006150D01*
X016791Y006190D01*
X016709Y006216D01*
X016623Y006230D01*
X016600Y006230D01*
X016600Y005700D01*
X016560Y005700D01*
X016580Y005680D01*
X016560Y005700D02*
X015600Y005700D01*
X015580Y005680D01*
X015600Y005700D02*
X016560Y005700D01*
X016560Y006230D01*
X016537Y006230D01*
X016451Y006216D01*
X016369Y006190D01*
X016292Y006150D01*
X016222Y006100D01*
X016160Y006038D01*
X016110Y005968D01*
X016080Y005910D01*
X016050Y005968D01*
X016000Y006038D01*
X015938Y006100D01*
X015868Y006150D01*
X015791Y006190D01*
X015709Y006216D01*
X015623Y006230D01*
X015600Y006230D01*
X015600Y005700D01*
X015600Y005660D01*
X016030Y005660D01*
X016560Y005660D01*
X016560Y005700D01*
X016560Y005728D02*
X016600Y005728D01*
X016600Y005660D02*
X016600Y005130D01*
X016623Y005130D01*
X016709Y005144D01*
X016791Y005170D01*
X016868Y005210D01*
X016920Y005247D01*
X016920Y002280D01*
X013260Y002280D01*
X013260Y005279D01*
X013291Y005248D01*
X013479Y005170D01*
X013681Y005170D01*
X013869Y005248D01*
X014012Y005391D01*
X014080Y005554D01*
X014148Y005391D01*
X014291Y005248D01*
X014360Y005219D01*
X014360Y004171D01*
X014355Y004166D01*
X014297Y004190D01*
X014094Y004190D01*
X013907Y004112D01*
X013763Y003969D01*
X013686Y003781D01*
X013686Y003579D01*
X013763Y003391D01*
X013907Y003248D01*
X014094Y003170D01*
X014297Y003170D01*
X014485Y003248D01*
X014628Y003391D01*
X014706Y003579D01*
X014706Y003781D01*
X014673Y003861D01*
X014800Y003989D01*
X014800Y005219D01*
X014869Y005248D01*
X015012Y005391D01*
X015059Y005504D01*
X015070Y005469D01*
X015110Y005392D01*
X015160Y005322D01*
X015222Y005260D01*
X015292Y005210D01*
X015369Y005170D01*
X015451Y005144D01*
X015537Y005130D01*
X015560Y005130D01*
X015560Y005660D01*
X015600Y005660D01*
X015600Y005130D01*
X015623Y005130D01*
X015709Y005144D01*
X015791Y005170D01*
X015868Y005210D01*
X015938Y005260D01*
X016000Y005322D01*
X016050Y005392D01*
X016080Y005450D01*
X016110Y005392D01*
X016160Y005322D01*
X016222Y005260D01*
X016292Y005210D01*
X016369Y005170D01*
X016451Y005144D01*
X016537Y005130D01*
X016560Y005130D01*
X016560Y005660D01*
X016600Y005660D01*
X016600Y005569D02*
X016560Y005569D01*
X016560Y005411D02*
X016600Y005411D01*
X016600Y005252D02*
X016560Y005252D01*
X016233Y005252D02*
X015927Y005252D01*
X016060Y005411D02*
X016100Y005411D01*
X015600Y005411D02*
X015560Y005411D01*
X015560Y005569D02*
X015600Y005569D01*
X015600Y005700D02*
X015560Y005700D01*
X015560Y006230D01*
X015537Y006230D01*
X015451Y006216D01*
X015369Y006190D01*
X015292Y006150D01*
X015222Y006100D01*
X015160Y006038D01*
X015110Y005968D01*
X015100Y005949D01*
X015100Y009224D01*
X015188Y009261D01*
X015327Y009400D01*
X015403Y009582D01*
X015403Y009778D01*
X015327Y009960D01*
X015188Y010099D01*
X015007Y010174D01*
X014810Y010174D01*
X014628Y010099D01*
X014489Y009960D01*
X014414Y009778D01*
X014414Y009582D01*
X014489Y009400D01*
X014628Y009261D01*
X014660Y009248D01*
X014660Y006190D01*
X014479Y006190D01*
X014291Y006112D01*
X014148Y005969D01*
X014080Y005806D01*
X014012Y005969D01*
X013869Y006112D01*
X013681Y006190D01*
X013479Y006190D01*
X013291Y006112D01*
X013260Y006081D01*
X013260Y007905D01*
X013804Y008449D01*
X013810Y008433D01*
X013933Y008310D01*
X014093Y008244D01*
X014267Y008244D01*
X014427Y008310D01*
X014550Y008433D01*
X014616Y008593D01*
X014616Y008767D01*
X014550Y008927D01*
X014427Y009050D01*
X014267Y009116D01*
X014093Y009116D01*
X013933Y009050D01*
X013920Y009036D01*
X013920Y013324D01*
X013933Y013310D01*
X014093Y013244D01*
X014267Y013244D01*
X014427Y013310D01*
X014550Y013433D01*
X014616Y013593D01*
X014616Y013767D01*
X014550Y013927D01*
X014427Y014050D01*
X014267Y014116D01*
X014093Y014116D01*
X013933Y014050D01*
X013920Y014036D01*
X013920Y014205D01*
X014374Y014660D01*
X014453Y014581D01*
X014600Y014520D01*
X014760Y014520D01*
X014880Y014570D01*
X014880Y013174D01*
X014810Y013174D01*
X014628Y013099D01*
X014489Y012960D01*
X014414Y012778D01*
X014414Y012582D01*
X014489Y012400D01*
X014628Y012261D01*
X014505Y012385D02*
X013920Y012385D01*
X013920Y012543D02*
X014430Y012543D01*
X014414Y012702D02*
X013920Y012702D01*
X013920Y012860D02*
X014448Y012860D01*
X014548Y013019D02*
X013920Y013019D01*
X013920Y013177D02*
X014880Y013177D01*
X014880Y013336D02*
X014452Y013336D01*
X014575Y013494D02*
X014880Y013494D01*
X014880Y013653D02*
X014616Y013653D01*
X014598Y013811D02*
X014880Y013811D01*
X014880Y013970D02*
X014507Y013970D01*
X014880Y014128D02*
X013920Y014128D01*
X014001Y014287D02*
X014880Y014287D01*
X014880Y014445D02*
X014160Y014445D01*
X014318Y014604D02*
X014431Y014604D01*
X013650Y014445D02*
X012900Y014445D01*
X012900Y014287D02*
X013560Y014287D01*
X013560Y014128D02*
X012900Y014128D01*
X012540Y013811D02*
X012446Y013811D01*
X012540Y013653D02*
X012287Y013653D01*
X012129Y013494D02*
X012540Y013494D01*
X012540Y013336D02*
X011970Y013336D01*
X011812Y013177D02*
X012540Y013177D01*
X012540Y013019D02*
X011653Y013019D01*
X011495Y012860D02*
X012540Y012860D01*
X012540Y012702D02*
X011400Y012702D01*
X011400Y012543D02*
X012540Y012543D01*
X012540Y012385D02*
X011400Y012385D01*
X011400Y012226D02*
X012540Y012226D01*
X012540Y012068D02*
X011400Y012068D01*
X011400Y011909D02*
X012540Y011909D01*
X012540Y011751D02*
X011400Y011751D01*
X011400Y011592D02*
X012540Y011592D01*
X012540Y011434D02*
X011400Y011434D01*
X011400Y011275D02*
X012540Y011275D01*
X012540Y011117D02*
X011400Y011117D01*
X011400Y010958D02*
X012540Y010958D01*
X012540Y010800D02*
X011400Y010800D01*
X011376Y010641D02*
X012540Y010641D01*
X012540Y010483D02*
X011217Y010483D01*
X011155Y010324D02*
X012540Y010324D01*
X012540Y010166D02*
X011174Y010166D01*
X011143Y010007D02*
X012540Y010007D01*
X012540Y009849D02*
X011048Y009849D01*
X010789Y009690D02*
X012540Y009690D01*
X012540Y009532D02*
X009382Y009532D01*
X009403Y009582D02*
X009327Y009400D01*
X009188Y009261D01*
X009007Y009186D01*
X008810Y009186D01*
X008628Y009261D01*
X008489Y009400D01*
X008414Y009582D01*
X008414Y009778D01*
X008489Y009960D01*
X008628Y010099D01*
X008810Y010174D01*
X009007Y010174D01*
X009188Y010099D01*
X009327Y009960D01*
X009403Y009778D01*
X009403Y009582D01*
X009403Y009690D02*
X010571Y009690D01*
X010312Y009849D02*
X009374Y009849D01*
X009280Y010007D02*
X010217Y010007D01*
X010186Y010166D02*
X009028Y010166D01*
X008789Y010166D02*
X004401Y010166D01*
X004555Y010324D02*
X010205Y010324D01*
X010283Y010483D02*
X004620Y010483D01*
X004627Y010641D02*
X010501Y010641D01*
X010361Y010800D02*
X004586Y010800D01*
X004480Y010958D02*
X010237Y010958D01*
X010186Y011117D02*
X004282Y011117D01*
X004513Y011275D02*
X010186Y011275D01*
X010250Y011434D02*
X004600Y011434D01*
X004627Y011592D02*
X010393Y011592D01*
X010425Y011751D02*
X004607Y011751D01*
X004529Y011909D02*
X010257Y011909D01*
X010192Y012068D02*
X004321Y012068D01*
X004464Y012226D02*
X008713Y012226D01*
X008505Y012385D02*
X004580Y012385D01*
X004627Y012543D02*
X008430Y012543D01*
X008414Y012702D02*
X004627Y012702D01*
X004655Y012860D02*
X008448Y012860D01*
X008548Y013019D02*
X004813Y013019D01*
X004972Y013177D02*
X010222Y013177D01*
X010064Y013019D02*
X009269Y013019D01*
X008550Y013433D02*
X008616Y013593D01*
X008616Y013767D01*
X008550Y013927D01*
X008427Y014050D01*
X008267Y014116D01*
X008093Y014116D01*
X007933Y014050D01*
X007810Y013927D01*
X007744Y013767D01*
X007744Y013593D01*
X007810Y013433D01*
X007933Y013310D01*
X008093Y013244D01*
X008267Y013244D01*
X008427Y013310D01*
X008550Y013433D01*
X008575Y013494D02*
X010539Y013494D01*
X010381Y013336D02*
X008452Y013336D01*
X008616Y013653D02*
X010698Y013653D01*
X010856Y013811D02*
X008598Y013811D01*
X008507Y013970D02*
X011015Y013970D01*
X011173Y014128D02*
X005923Y014128D01*
X006081Y014287D02*
X011332Y014287D01*
X011490Y014445D02*
X006240Y014445D01*
X006398Y014604D02*
X009431Y014604D01*
X009312Y014762D02*
X006557Y014762D01*
X006715Y014921D02*
X009280Y014921D01*
X009280Y015079D02*
X006874Y015079D01*
X007032Y015238D02*
X009280Y015238D01*
X009280Y015396D02*
X007140Y015396D01*
X007220Y015555D02*
X009294Y015555D01*
X009387Y015713D02*
X007868Y015713D01*
X007920Y015872D02*
X010157Y015872D01*
X010315Y016030D02*
X007920Y016030D01*
X007920Y016189D02*
X010474Y016189D01*
X010500Y016347D02*
X008463Y016347D01*
X008580Y016506D02*
X010500Y016506D01*
X010500Y016664D02*
X008616Y016664D01*
X008593Y016823D02*
X010500Y016823D01*
X010500Y016981D02*
X008495Y016981D01*
X009973Y015713D02*
X009998Y015713D01*
X010191Y015396D02*
X010280Y015396D01*
X010280Y015238D02*
X010080Y015238D01*
X010080Y015079D02*
X010280Y015079D01*
X010280Y014921D02*
X010080Y014921D01*
X010048Y014762D02*
X010312Y014762D01*
X010431Y014604D02*
X009929Y014604D01*
X010929Y014604D02*
X011431Y014604D01*
X011312Y014762D02*
X011048Y014762D01*
X011080Y014921D02*
X011280Y014921D01*
X011280Y015079D02*
X011080Y015079D01*
X011080Y015238D02*
X011280Y015238D01*
X011169Y015396D02*
X011080Y015396D01*
X012240Y015396D02*
X012280Y015396D01*
X012280Y015238D02*
X012240Y015238D01*
X012240Y015079D02*
X012280Y015079D01*
X012280Y014921D02*
X012240Y014921D01*
X012240Y014762D02*
X012312Y014762D01*
X012431Y014604D02*
X012158Y014604D01*
X012000Y014445D02*
X012540Y014445D01*
X012299Y014287D02*
X011841Y014287D01*
X011683Y014128D02*
X012220Y014128D01*
X012095Y013970D02*
X011524Y013970D01*
X011366Y013811D02*
X011936Y013811D01*
X011778Y013653D02*
X011207Y013653D01*
X011049Y013494D02*
X011619Y013494D01*
X011461Y013336D02*
X010890Y013336D01*
X010732Y013177D02*
X011302Y013177D01*
X011144Y013019D02*
X010573Y013019D01*
X010415Y012860D02*
X011040Y012860D01*
X011040Y012702D02*
X010256Y012702D01*
X010344Y012543D02*
X010098Y012543D01*
X010230Y012385D02*
X009312Y012385D01*
X009104Y012226D02*
X010186Y012226D01*
X010935Y011751D02*
X011040Y011751D01*
X011040Y011592D02*
X010967Y011592D01*
X010999Y010800D02*
X011025Y010800D01*
X010866Y010641D02*
X010859Y010641D01*
X009300Y009373D02*
X012540Y009373D01*
X012540Y009215D02*
X009076Y009215D01*
X008740Y009215D02*
X000360Y009215D01*
X000360Y009373D02*
X008516Y009373D01*
X008435Y009532D02*
X000360Y009532D01*
X000360Y009690D02*
X008414Y009690D01*
X008443Y009849D02*
X000360Y009849D01*
X000360Y010007D02*
X008536Y010007D01*
X008267Y009116D02*
X008093Y009116D01*
X007933Y009050D01*
X007810Y008927D01*
X007744Y008767D01*
X007744Y008593D01*
X007810Y008433D01*
X007933Y008310D01*
X008093Y008244D01*
X008267Y008244D01*
X008427Y008310D01*
X008550Y008433D01*
X008616Y008593D01*
X008616Y008767D01*
X008550Y008927D01*
X008427Y009050D01*
X008267Y009116D01*
X008411Y009056D02*
X012540Y009056D01*
X012540Y008898D02*
X008562Y008898D01*
X008616Y008739D02*
X012540Y008739D01*
X012540Y008581D02*
X008611Y008581D01*
X008538Y008422D02*
X012540Y008422D01*
X012662Y008264D02*
X008314Y008264D01*
X008046Y008264D02*
X000360Y008264D01*
X000360Y008422D02*
X007822Y008422D01*
X007749Y008581D02*
X000360Y008581D01*
X000360Y008739D02*
X007744Y008739D01*
X007798Y008898D02*
X000360Y008898D01*
X000360Y009056D02*
X007949Y009056D01*
X003833Y010166D02*
X000360Y010166D01*
X000360Y010324D02*
X003679Y010324D01*
X003614Y010483D02*
X000360Y010483D01*
X000360Y010641D02*
X003607Y010641D01*
X003648Y010800D02*
X000360Y010800D01*
X000360Y010958D02*
X003754Y010958D01*
X003952Y011117D02*
X000360Y011117D01*
X000360Y011275D02*
X003721Y011275D01*
X003634Y011434D02*
X000360Y011434D01*
X000360Y011592D02*
X003607Y011592D01*
X003627Y011751D02*
X000360Y011751D01*
X000360Y011909D02*
X003705Y011909D01*
X003913Y012068D02*
X000360Y012068D01*
X000360Y012226D02*
X003770Y012226D01*
X003654Y012385D02*
X000360Y012385D01*
X000360Y012543D02*
X003607Y012543D01*
X003607Y012702D02*
X000360Y012702D01*
X000360Y012860D02*
X003673Y012860D01*
X003814Y013019D02*
X000360Y013019D01*
X000360Y013177D02*
X003819Y013177D01*
X003675Y013336D02*
X000360Y013336D01*
X000360Y013494D02*
X003609Y013494D01*
X003607Y013653D02*
X000360Y013653D01*
X000360Y013811D02*
X003652Y013811D01*
X003765Y013970D02*
X000360Y013970D01*
X000360Y014128D02*
X003924Y014128D01*
X003709Y014287D02*
X000360Y014287D01*
X000360Y014445D02*
X003629Y014445D01*
X003607Y014604D02*
X000360Y014604D01*
X000360Y014762D02*
X003632Y014762D01*
X003716Y014921D02*
X000360Y014921D01*
X000360Y015079D02*
X003941Y015079D01*
X003607Y015238D02*
X000360Y015238D01*
X000360Y015396D02*
X003607Y015396D01*
X003607Y015555D02*
X000360Y015555D01*
X000360Y015713D02*
X003607Y015713D01*
X003607Y015872D02*
X000360Y015872D01*
X005130Y013336D02*
X007908Y013336D01*
X007785Y013494D02*
X005289Y013494D01*
X005447Y013653D02*
X007744Y013653D01*
X007762Y013811D02*
X005606Y013811D01*
X005764Y013970D02*
X007853Y013970D01*
X011016Y012543D02*
X011040Y012543D01*
X013507Y013970D02*
X013560Y013970D01*
X013431Y014604D02*
X012929Y014604D01*
X013048Y014762D02*
X013312Y014762D01*
X013280Y014921D02*
X013080Y014921D01*
X013080Y015079D02*
X013280Y015079D01*
X013280Y015238D02*
X013080Y015238D01*
X013080Y015396D02*
X013280Y015396D01*
X013294Y015555D02*
X013066Y015555D01*
X012973Y015713D02*
X013387Y015713D01*
X012387Y015713D02*
X012240Y015713D01*
X012240Y015555D02*
X012294Y015555D01*
X013495Y016981D02*
X013560Y016981D01*
X011040Y018566D02*
X010993Y018566D01*
X011040Y018725D02*
X010872Y018725D01*
X015240Y015238D02*
X015280Y015238D01*
X015280Y015079D02*
X015240Y015079D01*
X015240Y014921D02*
X015280Y014921D01*
X015312Y014762D02*
X015240Y014762D01*
X015240Y014604D02*
X015431Y014604D01*
X015240Y014445D02*
X015960Y014445D01*
X015960Y014287D02*
X015240Y014287D01*
X015240Y014128D02*
X015960Y014128D01*
X015960Y013970D02*
X015240Y013970D01*
X015240Y013811D02*
X015960Y013811D01*
X015960Y013653D02*
X015240Y013653D01*
X015240Y013494D02*
X015960Y013494D01*
X015960Y013336D02*
X015240Y013336D01*
X015240Y013177D02*
X015960Y013177D01*
X015960Y013019D02*
X015269Y013019D01*
X015369Y012860D02*
X015960Y012860D01*
X015960Y012702D02*
X015403Y012702D01*
X015387Y012543D02*
X015960Y012543D01*
X015960Y012385D02*
X015312Y012385D01*
X015104Y012226D02*
X015960Y012226D01*
X015960Y010958D02*
X013920Y010958D01*
X013920Y010800D02*
X015960Y010800D01*
X016060Y010641D02*
X013920Y010641D01*
X013920Y010483D02*
X016150Y010483D01*
X016205Y010324D02*
X013920Y010324D01*
X013920Y010166D02*
X014789Y010166D01*
X015028Y010166D02*
X016186Y010166D01*
X016217Y010007D02*
X015280Y010007D01*
X015374Y009849D02*
X016312Y009849D01*
X016571Y009690D02*
X015403Y009690D01*
X015382Y009532D02*
X016620Y009532D01*
X016620Y009373D02*
X015300Y009373D01*
X015100Y009215D02*
X016620Y009215D01*
X016620Y009056D02*
X015100Y009056D01*
X015100Y008898D02*
X016620Y008898D01*
X016620Y008739D02*
X015100Y008739D01*
X015100Y008581D02*
X016620Y008581D01*
X016620Y008422D02*
X015100Y008422D01*
X015100Y008264D02*
X016620Y008264D01*
X016620Y008105D02*
X015100Y008105D01*
X015100Y007947D02*
X016620Y007947D01*
X016620Y007788D02*
X015100Y007788D01*
X015100Y007630D02*
X016620Y007630D01*
X016620Y007471D02*
X015100Y007471D01*
X015100Y007313D02*
X016620Y007313D01*
X016620Y007154D02*
X015100Y007154D01*
X015100Y006996D02*
X016620Y006996D01*
X016728Y006837D02*
X015100Y006837D01*
X015100Y006679D02*
X016887Y006679D01*
X016920Y006520D02*
X015100Y006520D01*
X015100Y006362D02*
X016920Y006362D01*
X016920Y006203D02*
X016750Y006203D01*
X016600Y006203D02*
X016560Y006203D01*
X016410Y006203D02*
X015750Y006203D01*
X015600Y006203D02*
X015560Y006203D01*
X015410Y006203D02*
X015100Y006203D01*
X015100Y006045D02*
X015167Y006045D01*
X014880Y005940D02*
X014880Y009660D01*
X014908Y009680D01*
X014414Y009690D02*
X013920Y009690D01*
X013920Y009532D02*
X014435Y009532D01*
X014516Y009373D02*
X013920Y009373D01*
X013920Y009215D02*
X014660Y009215D01*
X014660Y009056D02*
X014411Y009056D01*
X014562Y008898D02*
X014660Y008898D01*
X014660Y008739D02*
X014616Y008739D01*
X014611Y008581D02*
X014660Y008581D01*
X014660Y008422D02*
X014538Y008422D01*
X014660Y008264D02*
X014314Y008264D01*
X014046Y008264D02*
X013618Y008264D01*
X013777Y008422D02*
X013822Y008422D01*
X013460Y008105D02*
X014660Y008105D01*
X014660Y007947D02*
X013301Y007947D01*
X013260Y007788D02*
X014660Y007788D01*
X014660Y007630D02*
X013260Y007630D01*
X013260Y007471D02*
X014660Y007471D01*
X014660Y007313D02*
X013260Y007313D01*
X013260Y007154D02*
X014660Y007154D01*
X014660Y006996D02*
X013260Y006996D01*
X013260Y006837D02*
X014660Y006837D01*
X014660Y006679D02*
X013260Y006679D01*
X013260Y006520D02*
X014660Y006520D01*
X014660Y006362D02*
X013260Y006362D01*
X013260Y006203D02*
X014660Y006203D01*
X014880Y005940D02*
X014640Y005700D01*
X014580Y005680D01*
X014580Y004080D01*
X014220Y003720D01*
X014196Y003680D01*
X014706Y003667D02*
X015614Y003667D01*
X015614Y003671D02*
X015614Y003637D01*
X015628Y003551D01*
X015655Y003469D01*
X015694Y003392D01*
X015745Y003322D01*
X015806Y003260D01*
X015876Y003210D01*
X015953Y003170D01*
X016035Y003144D01*
X016121Y003130D01*
X016156Y003130D01*
X016156Y003671D01*
X016173Y003671D01*
X016173Y003130D01*
X016208Y003130D01*
X016293Y003144D01*
X016375Y003170D01*
X016453Y003210D01*
X016523Y003260D01*
X016584Y003322D01*
X016635Y003392D01*
X016674Y003469D01*
X016701Y003551D01*
X016714Y003637D01*
X016714Y003671D01*
X016173Y003671D01*
X016173Y003689D01*
X016156Y003689D01*
X016156Y004230D01*
X016121Y004230D01*
X016035Y004216D01*
X015953Y004190D01*
X015876Y004150D01*
X015806Y004100D01*
X015745Y004038D01*
X015694Y003968D01*
X015655Y003891D01*
X015628Y003809D01*
X015614Y003723D01*
X015614Y003689D01*
X016156Y003689D01*
X016156Y003671D01*
X015614Y003671D01*
X015633Y003826D02*
X014687Y003826D01*
X014795Y003984D02*
X015705Y003984D01*
X015865Y004143D02*
X014800Y004143D01*
X014800Y004301D02*
X016920Y004301D01*
X016920Y004143D02*
X016463Y004143D01*
X016453Y004150D02*
X016375Y004190D01*
X016293Y004216D01*
X016208Y004230D01*
X016173Y004230D01*
X016173Y003689D01*
X016714Y003689D01*
X016714Y003723D01*
X016701Y003809D01*
X016674Y003891D01*
X016635Y003968D01*
X016584Y004038D01*
X016523Y004100D01*
X016453Y004150D01*
X016623Y003984D02*
X016920Y003984D01*
X016920Y003826D02*
X016695Y003826D01*
X016714Y003667D02*
X016920Y003667D01*
X016920Y003509D02*
X016687Y003509D01*
X016604Y003350D02*
X016920Y003350D01*
X016920Y003192D02*
X016417Y003192D01*
X016173Y003192D02*
X016156Y003192D01*
X016156Y003350D02*
X016173Y003350D01*
X016156Y003509D02*
X016173Y003509D01*
X016156Y003667D02*
X016173Y003667D01*
X016156Y003826D02*
X016173Y003826D01*
X016156Y003984D02*
X016173Y003984D01*
X016156Y004143D02*
X016173Y004143D01*
X016920Y004460D02*
X014800Y004460D01*
X014800Y004618D02*
X016920Y004618D01*
X016920Y004777D02*
X014800Y004777D01*
X014800Y004935D02*
X016920Y004935D01*
X016920Y005094D02*
X014800Y005094D01*
X014873Y005252D02*
X015233Y005252D01*
X015100Y005411D02*
X015020Y005411D01*
X015560Y005252D02*
X015600Y005252D01*
X015600Y005728D02*
X015560Y005728D01*
X015560Y005886D02*
X015600Y005886D01*
X015600Y006045D02*
X015560Y006045D01*
X015993Y006045D02*
X016167Y006045D01*
X016560Y006045D02*
X016600Y006045D01*
X016600Y005886D02*
X016560Y005886D01*
X014360Y005094D02*
X013260Y005094D01*
X013260Y005252D02*
X013287Y005252D01*
X013260Y004935D02*
X014360Y004935D01*
X014360Y004777D02*
X013260Y004777D01*
X013260Y004618D02*
X014360Y004618D01*
X014360Y004460D02*
X013260Y004460D01*
X013260Y004301D02*
X014360Y004301D01*
X013980Y004143D02*
X013260Y004143D01*
X013260Y003984D02*
X013779Y003984D01*
X013704Y003826D02*
X013260Y003826D01*
X013260Y003667D02*
X013686Y003667D01*
X013715Y003509D02*
X013260Y003509D01*
X013260Y003350D02*
X013804Y003350D01*
X014042Y003192D02*
X013260Y003192D01*
X013260Y003033D02*
X016920Y003033D01*
X016920Y002875D02*
X013260Y002875D01*
X013260Y002716D02*
X016920Y002716D01*
X016920Y002558D02*
X013260Y002558D01*
X013260Y002399D02*
X016920Y002399D01*
X015911Y003192D02*
X014349Y003192D01*
X014587Y003350D02*
X015724Y003350D01*
X015642Y003509D02*
X014677Y003509D01*
X012900Y003509D02*
X005421Y003509D01*
X005367Y003639D02*
X005490Y003341D01*
X005490Y003019D01*
X005367Y002721D01*
X005139Y002493D01*
X004841Y002370D01*
X004519Y002370D01*
X004221Y002493D01*
X003993Y002721D01*
X003870Y003019D01*
X003870Y003341D01*
X003993Y003639D01*
X004221Y003867D01*
X004519Y003990D01*
X004841Y003990D01*
X005139Y003867D01*
X005367Y003639D01*
X005338Y003667D02*
X012900Y003667D01*
X012900Y003826D02*
X005180Y003826D01*
X004855Y003984D02*
X012900Y003984D01*
X012900Y004143D02*
X000360Y004143D01*
X000360Y004301D02*
X012900Y004301D01*
X012900Y004460D02*
X000360Y004460D01*
X000360Y004618D02*
X012900Y004618D01*
X012900Y004777D02*
X000360Y004777D01*
X000360Y004935D02*
X012900Y004935D01*
X012900Y005094D02*
X000360Y005094D01*
X000360Y005252D02*
X012287Y005252D01*
X012140Y005411D02*
X000360Y005411D01*
X000360Y005569D02*
X012074Y005569D01*
X012070Y005728D02*
X000360Y005728D01*
X000360Y005886D02*
X012113Y005886D01*
X012223Y006045D02*
X000360Y006045D01*
X000360Y006203D02*
X012900Y006203D01*
X012900Y006362D02*
X000360Y006362D01*
X000360Y006520D02*
X012900Y006520D01*
X012900Y006679D02*
X000360Y006679D01*
X000360Y006837D02*
X012900Y006837D01*
X012900Y006996D02*
X000360Y006996D01*
X000360Y007154D02*
X012900Y007154D01*
X012900Y007313D02*
X000360Y007313D01*
X000360Y007471D02*
X012900Y007471D01*
X012900Y007630D02*
X000360Y007630D01*
X000360Y007788D02*
X012900Y007788D01*
X012900Y007947D02*
X000360Y007947D01*
X000360Y008105D02*
X012726Y008105D01*
X013920Y009056D02*
X013949Y009056D01*
X013920Y009849D02*
X014443Y009849D01*
X014536Y010007D02*
X013920Y010007D01*
X013937Y006045D02*
X014223Y006045D01*
X014113Y005886D02*
X014047Y005886D01*
X014020Y005411D02*
X014140Y005411D01*
X014287Y005252D02*
X013873Y005252D01*
X012900Y005252D02*
X012873Y005252D01*
X012900Y003350D02*
X005486Y003350D01*
X005490Y003192D02*
X012900Y003192D01*
X012900Y003033D02*
X005490Y003033D01*
X005430Y002875D02*
X012900Y002875D01*
X012900Y002716D02*
X005361Y002716D01*
X005203Y002558D02*
X012900Y002558D01*
X012900Y002399D02*
X004911Y002399D01*
X004449Y002399D02*
X000360Y002399D01*
X000360Y002241D02*
X012900Y002241D01*
X012900Y002082D02*
X000360Y002082D01*
X000360Y001924D02*
X013002Y001924D01*
X004505Y003984D02*
X000360Y003984D01*
X000360Y003826D02*
X004180Y003826D01*
X004022Y003667D02*
X000360Y003667D01*
X000360Y003509D02*
X003939Y003509D01*
X003874Y003350D02*
X000360Y003350D01*
X000360Y003192D02*
X003870Y003192D01*
X003870Y003033D02*
X000360Y003033D01*
X000360Y002875D02*
X003930Y002875D01*
X003999Y002716D02*
X000360Y002716D01*
X000360Y002558D02*
X004157Y002558D01*
X000360Y001765D02*
X030507Y001765D01*
X030420Y001740D02*
X030540Y001620D01*
X031080Y001620D01*
X031080Y004560D01*
X030977Y004618D02*
X031275Y004618D01*
X031322Y004745D02*
X031392Y004694D01*
X031469Y004655D01*
X031551Y004628D01*
X031637Y004614D01*
X031671Y004614D01*
X031671Y005156D01*
X031130Y005156D01*
X031130Y005121D01*
X031144Y005035D01*
X031170Y004953D01*
X031210Y004876D01*
X031260Y004806D01*
X031322Y004745D01*
X031290Y004777D02*
X030871Y004777D01*
X030840Y004935D02*
X031180Y004935D01*
X031134Y005094D02*
X030840Y005094D01*
X030840Y005252D02*
X031137Y005252D01*
X031144Y005293D02*
X031130Y005208D01*
X031130Y005173D01*
X031671Y005173D01*
X031671Y005156D01*
X031689Y005156D01*
X031689Y005173D01*
X032230Y005173D01*
X032230Y005208D01*
X032216Y005293D01*
X032190Y005375D01*
X032150Y005453D01*
X032100Y005523D01*
X032038Y005584D01*
X031968Y005635D01*
X031891Y005674D01*
X031809Y005701D01*
X031723Y005714D01*
X031689Y005714D01*
X031689Y005173D01*
X031671Y005173D01*
X031671Y005714D01*
X031637Y005714D01*
X031551Y005701D01*
X031469Y005674D01*
X031392Y005635D01*
X031322Y005584D01*
X031260Y005523D01*
X031210Y005453D01*
X031170Y005375D01*
X031144Y005293D01*
X031188Y005411D02*
X030840Y005411D01*
X030840Y005569D02*
X031307Y005569D01*
X031671Y005569D02*
X031689Y005569D01*
X031689Y005411D02*
X031671Y005411D01*
X031671Y005252D02*
X031689Y005252D01*
X031689Y005156D02*
X032230Y005156D01*
X032230Y005121D01*
X032216Y005035D01*
X032190Y004953D01*
X032150Y004876D01*
X032100Y004806D01*
X032038Y004745D01*
X031968Y004694D01*
X031891Y004655D01*
X031809Y004628D01*
X031723Y004614D01*
X031689Y004614D01*
X031689Y005156D01*
X031689Y005094D02*
X031671Y005094D01*
X031671Y004935D02*
X031689Y004935D01*
X031689Y004777D02*
X031671Y004777D01*
X031671Y004618D02*
X031689Y004618D01*
X031747Y004618D02*
X036780Y004618D01*
X036780Y004460D02*
X031628Y004460D01*
X031613Y004618D02*
X031485Y004618D01*
X031380Y004380D02*
X031380Y003540D01*
X031680Y003240D01*
X031680Y003196D01*
X032168Y003350D02*
X032874Y003350D01*
X032939Y003509D02*
X032088Y003509D01*
X031875Y003667D02*
X033022Y003667D01*
X033180Y003826D02*
X031600Y003826D01*
X031600Y003984D02*
X033505Y003984D01*
X033855Y003984D02*
X036780Y003984D01*
X036780Y003826D02*
X034180Y003826D01*
X034338Y003667D02*
X036780Y003667D01*
X036780Y003509D02*
X034421Y003509D01*
X034486Y003350D02*
X036780Y003350D01*
X036780Y003192D02*
X034490Y003192D01*
X034490Y003033D02*
X036780Y003033D01*
X036780Y002875D02*
X034430Y002875D01*
X034361Y002716D02*
X036780Y002716D01*
X036780Y002558D02*
X034203Y002558D01*
X033911Y002399D02*
X036780Y002399D01*
X036780Y002241D02*
X030900Y002241D01*
X030900Y002399D02*
X033449Y002399D01*
X030980Y001924D02*
X036780Y001924D01*
X036780Y002082D02*
X030926Y002082D01*
X030933Y001765D02*
X036780Y001765D01*
X036780Y001607D02*
X000360Y001607D01*
X000360Y001448D02*
X036780Y001448D01*
X036780Y001290D02*
X000360Y001290D01*
X000360Y001131D02*
X036780Y001131D01*
X036780Y000973D02*
X000360Y000973D01*
X000360Y000814D02*
X036780Y000814D01*
X036780Y000656D02*
X000360Y000656D01*
X000360Y000497D02*
X036780Y000497D01*
X036780Y004143D02*
X031600Y004143D01*
X031629Y004301D02*
X036780Y004301D01*
X036780Y004777D02*
X032070Y004777D01*
X032180Y004935D02*
X036780Y004935D01*
X036780Y005094D02*
X032226Y005094D01*
X032223Y005252D02*
X036780Y005252D01*
X036780Y005411D02*
X032172Y005411D01*
X032053Y005569D02*
X036780Y005569D01*
X036780Y005728D02*
X030840Y005728D01*
X030840Y005886D02*
X036780Y005886D01*
X036780Y006045D02*
X030840Y006045D01*
X030840Y006203D02*
X036780Y006203D01*
X036780Y006362D02*
X030840Y006362D01*
X030840Y006520D02*
X036780Y006520D01*
X036780Y006679D02*
X030840Y006679D01*
X030840Y006837D02*
X036780Y006837D01*
X036780Y006996D02*
X030840Y006996D01*
X030840Y007154D02*
X036780Y007154D01*
X036780Y007313D02*
X030840Y007313D01*
X030840Y007471D02*
X036780Y007471D01*
X036780Y007630D02*
X030840Y007630D01*
X030840Y007788D02*
X036780Y007788D01*
X036780Y007947D02*
X030840Y007947D01*
X030840Y008105D02*
X036780Y008105D01*
X036780Y008264D02*
X034314Y008264D01*
X034267Y008244D02*
X034427Y008310D01*
X034550Y008433D01*
X034616Y008593D01*
X034616Y008767D01*
X034550Y008927D01*
X034427Y009050D01*
X034267Y009116D01*
X034093Y009116D01*
X033933Y009050D01*
X033810Y008927D01*
X033744Y008767D01*
X033744Y008593D01*
X033810Y008433D01*
X033933Y008310D01*
X034093Y008244D01*
X034267Y008244D01*
X034046Y008264D02*
X030840Y008264D01*
X030840Y008422D02*
X033822Y008422D01*
X033749Y008581D02*
X030840Y008581D01*
X030840Y008739D02*
X033744Y008739D01*
X033798Y008898D02*
X030840Y008898D01*
X030840Y009056D02*
X033949Y009056D01*
X034411Y009056D02*
X036780Y009056D01*
X036780Y008898D02*
X034562Y008898D01*
X034616Y008739D02*
X036780Y008739D01*
X036780Y008581D02*
X034611Y008581D01*
X034538Y008422D02*
X036780Y008422D01*
X036780Y009215D02*
X030840Y009215D01*
X030840Y009373D02*
X036780Y009373D01*
X036780Y011117D02*
X032174Y011117D01*
X032174Y011275D02*
X036780Y011275D01*
X036780Y011434D02*
X036259Y011434D01*
X036279Y011453D02*
X036340Y011600D01*
X036340Y011760D01*
X036279Y011907D01*
X036167Y012019D01*
X036020Y012080D01*
X035340Y012080D01*
X035193Y012019D01*
X035081Y011907D01*
X035020Y011760D01*
X035020Y011600D01*
X035081Y011453D01*
X035193Y011341D01*
X035340Y011280D01*
X036020Y011280D01*
X036167Y011341D01*
X036279Y011453D01*
X036337Y011592D02*
X036780Y011592D01*
X036780Y011751D02*
X036340Y011751D01*
X036277Y011909D02*
X036780Y011909D01*
X036780Y012068D02*
X036050Y012068D01*
X036210Y012385D02*
X036780Y012385D01*
X036780Y012543D02*
X036316Y012543D01*
X036340Y012702D02*
X036780Y012702D01*
X036780Y012860D02*
X036298Y012860D01*
X036780Y012226D02*
X032174Y012226D01*
X032168Y012068D02*
X035310Y012068D01*
X035083Y011909D02*
X032103Y011909D01*
X031935Y011751D02*
X035020Y011751D01*
X035023Y011592D02*
X031967Y011592D01*
X032110Y011434D02*
X035101Y011434D01*
X035150Y012385D02*
X032130Y012385D01*
X032016Y012543D02*
X035044Y012543D01*
X036035Y014287D02*
X036780Y014287D01*
X036780Y014445D02*
X036271Y014445D01*
X036340Y014604D02*
X036780Y014604D01*
X036780Y014762D02*
X036339Y014762D01*
X036265Y014921D02*
X036780Y014921D01*
X036780Y015079D02*
X036022Y015079D01*
X036301Y016506D02*
X036780Y016506D01*
X036780Y016664D02*
X036340Y016664D01*
X036314Y016823D02*
X036780Y016823D01*
X036780Y016981D02*
X036205Y016981D01*
X036780Y019993D02*
X032137Y019993D01*
X032174Y020151D02*
X036780Y020151D01*
X036780Y020310D02*
X032161Y020310D01*
X032091Y020468D02*
X036780Y020468D01*
X036780Y020627D02*
X031894Y020627D01*
X031466Y020627D02*
X031360Y020627D01*
X031360Y020785D02*
X036780Y020785D01*
X036780Y020944D02*
X031360Y020944D01*
X031360Y021102D02*
X036780Y021102D01*
X036780Y021261D02*
X034306Y021261D01*
X034267Y021244D02*
X034427Y021310D01*
X034550Y021433D01*
X034616Y021593D01*
X034616Y021767D01*
X034550Y021927D01*
X034427Y022050D01*
X034267Y022116D01*
X034093Y022116D01*
X033933Y022050D01*
X033810Y021927D01*
X033744Y021767D01*
X033744Y021593D01*
X033810Y021433D01*
X033933Y021310D01*
X034093Y021244D01*
X034267Y021244D01*
X034054Y021261D02*
X031360Y021261D01*
X031360Y021419D02*
X033825Y021419D01*
X033751Y021578D02*
X031360Y021578D01*
X031360Y021736D02*
X033744Y021736D01*
X033797Y021895D02*
X031360Y021895D01*
X031360Y022053D02*
X033942Y022053D01*
X034418Y022053D02*
X036780Y022053D01*
X036780Y021895D02*
X034563Y021895D01*
X034616Y021736D02*
X036780Y021736D01*
X036780Y021578D02*
X034609Y021578D01*
X034535Y021419D02*
X036780Y021419D01*
X036780Y022212D02*
X031360Y022212D01*
X031360Y022370D02*
X036780Y022370D01*
X036780Y023480D02*
X036230Y023480D01*
X036207Y023638D02*
X036780Y023638D01*
X036780Y023797D02*
X036074Y023797D01*
X036183Y023955D02*
X036780Y023955D01*
X036780Y024114D02*
X036226Y024114D01*
X036222Y024272D02*
X036780Y024272D01*
X036780Y024431D02*
X036170Y024431D01*
X036049Y024589D02*
X036780Y024589D01*
X036780Y024748D02*
X035969Y024748D01*
X036119Y024906D02*
X036780Y024906D01*
X035700Y024114D02*
X035660Y024114D01*
X035660Y023955D02*
X035700Y023955D01*
X035700Y023797D02*
X035660Y023797D01*
X035660Y023638D02*
X035700Y023638D01*
X035700Y023480D02*
X035660Y023480D01*
X035660Y023321D02*
X035700Y023321D01*
X035130Y023321D02*
X032527Y023321D01*
X032642Y023480D02*
X035130Y023480D01*
X035153Y023638D02*
X032690Y023638D01*
X032690Y023797D02*
X035286Y023797D01*
X035177Y023955D02*
X032625Y023955D01*
X032483Y024114D02*
X035134Y024114D01*
X035138Y024272D02*
X032400Y024272D01*
X032400Y024431D02*
X035190Y024431D01*
X035311Y024589D02*
X032400Y024589D01*
X032400Y024748D02*
X035391Y024748D01*
X035241Y024906D02*
X032400Y024906D01*
X032180Y025664D02*
X032160Y025680D01*
X032160Y026220D01*
X032380Y026491D02*
X033227Y026491D01*
X033065Y026650D02*
X032380Y026650D01*
X034133Y026491D02*
X035270Y026491D01*
X035481Y026650D02*
X034295Y026650D01*
X034403Y026808D02*
X036780Y026808D01*
X036780Y026650D02*
X035879Y026650D01*
X036090Y026491D02*
X036780Y026491D01*
X036780Y026967D02*
X034468Y026967D01*
X034490Y027125D02*
X036780Y027125D01*
X036780Y027284D02*
X034490Y027284D01*
X034448Y027442D02*
X036780Y027442D01*
X036780Y027601D02*
X034382Y027601D01*
X034246Y027759D02*
X036780Y027759D01*
X036780Y027918D02*
X034016Y027918D01*
X036780Y029820D02*
X000360Y029820D01*
X021917Y025065D02*
X022243Y025065D01*
X022122Y024906D02*
X022038Y024906D01*
X022917Y025065D02*
X023243Y025065D01*
X023122Y024906D02*
X023038Y024906D01*
X023917Y025065D02*
X024243Y025065D01*
X024122Y024906D02*
X024038Y024906D01*
X025260Y024589D02*
X025534Y024589D01*
X025500Y024431D02*
X025260Y024431D01*
X025260Y024272D02*
X025500Y024272D01*
X025500Y024114D02*
X025260Y024114D01*
X025260Y023955D02*
X025500Y023955D01*
X025500Y023797D02*
X025260Y023797D01*
X025260Y023638D02*
X025500Y023638D01*
X025500Y023480D02*
X025260Y023480D01*
X025260Y023321D02*
X025500Y023321D01*
X025500Y023163D02*
X025260Y023163D01*
X025260Y023004D02*
X025500Y023004D01*
X025500Y022846D02*
X025260Y022846D01*
X025260Y022687D02*
X025500Y022687D01*
X025500Y022529D02*
X025260Y022529D01*
X025260Y022370D02*
X025500Y022370D01*
X025500Y022212D02*
X025260Y022212D01*
X025418Y022053D02*
X025500Y022053D01*
X025295Y024748D02*
X029238Y024748D01*
X029079Y024906D02*
X025399Y024906D01*
X025378Y025065D02*
X028921Y025065D01*
X025689Y026808D02*
X025671Y026808D01*
X025671Y026967D02*
X025689Y026967D01*
X025689Y027125D02*
X025671Y027125D01*
X025335Y027125D02*
X023600Y027125D01*
X023441Y026967D02*
X025201Y026967D01*
X025141Y026808D02*
X023283Y026808D01*
X023124Y026650D02*
X025130Y026650D01*
X025168Y026491D02*
X022966Y026491D01*
X022807Y026333D02*
X025265Y026333D01*
X041180Y024180D02*
X041220Y024240D01*
X041220Y024180D02*
X041180Y024180D01*
X041220Y024180D02*
X041220Y023220D01*
X041180Y023180D01*
X029650Y010324D02*
X029419Y010324D01*
X029260Y010166D02*
X029789Y010166D01*
X029536Y010007D02*
X029102Y010007D01*
X028943Y009849D02*
X029443Y009849D01*
X029414Y009690D02*
X028920Y009690D01*
X028920Y009532D02*
X029435Y009532D01*
X029516Y009373D02*
X028920Y009373D01*
X028920Y009215D02*
X029660Y009215D01*
X029660Y009056D02*
X029411Y009056D01*
X029562Y008898D02*
X029660Y008898D01*
X029660Y008739D02*
X029616Y008739D01*
X029611Y008581D02*
X029660Y008581D01*
X029660Y008422D02*
X029538Y008422D01*
X029660Y008264D02*
X029314Y008264D01*
X029046Y008264D02*
X028920Y008264D01*
X028920Y008105D02*
X029660Y008105D01*
X029660Y007947D02*
X028920Y007947D01*
X028920Y007788D02*
X029660Y007788D01*
X029660Y007630D02*
X028920Y007630D01*
X028920Y007471D02*
X029660Y007471D01*
X029660Y007313D02*
X028920Y007313D01*
X028920Y007154D02*
X029523Y007154D01*
X029364Y006996D02*
X028920Y006996D01*
X028920Y006837D02*
X029206Y006837D01*
X028996Y006679D02*
X028920Y006679D01*
X028920Y006520D02*
X028960Y006520D01*
X028920Y006362D02*
X029031Y006362D01*
X028920Y006203D02*
X030128Y006203D01*
X030240Y006362D02*
X029409Y006362D01*
X029511Y006520D02*
X030240Y006520D01*
X030240Y006679D02*
X029670Y006679D01*
X029828Y006837D02*
X030240Y006837D01*
X030174Y006996D02*
X029987Y006996D01*
X030100Y007154D02*
X030169Y007154D01*
X030100Y007313D02*
X030302Y007313D01*
X030480Y007471D02*
X030100Y007471D01*
X030100Y007630D02*
X030480Y007630D01*
X030480Y007788D02*
X030100Y007788D01*
X030100Y007947D02*
X030480Y007947D01*
X030480Y008105D02*
X030100Y008105D01*
X030100Y008264D02*
X030480Y008264D01*
X030480Y008422D02*
X030100Y008422D01*
X030100Y008581D02*
X030480Y008581D01*
X030480Y008739D02*
X030100Y008739D01*
X030100Y008898D02*
X030480Y008898D01*
X030480Y009056D02*
X030100Y009056D01*
X030100Y009215D02*
X030480Y009215D01*
X030480Y009373D02*
X030300Y009373D01*
X030382Y009532D02*
X030480Y009532D01*
X029908Y009680D02*
X029880Y009660D01*
X029880Y007200D01*
X029220Y006540D01*
X028920Y006045D02*
X029970Y006045D01*
X029811Y005886D02*
X028920Y005886D01*
X028920Y005728D02*
X029653Y005728D01*
X029494Y005569D02*
X028920Y005569D01*
X028920Y005411D02*
X029336Y005411D01*
X029177Y005252D02*
X028920Y005252D01*
X029019Y005094D02*
X028808Y005094D01*
X028860Y004935D02*
X028650Y004935D01*
X028702Y004777D02*
X028491Y004777D01*
X028543Y004618D02*
X028333Y004618D01*
X028272Y004460D02*
X028174Y004460D01*
X028180Y004301D02*
X028016Y004301D01*
X027860Y004143D02*
X028207Y004143D01*
X027812Y003984D02*
X029260Y003984D01*
X029335Y004143D02*
X028673Y004143D01*
X028736Y004301D02*
X030460Y004301D01*
X030480Y004460D02*
X028894Y004460D01*
X029053Y004618D02*
X030463Y004618D01*
X030480Y004777D02*
X029211Y004777D01*
X029370Y004935D02*
X030480Y004935D01*
X030480Y005094D02*
X029528Y005094D01*
X029687Y005252D02*
X030480Y005252D01*
X030480Y005411D02*
X029845Y005411D01*
X030004Y005569D02*
X030480Y005569D01*
X030480Y005728D02*
X030162Y005728D01*
X030321Y005886D02*
X030480Y005886D01*
X030479Y006045D02*
X030480Y006045D01*
X029820Y004260D02*
X029820Y002580D01*
X029880Y002520D01*
X029880Y002460D01*
X030420Y001920D01*
X030420Y001740D01*
X030460Y001924D02*
X028218Y001924D01*
X028377Y002082D02*
X030514Y002082D01*
X030540Y002241D02*
X028535Y002241D01*
X028694Y002399D02*
X030540Y002399D01*
X030540Y002558D02*
X028852Y002558D01*
X029011Y002716D02*
X030540Y002716D01*
X030540Y002875D02*
X029169Y002875D01*
X029328Y003033D02*
X030540Y003033D01*
X030540Y003192D02*
X029460Y003192D01*
X029460Y003350D02*
X030540Y003350D01*
X030540Y003509D02*
X029460Y003509D01*
X029482Y003667D02*
X030540Y003667D01*
X030540Y003826D02*
X029746Y003826D01*
X029780Y003984D02*
X030540Y003984D01*
X030487Y004143D02*
X029705Y004143D01*
X028905Y003826D02*
X027800Y003826D01*
X027735Y003667D02*
X028786Y003667D01*
X028694Y003509D02*
X028659Y003509D01*
X028920Y009056D02*
X028949Y009056D01*
X015960Y014604D02*
X015929Y014604D01*
D12*
X014908Y012680D03*
X016680Y012180D03*
X016680Y011180D03*
X016680Y010180D03*
X014908Y009680D03*
X010680Y010180D03*
X010680Y011180D03*
X010680Y012180D03*
X008908Y012680D03*
X008908Y009680D03*
X020908Y009680D03*
X022680Y010180D03*
X022680Y011180D03*
X022680Y012180D03*
X020908Y012680D03*
X020908Y017680D03*
X022680Y018180D03*
X022680Y019180D03*
X022680Y020180D03*
X020908Y020680D03*
X016680Y020180D03*
X016680Y019180D03*
X016680Y018180D03*
X014908Y017680D03*
X010680Y018180D03*
X010680Y019180D03*
X010680Y020180D03*
X008908Y020680D03*
X008908Y017680D03*
X014908Y020680D03*
X029908Y020680D03*
X031680Y020180D03*
X031680Y019180D03*
X031680Y018180D03*
X029908Y017680D03*
X029908Y012680D03*
X031680Y012180D03*
X031680Y011180D03*
X031680Y010180D03*
X029908Y009680D03*
D13*
X024580Y005680D03*
X023580Y005680D03*
X022580Y005680D03*
X021580Y005680D03*
X020580Y005680D03*
X019580Y005680D03*
X017580Y005680D03*
X016580Y005680D03*
X015580Y005680D03*
X014580Y005680D03*
X013580Y005680D03*
X012580Y005680D03*
X014196Y003680D03*
X016164Y003680D03*
X004117Y010600D03*
X004117Y011600D03*
X004117Y012600D03*
X004117Y013600D03*
X004117Y014600D03*
X009080Y024680D03*
X010080Y024680D03*
X011080Y024680D03*
X012080Y024680D03*
X013080Y024680D03*
X014080Y024680D03*
X015080Y024680D03*
X016080Y024680D03*
X017580Y024680D03*
X018580Y024680D03*
X019580Y024680D03*
X020580Y024680D03*
X021580Y024680D03*
X022580Y024680D03*
X023580Y024680D03*
X024580Y024680D03*
X025680Y026696D03*
X025680Y028664D03*
X032180Y025664D03*
X032180Y023696D03*
X035680Y024180D03*
X035680Y025180D03*
X035680Y026180D03*
X041180Y026180D03*
X041180Y025180D03*
X041180Y024180D03*
X046180Y024180D03*
X046180Y025180D03*
X046180Y026180D03*
X024060Y021780D03*
X024060Y020780D03*
X024060Y019780D03*
X024060Y018780D03*
X024060Y017780D03*
X041180Y007680D03*
X041180Y006680D03*
X041180Y005680D03*
X046180Y005680D03*
X046180Y006680D03*
X046180Y007680D03*
X031680Y005164D03*
X031680Y003196D03*
D14*
X044369Y000711D03*
X044369Y029649D03*
X042991Y029649D03*
D15*
X042026Y028015D03*
X045334Y027542D03*
X045334Y002818D03*
X042026Y002345D03*
D16*
X041180Y004680D03*
X046180Y004680D03*
X024060Y022780D03*
X035680Y023180D03*
X041180Y023180D03*
X046180Y023180D03*
X004117Y015600D03*
D17*
X009680Y015440D02*
X009680Y014920D01*
X010680Y014920D02*
X010680Y015440D01*
X011680Y015440D02*
X011680Y014920D01*
X012680Y014920D02*
X012680Y015440D01*
X013680Y015440D02*
X013680Y014920D01*
X014680Y014920D02*
X014680Y015440D01*
X015680Y015440D02*
X015680Y014920D01*
X016680Y014920D02*
X016680Y015440D01*
X018180Y015440D02*
X018180Y014920D01*
X019180Y014920D02*
X019180Y015440D01*
X020180Y015440D02*
X020180Y014920D01*
X021180Y014920D02*
X021180Y015440D01*
X022180Y015440D02*
X022180Y014920D01*
X023180Y014920D02*
X023180Y015440D01*
X024180Y015440D02*
X024180Y014920D01*
X025180Y014920D02*
X025180Y015440D01*
X035420Y015680D02*
X035940Y015680D01*
X035940Y014680D02*
X035420Y014680D01*
X035420Y013680D02*
X035940Y013680D01*
X035940Y012680D02*
X035420Y012680D01*
X035420Y011680D02*
X035940Y011680D01*
X035940Y016680D02*
X035420Y016680D01*
X035420Y017680D02*
X035940Y017680D01*
X035940Y018680D02*
X035420Y018680D01*
X024180Y007940D02*
X024180Y007420D01*
X023180Y007420D02*
X023180Y007940D01*
X022180Y007940D02*
X022180Y007420D01*
X021180Y007420D02*
X021180Y007940D01*
X020180Y007940D02*
X020180Y007420D01*
X019180Y007420D02*
X019180Y007940D01*
X018180Y007940D02*
X018180Y007420D01*
X017180Y007420D02*
X017180Y007940D01*
D18*
X016320Y010680D03*
X018180Y011280D03*
X021780Y012900D03*
X023400Y016020D03*
X026940Y013020D03*
X028560Y012000D03*
X030600Y011760D03*
X029760Y010560D03*
X027180Y010020D03*
X030420Y007080D03*
X029220Y006540D03*
X027540Y005340D03*
X028440Y004260D03*
X027600Y004140D03*
X027540Y003840D03*
X027300Y003600D03*
X028440Y003360D03*
X028440Y002760D03*
X029040Y003600D03*
X029520Y003960D03*
X029820Y004260D03*
X030720Y004260D03*
X030720Y004560D03*
X031380Y004380D03*
X029880Y002460D03*
X030720Y001920D03*
X024900Y002520D03*
X024960Y003360D03*
X021600Y002940D03*
X021360Y002700D03*
X021780Y004800D03*
X012960Y008220D03*
X012480Y014100D03*
X006960Y015600D03*
X014580Y018180D03*
X011040Y021240D03*
X012180Y022740D03*
X019500Y027300D03*
X021960Y027780D03*
X023760Y027540D03*
X026700Y025200D03*
X028260Y025980D03*
X028320Y026280D03*
X028680Y024240D03*
X029460Y024420D03*
X028920Y023460D03*
X027540Y022260D03*
X025140Y024960D03*
X020460Y025260D03*
X023460Y021900D03*
D19*
X019740Y018180D01*
X019740Y005820D01*
X019620Y005700D01*
X019580Y005680D01*
X019080Y005460D02*
X019080Y007620D01*
X019140Y007680D01*
X019180Y007680D01*
X018180Y007680D02*
X018180Y011280D01*
X017940Y010740D02*
X017940Y014940D01*
X018180Y015180D01*
X016680Y015180D02*
X016140Y014640D01*
X016140Y010860D01*
X016320Y010680D01*
X016800Y009600D02*
X017940Y010740D01*
X016800Y009600D02*
X016800Y007020D01*
X017100Y006720D01*
X017100Y002280D01*
X025020Y002280D01*
X025140Y002400D01*
X025140Y002760D01*
X028440Y002760D01*
X028560Y003120D02*
X025620Y003120D01*
X025620Y012660D01*
X024180Y014100D01*
X024180Y015180D01*
X023640Y014760D02*
X021780Y012900D01*
X022680Y012180D02*
X022140Y011640D01*
X022140Y007680D01*
X022180Y007680D01*
X021540Y007500D02*
X021540Y013860D01*
X020220Y015180D01*
X020180Y015180D01*
X023160Y015180D02*
X023180Y015180D01*
X023160Y015180D02*
X023160Y018960D01*
X023220Y019020D01*
X023220Y019620D01*
X022680Y020160D01*
X022680Y020180D01*
X021060Y020820D02*
X020940Y020700D01*
X020908Y020680D01*
X021060Y020820D02*
X021060Y024840D01*
X023760Y027540D01*
X021960Y027780D02*
X019080Y024900D01*
X019080Y023520D01*
X012060Y016500D01*
X012060Y014760D01*
X010020Y012720D01*
X008940Y012720D01*
X008908Y012680D01*
X011220Y012840D02*
X011220Y010740D01*
X010680Y010200D01*
X010680Y010180D01*
X012720Y008460D02*
X012720Y015180D01*
X012680Y015180D01*
X011680Y015180D02*
X011640Y015180D01*
X011220Y015600D01*
X011220Y019620D01*
X010680Y020160D01*
X010680Y020180D01*
X011040Y021240D02*
X007740Y017940D01*
X007740Y015840D01*
X006840Y015840D01*
X005940Y014940D01*
X005940Y014640D01*
X004140Y014640D01*
X004117Y014600D01*
X004117Y015600D02*
X006360Y015600D01*
X006780Y016020D01*
X007560Y016020D01*
X007560Y018120D01*
X012180Y022740D01*
X014940Y022740D02*
X014940Y020700D01*
X014908Y020680D01*
X015420Y019620D02*
X015420Y015720D01*
X015060Y015360D01*
X015060Y012840D01*
X014940Y012720D01*
X014908Y012680D01*
X012480Y014100D02*
X011220Y012840D01*
X013740Y014280D02*
X014640Y015180D01*
X014680Y015180D01*
X013740Y015240D02*
X013740Y017340D01*
X014580Y018180D01*
X015420Y019620D02*
X020100Y024300D01*
X020100Y024900D01*
X020460Y025260D01*
X019500Y027300D02*
X014940Y022740D01*
X016680Y020180D02*
X016680Y020160D01*
X016140Y019620D01*
X016140Y015600D01*
X015720Y015180D01*
X015680Y015180D01*
X013740Y015240D02*
X013680Y015180D01*
X013740Y014280D02*
X013740Y008640D01*
X013080Y007980D01*
X013080Y002100D01*
X028140Y002100D01*
X029280Y003240D01*
X029280Y003720D01*
X029520Y003960D01*
X029040Y003600D02*
X028560Y003120D01*
X028440Y003360D02*
X026940Y003360D01*
X026940Y013020D01*
X028560Y012000D02*
X028560Y006000D01*
X027360Y004800D01*
X027360Y004020D01*
X027540Y003840D01*
X027600Y004140D02*
X028740Y005280D01*
X028740Y009900D01*
X030600Y011760D01*
X029908Y012680D02*
X029880Y012720D01*
X029880Y016560D01*
X029400Y017040D01*
X029400Y020820D01*
X029700Y021120D01*
X029700Y024540D01*
X028260Y025980D01*
X028320Y026280D02*
X029880Y024720D01*
X029880Y020700D01*
X029908Y020680D01*
X027540Y022260D02*
X027540Y005340D01*
X028440Y004260D02*
X030420Y006240D01*
X030420Y007080D01*
X030660Y004620D02*
X030660Y009660D01*
X029760Y010560D01*
X027180Y010020D02*
X027180Y003720D01*
X027300Y003600D01*
X024960Y003360D02*
X023100Y005220D01*
X023100Y007620D01*
X023160Y007680D01*
X023180Y007680D01*
X024180Y007680D02*
X022680Y009180D01*
X022680Y010180D01*
X023820Y008820D02*
X024540Y008100D01*
X024540Y006660D01*
X023580Y005700D01*
X023580Y005680D01*
X022080Y005340D02*
X022080Y006960D01*
X021540Y007500D01*
X021180Y007680D02*
X021060Y007560D01*
X021060Y005520D01*
X021780Y004800D01*
X022080Y005340D02*
X024900Y002520D01*
X021600Y002940D02*
X019080Y005460D01*
X017220Y006840D02*
X017220Y007680D01*
X017180Y007680D01*
X017220Y006840D02*
X021360Y002700D01*
X030720Y001920D02*
X030720Y004260D01*
X030720Y004560D02*
X030660Y004620D01*
X023820Y008820D02*
X023820Y015900D01*
X025680Y017760D01*
X025680Y024480D01*
X028800Y024480D01*
X028860Y024420D01*
X029460Y024420D01*
X029460Y024000D01*
X028920Y023460D01*
X028680Y023400D02*
X028680Y024240D01*
X028680Y023400D02*
X027540Y022260D01*
X025080Y022140D02*
X024540Y021600D01*
X024540Y016860D01*
X023640Y015960D01*
X023640Y014760D01*
X023400Y016020D02*
X024060Y016680D01*
X024060Y017780D01*
X025080Y022140D02*
X025080Y024900D01*
X025140Y024960D01*
X032220Y025140D02*
X032220Y023700D01*
X032180Y023696D01*
X032220Y025140D02*
X035640Y025140D01*
X035680Y025180D01*
X035700Y025200D01*
X041160Y025200D01*
X041180Y025180D01*
X041220Y025200D01*
X042960Y026940D01*
X042960Y029640D01*
X042991Y029649D01*
X010680Y018180D02*
X010680Y016140D01*
X009720Y015180D01*
X009680Y015180D01*
X006960Y015420D02*
X006960Y015600D01*
X006960Y015420D02*
X004140Y012600D01*
X004117Y012600D01*
X012720Y008460D02*
X012960Y008220D01*
M02*
