%
M48
M72
T01C0.0120
T02C0.0320
T03C0.0354
T04C0.0400
T05C0.0472
T06C0.0512
T07C0.0591
T08C0.0787
T09C0.1260
%
T01
X12960Y8220
X16320Y10680
X18180Y11280
X21780Y12900
X23400Y16020
X26940Y13020
X28560Y12000
X30600Y11760
X29760Y10560
X27180Y10020
X30420Y7080
X29220Y6540
X27540Y5340
X28440Y4260
X27600Y4140
X27540Y3840
X27300Y3600
X28440Y3360
X28440Y2760
X29040Y3600
X29520Y3960
X29820Y4260
X30720Y4260
X30720Y4560
X31380Y4380
X29880Y2460
X30720Y1920
X24900Y2520
X24960Y3360
X21600Y2940
X21360Y2700
X21780Y4800
X12480Y14100
X6960Y15600
X14580Y18180
X11040Y21240
X12180Y22740
X19500Y27300
X21960Y27780
X23760Y27540
X26700Y25200
X28260Y25980
X28320Y26280
X28680Y24240
X29460Y24420
X28920Y23460
X27540Y22260
X25140Y24960
X20460Y25260
X23460Y21900
T02
X23180Y15180
X22180Y15180
X21180Y15180
X20180Y15180
X19180Y15180
X18180Y15180
X16680Y15180
X15680Y15180
X14680Y15180
X13680Y15180
X12680Y15180
X11680Y15180
X10680Y15180
X9680Y15180
X17180Y7680
X18180Y7680
X19180Y7680
X20180Y7680
X21180Y7680
X22180Y7680
X23180Y7680
X24180Y7680
X24180Y15180
X25180Y15180
X35680Y14680
X35680Y13680
X35680Y12680
X35680Y11680
X35680Y15680
X35680Y16680
X35680Y17680
X35680Y18680
T03
X32180Y23696
X32180Y25664
X25680Y26696
X25680Y28664
X31680Y5164
X31680Y3196
X16164Y3680
X14196Y3680
T04
X14580Y5680
X13580Y5680
X12580Y5680
X15580Y5680
X16580Y5680
X17580Y5680
X19580Y5680
X20580Y5680
X21580Y5680
X22580Y5680
X23580Y5680
X24580Y5680
X41180Y5680
X41180Y4680
X41180Y6680
X41180Y7680
X46180Y7680
X46180Y6680
X46180Y5680
X46180Y4680
X24060Y17780
X24060Y18780
X24060Y19780
X24060Y20780
X24060Y21780
X24060Y22780
X23580Y24680
X22580Y24680
X21580Y24680
X20580Y24680
X19580Y24680
X18580Y24680
X17580Y24680
X16080Y24680
X15080Y24680
X14080Y24680
X13080Y24680
X12080Y24680
X11080Y24680
X10080Y24680
X9080Y24680
X4117Y15600
X4117Y14600
X4117Y13600
X4117Y12600
X4117Y11600
X4117Y10600
X24580Y24680
X35680Y24180
X35680Y23180
X35680Y25180
X35680Y26180
X41180Y26180
X41180Y25180
X41180Y24180
X41180Y23180
X46180Y23180
X46180Y24180
X46180Y25180
X46180Y26180
T05
X31680Y20180
X31680Y19180
X31680Y18180
X29908Y17680
X29908Y20680
X22680Y20180
X22680Y19180
X22680Y18180
X20908Y17680
X16680Y18180
X16680Y19180
X16680Y20180
X14908Y20680
X10680Y20180
X10680Y19180
X10680Y18180
X8908Y17680
X8908Y20680
X14908Y17680
X20908Y20680
X20908Y12680
X22680Y12180
X22680Y11180
X22680Y10180
X20908Y9680
X16680Y10180
X16680Y11180
X16680Y12180
X14908Y12680
X10680Y12180
X10680Y11180
X10680Y10180
X8908Y9680
X8908Y12680
X14908Y9680
X29908Y9680
X31680Y10180
X31680Y11180
X31680Y12180
X29908Y12680
T06
X29180Y13680
X25180Y13680
X25180Y16680
X29180Y16680
X34180Y16680
X34180Y13680
X34180Y8680
X29180Y8680
X25180Y8680
X20180Y8680
X19180Y8680
X14180Y8680
X13180Y8680
X8180Y8680
X8180Y13680
X8180Y16680
X13180Y16680
X14180Y16680
X14180Y13680
X13180Y13680
X19180Y13680
X20180Y13680
X20180Y16680
X19180Y16680
X19180Y21680
X20180Y21680
X25180Y21680
X29180Y21680
X34180Y21680
X14180Y21680
X13180Y21680
X8180Y21680
T07
X42991Y29649
X44369Y29649
X44369Y711
T08
X42026Y2345
X45334Y2818
X45334Y27542
X42026Y28015
T09
X4680Y3180
X33680Y3180
X33680Y27180
X4680Y27180
M30
