G75*
G70*
%OFA0B0*%
%FSLAX24Y24*%
%IPPOS*%
%LPD*%
%AMOC8*
5,1,8,0,0,1.08239X$1,22.5*
%
%ADD10C,0.0000*%
%ADD11C,0.0160*%
%ADD12C,0.1000*%
%ADD13C,0.0030*%
%ADD14C,0.0060*%
%ADD15C,0.0050*%
%ADD16C,0.0040*%
%ADD17C,0.0080*%
%ADD18C,0.0010*%
%ADD19C,0.0020*%
D10*
X000180Y000180D02*
X000180Y016400D01*
X000180Y030101D01*
X047361Y030101D01*
X047361Y000180D01*
X000180Y000180D01*
X004050Y003180D02*
X004052Y003230D01*
X004058Y003280D01*
X004068Y003329D01*
X004082Y003377D01*
X004099Y003424D01*
X004120Y003469D01*
X004145Y003513D01*
X004173Y003554D01*
X004205Y003593D01*
X004239Y003630D01*
X004276Y003664D01*
X004316Y003694D01*
X004358Y003721D01*
X004402Y003745D01*
X004448Y003766D01*
X004495Y003782D01*
X004543Y003795D01*
X004593Y003804D01*
X004642Y003809D01*
X004693Y003810D01*
X004743Y003807D01*
X004792Y003800D01*
X004841Y003789D01*
X004889Y003774D01*
X004935Y003756D01*
X004980Y003734D01*
X005023Y003708D01*
X005064Y003679D01*
X005103Y003647D01*
X005139Y003612D01*
X005171Y003574D01*
X005201Y003534D01*
X005228Y003491D01*
X005251Y003447D01*
X005270Y003401D01*
X005286Y003353D01*
X005298Y003304D01*
X005306Y003255D01*
X005310Y003205D01*
X005310Y003155D01*
X005306Y003105D01*
X005298Y003056D01*
X005286Y003007D01*
X005270Y002959D01*
X005251Y002913D01*
X005228Y002869D01*
X005201Y002826D01*
X005171Y002786D01*
X005139Y002748D01*
X005103Y002713D01*
X005064Y002681D01*
X005023Y002652D01*
X004980Y002626D01*
X004935Y002604D01*
X004889Y002586D01*
X004841Y002571D01*
X004792Y002560D01*
X004743Y002553D01*
X004693Y002550D01*
X004642Y002551D01*
X004593Y002556D01*
X004543Y002565D01*
X004495Y002578D01*
X004448Y002594D01*
X004402Y002615D01*
X004358Y002639D01*
X004316Y002666D01*
X004276Y002696D01*
X004239Y002730D01*
X004205Y002767D01*
X004173Y002806D01*
X004145Y002847D01*
X004120Y002891D01*
X004099Y002936D01*
X004082Y002983D01*
X004068Y003031D01*
X004058Y003080D01*
X004052Y003130D01*
X004050Y003180D01*
X007924Y008680D02*
X007926Y008711D01*
X007932Y008742D01*
X007941Y008772D01*
X007954Y008801D01*
X007971Y008828D01*
X007991Y008852D01*
X008013Y008874D01*
X008039Y008893D01*
X008066Y008909D01*
X008095Y008921D01*
X008125Y008930D01*
X008156Y008935D01*
X008188Y008936D01*
X008219Y008933D01*
X008250Y008926D01*
X008280Y008916D01*
X008308Y008902D01*
X008334Y008884D01*
X008358Y008864D01*
X008379Y008840D01*
X008398Y008815D01*
X008413Y008787D01*
X008424Y008758D01*
X008432Y008727D01*
X008436Y008696D01*
X008436Y008664D01*
X008432Y008633D01*
X008424Y008602D01*
X008413Y008573D01*
X008398Y008545D01*
X008379Y008520D01*
X008358Y008496D01*
X008334Y008476D01*
X008308Y008458D01*
X008280Y008444D01*
X008250Y008434D01*
X008219Y008427D01*
X008188Y008424D01*
X008156Y008425D01*
X008125Y008430D01*
X008095Y008439D01*
X008066Y008451D01*
X008039Y008467D01*
X008013Y008486D01*
X007991Y008508D01*
X007971Y008532D01*
X007954Y008559D01*
X007941Y008588D01*
X007932Y008618D01*
X007926Y008649D01*
X007924Y008680D01*
X012924Y008680D02*
X012926Y008711D01*
X012932Y008742D01*
X012941Y008772D01*
X012954Y008801D01*
X012971Y008828D01*
X012991Y008852D01*
X013013Y008874D01*
X013039Y008893D01*
X013066Y008909D01*
X013095Y008921D01*
X013125Y008930D01*
X013156Y008935D01*
X013188Y008936D01*
X013219Y008933D01*
X013250Y008926D01*
X013280Y008916D01*
X013308Y008902D01*
X013334Y008884D01*
X013358Y008864D01*
X013379Y008840D01*
X013398Y008815D01*
X013413Y008787D01*
X013424Y008758D01*
X013432Y008727D01*
X013436Y008696D01*
X013436Y008664D01*
X013432Y008633D01*
X013424Y008602D01*
X013413Y008573D01*
X013398Y008545D01*
X013379Y008520D01*
X013358Y008496D01*
X013334Y008476D01*
X013308Y008458D01*
X013280Y008444D01*
X013250Y008434D01*
X013219Y008427D01*
X013188Y008424D01*
X013156Y008425D01*
X013125Y008430D01*
X013095Y008439D01*
X013066Y008451D01*
X013039Y008467D01*
X013013Y008486D01*
X012991Y008508D01*
X012971Y008532D01*
X012954Y008559D01*
X012941Y008588D01*
X012932Y008618D01*
X012926Y008649D01*
X012924Y008680D01*
X013924Y008680D02*
X013926Y008711D01*
X013932Y008742D01*
X013941Y008772D01*
X013954Y008801D01*
X013971Y008828D01*
X013991Y008852D01*
X014013Y008874D01*
X014039Y008893D01*
X014066Y008909D01*
X014095Y008921D01*
X014125Y008930D01*
X014156Y008935D01*
X014188Y008936D01*
X014219Y008933D01*
X014250Y008926D01*
X014280Y008916D01*
X014308Y008902D01*
X014334Y008884D01*
X014358Y008864D01*
X014379Y008840D01*
X014398Y008815D01*
X014413Y008787D01*
X014424Y008758D01*
X014432Y008727D01*
X014436Y008696D01*
X014436Y008664D01*
X014432Y008633D01*
X014424Y008602D01*
X014413Y008573D01*
X014398Y008545D01*
X014379Y008520D01*
X014358Y008496D01*
X014334Y008476D01*
X014308Y008458D01*
X014280Y008444D01*
X014250Y008434D01*
X014219Y008427D01*
X014188Y008424D01*
X014156Y008425D01*
X014125Y008430D01*
X014095Y008439D01*
X014066Y008451D01*
X014039Y008467D01*
X014013Y008486D01*
X013991Y008508D01*
X013971Y008532D01*
X013954Y008559D01*
X013941Y008588D01*
X013932Y008618D01*
X013926Y008649D01*
X013924Y008680D01*
X018924Y008680D02*
X018926Y008711D01*
X018932Y008742D01*
X018941Y008772D01*
X018954Y008801D01*
X018971Y008828D01*
X018991Y008852D01*
X019013Y008874D01*
X019039Y008893D01*
X019066Y008909D01*
X019095Y008921D01*
X019125Y008930D01*
X019156Y008935D01*
X019188Y008936D01*
X019219Y008933D01*
X019250Y008926D01*
X019280Y008916D01*
X019308Y008902D01*
X019334Y008884D01*
X019358Y008864D01*
X019379Y008840D01*
X019398Y008815D01*
X019413Y008787D01*
X019424Y008758D01*
X019432Y008727D01*
X019436Y008696D01*
X019436Y008664D01*
X019432Y008633D01*
X019424Y008602D01*
X019413Y008573D01*
X019398Y008545D01*
X019379Y008520D01*
X019358Y008496D01*
X019334Y008476D01*
X019308Y008458D01*
X019280Y008444D01*
X019250Y008434D01*
X019219Y008427D01*
X019188Y008424D01*
X019156Y008425D01*
X019125Y008430D01*
X019095Y008439D01*
X019066Y008451D01*
X019039Y008467D01*
X019013Y008486D01*
X018991Y008508D01*
X018971Y008532D01*
X018954Y008559D01*
X018941Y008588D01*
X018932Y008618D01*
X018926Y008649D01*
X018924Y008680D01*
X019924Y008680D02*
X019926Y008711D01*
X019932Y008742D01*
X019941Y008772D01*
X019954Y008801D01*
X019971Y008828D01*
X019991Y008852D01*
X020013Y008874D01*
X020039Y008893D01*
X020066Y008909D01*
X020095Y008921D01*
X020125Y008930D01*
X020156Y008935D01*
X020188Y008936D01*
X020219Y008933D01*
X020250Y008926D01*
X020280Y008916D01*
X020308Y008902D01*
X020334Y008884D01*
X020358Y008864D01*
X020379Y008840D01*
X020398Y008815D01*
X020413Y008787D01*
X020424Y008758D01*
X020432Y008727D01*
X020436Y008696D01*
X020436Y008664D01*
X020432Y008633D01*
X020424Y008602D01*
X020413Y008573D01*
X020398Y008545D01*
X020379Y008520D01*
X020358Y008496D01*
X020334Y008476D01*
X020308Y008458D01*
X020280Y008444D01*
X020250Y008434D01*
X020219Y008427D01*
X020188Y008424D01*
X020156Y008425D01*
X020125Y008430D01*
X020095Y008439D01*
X020066Y008451D01*
X020039Y008467D01*
X020013Y008486D01*
X019991Y008508D01*
X019971Y008532D01*
X019954Y008559D01*
X019941Y008588D01*
X019932Y008618D01*
X019926Y008649D01*
X019924Y008680D01*
X024924Y008680D02*
X024926Y008711D01*
X024932Y008742D01*
X024941Y008772D01*
X024954Y008801D01*
X024971Y008828D01*
X024991Y008852D01*
X025013Y008874D01*
X025039Y008893D01*
X025066Y008909D01*
X025095Y008921D01*
X025125Y008930D01*
X025156Y008935D01*
X025188Y008936D01*
X025219Y008933D01*
X025250Y008926D01*
X025280Y008916D01*
X025308Y008902D01*
X025334Y008884D01*
X025358Y008864D01*
X025379Y008840D01*
X025398Y008815D01*
X025413Y008787D01*
X025424Y008758D01*
X025432Y008727D01*
X025436Y008696D01*
X025436Y008664D01*
X025432Y008633D01*
X025424Y008602D01*
X025413Y008573D01*
X025398Y008545D01*
X025379Y008520D01*
X025358Y008496D01*
X025334Y008476D01*
X025308Y008458D01*
X025280Y008444D01*
X025250Y008434D01*
X025219Y008427D01*
X025188Y008424D01*
X025156Y008425D01*
X025125Y008430D01*
X025095Y008439D01*
X025066Y008451D01*
X025039Y008467D01*
X025013Y008486D01*
X024991Y008508D01*
X024971Y008532D01*
X024954Y008559D01*
X024941Y008588D01*
X024932Y008618D01*
X024926Y008649D01*
X024924Y008680D01*
X028924Y008680D02*
X028926Y008711D01*
X028932Y008742D01*
X028941Y008772D01*
X028954Y008801D01*
X028971Y008828D01*
X028991Y008852D01*
X029013Y008874D01*
X029039Y008893D01*
X029066Y008909D01*
X029095Y008921D01*
X029125Y008930D01*
X029156Y008935D01*
X029188Y008936D01*
X029219Y008933D01*
X029250Y008926D01*
X029280Y008916D01*
X029308Y008902D01*
X029334Y008884D01*
X029358Y008864D01*
X029379Y008840D01*
X029398Y008815D01*
X029413Y008787D01*
X029424Y008758D01*
X029432Y008727D01*
X029436Y008696D01*
X029436Y008664D01*
X029432Y008633D01*
X029424Y008602D01*
X029413Y008573D01*
X029398Y008545D01*
X029379Y008520D01*
X029358Y008496D01*
X029334Y008476D01*
X029308Y008458D01*
X029280Y008444D01*
X029250Y008434D01*
X029219Y008427D01*
X029188Y008424D01*
X029156Y008425D01*
X029125Y008430D01*
X029095Y008439D01*
X029066Y008451D01*
X029039Y008467D01*
X029013Y008486D01*
X028991Y008508D01*
X028971Y008532D01*
X028954Y008559D01*
X028941Y008588D01*
X028932Y008618D01*
X028926Y008649D01*
X028924Y008680D01*
X033924Y008680D02*
X033926Y008711D01*
X033932Y008742D01*
X033941Y008772D01*
X033954Y008801D01*
X033971Y008828D01*
X033991Y008852D01*
X034013Y008874D01*
X034039Y008893D01*
X034066Y008909D01*
X034095Y008921D01*
X034125Y008930D01*
X034156Y008935D01*
X034188Y008936D01*
X034219Y008933D01*
X034250Y008926D01*
X034280Y008916D01*
X034308Y008902D01*
X034334Y008884D01*
X034358Y008864D01*
X034379Y008840D01*
X034398Y008815D01*
X034413Y008787D01*
X034424Y008758D01*
X034432Y008727D01*
X034436Y008696D01*
X034436Y008664D01*
X034432Y008633D01*
X034424Y008602D01*
X034413Y008573D01*
X034398Y008545D01*
X034379Y008520D01*
X034358Y008496D01*
X034334Y008476D01*
X034308Y008458D01*
X034280Y008444D01*
X034250Y008434D01*
X034219Y008427D01*
X034188Y008424D01*
X034156Y008425D01*
X034125Y008430D01*
X034095Y008439D01*
X034066Y008451D01*
X034039Y008467D01*
X034013Y008486D01*
X033991Y008508D01*
X033971Y008532D01*
X033954Y008559D01*
X033941Y008588D01*
X033932Y008618D01*
X033926Y008649D01*
X033924Y008680D01*
X033924Y013680D02*
X033926Y013711D01*
X033932Y013742D01*
X033941Y013772D01*
X033954Y013801D01*
X033971Y013828D01*
X033991Y013852D01*
X034013Y013874D01*
X034039Y013893D01*
X034066Y013909D01*
X034095Y013921D01*
X034125Y013930D01*
X034156Y013935D01*
X034188Y013936D01*
X034219Y013933D01*
X034250Y013926D01*
X034280Y013916D01*
X034308Y013902D01*
X034334Y013884D01*
X034358Y013864D01*
X034379Y013840D01*
X034398Y013815D01*
X034413Y013787D01*
X034424Y013758D01*
X034432Y013727D01*
X034436Y013696D01*
X034436Y013664D01*
X034432Y013633D01*
X034424Y013602D01*
X034413Y013573D01*
X034398Y013545D01*
X034379Y013520D01*
X034358Y013496D01*
X034334Y013476D01*
X034308Y013458D01*
X034280Y013444D01*
X034250Y013434D01*
X034219Y013427D01*
X034188Y013424D01*
X034156Y013425D01*
X034125Y013430D01*
X034095Y013439D01*
X034066Y013451D01*
X034039Y013467D01*
X034013Y013486D01*
X033991Y013508D01*
X033971Y013532D01*
X033954Y013559D01*
X033941Y013588D01*
X033932Y013618D01*
X033926Y013649D01*
X033924Y013680D01*
X033924Y016680D02*
X033926Y016711D01*
X033932Y016742D01*
X033941Y016772D01*
X033954Y016801D01*
X033971Y016828D01*
X033991Y016852D01*
X034013Y016874D01*
X034039Y016893D01*
X034066Y016909D01*
X034095Y016921D01*
X034125Y016930D01*
X034156Y016935D01*
X034188Y016936D01*
X034219Y016933D01*
X034250Y016926D01*
X034280Y016916D01*
X034308Y016902D01*
X034334Y016884D01*
X034358Y016864D01*
X034379Y016840D01*
X034398Y016815D01*
X034413Y016787D01*
X034424Y016758D01*
X034432Y016727D01*
X034436Y016696D01*
X034436Y016664D01*
X034432Y016633D01*
X034424Y016602D01*
X034413Y016573D01*
X034398Y016545D01*
X034379Y016520D01*
X034358Y016496D01*
X034334Y016476D01*
X034308Y016458D01*
X034280Y016444D01*
X034250Y016434D01*
X034219Y016427D01*
X034188Y016424D01*
X034156Y016425D01*
X034125Y016430D01*
X034095Y016439D01*
X034066Y016451D01*
X034039Y016467D01*
X034013Y016486D01*
X033991Y016508D01*
X033971Y016532D01*
X033954Y016559D01*
X033941Y016588D01*
X033932Y016618D01*
X033926Y016649D01*
X033924Y016680D01*
X028924Y016680D02*
X028926Y016711D01*
X028932Y016742D01*
X028941Y016772D01*
X028954Y016801D01*
X028971Y016828D01*
X028991Y016852D01*
X029013Y016874D01*
X029039Y016893D01*
X029066Y016909D01*
X029095Y016921D01*
X029125Y016930D01*
X029156Y016935D01*
X029188Y016936D01*
X029219Y016933D01*
X029250Y016926D01*
X029280Y016916D01*
X029308Y016902D01*
X029334Y016884D01*
X029358Y016864D01*
X029379Y016840D01*
X029398Y016815D01*
X029413Y016787D01*
X029424Y016758D01*
X029432Y016727D01*
X029436Y016696D01*
X029436Y016664D01*
X029432Y016633D01*
X029424Y016602D01*
X029413Y016573D01*
X029398Y016545D01*
X029379Y016520D01*
X029358Y016496D01*
X029334Y016476D01*
X029308Y016458D01*
X029280Y016444D01*
X029250Y016434D01*
X029219Y016427D01*
X029188Y016424D01*
X029156Y016425D01*
X029125Y016430D01*
X029095Y016439D01*
X029066Y016451D01*
X029039Y016467D01*
X029013Y016486D01*
X028991Y016508D01*
X028971Y016532D01*
X028954Y016559D01*
X028941Y016588D01*
X028932Y016618D01*
X028926Y016649D01*
X028924Y016680D01*
X024924Y016680D02*
X024926Y016711D01*
X024932Y016742D01*
X024941Y016772D01*
X024954Y016801D01*
X024971Y016828D01*
X024991Y016852D01*
X025013Y016874D01*
X025039Y016893D01*
X025066Y016909D01*
X025095Y016921D01*
X025125Y016930D01*
X025156Y016935D01*
X025188Y016936D01*
X025219Y016933D01*
X025250Y016926D01*
X025280Y016916D01*
X025308Y016902D01*
X025334Y016884D01*
X025358Y016864D01*
X025379Y016840D01*
X025398Y016815D01*
X025413Y016787D01*
X025424Y016758D01*
X025432Y016727D01*
X025436Y016696D01*
X025436Y016664D01*
X025432Y016633D01*
X025424Y016602D01*
X025413Y016573D01*
X025398Y016545D01*
X025379Y016520D01*
X025358Y016496D01*
X025334Y016476D01*
X025308Y016458D01*
X025280Y016444D01*
X025250Y016434D01*
X025219Y016427D01*
X025188Y016424D01*
X025156Y016425D01*
X025125Y016430D01*
X025095Y016439D01*
X025066Y016451D01*
X025039Y016467D01*
X025013Y016486D01*
X024991Y016508D01*
X024971Y016532D01*
X024954Y016559D01*
X024941Y016588D01*
X024932Y016618D01*
X024926Y016649D01*
X024924Y016680D01*
X024924Y013680D02*
X024926Y013711D01*
X024932Y013742D01*
X024941Y013772D01*
X024954Y013801D01*
X024971Y013828D01*
X024991Y013852D01*
X025013Y013874D01*
X025039Y013893D01*
X025066Y013909D01*
X025095Y013921D01*
X025125Y013930D01*
X025156Y013935D01*
X025188Y013936D01*
X025219Y013933D01*
X025250Y013926D01*
X025280Y013916D01*
X025308Y013902D01*
X025334Y013884D01*
X025358Y013864D01*
X025379Y013840D01*
X025398Y013815D01*
X025413Y013787D01*
X025424Y013758D01*
X025432Y013727D01*
X025436Y013696D01*
X025436Y013664D01*
X025432Y013633D01*
X025424Y013602D01*
X025413Y013573D01*
X025398Y013545D01*
X025379Y013520D01*
X025358Y013496D01*
X025334Y013476D01*
X025308Y013458D01*
X025280Y013444D01*
X025250Y013434D01*
X025219Y013427D01*
X025188Y013424D01*
X025156Y013425D01*
X025125Y013430D01*
X025095Y013439D01*
X025066Y013451D01*
X025039Y013467D01*
X025013Y013486D01*
X024991Y013508D01*
X024971Y013532D01*
X024954Y013559D01*
X024941Y013588D01*
X024932Y013618D01*
X024926Y013649D01*
X024924Y013680D01*
X028924Y013680D02*
X028926Y013711D01*
X028932Y013742D01*
X028941Y013772D01*
X028954Y013801D01*
X028971Y013828D01*
X028991Y013852D01*
X029013Y013874D01*
X029039Y013893D01*
X029066Y013909D01*
X029095Y013921D01*
X029125Y013930D01*
X029156Y013935D01*
X029188Y013936D01*
X029219Y013933D01*
X029250Y013926D01*
X029280Y013916D01*
X029308Y013902D01*
X029334Y013884D01*
X029358Y013864D01*
X029379Y013840D01*
X029398Y013815D01*
X029413Y013787D01*
X029424Y013758D01*
X029432Y013727D01*
X029436Y013696D01*
X029436Y013664D01*
X029432Y013633D01*
X029424Y013602D01*
X029413Y013573D01*
X029398Y013545D01*
X029379Y013520D01*
X029358Y013496D01*
X029334Y013476D01*
X029308Y013458D01*
X029280Y013444D01*
X029250Y013434D01*
X029219Y013427D01*
X029188Y013424D01*
X029156Y013425D01*
X029125Y013430D01*
X029095Y013439D01*
X029066Y013451D01*
X029039Y013467D01*
X029013Y013486D01*
X028991Y013508D01*
X028971Y013532D01*
X028954Y013559D01*
X028941Y013588D01*
X028932Y013618D01*
X028926Y013649D01*
X028924Y013680D01*
X019924Y013680D02*
X019926Y013711D01*
X019932Y013742D01*
X019941Y013772D01*
X019954Y013801D01*
X019971Y013828D01*
X019991Y013852D01*
X020013Y013874D01*
X020039Y013893D01*
X020066Y013909D01*
X020095Y013921D01*
X020125Y013930D01*
X020156Y013935D01*
X020188Y013936D01*
X020219Y013933D01*
X020250Y013926D01*
X020280Y013916D01*
X020308Y013902D01*
X020334Y013884D01*
X020358Y013864D01*
X020379Y013840D01*
X020398Y013815D01*
X020413Y013787D01*
X020424Y013758D01*
X020432Y013727D01*
X020436Y013696D01*
X020436Y013664D01*
X020432Y013633D01*
X020424Y013602D01*
X020413Y013573D01*
X020398Y013545D01*
X020379Y013520D01*
X020358Y013496D01*
X020334Y013476D01*
X020308Y013458D01*
X020280Y013444D01*
X020250Y013434D01*
X020219Y013427D01*
X020188Y013424D01*
X020156Y013425D01*
X020125Y013430D01*
X020095Y013439D01*
X020066Y013451D01*
X020039Y013467D01*
X020013Y013486D01*
X019991Y013508D01*
X019971Y013532D01*
X019954Y013559D01*
X019941Y013588D01*
X019932Y013618D01*
X019926Y013649D01*
X019924Y013680D01*
X018924Y013680D02*
X018926Y013711D01*
X018932Y013742D01*
X018941Y013772D01*
X018954Y013801D01*
X018971Y013828D01*
X018991Y013852D01*
X019013Y013874D01*
X019039Y013893D01*
X019066Y013909D01*
X019095Y013921D01*
X019125Y013930D01*
X019156Y013935D01*
X019188Y013936D01*
X019219Y013933D01*
X019250Y013926D01*
X019280Y013916D01*
X019308Y013902D01*
X019334Y013884D01*
X019358Y013864D01*
X019379Y013840D01*
X019398Y013815D01*
X019413Y013787D01*
X019424Y013758D01*
X019432Y013727D01*
X019436Y013696D01*
X019436Y013664D01*
X019432Y013633D01*
X019424Y013602D01*
X019413Y013573D01*
X019398Y013545D01*
X019379Y013520D01*
X019358Y013496D01*
X019334Y013476D01*
X019308Y013458D01*
X019280Y013444D01*
X019250Y013434D01*
X019219Y013427D01*
X019188Y013424D01*
X019156Y013425D01*
X019125Y013430D01*
X019095Y013439D01*
X019066Y013451D01*
X019039Y013467D01*
X019013Y013486D01*
X018991Y013508D01*
X018971Y013532D01*
X018954Y013559D01*
X018941Y013588D01*
X018932Y013618D01*
X018926Y013649D01*
X018924Y013680D01*
X018924Y016680D02*
X018926Y016711D01*
X018932Y016742D01*
X018941Y016772D01*
X018954Y016801D01*
X018971Y016828D01*
X018991Y016852D01*
X019013Y016874D01*
X019039Y016893D01*
X019066Y016909D01*
X019095Y016921D01*
X019125Y016930D01*
X019156Y016935D01*
X019188Y016936D01*
X019219Y016933D01*
X019250Y016926D01*
X019280Y016916D01*
X019308Y016902D01*
X019334Y016884D01*
X019358Y016864D01*
X019379Y016840D01*
X019398Y016815D01*
X019413Y016787D01*
X019424Y016758D01*
X019432Y016727D01*
X019436Y016696D01*
X019436Y016664D01*
X019432Y016633D01*
X019424Y016602D01*
X019413Y016573D01*
X019398Y016545D01*
X019379Y016520D01*
X019358Y016496D01*
X019334Y016476D01*
X019308Y016458D01*
X019280Y016444D01*
X019250Y016434D01*
X019219Y016427D01*
X019188Y016424D01*
X019156Y016425D01*
X019125Y016430D01*
X019095Y016439D01*
X019066Y016451D01*
X019039Y016467D01*
X019013Y016486D01*
X018991Y016508D01*
X018971Y016532D01*
X018954Y016559D01*
X018941Y016588D01*
X018932Y016618D01*
X018926Y016649D01*
X018924Y016680D01*
X019924Y016680D02*
X019926Y016711D01*
X019932Y016742D01*
X019941Y016772D01*
X019954Y016801D01*
X019971Y016828D01*
X019991Y016852D01*
X020013Y016874D01*
X020039Y016893D01*
X020066Y016909D01*
X020095Y016921D01*
X020125Y016930D01*
X020156Y016935D01*
X020188Y016936D01*
X020219Y016933D01*
X020250Y016926D01*
X020280Y016916D01*
X020308Y016902D01*
X020334Y016884D01*
X020358Y016864D01*
X020379Y016840D01*
X020398Y016815D01*
X020413Y016787D01*
X020424Y016758D01*
X020432Y016727D01*
X020436Y016696D01*
X020436Y016664D01*
X020432Y016633D01*
X020424Y016602D01*
X020413Y016573D01*
X020398Y016545D01*
X020379Y016520D01*
X020358Y016496D01*
X020334Y016476D01*
X020308Y016458D01*
X020280Y016444D01*
X020250Y016434D01*
X020219Y016427D01*
X020188Y016424D01*
X020156Y016425D01*
X020125Y016430D01*
X020095Y016439D01*
X020066Y016451D01*
X020039Y016467D01*
X020013Y016486D01*
X019991Y016508D01*
X019971Y016532D01*
X019954Y016559D01*
X019941Y016588D01*
X019932Y016618D01*
X019926Y016649D01*
X019924Y016680D01*
X013924Y016680D02*
X013926Y016711D01*
X013932Y016742D01*
X013941Y016772D01*
X013954Y016801D01*
X013971Y016828D01*
X013991Y016852D01*
X014013Y016874D01*
X014039Y016893D01*
X014066Y016909D01*
X014095Y016921D01*
X014125Y016930D01*
X014156Y016935D01*
X014188Y016936D01*
X014219Y016933D01*
X014250Y016926D01*
X014280Y016916D01*
X014308Y016902D01*
X014334Y016884D01*
X014358Y016864D01*
X014379Y016840D01*
X014398Y016815D01*
X014413Y016787D01*
X014424Y016758D01*
X014432Y016727D01*
X014436Y016696D01*
X014436Y016664D01*
X014432Y016633D01*
X014424Y016602D01*
X014413Y016573D01*
X014398Y016545D01*
X014379Y016520D01*
X014358Y016496D01*
X014334Y016476D01*
X014308Y016458D01*
X014280Y016444D01*
X014250Y016434D01*
X014219Y016427D01*
X014188Y016424D01*
X014156Y016425D01*
X014125Y016430D01*
X014095Y016439D01*
X014066Y016451D01*
X014039Y016467D01*
X014013Y016486D01*
X013991Y016508D01*
X013971Y016532D01*
X013954Y016559D01*
X013941Y016588D01*
X013932Y016618D01*
X013926Y016649D01*
X013924Y016680D01*
X012924Y016680D02*
X012926Y016711D01*
X012932Y016742D01*
X012941Y016772D01*
X012954Y016801D01*
X012971Y016828D01*
X012991Y016852D01*
X013013Y016874D01*
X013039Y016893D01*
X013066Y016909D01*
X013095Y016921D01*
X013125Y016930D01*
X013156Y016935D01*
X013188Y016936D01*
X013219Y016933D01*
X013250Y016926D01*
X013280Y016916D01*
X013308Y016902D01*
X013334Y016884D01*
X013358Y016864D01*
X013379Y016840D01*
X013398Y016815D01*
X013413Y016787D01*
X013424Y016758D01*
X013432Y016727D01*
X013436Y016696D01*
X013436Y016664D01*
X013432Y016633D01*
X013424Y016602D01*
X013413Y016573D01*
X013398Y016545D01*
X013379Y016520D01*
X013358Y016496D01*
X013334Y016476D01*
X013308Y016458D01*
X013280Y016444D01*
X013250Y016434D01*
X013219Y016427D01*
X013188Y016424D01*
X013156Y016425D01*
X013125Y016430D01*
X013095Y016439D01*
X013066Y016451D01*
X013039Y016467D01*
X013013Y016486D01*
X012991Y016508D01*
X012971Y016532D01*
X012954Y016559D01*
X012941Y016588D01*
X012932Y016618D01*
X012926Y016649D01*
X012924Y016680D01*
X012924Y013680D02*
X012926Y013711D01*
X012932Y013742D01*
X012941Y013772D01*
X012954Y013801D01*
X012971Y013828D01*
X012991Y013852D01*
X013013Y013874D01*
X013039Y013893D01*
X013066Y013909D01*
X013095Y013921D01*
X013125Y013930D01*
X013156Y013935D01*
X013188Y013936D01*
X013219Y013933D01*
X013250Y013926D01*
X013280Y013916D01*
X013308Y013902D01*
X013334Y013884D01*
X013358Y013864D01*
X013379Y013840D01*
X013398Y013815D01*
X013413Y013787D01*
X013424Y013758D01*
X013432Y013727D01*
X013436Y013696D01*
X013436Y013664D01*
X013432Y013633D01*
X013424Y013602D01*
X013413Y013573D01*
X013398Y013545D01*
X013379Y013520D01*
X013358Y013496D01*
X013334Y013476D01*
X013308Y013458D01*
X013280Y013444D01*
X013250Y013434D01*
X013219Y013427D01*
X013188Y013424D01*
X013156Y013425D01*
X013125Y013430D01*
X013095Y013439D01*
X013066Y013451D01*
X013039Y013467D01*
X013013Y013486D01*
X012991Y013508D01*
X012971Y013532D01*
X012954Y013559D01*
X012941Y013588D01*
X012932Y013618D01*
X012926Y013649D01*
X012924Y013680D01*
X013924Y013680D02*
X013926Y013711D01*
X013932Y013742D01*
X013941Y013772D01*
X013954Y013801D01*
X013971Y013828D01*
X013991Y013852D01*
X014013Y013874D01*
X014039Y013893D01*
X014066Y013909D01*
X014095Y013921D01*
X014125Y013930D01*
X014156Y013935D01*
X014188Y013936D01*
X014219Y013933D01*
X014250Y013926D01*
X014280Y013916D01*
X014308Y013902D01*
X014334Y013884D01*
X014358Y013864D01*
X014379Y013840D01*
X014398Y013815D01*
X014413Y013787D01*
X014424Y013758D01*
X014432Y013727D01*
X014436Y013696D01*
X014436Y013664D01*
X014432Y013633D01*
X014424Y013602D01*
X014413Y013573D01*
X014398Y013545D01*
X014379Y013520D01*
X014358Y013496D01*
X014334Y013476D01*
X014308Y013458D01*
X014280Y013444D01*
X014250Y013434D01*
X014219Y013427D01*
X014188Y013424D01*
X014156Y013425D01*
X014125Y013430D01*
X014095Y013439D01*
X014066Y013451D01*
X014039Y013467D01*
X014013Y013486D01*
X013991Y013508D01*
X013971Y013532D01*
X013954Y013559D01*
X013941Y013588D01*
X013932Y013618D01*
X013926Y013649D01*
X013924Y013680D01*
X007924Y013680D02*
X007926Y013711D01*
X007932Y013742D01*
X007941Y013772D01*
X007954Y013801D01*
X007971Y013828D01*
X007991Y013852D01*
X008013Y013874D01*
X008039Y013893D01*
X008066Y013909D01*
X008095Y013921D01*
X008125Y013930D01*
X008156Y013935D01*
X008188Y013936D01*
X008219Y013933D01*
X008250Y013926D01*
X008280Y013916D01*
X008308Y013902D01*
X008334Y013884D01*
X008358Y013864D01*
X008379Y013840D01*
X008398Y013815D01*
X008413Y013787D01*
X008424Y013758D01*
X008432Y013727D01*
X008436Y013696D01*
X008436Y013664D01*
X008432Y013633D01*
X008424Y013602D01*
X008413Y013573D01*
X008398Y013545D01*
X008379Y013520D01*
X008358Y013496D01*
X008334Y013476D01*
X008308Y013458D01*
X008280Y013444D01*
X008250Y013434D01*
X008219Y013427D01*
X008188Y013424D01*
X008156Y013425D01*
X008125Y013430D01*
X008095Y013439D01*
X008066Y013451D01*
X008039Y013467D01*
X008013Y013486D01*
X007991Y013508D01*
X007971Y013532D01*
X007954Y013559D01*
X007941Y013588D01*
X007932Y013618D01*
X007926Y013649D01*
X007924Y013680D01*
X007924Y016680D02*
X007926Y016711D01*
X007932Y016742D01*
X007941Y016772D01*
X007954Y016801D01*
X007971Y016828D01*
X007991Y016852D01*
X008013Y016874D01*
X008039Y016893D01*
X008066Y016909D01*
X008095Y016921D01*
X008125Y016930D01*
X008156Y016935D01*
X008188Y016936D01*
X008219Y016933D01*
X008250Y016926D01*
X008280Y016916D01*
X008308Y016902D01*
X008334Y016884D01*
X008358Y016864D01*
X008379Y016840D01*
X008398Y016815D01*
X008413Y016787D01*
X008424Y016758D01*
X008432Y016727D01*
X008436Y016696D01*
X008436Y016664D01*
X008432Y016633D01*
X008424Y016602D01*
X008413Y016573D01*
X008398Y016545D01*
X008379Y016520D01*
X008358Y016496D01*
X008334Y016476D01*
X008308Y016458D01*
X008280Y016444D01*
X008250Y016434D01*
X008219Y016427D01*
X008188Y016424D01*
X008156Y016425D01*
X008125Y016430D01*
X008095Y016439D01*
X008066Y016451D01*
X008039Y016467D01*
X008013Y016486D01*
X007991Y016508D01*
X007971Y016532D01*
X007954Y016559D01*
X007941Y016588D01*
X007932Y016618D01*
X007926Y016649D01*
X007924Y016680D01*
X007924Y021680D02*
X007926Y021711D01*
X007932Y021742D01*
X007941Y021772D01*
X007954Y021801D01*
X007971Y021828D01*
X007991Y021852D01*
X008013Y021874D01*
X008039Y021893D01*
X008066Y021909D01*
X008095Y021921D01*
X008125Y021930D01*
X008156Y021935D01*
X008188Y021936D01*
X008219Y021933D01*
X008250Y021926D01*
X008280Y021916D01*
X008308Y021902D01*
X008334Y021884D01*
X008358Y021864D01*
X008379Y021840D01*
X008398Y021815D01*
X008413Y021787D01*
X008424Y021758D01*
X008432Y021727D01*
X008436Y021696D01*
X008436Y021664D01*
X008432Y021633D01*
X008424Y021602D01*
X008413Y021573D01*
X008398Y021545D01*
X008379Y021520D01*
X008358Y021496D01*
X008334Y021476D01*
X008308Y021458D01*
X008280Y021444D01*
X008250Y021434D01*
X008219Y021427D01*
X008188Y021424D01*
X008156Y021425D01*
X008125Y021430D01*
X008095Y021439D01*
X008066Y021451D01*
X008039Y021467D01*
X008013Y021486D01*
X007991Y021508D01*
X007971Y021532D01*
X007954Y021559D01*
X007941Y021588D01*
X007932Y021618D01*
X007926Y021649D01*
X007924Y021680D01*
X012924Y021680D02*
X012926Y021711D01*
X012932Y021742D01*
X012941Y021772D01*
X012954Y021801D01*
X012971Y021828D01*
X012991Y021852D01*
X013013Y021874D01*
X013039Y021893D01*
X013066Y021909D01*
X013095Y021921D01*
X013125Y021930D01*
X013156Y021935D01*
X013188Y021936D01*
X013219Y021933D01*
X013250Y021926D01*
X013280Y021916D01*
X013308Y021902D01*
X013334Y021884D01*
X013358Y021864D01*
X013379Y021840D01*
X013398Y021815D01*
X013413Y021787D01*
X013424Y021758D01*
X013432Y021727D01*
X013436Y021696D01*
X013436Y021664D01*
X013432Y021633D01*
X013424Y021602D01*
X013413Y021573D01*
X013398Y021545D01*
X013379Y021520D01*
X013358Y021496D01*
X013334Y021476D01*
X013308Y021458D01*
X013280Y021444D01*
X013250Y021434D01*
X013219Y021427D01*
X013188Y021424D01*
X013156Y021425D01*
X013125Y021430D01*
X013095Y021439D01*
X013066Y021451D01*
X013039Y021467D01*
X013013Y021486D01*
X012991Y021508D01*
X012971Y021532D01*
X012954Y021559D01*
X012941Y021588D01*
X012932Y021618D01*
X012926Y021649D01*
X012924Y021680D01*
X013924Y021680D02*
X013926Y021711D01*
X013932Y021742D01*
X013941Y021772D01*
X013954Y021801D01*
X013971Y021828D01*
X013991Y021852D01*
X014013Y021874D01*
X014039Y021893D01*
X014066Y021909D01*
X014095Y021921D01*
X014125Y021930D01*
X014156Y021935D01*
X014188Y021936D01*
X014219Y021933D01*
X014250Y021926D01*
X014280Y021916D01*
X014308Y021902D01*
X014334Y021884D01*
X014358Y021864D01*
X014379Y021840D01*
X014398Y021815D01*
X014413Y021787D01*
X014424Y021758D01*
X014432Y021727D01*
X014436Y021696D01*
X014436Y021664D01*
X014432Y021633D01*
X014424Y021602D01*
X014413Y021573D01*
X014398Y021545D01*
X014379Y021520D01*
X014358Y021496D01*
X014334Y021476D01*
X014308Y021458D01*
X014280Y021444D01*
X014250Y021434D01*
X014219Y021427D01*
X014188Y021424D01*
X014156Y021425D01*
X014125Y021430D01*
X014095Y021439D01*
X014066Y021451D01*
X014039Y021467D01*
X014013Y021486D01*
X013991Y021508D01*
X013971Y021532D01*
X013954Y021559D01*
X013941Y021588D01*
X013932Y021618D01*
X013926Y021649D01*
X013924Y021680D01*
X018924Y021680D02*
X018926Y021711D01*
X018932Y021742D01*
X018941Y021772D01*
X018954Y021801D01*
X018971Y021828D01*
X018991Y021852D01*
X019013Y021874D01*
X019039Y021893D01*
X019066Y021909D01*
X019095Y021921D01*
X019125Y021930D01*
X019156Y021935D01*
X019188Y021936D01*
X019219Y021933D01*
X019250Y021926D01*
X019280Y021916D01*
X019308Y021902D01*
X019334Y021884D01*
X019358Y021864D01*
X019379Y021840D01*
X019398Y021815D01*
X019413Y021787D01*
X019424Y021758D01*
X019432Y021727D01*
X019436Y021696D01*
X019436Y021664D01*
X019432Y021633D01*
X019424Y021602D01*
X019413Y021573D01*
X019398Y021545D01*
X019379Y021520D01*
X019358Y021496D01*
X019334Y021476D01*
X019308Y021458D01*
X019280Y021444D01*
X019250Y021434D01*
X019219Y021427D01*
X019188Y021424D01*
X019156Y021425D01*
X019125Y021430D01*
X019095Y021439D01*
X019066Y021451D01*
X019039Y021467D01*
X019013Y021486D01*
X018991Y021508D01*
X018971Y021532D01*
X018954Y021559D01*
X018941Y021588D01*
X018932Y021618D01*
X018926Y021649D01*
X018924Y021680D01*
X019924Y021680D02*
X019926Y021711D01*
X019932Y021742D01*
X019941Y021772D01*
X019954Y021801D01*
X019971Y021828D01*
X019991Y021852D01*
X020013Y021874D01*
X020039Y021893D01*
X020066Y021909D01*
X020095Y021921D01*
X020125Y021930D01*
X020156Y021935D01*
X020188Y021936D01*
X020219Y021933D01*
X020250Y021926D01*
X020280Y021916D01*
X020308Y021902D01*
X020334Y021884D01*
X020358Y021864D01*
X020379Y021840D01*
X020398Y021815D01*
X020413Y021787D01*
X020424Y021758D01*
X020432Y021727D01*
X020436Y021696D01*
X020436Y021664D01*
X020432Y021633D01*
X020424Y021602D01*
X020413Y021573D01*
X020398Y021545D01*
X020379Y021520D01*
X020358Y021496D01*
X020334Y021476D01*
X020308Y021458D01*
X020280Y021444D01*
X020250Y021434D01*
X020219Y021427D01*
X020188Y021424D01*
X020156Y021425D01*
X020125Y021430D01*
X020095Y021439D01*
X020066Y021451D01*
X020039Y021467D01*
X020013Y021486D01*
X019991Y021508D01*
X019971Y021532D01*
X019954Y021559D01*
X019941Y021588D01*
X019932Y021618D01*
X019926Y021649D01*
X019924Y021680D01*
X024924Y021680D02*
X024926Y021711D01*
X024932Y021742D01*
X024941Y021772D01*
X024954Y021801D01*
X024971Y021828D01*
X024991Y021852D01*
X025013Y021874D01*
X025039Y021893D01*
X025066Y021909D01*
X025095Y021921D01*
X025125Y021930D01*
X025156Y021935D01*
X025188Y021936D01*
X025219Y021933D01*
X025250Y021926D01*
X025280Y021916D01*
X025308Y021902D01*
X025334Y021884D01*
X025358Y021864D01*
X025379Y021840D01*
X025398Y021815D01*
X025413Y021787D01*
X025424Y021758D01*
X025432Y021727D01*
X025436Y021696D01*
X025436Y021664D01*
X025432Y021633D01*
X025424Y021602D01*
X025413Y021573D01*
X025398Y021545D01*
X025379Y021520D01*
X025358Y021496D01*
X025334Y021476D01*
X025308Y021458D01*
X025280Y021444D01*
X025250Y021434D01*
X025219Y021427D01*
X025188Y021424D01*
X025156Y021425D01*
X025125Y021430D01*
X025095Y021439D01*
X025066Y021451D01*
X025039Y021467D01*
X025013Y021486D01*
X024991Y021508D01*
X024971Y021532D01*
X024954Y021559D01*
X024941Y021588D01*
X024932Y021618D01*
X024926Y021649D01*
X024924Y021680D01*
X028924Y021680D02*
X028926Y021711D01*
X028932Y021742D01*
X028941Y021772D01*
X028954Y021801D01*
X028971Y021828D01*
X028991Y021852D01*
X029013Y021874D01*
X029039Y021893D01*
X029066Y021909D01*
X029095Y021921D01*
X029125Y021930D01*
X029156Y021935D01*
X029188Y021936D01*
X029219Y021933D01*
X029250Y021926D01*
X029280Y021916D01*
X029308Y021902D01*
X029334Y021884D01*
X029358Y021864D01*
X029379Y021840D01*
X029398Y021815D01*
X029413Y021787D01*
X029424Y021758D01*
X029432Y021727D01*
X029436Y021696D01*
X029436Y021664D01*
X029432Y021633D01*
X029424Y021602D01*
X029413Y021573D01*
X029398Y021545D01*
X029379Y021520D01*
X029358Y021496D01*
X029334Y021476D01*
X029308Y021458D01*
X029280Y021444D01*
X029250Y021434D01*
X029219Y021427D01*
X029188Y021424D01*
X029156Y021425D01*
X029125Y021430D01*
X029095Y021439D01*
X029066Y021451D01*
X029039Y021467D01*
X029013Y021486D01*
X028991Y021508D01*
X028971Y021532D01*
X028954Y021559D01*
X028941Y021588D01*
X028932Y021618D01*
X028926Y021649D01*
X028924Y021680D01*
X033924Y021680D02*
X033926Y021711D01*
X033932Y021742D01*
X033941Y021772D01*
X033954Y021801D01*
X033971Y021828D01*
X033991Y021852D01*
X034013Y021874D01*
X034039Y021893D01*
X034066Y021909D01*
X034095Y021921D01*
X034125Y021930D01*
X034156Y021935D01*
X034188Y021936D01*
X034219Y021933D01*
X034250Y021926D01*
X034280Y021916D01*
X034308Y021902D01*
X034334Y021884D01*
X034358Y021864D01*
X034379Y021840D01*
X034398Y021815D01*
X034413Y021787D01*
X034424Y021758D01*
X034432Y021727D01*
X034436Y021696D01*
X034436Y021664D01*
X034432Y021633D01*
X034424Y021602D01*
X034413Y021573D01*
X034398Y021545D01*
X034379Y021520D01*
X034358Y021496D01*
X034334Y021476D01*
X034308Y021458D01*
X034280Y021444D01*
X034250Y021434D01*
X034219Y021427D01*
X034188Y021424D01*
X034156Y021425D01*
X034125Y021430D01*
X034095Y021439D01*
X034066Y021451D01*
X034039Y021467D01*
X034013Y021486D01*
X033991Y021508D01*
X033971Y021532D01*
X033954Y021559D01*
X033941Y021588D01*
X033932Y021618D01*
X033926Y021649D01*
X033924Y021680D01*
X033050Y027180D02*
X033052Y027230D01*
X033058Y027280D01*
X033068Y027329D01*
X033082Y027377D01*
X033099Y027424D01*
X033120Y027469D01*
X033145Y027513D01*
X033173Y027554D01*
X033205Y027593D01*
X033239Y027630D01*
X033276Y027664D01*
X033316Y027694D01*
X033358Y027721D01*
X033402Y027745D01*
X033448Y027766D01*
X033495Y027782D01*
X033543Y027795D01*
X033593Y027804D01*
X033642Y027809D01*
X033693Y027810D01*
X033743Y027807D01*
X033792Y027800D01*
X033841Y027789D01*
X033889Y027774D01*
X033935Y027756D01*
X033980Y027734D01*
X034023Y027708D01*
X034064Y027679D01*
X034103Y027647D01*
X034139Y027612D01*
X034171Y027574D01*
X034201Y027534D01*
X034228Y027491D01*
X034251Y027447D01*
X034270Y027401D01*
X034286Y027353D01*
X034298Y027304D01*
X034306Y027255D01*
X034310Y027205D01*
X034310Y027155D01*
X034306Y027105D01*
X034298Y027056D01*
X034286Y027007D01*
X034270Y026959D01*
X034251Y026913D01*
X034228Y026869D01*
X034201Y026826D01*
X034171Y026786D01*
X034139Y026748D01*
X034103Y026713D01*
X034064Y026681D01*
X034023Y026652D01*
X033980Y026626D01*
X033935Y026604D01*
X033889Y026586D01*
X033841Y026571D01*
X033792Y026560D01*
X033743Y026553D01*
X033693Y026550D01*
X033642Y026551D01*
X033593Y026556D01*
X033543Y026565D01*
X033495Y026578D01*
X033448Y026594D01*
X033402Y026615D01*
X033358Y026639D01*
X033316Y026666D01*
X033276Y026696D01*
X033239Y026730D01*
X033205Y026767D01*
X033173Y026806D01*
X033145Y026847D01*
X033120Y026891D01*
X033099Y026936D01*
X033082Y026983D01*
X033068Y027031D01*
X033058Y027080D01*
X033052Y027130D01*
X033050Y027180D01*
X004050Y027180D02*
X004052Y027230D01*
X004058Y027280D01*
X004068Y027329D01*
X004082Y027377D01*
X004099Y027424D01*
X004120Y027469D01*
X004145Y027513D01*
X004173Y027554D01*
X004205Y027593D01*
X004239Y027630D01*
X004276Y027664D01*
X004316Y027694D01*
X004358Y027721D01*
X004402Y027745D01*
X004448Y027766D01*
X004495Y027782D01*
X004543Y027795D01*
X004593Y027804D01*
X004642Y027809D01*
X004693Y027810D01*
X004743Y027807D01*
X004792Y027800D01*
X004841Y027789D01*
X004889Y027774D01*
X004935Y027756D01*
X004980Y027734D01*
X005023Y027708D01*
X005064Y027679D01*
X005103Y027647D01*
X005139Y027612D01*
X005171Y027574D01*
X005201Y027534D01*
X005228Y027491D01*
X005251Y027447D01*
X005270Y027401D01*
X005286Y027353D01*
X005298Y027304D01*
X005306Y027255D01*
X005310Y027205D01*
X005310Y027155D01*
X005306Y027105D01*
X005298Y027056D01*
X005286Y027007D01*
X005270Y026959D01*
X005251Y026913D01*
X005228Y026869D01*
X005201Y026826D01*
X005171Y026786D01*
X005139Y026748D01*
X005103Y026713D01*
X005064Y026681D01*
X005023Y026652D01*
X004980Y026626D01*
X004935Y026604D01*
X004889Y026586D01*
X004841Y026571D01*
X004792Y026560D01*
X004743Y026553D01*
X004693Y026550D01*
X004642Y026551D01*
X004593Y026556D01*
X004543Y026565D01*
X004495Y026578D01*
X004448Y026594D01*
X004402Y026615D01*
X004358Y026639D01*
X004316Y026666D01*
X004276Y026696D01*
X004239Y026730D01*
X004205Y026767D01*
X004173Y026806D01*
X004145Y026847D01*
X004120Y026891D01*
X004099Y026936D01*
X004082Y026983D01*
X004068Y027031D01*
X004058Y027080D01*
X004052Y027130D01*
X004050Y027180D01*
X033050Y003180D02*
X033052Y003230D01*
X033058Y003280D01*
X033068Y003329D01*
X033082Y003377D01*
X033099Y003424D01*
X033120Y003469D01*
X033145Y003513D01*
X033173Y003554D01*
X033205Y003593D01*
X033239Y003630D01*
X033276Y003664D01*
X033316Y003694D01*
X033358Y003721D01*
X033402Y003745D01*
X033448Y003766D01*
X033495Y003782D01*
X033543Y003795D01*
X033593Y003804D01*
X033642Y003809D01*
X033693Y003810D01*
X033743Y003807D01*
X033792Y003800D01*
X033841Y003789D01*
X033889Y003774D01*
X033935Y003756D01*
X033980Y003734D01*
X034023Y003708D01*
X034064Y003679D01*
X034103Y003647D01*
X034139Y003612D01*
X034171Y003574D01*
X034201Y003534D01*
X034228Y003491D01*
X034251Y003447D01*
X034270Y003401D01*
X034286Y003353D01*
X034298Y003304D01*
X034306Y003255D01*
X034310Y003205D01*
X034310Y003155D01*
X034306Y003105D01*
X034298Y003056D01*
X034286Y003007D01*
X034270Y002959D01*
X034251Y002913D01*
X034228Y002869D01*
X034201Y002826D01*
X034171Y002786D01*
X034139Y002748D01*
X034103Y002713D01*
X034064Y002681D01*
X034023Y002652D01*
X033980Y002626D01*
X033935Y002604D01*
X033889Y002586D01*
X033841Y002571D01*
X033792Y002560D01*
X033743Y002553D01*
X033693Y002550D01*
X033642Y002551D01*
X033593Y002556D01*
X033543Y002565D01*
X033495Y002578D01*
X033448Y002594D01*
X033402Y002615D01*
X033358Y002639D01*
X033316Y002666D01*
X033276Y002696D01*
X033239Y002730D01*
X033205Y002767D01*
X033173Y002806D01*
X033145Y002847D01*
X033120Y002891D01*
X033099Y002936D01*
X033082Y002983D01*
X033068Y003031D01*
X033058Y003080D01*
X033052Y003130D01*
X033050Y003180D01*
D11*
X007200Y016400D02*
X000180Y016400D01*
X000180Y023180D01*
X007200Y023180D01*
X007200Y016400D01*
D12*
X037680Y028526D02*
X037680Y001180D01*
D13*
X035117Y024195D02*
X035179Y024257D01*
X035179Y024504D01*
X035117Y024565D01*
X034932Y024565D01*
X034932Y024195D01*
X035117Y024195D01*
X034810Y024195D02*
X034810Y024565D01*
X034563Y024565D02*
X034810Y024195D01*
X034563Y024195D02*
X034563Y024565D01*
X034442Y024504D02*
X034380Y024565D01*
X034257Y024565D01*
X034195Y024504D01*
X034195Y024257D01*
X034257Y024195D01*
X034380Y024195D01*
X034442Y024257D01*
X034442Y024380D01*
X034318Y024380D01*
X034257Y025195D02*
X034195Y025257D01*
X034257Y025195D02*
X034380Y025195D01*
X034442Y025257D01*
X034442Y025318D01*
X034380Y025380D01*
X034257Y025380D01*
X034195Y025442D01*
X034195Y025504D01*
X034257Y025565D01*
X034380Y025565D01*
X034442Y025504D01*
X034563Y025565D02*
X034687Y025565D01*
X034625Y025565D02*
X034625Y025195D01*
X034563Y025195D02*
X034687Y025195D01*
X034809Y025257D02*
X034871Y025195D01*
X034994Y025195D01*
X035056Y025257D01*
X035056Y025380D01*
X034932Y025380D01*
X034809Y025257D02*
X034809Y025504D01*
X034871Y025565D01*
X034994Y025565D01*
X035056Y025504D01*
X034687Y026195D02*
X034563Y026318D01*
X034563Y026565D01*
X034442Y026565D02*
X034195Y026565D01*
X034195Y026380D01*
X034318Y026442D01*
X034380Y026442D01*
X034442Y026380D01*
X034442Y026257D01*
X034380Y026195D01*
X034257Y026195D01*
X034195Y026257D01*
X034687Y026195D02*
X034810Y026318D01*
X034810Y026565D01*
X012798Y027595D02*
X012652Y027595D01*
X012604Y027643D01*
X012604Y027740D01*
X012652Y027788D01*
X012798Y027788D01*
X012798Y027885D02*
X012798Y027595D01*
X012504Y027788D02*
X012455Y027788D01*
X012359Y027692D01*
X012359Y027788D02*
X012359Y027595D01*
X012257Y027595D02*
X012112Y027595D01*
X012064Y027643D01*
X012112Y027692D01*
X012257Y027692D01*
X012257Y027740D02*
X012257Y027595D01*
X012257Y027740D02*
X012209Y027788D01*
X012112Y027788D01*
X011963Y027740D02*
X011914Y027788D01*
X011818Y027788D01*
X011769Y027740D01*
X011769Y027643D01*
X011818Y027595D01*
X011914Y027595D01*
X011963Y027643D01*
X011963Y027740D01*
X011668Y027692D02*
X011668Y027643D01*
X011620Y027595D01*
X011475Y027595D01*
X011475Y027885D01*
X011620Y027885D01*
X011668Y027837D01*
X011668Y027788D01*
X011620Y027740D01*
X011475Y027740D01*
X011620Y027740D02*
X011668Y027692D01*
X011079Y027692D02*
X010885Y027692D01*
X010885Y027740D02*
X010934Y027788D01*
X011030Y027788D01*
X011079Y027740D01*
X011079Y027692D01*
X011030Y027595D02*
X010934Y027595D01*
X010885Y027643D01*
X010885Y027740D01*
X010786Y027788D02*
X010689Y027788D01*
X010737Y027837D02*
X010737Y027643D01*
X010786Y027595D01*
X010588Y027643D02*
X010588Y027740D01*
X010539Y027788D01*
X010443Y027788D01*
X010394Y027740D01*
X010394Y027643D01*
X010443Y027595D01*
X010539Y027595D01*
X010588Y027643D01*
X010293Y027595D02*
X010293Y027740D01*
X010245Y027788D01*
X010196Y027740D01*
X010196Y027595D01*
X010100Y027595D02*
X010100Y027788D01*
X010148Y027788D01*
X010196Y027740D01*
X009998Y027740D02*
X009998Y027692D01*
X009805Y027692D01*
X009805Y027740D02*
X009853Y027788D01*
X009950Y027788D01*
X009998Y027740D01*
X009950Y027595D02*
X009853Y027595D01*
X009805Y027643D01*
X009805Y027740D01*
X009704Y027740D02*
X009655Y027692D01*
X009510Y027692D01*
X009607Y027692D02*
X009704Y027595D01*
X009704Y027740D02*
X009704Y027837D01*
X009655Y027885D01*
X009510Y027885D01*
X009510Y027595D01*
X009116Y027595D02*
X009068Y027643D01*
X009068Y027837D01*
X009116Y027788D02*
X009019Y027788D01*
X008918Y027740D02*
X008918Y027692D01*
X008724Y027692D01*
X008724Y027740D02*
X008773Y027788D01*
X008870Y027788D01*
X008918Y027740D01*
X008870Y027595D02*
X008773Y027595D01*
X008724Y027643D01*
X008724Y027740D01*
X008624Y027788D02*
X008479Y027692D01*
X008624Y027595D01*
X008479Y027595D02*
X008479Y027885D01*
X008378Y027788D02*
X008233Y027788D01*
X008184Y027740D01*
X008184Y027643D01*
X008233Y027595D01*
X008378Y027595D01*
X008083Y027643D02*
X008083Y027740D01*
X008035Y027788D01*
X007938Y027788D01*
X007890Y027740D01*
X007890Y027643D01*
X007938Y027595D01*
X008035Y027595D01*
X008083Y027643D01*
X007788Y027740D02*
X007740Y027692D01*
X007595Y027692D01*
X007595Y027595D02*
X007595Y027885D01*
X007740Y027885D01*
X007788Y027837D01*
X007788Y027740D01*
X007988Y027235D02*
X008085Y027235D01*
X008133Y027187D01*
X007940Y026993D01*
X007988Y026945D01*
X008085Y026945D01*
X008133Y026993D01*
X008133Y027187D01*
X008234Y027090D02*
X008379Y027090D01*
X008428Y027042D01*
X008428Y026993D01*
X008379Y026945D01*
X008283Y026945D01*
X008234Y026993D01*
X008234Y027090D01*
X008331Y027187D01*
X008428Y027235D01*
X008529Y027090D02*
X008722Y027090D01*
X008824Y026993D02*
X009017Y027187D01*
X009017Y026993D01*
X008969Y026945D01*
X008872Y026945D01*
X008824Y026993D01*
X008824Y027187D01*
X008872Y027235D01*
X008969Y027235D01*
X009017Y027187D01*
X009118Y027187D02*
X009118Y027138D01*
X009167Y027090D01*
X009263Y027090D01*
X009312Y027042D01*
X009312Y026993D01*
X009263Y026945D01*
X009167Y026945D01*
X009118Y026993D01*
X009118Y027042D01*
X009167Y027090D01*
X009263Y027090D02*
X009312Y027138D01*
X009312Y027187D01*
X009263Y027235D01*
X009167Y027235D01*
X009118Y027187D01*
X009413Y027090D02*
X009606Y027090D01*
X009708Y027138D02*
X009804Y027235D01*
X009804Y026945D01*
X009708Y026945D02*
X009901Y026945D01*
X010002Y026945D02*
X010196Y027138D01*
X010196Y027187D01*
X010147Y027235D01*
X010051Y027235D01*
X010002Y027187D01*
X010002Y026945D02*
X010196Y026945D01*
X007988Y027235D02*
X007940Y027187D01*
X007940Y026993D01*
X007838Y027138D02*
X007742Y026945D01*
X007645Y027138D01*
X005555Y025565D02*
X005431Y025504D01*
X005308Y025380D01*
X005493Y025380D01*
X005555Y025318D01*
X005555Y025257D01*
X005493Y025195D01*
X005370Y025195D01*
X005308Y025257D01*
X005308Y025380D01*
X005186Y025318D02*
X005125Y025380D01*
X004940Y025380D01*
X004940Y025257D01*
X005001Y025195D01*
X005125Y025195D01*
X005186Y025257D01*
X005186Y025318D01*
X005063Y025504D02*
X004940Y025380D01*
X004818Y025380D02*
X004571Y025380D01*
X004756Y025565D01*
X004756Y025195D01*
X004450Y025257D02*
X004450Y025318D01*
X004388Y025380D01*
X004203Y025380D01*
X004203Y025257D01*
X004265Y025195D01*
X004388Y025195D01*
X004450Y025257D01*
X004203Y025380D02*
X004326Y025504D01*
X004450Y025565D01*
X004081Y025565D02*
X003835Y025565D01*
X003835Y025380D01*
X003958Y025442D01*
X004020Y025442D01*
X004081Y025380D01*
X004081Y025257D01*
X004020Y025195D01*
X003896Y025195D01*
X003835Y025257D01*
X003344Y025257D02*
X003344Y025195D01*
X003282Y025195D01*
X003282Y025257D01*
X003344Y025257D01*
X003344Y025380D02*
X003282Y025380D01*
X003282Y025442D01*
X003344Y025442D01*
X003344Y025380D01*
X003161Y025380D02*
X003099Y025442D01*
X002914Y025442D01*
X002914Y025195D01*
X002792Y025257D02*
X002792Y025380D01*
X002731Y025442D01*
X002607Y025442D01*
X002545Y025380D01*
X002545Y025257D01*
X002607Y025195D01*
X002731Y025195D01*
X002792Y025257D01*
X002423Y025195D02*
X002300Y025195D01*
X002362Y025195D02*
X002362Y025442D01*
X002300Y025442D01*
X002179Y025442D02*
X001993Y025442D01*
X001932Y025380D01*
X001993Y025318D01*
X002117Y025318D01*
X002179Y025257D01*
X002117Y025195D01*
X001932Y025195D01*
X001810Y025195D02*
X001810Y025442D01*
X001563Y025442D02*
X001563Y025257D01*
X001625Y025195D01*
X001810Y025195D01*
X001442Y025565D02*
X001195Y025565D01*
X001195Y025195D01*
X001195Y025380D02*
X001318Y025380D01*
X002362Y025565D02*
X002362Y025627D01*
X003161Y025380D02*
X003161Y025195D01*
X005063Y025504D02*
X005186Y025565D01*
D14*
X007667Y028360D02*
X007560Y028467D01*
X007667Y028360D02*
X007880Y028360D01*
X007987Y028467D01*
X007987Y028574D01*
X007880Y028680D01*
X007667Y028680D01*
X007560Y028787D01*
X007560Y028894D01*
X007667Y029001D01*
X007880Y029001D01*
X007987Y028894D01*
X008205Y029001D02*
X008205Y028360D01*
X008205Y028574D02*
X008632Y029001D01*
X008849Y028787D02*
X009063Y029001D01*
X009276Y028787D01*
X009276Y028360D01*
X009494Y028360D02*
X009494Y028787D01*
X009707Y029001D01*
X009921Y028787D01*
X009921Y028360D01*
X010138Y028360D02*
X010138Y029001D01*
X010458Y029001D01*
X010565Y028894D01*
X010565Y028680D01*
X010458Y028574D01*
X010138Y028574D01*
X010352Y028574D02*
X010565Y028360D01*
X010783Y028360D02*
X010783Y029001D01*
X010783Y028680D02*
X011210Y028680D01*
X011427Y028467D02*
X011534Y028360D01*
X011748Y028360D01*
X011854Y028467D01*
X011854Y028894D01*
X011748Y029001D01*
X011534Y029001D01*
X011427Y028894D01*
X011427Y028467D01*
X011210Y028360D02*
X011210Y029001D01*
X012072Y028467D02*
X012179Y028360D01*
X012285Y028360D01*
X012392Y028467D01*
X012392Y029001D01*
X012285Y029001D02*
X012499Y029001D01*
X013361Y028894D02*
X013468Y029001D01*
X013681Y029001D01*
X013788Y028894D01*
X013788Y028787D01*
X013361Y028360D01*
X013788Y028360D01*
X014005Y028467D02*
X014112Y028360D01*
X014326Y028360D01*
X014433Y028467D01*
X014433Y028894D01*
X014005Y028467D01*
X014005Y028894D01*
X014112Y029001D01*
X014326Y029001D01*
X014433Y028894D01*
X014650Y028787D02*
X014864Y029001D01*
X014864Y028360D01*
X015077Y028360D02*
X014650Y028360D01*
X015295Y028360D02*
X015722Y028787D01*
X015722Y028894D01*
X015615Y029001D01*
X015401Y029001D01*
X015295Y028894D01*
X015295Y028360D02*
X015722Y028360D01*
X009921Y028680D02*
X009494Y028680D01*
X009276Y028680D02*
X008849Y028680D01*
X008849Y028787D02*
X008849Y028360D01*
X008632Y028360D02*
X008311Y028680D01*
X009380Y015580D02*
X016980Y015580D01*
X017006Y015578D01*
X017032Y015573D01*
X017057Y015565D01*
X017080Y015553D01*
X017102Y015539D01*
X017121Y015521D01*
X017139Y015502D01*
X017153Y015480D01*
X017165Y015457D01*
X017173Y015432D01*
X017178Y015406D01*
X017180Y015380D01*
X017180Y014980D01*
X017178Y014954D01*
X017173Y014928D01*
X017165Y014903D01*
X017153Y014880D01*
X017139Y014858D01*
X017121Y014839D01*
X017102Y014821D01*
X017080Y014807D01*
X017057Y014795D01*
X017032Y014787D01*
X017006Y014782D01*
X016980Y014780D01*
X009380Y014780D01*
X009330Y014830D02*
X009330Y015530D01*
X010030Y015530D01*
X010030Y014830D01*
X009330Y014830D01*
X009380Y014780D02*
X009354Y014782D01*
X009328Y014787D01*
X009303Y014795D01*
X009280Y014807D01*
X009258Y014821D01*
X009239Y014839D01*
X009221Y014858D01*
X009207Y014880D01*
X009195Y014903D01*
X009187Y014928D01*
X009182Y014954D01*
X009180Y014980D01*
X009180Y015380D01*
X009182Y015406D01*
X009187Y015432D01*
X009195Y015457D01*
X009207Y015480D01*
X009221Y015502D01*
X009239Y015521D01*
X009258Y015539D01*
X009280Y015553D01*
X009303Y015565D01*
X009328Y015573D01*
X009354Y015578D01*
X009380Y015580D01*
X017680Y015380D02*
X017680Y014980D01*
X017682Y014954D01*
X017687Y014928D01*
X017695Y014903D01*
X017707Y014880D01*
X017721Y014858D01*
X017739Y014839D01*
X017758Y014821D01*
X017780Y014807D01*
X017803Y014795D01*
X017828Y014787D01*
X017854Y014782D01*
X017880Y014780D01*
X025480Y014780D01*
X025530Y014830D02*
X024830Y014830D01*
X024830Y015530D01*
X025530Y015530D01*
X025530Y014830D01*
X025480Y014780D02*
X025506Y014782D01*
X025532Y014787D01*
X025557Y014795D01*
X025580Y014807D01*
X025602Y014821D01*
X025621Y014839D01*
X025639Y014858D01*
X025653Y014880D01*
X025665Y014903D01*
X025673Y014928D01*
X025678Y014954D01*
X025680Y014980D01*
X025680Y015380D01*
X025678Y015406D01*
X025673Y015432D01*
X025665Y015457D01*
X025653Y015480D01*
X025639Y015502D01*
X025621Y015521D01*
X025602Y015539D01*
X025580Y015553D01*
X025557Y015565D01*
X025532Y015573D01*
X025506Y015578D01*
X025480Y015580D01*
X017880Y015580D01*
X017854Y015578D01*
X017828Y015573D01*
X017803Y015565D01*
X017780Y015553D01*
X017758Y015539D01*
X017739Y015521D01*
X017721Y015502D01*
X017707Y015480D01*
X017695Y015457D01*
X017687Y015432D01*
X017682Y015406D01*
X017680Y015380D01*
X016880Y008080D02*
X024480Y008080D01*
X024530Y008030D02*
X024530Y007330D01*
X023830Y007330D01*
X023830Y008030D01*
X024530Y008030D01*
X024480Y008080D02*
X024506Y008078D01*
X024532Y008073D01*
X024557Y008065D01*
X024580Y008053D01*
X024602Y008039D01*
X024621Y008021D01*
X024639Y008002D01*
X024653Y007980D01*
X024665Y007957D01*
X024673Y007932D01*
X024678Y007906D01*
X024680Y007880D01*
X024680Y007480D01*
X024678Y007454D01*
X024673Y007428D01*
X024665Y007403D01*
X024653Y007380D01*
X024639Y007358D01*
X024621Y007339D01*
X024602Y007321D01*
X024580Y007307D01*
X024557Y007295D01*
X024532Y007287D01*
X024506Y007282D01*
X024480Y007280D01*
X016880Y007280D01*
X016854Y007282D01*
X016828Y007287D01*
X016803Y007295D01*
X016780Y007307D01*
X016758Y007321D01*
X016739Y007339D01*
X016721Y007358D01*
X016707Y007380D01*
X016695Y007403D01*
X016687Y007428D01*
X016682Y007454D01*
X016680Y007480D01*
X016680Y007880D01*
X016682Y007906D01*
X016687Y007932D01*
X016695Y007957D01*
X016707Y007980D01*
X016721Y008002D01*
X016739Y008021D01*
X016758Y008039D01*
X016780Y008053D01*
X016803Y008065D01*
X016828Y008073D01*
X016854Y008078D01*
X016880Y008080D01*
X035280Y011380D02*
X035280Y018980D01*
X035282Y019006D01*
X035287Y019032D01*
X035295Y019057D01*
X035307Y019080D01*
X035321Y019102D01*
X035339Y019121D01*
X035358Y019139D01*
X035380Y019153D01*
X035403Y019165D01*
X035428Y019173D01*
X035454Y019178D01*
X035480Y019180D01*
X035880Y019180D01*
X035906Y019178D01*
X035932Y019173D01*
X035957Y019165D01*
X035980Y019153D01*
X036002Y019139D01*
X036021Y019121D01*
X036039Y019102D01*
X036053Y019080D01*
X036065Y019057D01*
X036073Y019032D01*
X036078Y019006D01*
X036080Y018980D01*
X036080Y011380D01*
X036030Y011330D02*
X035330Y011330D01*
X035330Y012030D01*
X036030Y012030D01*
X036030Y011330D01*
X036080Y011380D02*
X036078Y011354D01*
X036073Y011328D01*
X036065Y011303D01*
X036053Y011280D01*
X036039Y011258D01*
X036021Y011239D01*
X036002Y011221D01*
X035980Y011207D01*
X035957Y011195D01*
X035932Y011187D01*
X035906Y011182D01*
X035880Y011180D01*
X035480Y011180D01*
X035454Y011182D01*
X035428Y011187D01*
X035403Y011195D01*
X035380Y011207D01*
X035358Y011221D01*
X035339Y011239D01*
X035321Y011258D01*
X035307Y011280D01*
X035295Y011303D01*
X035287Y011328D01*
X035282Y011354D01*
X035280Y011380D01*
D15*
X035155Y011505D02*
X035005Y011355D01*
X035005Y011430D02*
X035005Y011205D01*
X035155Y011205D02*
X034705Y011205D01*
X034705Y011430D01*
X034780Y011505D01*
X034930Y011505D01*
X035005Y011430D01*
X035155Y011665D02*
X034705Y011665D01*
X035155Y011966D01*
X034705Y011966D01*
X034705Y012126D02*
X034930Y012126D01*
X034855Y012276D01*
X034855Y012351D01*
X034930Y012426D01*
X035080Y012426D01*
X035155Y012351D01*
X035155Y012201D01*
X035080Y012126D01*
X034705Y012126D02*
X034705Y012426D01*
X034633Y014133D02*
X034633Y008227D01*
X028727Y008227D01*
X028727Y014133D01*
X034633Y014133D01*
X034633Y016227D02*
X034633Y022133D01*
X028727Y022133D01*
X028727Y016227D01*
X034633Y016227D01*
X031680Y018680D02*
X031680Y019680D01*
X032180Y019180D02*
X031180Y019180D01*
X034860Y022675D02*
X034935Y022750D01*
X034935Y022825D01*
X034860Y022900D01*
X034485Y022900D01*
X034485Y022825D02*
X034485Y022975D01*
X034485Y023135D02*
X034485Y023361D01*
X034560Y023436D01*
X034710Y023436D01*
X034785Y023361D01*
X034785Y023135D01*
X034935Y023135D02*
X034485Y023135D01*
X034485Y023596D02*
X034485Y023896D01*
X034560Y023896D01*
X034860Y023596D01*
X034935Y023596D01*
X039985Y023671D02*
X040060Y023596D01*
X039985Y023671D02*
X039985Y023821D01*
X040060Y023896D01*
X040135Y023896D01*
X040210Y023821D01*
X040285Y023896D01*
X040360Y023896D01*
X040435Y023821D01*
X040435Y023671D01*
X040360Y023596D01*
X040210Y023746D02*
X040210Y023821D01*
X040210Y023436D02*
X040285Y023361D01*
X040285Y023135D01*
X040435Y023135D02*
X039985Y023135D01*
X039985Y023361D01*
X040060Y023436D01*
X040210Y023436D01*
X039985Y022975D02*
X039985Y022825D01*
X039985Y022900D02*
X040360Y022900D01*
X040435Y022825D01*
X040435Y022750D01*
X040360Y022675D01*
X044985Y022825D02*
X044985Y022975D01*
X044985Y022900D02*
X045360Y022900D01*
X045435Y022825D01*
X045435Y022750D01*
X045360Y022675D01*
X045435Y023135D02*
X044985Y023135D01*
X044985Y023361D01*
X045060Y023436D01*
X045210Y023436D01*
X045285Y023361D01*
X045285Y023135D01*
X045210Y023596D02*
X045210Y023896D01*
X045435Y023821D02*
X044985Y023821D01*
X045210Y023596D01*
X031680Y011680D02*
X031680Y010680D01*
X032180Y011180D02*
X031180Y011180D01*
X035515Y010918D02*
X035855Y010918D01*
X035855Y010805D02*
X035855Y011032D01*
X035628Y010805D02*
X035515Y010918D01*
X039985Y005396D02*
X039985Y005096D01*
X040210Y005096D01*
X040135Y005246D01*
X040135Y005321D01*
X040210Y005396D01*
X040360Y005396D01*
X040435Y005321D01*
X040435Y005171D01*
X040360Y005096D01*
X040210Y004936D02*
X040285Y004861D01*
X040285Y004635D01*
X040435Y004635D02*
X039985Y004635D01*
X039985Y004861D01*
X040060Y004936D01*
X040210Y004936D01*
X039985Y004475D02*
X039985Y004325D01*
X039985Y004400D02*
X040360Y004400D01*
X040435Y004325D01*
X040435Y004250D01*
X040360Y004175D01*
X044985Y004325D02*
X044985Y004475D01*
X044985Y004400D02*
X045360Y004400D01*
X045435Y004325D01*
X045435Y004250D01*
X045360Y004175D01*
X045435Y004635D02*
X044985Y004635D01*
X044985Y004861D01*
X045060Y004936D01*
X045210Y004936D01*
X045285Y004861D01*
X045285Y004635D01*
X045360Y005096D02*
X045435Y005171D01*
X045435Y005321D01*
X045360Y005396D01*
X045285Y005396D01*
X045210Y005321D01*
X045210Y005096D01*
X045360Y005096D01*
X045210Y005096D02*
X045060Y005246D01*
X044985Y005396D01*
X025633Y008227D02*
X025633Y014133D01*
X019727Y014133D01*
X019727Y008227D01*
X025633Y008227D01*
X024859Y007855D02*
X024859Y007515D01*
X024746Y007515D02*
X024973Y007515D01*
X024746Y007742D02*
X024859Y007855D01*
X024545Y007155D02*
X024395Y007080D01*
X024245Y006930D01*
X024470Y006930D01*
X024545Y006855D01*
X024545Y006780D01*
X024470Y006705D01*
X024320Y006705D01*
X024245Y006780D01*
X024245Y006930D01*
X024084Y006705D02*
X024084Y007155D01*
X023784Y007155D02*
X024084Y006705D01*
X023784Y006705D02*
X023784Y007155D01*
X023624Y007080D02*
X023624Y006930D01*
X023549Y006855D01*
X023324Y006855D01*
X023474Y006855D02*
X023624Y006705D01*
X023324Y006705D02*
X023324Y007155D01*
X023549Y007155D01*
X023624Y007080D01*
X019633Y008227D02*
X019633Y014133D01*
X013727Y014133D01*
X013727Y008227D01*
X019633Y008227D01*
X016680Y010680D02*
X016680Y011680D01*
X017180Y011180D02*
X016180Y011180D01*
X013633Y014133D02*
X013633Y008227D01*
X007727Y008227D01*
X007727Y014133D01*
X013633Y014133D01*
X013633Y016227D02*
X013633Y022133D01*
X007727Y022133D01*
X007727Y016227D01*
X013633Y016227D01*
X013727Y016227D02*
X013727Y022133D01*
X019633Y022133D01*
X019633Y016227D01*
X013727Y016227D01*
X010426Y016080D02*
X010426Y016005D01*
X010351Y015930D01*
X010426Y015855D01*
X010426Y015780D01*
X010351Y015705D01*
X010201Y015705D01*
X010126Y015780D01*
X009966Y015705D02*
X009966Y016155D01*
X010126Y016080D02*
X010201Y016155D01*
X010351Y016155D01*
X010426Y016080D01*
X010351Y015930D02*
X010276Y015930D01*
X009966Y015705D02*
X009665Y016155D01*
X009665Y015705D01*
X009505Y015705D02*
X009355Y015855D01*
X009430Y015855D02*
X009205Y015855D01*
X009205Y015705D02*
X009205Y016155D01*
X009430Y016155D01*
X009505Y016080D01*
X009505Y015930D01*
X009430Y015855D01*
X008918Y015345D02*
X008918Y015005D01*
X008805Y015005D02*
X009032Y015005D01*
X008805Y015232D02*
X008918Y015345D01*
X005317Y016100D02*
X005317Y010100D01*
X003117Y010100D01*
X003117Y010600D01*
X003617Y010600D01*
X003617Y015600D01*
X003117Y015600D01*
X003117Y016100D01*
X005317Y016100D01*
X003117Y015600D02*
X003117Y010600D01*
X010180Y011180D02*
X011180Y011180D01*
X010680Y010680D02*
X010680Y011680D01*
X019727Y016227D02*
X019727Y022133D01*
X025633Y022133D01*
X025633Y016227D01*
X019727Y016227D01*
X023060Y017280D02*
X023060Y017780D01*
X023560Y017780D01*
X023560Y022780D01*
X023060Y022780D01*
X023060Y023280D01*
X025260Y023280D01*
X025260Y017280D01*
X023060Y017280D01*
X023060Y017780D02*
X023060Y022780D01*
X022680Y019680D02*
X022680Y018680D01*
X023180Y019180D02*
X022180Y019180D01*
X017180Y019180D02*
X016180Y019180D01*
X016680Y018680D02*
X016680Y019680D01*
X011180Y019180D02*
X010180Y019180D01*
X010680Y018680D02*
X010680Y019680D01*
X022680Y011680D02*
X022680Y010680D01*
X023180Y011180D02*
X022180Y011180D01*
X024324Y014205D02*
X024324Y014655D01*
X024549Y014655D01*
X024624Y014580D01*
X024624Y014430D01*
X024549Y014355D01*
X024324Y014355D01*
X024474Y014355D02*
X024624Y014205D01*
X024784Y014205D02*
X024784Y014655D01*
X025084Y014205D01*
X025084Y014655D01*
X025245Y014430D02*
X025545Y014430D01*
X025470Y014205D02*
X025470Y014655D01*
X025245Y014430D01*
X025746Y015015D02*
X025973Y015015D01*
X025859Y015015D02*
X025859Y015355D01*
X025746Y015242D01*
D16*
X024047Y016777D02*
X023970Y016700D01*
X023816Y016700D01*
X023740Y016777D01*
X023586Y016777D02*
X023509Y016700D01*
X023279Y016700D01*
X023279Y017160D01*
X023509Y017160D01*
X023586Y017084D01*
X023586Y017007D01*
X023509Y016930D01*
X023279Y016930D01*
X023509Y016930D02*
X023586Y016853D01*
X023586Y016777D01*
X023740Y017084D02*
X023816Y017160D01*
X023970Y017160D01*
X024047Y017084D01*
X024047Y017007D01*
X023970Y016930D01*
X024047Y016853D01*
X024047Y016777D01*
X023970Y016930D02*
X023893Y016930D01*
X018047Y017007D02*
X018047Y017084D01*
X017970Y017160D01*
X017816Y017160D01*
X017740Y017084D01*
X017586Y017084D02*
X017586Y017007D01*
X017509Y016930D01*
X017279Y016930D01*
X017279Y016700D02*
X017509Y016700D01*
X017586Y016777D01*
X017586Y016853D01*
X017509Y016930D01*
X017586Y017084D02*
X017509Y017160D01*
X017279Y017160D01*
X017279Y016700D01*
X017740Y016700D02*
X018047Y017007D01*
X018047Y016700D02*
X017740Y016700D01*
X012047Y016700D02*
X011740Y016700D01*
X011893Y016700D02*
X011893Y017160D01*
X011740Y017007D01*
X011586Y017007D02*
X011509Y016930D01*
X011279Y016930D01*
X011279Y016700D02*
X011509Y016700D01*
X011586Y016777D01*
X011586Y016853D01*
X011509Y016930D01*
X011586Y017007D02*
X011586Y017084D01*
X011509Y017160D01*
X011279Y017160D01*
X011279Y016700D01*
X011279Y009160D02*
X011509Y009160D01*
X011586Y009084D01*
X011586Y009007D01*
X011509Y008930D01*
X011279Y008930D01*
X011279Y008700D02*
X011509Y008700D01*
X011586Y008777D01*
X011586Y008853D01*
X011509Y008930D01*
X011740Y008930D02*
X012047Y008930D01*
X011970Y008700D02*
X011970Y009160D01*
X011740Y008930D01*
X011279Y008700D02*
X011279Y009160D01*
X017279Y009160D02*
X017279Y008700D01*
X017509Y008700D01*
X017586Y008777D01*
X017586Y008853D01*
X017509Y008930D01*
X017279Y008930D01*
X017279Y009160D02*
X017509Y009160D01*
X017586Y009084D01*
X017586Y009007D01*
X017509Y008930D01*
X017740Y008930D02*
X017740Y009160D01*
X018047Y009160D01*
X017970Y009007D02*
X018047Y008930D01*
X018047Y008777D01*
X017970Y008700D01*
X017816Y008700D01*
X017740Y008777D01*
X017740Y008930D02*
X017893Y009007D01*
X017970Y009007D01*
X023279Y008930D02*
X023509Y008930D01*
X023586Y008853D01*
X023586Y008777D01*
X023509Y008700D01*
X023279Y008700D01*
X023279Y009160D01*
X023509Y009160D01*
X023586Y009084D01*
X023586Y009007D01*
X023509Y008930D01*
X023740Y008930D02*
X023740Y008777D01*
X023816Y008700D01*
X023970Y008700D01*
X024047Y008777D01*
X024047Y008853D01*
X023970Y008930D01*
X023740Y008930D01*
X023893Y009084D01*
X024047Y009160D01*
X032279Y009160D02*
X032279Y008700D01*
X032509Y008700D01*
X032586Y008777D01*
X032586Y008853D01*
X032509Y008930D01*
X032279Y008930D01*
X032279Y009160D02*
X032509Y009160D01*
X032586Y009084D01*
X032586Y009007D01*
X032509Y008930D01*
X032740Y008853D02*
X032816Y008930D01*
X032970Y008930D01*
X033047Y008853D01*
X033047Y008777D01*
X032970Y008700D01*
X032816Y008700D01*
X032740Y008777D01*
X032740Y008853D01*
X032816Y008930D02*
X032740Y009007D01*
X032740Y009084D01*
X032816Y009160D01*
X032970Y009160D01*
X033047Y009084D01*
X033047Y009007D01*
X032970Y008930D01*
X032740Y016700D02*
X032740Y016777D01*
X033047Y017084D01*
X033047Y017160D01*
X032740Y017160D01*
X032586Y017084D02*
X032586Y017007D01*
X032509Y016930D01*
X032279Y016930D01*
X032279Y016700D02*
X032509Y016700D01*
X032586Y016777D01*
X032586Y016853D01*
X032509Y016930D01*
X032586Y017084D02*
X032509Y017160D01*
X032279Y017160D01*
X032279Y016700D01*
D17*
X035430Y022680D02*
X035180Y022930D01*
X035180Y023430D01*
X035430Y023680D01*
X035180Y023930D01*
X035180Y024430D01*
X035430Y024680D01*
X035180Y024930D01*
X035180Y025430D01*
X035430Y025680D01*
X035180Y025930D01*
X035180Y026430D01*
X035430Y026680D01*
X035930Y026680D01*
X036180Y026430D01*
X036180Y025930D01*
X035930Y025680D01*
X036180Y025430D01*
X036180Y024930D01*
X035930Y024680D01*
X036180Y024430D01*
X036180Y023930D01*
X035930Y023680D01*
X036180Y023430D01*
X036180Y022930D01*
X035930Y022680D01*
X035430Y022680D01*
X032480Y024231D02*
X032180Y024231D01*
X032180Y024131D01*
X032180Y024231D02*
X031880Y024231D01*
X031880Y025129D01*
X032180Y025129D01*
X032180Y025229D01*
X032180Y025129D02*
X032480Y025129D01*
X032480Y024231D01*
X025980Y027231D02*
X025680Y027231D01*
X025680Y027131D01*
X025680Y027231D02*
X025380Y027231D01*
X025380Y028129D01*
X025680Y028129D01*
X025680Y028229D01*
X025680Y028129D02*
X025980Y028129D01*
X025980Y027231D01*
X040680Y026430D02*
X040680Y025930D01*
X040930Y025680D01*
X040680Y025430D01*
X040680Y024930D01*
X040930Y024680D01*
X040680Y024430D01*
X040680Y023930D01*
X040930Y023680D01*
X040680Y023430D01*
X040680Y022930D01*
X040930Y022680D01*
X041430Y022680D01*
X041680Y022930D01*
X041680Y023430D01*
X041430Y023680D01*
X041680Y023930D01*
X041680Y024430D01*
X041430Y024680D01*
X041680Y024930D01*
X041680Y025430D01*
X041430Y025680D01*
X041680Y025930D01*
X041680Y026430D01*
X041430Y026680D01*
X040930Y026680D01*
X040680Y026430D01*
X041908Y029944D02*
X045452Y029944D01*
X045452Y000416D01*
X041908Y000416D01*
X041908Y029944D01*
X045680Y026430D02*
X045930Y026680D01*
X046430Y026680D01*
X046680Y026430D01*
X046680Y025930D01*
X046430Y025680D01*
X046680Y025430D01*
X046680Y024930D01*
X046430Y024680D01*
X046680Y024430D01*
X046680Y023930D01*
X046430Y023680D01*
X046680Y023430D01*
X046680Y022930D01*
X046430Y022680D01*
X045930Y022680D01*
X045680Y022930D01*
X045680Y023430D01*
X045930Y023680D01*
X045680Y023930D01*
X045680Y024430D01*
X045930Y024680D01*
X045680Y024930D01*
X045680Y025430D01*
X045930Y025680D01*
X045680Y025930D01*
X045680Y026430D01*
X045930Y008180D02*
X046430Y008180D01*
X046680Y007930D01*
X046680Y007430D01*
X046430Y007180D01*
X046680Y006930D01*
X046680Y006430D01*
X046430Y006180D01*
X046680Y005930D01*
X046680Y005430D01*
X046430Y005180D01*
X046680Y004930D01*
X046680Y004430D01*
X046430Y004180D01*
X045930Y004180D01*
X045680Y004430D01*
X045680Y004930D01*
X045930Y005180D01*
X045680Y005430D01*
X045680Y005930D01*
X045930Y006180D01*
X045680Y006430D01*
X045680Y006930D01*
X045930Y007180D01*
X045680Y007430D01*
X045680Y007930D01*
X045930Y008180D01*
X041680Y007930D02*
X041680Y007430D01*
X041430Y007180D01*
X041680Y006930D01*
X041680Y006430D01*
X041430Y006180D01*
X041680Y005930D01*
X041680Y005430D01*
X041430Y005180D01*
X041680Y004930D01*
X041680Y004430D01*
X041430Y004180D01*
X040930Y004180D01*
X040680Y004430D01*
X040680Y004930D01*
X040930Y005180D01*
X040680Y005430D01*
X040680Y005930D01*
X040930Y006180D01*
X040680Y006430D01*
X040680Y006930D01*
X040930Y007180D01*
X040680Y007430D01*
X040680Y007930D01*
X040930Y008180D01*
X041430Y008180D01*
X041680Y007930D01*
X031980Y004629D02*
X031980Y003731D01*
X031680Y003731D01*
X031680Y003631D01*
X031680Y003731D02*
X031380Y003731D01*
X031380Y004629D01*
X031680Y004629D01*
X031680Y004729D01*
X031680Y004629D02*
X031980Y004629D01*
X015729Y003680D02*
X015629Y003680D01*
X015629Y003380D01*
X014731Y003380D01*
X014731Y003680D01*
X014631Y003680D01*
X014731Y003680D02*
X014731Y003980D01*
X015629Y003980D01*
X015629Y003680D01*
D18*
X014428Y004170D02*
X014404Y004146D01*
X014355Y004146D01*
X014330Y004170D01*
X014283Y004170D02*
X014259Y004146D01*
X014210Y004146D01*
X014185Y004170D01*
X014185Y004269D01*
X014210Y004293D01*
X014259Y004293D01*
X014283Y004269D01*
X014330Y004269D02*
X014355Y004293D01*
X014404Y004293D01*
X014428Y004269D01*
X014428Y004244D01*
X014404Y004219D01*
X014428Y004195D01*
X014428Y004170D01*
X014404Y004219D02*
X014379Y004219D01*
X031067Y003404D02*
X031067Y003355D01*
X031091Y003330D01*
X031091Y003283D02*
X031067Y003259D01*
X031067Y003210D01*
X031091Y003185D01*
X031190Y003185D01*
X031214Y003210D01*
X031214Y003259D01*
X031190Y003283D01*
X031214Y003330D02*
X031116Y003428D01*
X031091Y003428D01*
X031067Y003404D01*
X031214Y003428D02*
X031214Y003330D01*
X032670Y025250D02*
X032769Y025250D01*
X032793Y025275D01*
X032793Y025324D01*
X032769Y025348D01*
X032793Y025395D02*
X032793Y025493D01*
X032793Y025444D02*
X032646Y025444D01*
X032695Y025395D01*
X032670Y025348D02*
X032646Y025324D01*
X032646Y025275D01*
X032670Y025250D01*
X032670Y025540D02*
X032646Y025565D01*
X032646Y025614D01*
X032670Y025638D01*
X032769Y025540D01*
X032793Y025565D01*
X032793Y025614D01*
X032769Y025638D01*
X032670Y025638D01*
X032670Y025540D02*
X032769Y025540D01*
X025214Y026710D02*
X025214Y026759D01*
X025190Y026783D01*
X025214Y026830D02*
X025214Y026928D01*
X025214Y026879D02*
X025067Y026879D01*
X025116Y026830D01*
X025091Y026783D02*
X025067Y026759D01*
X025067Y026710D01*
X025091Y026685D01*
X025190Y026685D01*
X025214Y026710D01*
D19*
X025660Y027284D02*
X025614Y027330D01*
X025752Y027330D01*
X025752Y027375D02*
X025752Y027284D01*
X025729Y027429D02*
X025637Y027520D01*
X025729Y027520D01*
X025752Y027498D01*
X025752Y027452D01*
X025729Y027429D01*
X025637Y027429D01*
X025614Y027452D01*
X025614Y027498D01*
X025637Y027520D01*
X025637Y027574D02*
X025614Y027597D01*
X025614Y027643D01*
X025637Y027665D01*
X025729Y027574D01*
X025752Y027597D01*
X025752Y027643D01*
X025729Y027665D01*
X025637Y027665D01*
X025660Y027719D02*
X025660Y027788D01*
X025683Y027810D01*
X025752Y027810D01*
X025752Y027864D02*
X025614Y027864D01*
X025614Y027955D01*
X025683Y027910D02*
X025683Y027864D01*
X025660Y027719D02*
X025752Y027719D01*
X025729Y027574D02*
X025637Y027574D01*
X032108Y025043D02*
X032108Y024951D01*
X032246Y024951D01*
X032246Y024898D02*
X032177Y024898D01*
X032154Y024875D01*
X032154Y024806D01*
X032246Y024806D01*
X032223Y024753D02*
X032246Y024730D01*
X032246Y024684D01*
X032223Y024661D01*
X032131Y024753D01*
X032223Y024753D01*
X032223Y024661D02*
X032131Y024661D01*
X032108Y024684D01*
X032108Y024730D01*
X032131Y024753D01*
X032246Y024608D02*
X032246Y024516D01*
X032246Y024562D02*
X032108Y024562D01*
X032154Y024516D01*
X032177Y024951D02*
X032177Y024997D01*
X031614Y004455D02*
X031614Y004364D01*
X031752Y004364D01*
X031752Y004310D02*
X031683Y004310D01*
X031660Y004288D01*
X031660Y004219D01*
X031752Y004219D01*
X031729Y004165D02*
X031752Y004143D01*
X031752Y004097D01*
X031729Y004074D01*
X031637Y004165D01*
X031729Y004165D01*
X031729Y004074D02*
X031637Y004074D01*
X031614Y004097D01*
X031614Y004143D01*
X031637Y004165D01*
X031637Y004020D02*
X031729Y003929D01*
X031752Y003952D01*
X031752Y003998D01*
X031729Y004020D01*
X031637Y004020D01*
X031614Y003998D01*
X031614Y003952D01*
X031637Y003929D01*
X031729Y003929D01*
X031752Y003875D02*
X031752Y003784D01*
X031752Y003830D02*
X031614Y003830D01*
X031660Y003784D01*
X031683Y004364D02*
X031683Y004410D01*
X015310Y003746D02*
X015219Y003746D01*
X015219Y003608D01*
X015165Y003608D02*
X015165Y003700D01*
X015219Y003677D02*
X015265Y003677D01*
X015165Y003608D02*
X015097Y003608D01*
X015074Y003631D01*
X015074Y003700D01*
X015020Y003723D02*
X014929Y003631D01*
X014952Y003608D01*
X014998Y003608D01*
X015020Y003631D01*
X015020Y003723D01*
X014998Y003746D01*
X014952Y003746D01*
X014929Y003723D01*
X014929Y003631D01*
X014875Y003608D02*
X014784Y003608D01*
X014830Y003608D02*
X014830Y003746D01*
X014784Y003700D01*
M02*
