G75*
G70*
%OFA0B0*%
%FSLAX24Y24*%
%IPPOS*%
%LPD*%
%AMOC8*
5,1,8,0,0,1.08239X$1,22.5*
%
%ADD10C,0.0000*%
%ADD11C,0.1300*%
%ADD12C,0.0160*%
%ADD13C,0.0749*%
%ADD14C,0.0552*%
%ADD15C,0.0780*%
%ADD16C,0.1040*%
%ADD17C,0.1221*%
%ADD18R,0.0780X0.0780*%
%ADD19C,0.0560*%
D10*
X000180Y000180D02*
X000180Y016400D01*
X000180Y030101D01*
X047361Y030101D01*
X047361Y000180D01*
X000180Y000180D01*
X004050Y003180D02*
X004052Y003230D01*
X004058Y003280D01*
X004068Y003329D01*
X004082Y003377D01*
X004099Y003424D01*
X004120Y003469D01*
X004145Y003513D01*
X004173Y003554D01*
X004205Y003593D01*
X004239Y003630D01*
X004276Y003664D01*
X004316Y003694D01*
X004358Y003721D01*
X004402Y003745D01*
X004448Y003766D01*
X004495Y003782D01*
X004543Y003795D01*
X004593Y003804D01*
X004642Y003809D01*
X004693Y003810D01*
X004743Y003807D01*
X004792Y003800D01*
X004841Y003789D01*
X004889Y003774D01*
X004935Y003756D01*
X004980Y003734D01*
X005023Y003708D01*
X005064Y003679D01*
X005103Y003647D01*
X005139Y003612D01*
X005171Y003574D01*
X005201Y003534D01*
X005228Y003491D01*
X005251Y003447D01*
X005270Y003401D01*
X005286Y003353D01*
X005298Y003304D01*
X005306Y003255D01*
X005310Y003205D01*
X005310Y003155D01*
X005306Y003105D01*
X005298Y003056D01*
X005286Y003007D01*
X005270Y002959D01*
X005251Y002913D01*
X005228Y002869D01*
X005201Y002826D01*
X005171Y002786D01*
X005139Y002748D01*
X005103Y002713D01*
X005064Y002681D01*
X005023Y002652D01*
X004980Y002626D01*
X004935Y002604D01*
X004889Y002586D01*
X004841Y002571D01*
X004792Y002560D01*
X004743Y002553D01*
X004693Y002550D01*
X004642Y002551D01*
X004593Y002556D01*
X004543Y002565D01*
X004495Y002578D01*
X004448Y002594D01*
X004402Y002615D01*
X004358Y002639D01*
X004316Y002666D01*
X004276Y002696D01*
X004239Y002730D01*
X004205Y002767D01*
X004173Y002806D01*
X004145Y002847D01*
X004120Y002891D01*
X004099Y002936D01*
X004082Y002983D01*
X004068Y003031D01*
X004058Y003080D01*
X004052Y003130D01*
X004050Y003180D01*
X007924Y008680D02*
X007926Y008711D01*
X007932Y008742D01*
X007941Y008772D01*
X007954Y008801D01*
X007971Y008828D01*
X007991Y008852D01*
X008013Y008874D01*
X008039Y008893D01*
X008066Y008909D01*
X008095Y008921D01*
X008125Y008930D01*
X008156Y008935D01*
X008188Y008936D01*
X008219Y008933D01*
X008250Y008926D01*
X008280Y008916D01*
X008308Y008902D01*
X008334Y008884D01*
X008358Y008864D01*
X008379Y008840D01*
X008398Y008815D01*
X008413Y008787D01*
X008424Y008758D01*
X008432Y008727D01*
X008436Y008696D01*
X008436Y008664D01*
X008432Y008633D01*
X008424Y008602D01*
X008413Y008573D01*
X008398Y008545D01*
X008379Y008520D01*
X008358Y008496D01*
X008334Y008476D01*
X008308Y008458D01*
X008280Y008444D01*
X008250Y008434D01*
X008219Y008427D01*
X008188Y008424D01*
X008156Y008425D01*
X008125Y008430D01*
X008095Y008439D01*
X008066Y008451D01*
X008039Y008467D01*
X008013Y008486D01*
X007991Y008508D01*
X007971Y008532D01*
X007954Y008559D01*
X007941Y008588D01*
X007932Y008618D01*
X007926Y008649D01*
X007924Y008680D01*
X012924Y008680D02*
X012926Y008711D01*
X012932Y008742D01*
X012941Y008772D01*
X012954Y008801D01*
X012971Y008828D01*
X012991Y008852D01*
X013013Y008874D01*
X013039Y008893D01*
X013066Y008909D01*
X013095Y008921D01*
X013125Y008930D01*
X013156Y008935D01*
X013188Y008936D01*
X013219Y008933D01*
X013250Y008926D01*
X013280Y008916D01*
X013308Y008902D01*
X013334Y008884D01*
X013358Y008864D01*
X013379Y008840D01*
X013398Y008815D01*
X013413Y008787D01*
X013424Y008758D01*
X013432Y008727D01*
X013436Y008696D01*
X013436Y008664D01*
X013432Y008633D01*
X013424Y008602D01*
X013413Y008573D01*
X013398Y008545D01*
X013379Y008520D01*
X013358Y008496D01*
X013334Y008476D01*
X013308Y008458D01*
X013280Y008444D01*
X013250Y008434D01*
X013219Y008427D01*
X013188Y008424D01*
X013156Y008425D01*
X013125Y008430D01*
X013095Y008439D01*
X013066Y008451D01*
X013039Y008467D01*
X013013Y008486D01*
X012991Y008508D01*
X012971Y008532D01*
X012954Y008559D01*
X012941Y008588D01*
X012932Y008618D01*
X012926Y008649D01*
X012924Y008680D01*
X013924Y008680D02*
X013926Y008711D01*
X013932Y008742D01*
X013941Y008772D01*
X013954Y008801D01*
X013971Y008828D01*
X013991Y008852D01*
X014013Y008874D01*
X014039Y008893D01*
X014066Y008909D01*
X014095Y008921D01*
X014125Y008930D01*
X014156Y008935D01*
X014188Y008936D01*
X014219Y008933D01*
X014250Y008926D01*
X014280Y008916D01*
X014308Y008902D01*
X014334Y008884D01*
X014358Y008864D01*
X014379Y008840D01*
X014398Y008815D01*
X014413Y008787D01*
X014424Y008758D01*
X014432Y008727D01*
X014436Y008696D01*
X014436Y008664D01*
X014432Y008633D01*
X014424Y008602D01*
X014413Y008573D01*
X014398Y008545D01*
X014379Y008520D01*
X014358Y008496D01*
X014334Y008476D01*
X014308Y008458D01*
X014280Y008444D01*
X014250Y008434D01*
X014219Y008427D01*
X014188Y008424D01*
X014156Y008425D01*
X014125Y008430D01*
X014095Y008439D01*
X014066Y008451D01*
X014039Y008467D01*
X014013Y008486D01*
X013991Y008508D01*
X013971Y008532D01*
X013954Y008559D01*
X013941Y008588D01*
X013932Y008618D01*
X013926Y008649D01*
X013924Y008680D01*
X018924Y008680D02*
X018926Y008711D01*
X018932Y008742D01*
X018941Y008772D01*
X018954Y008801D01*
X018971Y008828D01*
X018991Y008852D01*
X019013Y008874D01*
X019039Y008893D01*
X019066Y008909D01*
X019095Y008921D01*
X019125Y008930D01*
X019156Y008935D01*
X019188Y008936D01*
X019219Y008933D01*
X019250Y008926D01*
X019280Y008916D01*
X019308Y008902D01*
X019334Y008884D01*
X019358Y008864D01*
X019379Y008840D01*
X019398Y008815D01*
X019413Y008787D01*
X019424Y008758D01*
X019432Y008727D01*
X019436Y008696D01*
X019436Y008664D01*
X019432Y008633D01*
X019424Y008602D01*
X019413Y008573D01*
X019398Y008545D01*
X019379Y008520D01*
X019358Y008496D01*
X019334Y008476D01*
X019308Y008458D01*
X019280Y008444D01*
X019250Y008434D01*
X019219Y008427D01*
X019188Y008424D01*
X019156Y008425D01*
X019125Y008430D01*
X019095Y008439D01*
X019066Y008451D01*
X019039Y008467D01*
X019013Y008486D01*
X018991Y008508D01*
X018971Y008532D01*
X018954Y008559D01*
X018941Y008588D01*
X018932Y008618D01*
X018926Y008649D01*
X018924Y008680D01*
X019924Y008680D02*
X019926Y008711D01*
X019932Y008742D01*
X019941Y008772D01*
X019954Y008801D01*
X019971Y008828D01*
X019991Y008852D01*
X020013Y008874D01*
X020039Y008893D01*
X020066Y008909D01*
X020095Y008921D01*
X020125Y008930D01*
X020156Y008935D01*
X020188Y008936D01*
X020219Y008933D01*
X020250Y008926D01*
X020280Y008916D01*
X020308Y008902D01*
X020334Y008884D01*
X020358Y008864D01*
X020379Y008840D01*
X020398Y008815D01*
X020413Y008787D01*
X020424Y008758D01*
X020432Y008727D01*
X020436Y008696D01*
X020436Y008664D01*
X020432Y008633D01*
X020424Y008602D01*
X020413Y008573D01*
X020398Y008545D01*
X020379Y008520D01*
X020358Y008496D01*
X020334Y008476D01*
X020308Y008458D01*
X020280Y008444D01*
X020250Y008434D01*
X020219Y008427D01*
X020188Y008424D01*
X020156Y008425D01*
X020125Y008430D01*
X020095Y008439D01*
X020066Y008451D01*
X020039Y008467D01*
X020013Y008486D01*
X019991Y008508D01*
X019971Y008532D01*
X019954Y008559D01*
X019941Y008588D01*
X019932Y008618D01*
X019926Y008649D01*
X019924Y008680D01*
X024924Y008680D02*
X024926Y008711D01*
X024932Y008742D01*
X024941Y008772D01*
X024954Y008801D01*
X024971Y008828D01*
X024991Y008852D01*
X025013Y008874D01*
X025039Y008893D01*
X025066Y008909D01*
X025095Y008921D01*
X025125Y008930D01*
X025156Y008935D01*
X025188Y008936D01*
X025219Y008933D01*
X025250Y008926D01*
X025280Y008916D01*
X025308Y008902D01*
X025334Y008884D01*
X025358Y008864D01*
X025379Y008840D01*
X025398Y008815D01*
X025413Y008787D01*
X025424Y008758D01*
X025432Y008727D01*
X025436Y008696D01*
X025436Y008664D01*
X025432Y008633D01*
X025424Y008602D01*
X025413Y008573D01*
X025398Y008545D01*
X025379Y008520D01*
X025358Y008496D01*
X025334Y008476D01*
X025308Y008458D01*
X025280Y008444D01*
X025250Y008434D01*
X025219Y008427D01*
X025188Y008424D01*
X025156Y008425D01*
X025125Y008430D01*
X025095Y008439D01*
X025066Y008451D01*
X025039Y008467D01*
X025013Y008486D01*
X024991Y008508D01*
X024971Y008532D01*
X024954Y008559D01*
X024941Y008588D01*
X024932Y008618D01*
X024926Y008649D01*
X024924Y008680D01*
X028924Y008680D02*
X028926Y008711D01*
X028932Y008742D01*
X028941Y008772D01*
X028954Y008801D01*
X028971Y008828D01*
X028991Y008852D01*
X029013Y008874D01*
X029039Y008893D01*
X029066Y008909D01*
X029095Y008921D01*
X029125Y008930D01*
X029156Y008935D01*
X029188Y008936D01*
X029219Y008933D01*
X029250Y008926D01*
X029280Y008916D01*
X029308Y008902D01*
X029334Y008884D01*
X029358Y008864D01*
X029379Y008840D01*
X029398Y008815D01*
X029413Y008787D01*
X029424Y008758D01*
X029432Y008727D01*
X029436Y008696D01*
X029436Y008664D01*
X029432Y008633D01*
X029424Y008602D01*
X029413Y008573D01*
X029398Y008545D01*
X029379Y008520D01*
X029358Y008496D01*
X029334Y008476D01*
X029308Y008458D01*
X029280Y008444D01*
X029250Y008434D01*
X029219Y008427D01*
X029188Y008424D01*
X029156Y008425D01*
X029125Y008430D01*
X029095Y008439D01*
X029066Y008451D01*
X029039Y008467D01*
X029013Y008486D01*
X028991Y008508D01*
X028971Y008532D01*
X028954Y008559D01*
X028941Y008588D01*
X028932Y008618D01*
X028926Y008649D01*
X028924Y008680D01*
X033924Y008680D02*
X033926Y008711D01*
X033932Y008742D01*
X033941Y008772D01*
X033954Y008801D01*
X033971Y008828D01*
X033991Y008852D01*
X034013Y008874D01*
X034039Y008893D01*
X034066Y008909D01*
X034095Y008921D01*
X034125Y008930D01*
X034156Y008935D01*
X034188Y008936D01*
X034219Y008933D01*
X034250Y008926D01*
X034280Y008916D01*
X034308Y008902D01*
X034334Y008884D01*
X034358Y008864D01*
X034379Y008840D01*
X034398Y008815D01*
X034413Y008787D01*
X034424Y008758D01*
X034432Y008727D01*
X034436Y008696D01*
X034436Y008664D01*
X034432Y008633D01*
X034424Y008602D01*
X034413Y008573D01*
X034398Y008545D01*
X034379Y008520D01*
X034358Y008496D01*
X034334Y008476D01*
X034308Y008458D01*
X034280Y008444D01*
X034250Y008434D01*
X034219Y008427D01*
X034188Y008424D01*
X034156Y008425D01*
X034125Y008430D01*
X034095Y008439D01*
X034066Y008451D01*
X034039Y008467D01*
X034013Y008486D01*
X033991Y008508D01*
X033971Y008532D01*
X033954Y008559D01*
X033941Y008588D01*
X033932Y008618D01*
X033926Y008649D01*
X033924Y008680D01*
X033924Y013680D02*
X033926Y013711D01*
X033932Y013742D01*
X033941Y013772D01*
X033954Y013801D01*
X033971Y013828D01*
X033991Y013852D01*
X034013Y013874D01*
X034039Y013893D01*
X034066Y013909D01*
X034095Y013921D01*
X034125Y013930D01*
X034156Y013935D01*
X034188Y013936D01*
X034219Y013933D01*
X034250Y013926D01*
X034280Y013916D01*
X034308Y013902D01*
X034334Y013884D01*
X034358Y013864D01*
X034379Y013840D01*
X034398Y013815D01*
X034413Y013787D01*
X034424Y013758D01*
X034432Y013727D01*
X034436Y013696D01*
X034436Y013664D01*
X034432Y013633D01*
X034424Y013602D01*
X034413Y013573D01*
X034398Y013545D01*
X034379Y013520D01*
X034358Y013496D01*
X034334Y013476D01*
X034308Y013458D01*
X034280Y013444D01*
X034250Y013434D01*
X034219Y013427D01*
X034188Y013424D01*
X034156Y013425D01*
X034125Y013430D01*
X034095Y013439D01*
X034066Y013451D01*
X034039Y013467D01*
X034013Y013486D01*
X033991Y013508D01*
X033971Y013532D01*
X033954Y013559D01*
X033941Y013588D01*
X033932Y013618D01*
X033926Y013649D01*
X033924Y013680D01*
X033924Y016680D02*
X033926Y016711D01*
X033932Y016742D01*
X033941Y016772D01*
X033954Y016801D01*
X033971Y016828D01*
X033991Y016852D01*
X034013Y016874D01*
X034039Y016893D01*
X034066Y016909D01*
X034095Y016921D01*
X034125Y016930D01*
X034156Y016935D01*
X034188Y016936D01*
X034219Y016933D01*
X034250Y016926D01*
X034280Y016916D01*
X034308Y016902D01*
X034334Y016884D01*
X034358Y016864D01*
X034379Y016840D01*
X034398Y016815D01*
X034413Y016787D01*
X034424Y016758D01*
X034432Y016727D01*
X034436Y016696D01*
X034436Y016664D01*
X034432Y016633D01*
X034424Y016602D01*
X034413Y016573D01*
X034398Y016545D01*
X034379Y016520D01*
X034358Y016496D01*
X034334Y016476D01*
X034308Y016458D01*
X034280Y016444D01*
X034250Y016434D01*
X034219Y016427D01*
X034188Y016424D01*
X034156Y016425D01*
X034125Y016430D01*
X034095Y016439D01*
X034066Y016451D01*
X034039Y016467D01*
X034013Y016486D01*
X033991Y016508D01*
X033971Y016532D01*
X033954Y016559D01*
X033941Y016588D01*
X033932Y016618D01*
X033926Y016649D01*
X033924Y016680D01*
X028924Y016680D02*
X028926Y016711D01*
X028932Y016742D01*
X028941Y016772D01*
X028954Y016801D01*
X028971Y016828D01*
X028991Y016852D01*
X029013Y016874D01*
X029039Y016893D01*
X029066Y016909D01*
X029095Y016921D01*
X029125Y016930D01*
X029156Y016935D01*
X029188Y016936D01*
X029219Y016933D01*
X029250Y016926D01*
X029280Y016916D01*
X029308Y016902D01*
X029334Y016884D01*
X029358Y016864D01*
X029379Y016840D01*
X029398Y016815D01*
X029413Y016787D01*
X029424Y016758D01*
X029432Y016727D01*
X029436Y016696D01*
X029436Y016664D01*
X029432Y016633D01*
X029424Y016602D01*
X029413Y016573D01*
X029398Y016545D01*
X029379Y016520D01*
X029358Y016496D01*
X029334Y016476D01*
X029308Y016458D01*
X029280Y016444D01*
X029250Y016434D01*
X029219Y016427D01*
X029188Y016424D01*
X029156Y016425D01*
X029125Y016430D01*
X029095Y016439D01*
X029066Y016451D01*
X029039Y016467D01*
X029013Y016486D01*
X028991Y016508D01*
X028971Y016532D01*
X028954Y016559D01*
X028941Y016588D01*
X028932Y016618D01*
X028926Y016649D01*
X028924Y016680D01*
X024924Y016680D02*
X024926Y016711D01*
X024932Y016742D01*
X024941Y016772D01*
X024954Y016801D01*
X024971Y016828D01*
X024991Y016852D01*
X025013Y016874D01*
X025039Y016893D01*
X025066Y016909D01*
X025095Y016921D01*
X025125Y016930D01*
X025156Y016935D01*
X025188Y016936D01*
X025219Y016933D01*
X025250Y016926D01*
X025280Y016916D01*
X025308Y016902D01*
X025334Y016884D01*
X025358Y016864D01*
X025379Y016840D01*
X025398Y016815D01*
X025413Y016787D01*
X025424Y016758D01*
X025432Y016727D01*
X025436Y016696D01*
X025436Y016664D01*
X025432Y016633D01*
X025424Y016602D01*
X025413Y016573D01*
X025398Y016545D01*
X025379Y016520D01*
X025358Y016496D01*
X025334Y016476D01*
X025308Y016458D01*
X025280Y016444D01*
X025250Y016434D01*
X025219Y016427D01*
X025188Y016424D01*
X025156Y016425D01*
X025125Y016430D01*
X025095Y016439D01*
X025066Y016451D01*
X025039Y016467D01*
X025013Y016486D01*
X024991Y016508D01*
X024971Y016532D01*
X024954Y016559D01*
X024941Y016588D01*
X024932Y016618D01*
X024926Y016649D01*
X024924Y016680D01*
X024924Y013680D02*
X024926Y013711D01*
X024932Y013742D01*
X024941Y013772D01*
X024954Y013801D01*
X024971Y013828D01*
X024991Y013852D01*
X025013Y013874D01*
X025039Y013893D01*
X025066Y013909D01*
X025095Y013921D01*
X025125Y013930D01*
X025156Y013935D01*
X025188Y013936D01*
X025219Y013933D01*
X025250Y013926D01*
X025280Y013916D01*
X025308Y013902D01*
X025334Y013884D01*
X025358Y013864D01*
X025379Y013840D01*
X025398Y013815D01*
X025413Y013787D01*
X025424Y013758D01*
X025432Y013727D01*
X025436Y013696D01*
X025436Y013664D01*
X025432Y013633D01*
X025424Y013602D01*
X025413Y013573D01*
X025398Y013545D01*
X025379Y013520D01*
X025358Y013496D01*
X025334Y013476D01*
X025308Y013458D01*
X025280Y013444D01*
X025250Y013434D01*
X025219Y013427D01*
X025188Y013424D01*
X025156Y013425D01*
X025125Y013430D01*
X025095Y013439D01*
X025066Y013451D01*
X025039Y013467D01*
X025013Y013486D01*
X024991Y013508D01*
X024971Y013532D01*
X024954Y013559D01*
X024941Y013588D01*
X024932Y013618D01*
X024926Y013649D01*
X024924Y013680D01*
X028924Y013680D02*
X028926Y013711D01*
X028932Y013742D01*
X028941Y013772D01*
X028954Y013801D01*
X028971Y013828D01*
X028991Y013852D01*
X029013Y013874D01*
X029039Y013893D01*
X029066Y013909D01*
X029095Y013921D01*
X029125Y013930D01*
X029156Y013935D01*
X029188Y013936D01*
X029219Y013933D01*
X029250Y013926D01*
X029280Y013916D01*
X029308Y013902D01*
X029334Y013884D01*
X029358Y013864D01*
X029379Y013840D01*
X029398Y013815D01*
X029413Y013787D01*
X029424Y013758D01*
X029432Y013727D01*
X029436Y013696D01*
X029436Y013664D01*
X029432Y013633D01*
X029424Y013602D01*
X029413Y013573D01*
X029398Y013545D01*
X029379Y013520D01*
X029358Y013496D01*
X029334Y013476D01*
X029308Y013458D01*
X029280Y013444D01*
X029250Y013434D01*
X029219Y013427D01*
X029188Y013424D01*
X029156Y013425D01*
X029125Y013430D01*
X029095Y013439D01*
X029066Y013451D01*
X029039Y013467D01*
X029013Y013486D01*
X028991Y013508D01*
X028971Y013532D01*
X028954Y013559D01*
X028941Y013588D01*
X028932Y013618D01*
X028926Y013649D01*
X028924Y013680D01*
X019924Y013680D02*
X019926Y013711D01*
X019932Y013742D01*
X019941Y013772D01*
X019954Y013801D01*
X019971Y013828D01*
X019991Y013852D01*
X020013Y013874D01*
X020039Y013893D01*
X020066Y013909D01*
X020095Y013921D01*
X020125Y013930D01*
X020156Y013935D01*
X020188Y013936D01*
X020219Y013933D01*
X020250Y013926D01*
X020280Y013916D01*
X020308Y013902D01*
X020334Y013884D01*
X020358Y013864D01*
X020379Y013840D01*
X020398Y013815D01*
X020413Y013787D01*
X020424Y013758D01*
X020432Y013727D01*
X020436Y013696D01*
X020436Y013664D01*
X020432Y013633D01*
X020424Y013602D01*
X020413Y013573D01*
X020398Y013545D01*
X020379Y013520D01*
X020358Y013496D01*
X020334Y013476D01*
X020308Y013458D01*
X020280Y013444D01*
X020250Y013434D01*
X020219Y013427D01*
X020188Y013424D01*
X020156Y013425D01*
X020125Y013430D01*
X020095Y013439D01*
X020066Y013451D01*
X020039Y013467D01*
X020013Y013486D01*
X019991Y013508D01*
X019971Y013532D01*
X019954Y013559D01*
X019941Y013588D01*
X019932Y013618D01*
X019926Y013649D01*
X019924Y013680D01*
X018924Y013680D02*
X018926Y013711D01*
X018932Y013742D01*
X018941Y013772D01*
X018954Y013801D01*
X018971Y013828D01*
X018991Y013852D01*
X019013Y013874D01*
X019039Y013893D01*
X019066Y013909D01*
X019095Y013921D01*
X019125Y013930D01*
X019156Y013935D01*
X019188Y013936D01*
X019219Y013933D01*
X019250Y013926D01*
X019280Y013916D01*
X019308Y013902D01*
X019334Y013884D01*
X019358Y013864D01*
X019379Y013840D01*
X019398Y013815D01*
X019413Y013787D01*
X019424Y013758D01*
X019432Y013727D01*
X019436Y013696D01*
X019436Y013664D01*
X019432Y013633D01*
X019424Y013602D01*
X019413Y013573D01*
X019398Y013545D01*
X019379Y013520D01*
X019358Y013496D01*
X019334Y013476D01*
X019308Y013458D01*
X019280Y013444D01*
X019250Y013434D01*
X019219Y013427D01*
X019188Y013424D01*
X019156Y013425D01*
X019125Y013430D01*
X019095Y013439D01*
X019066Y013451D01*
X019039Y013467D01*
X019013Y013486D01*
X018991Y013508D01*
X018971Y013532D01*
X018954Y013559D01*
X018941Y013588D01*
X018932Y013618D01*
X018926Y013649D01*
X018924Y013680D01*
X018924Y016680D02*
X018926Y016711D01*
X018932Y016742D01*
X018941Y016772D01*
X018954Y016801D01*
X018971Y016828D01*
X018991Y016852D01*
X019013Y016874D01*
X019039Y016893D01*
X019066Y016909D01*
X019095Y016921D01*
X019125Y016930D01*
X019156Y016935D01*
X019188Y016936D01*
X019219Y016933D01*
X019250Y016926D01*
X019280Y016916D01*
X019308Y016902D01*
X019334Y016884D01*
X019358Y016864D01*
X019379Y016840D01*
X019398Y016815D01*
X019413Y016787D01*
X019424Y016758D01*
X019432Y016727D01*
X019436Y016696D01*
X019436Y016664D01*
X019432Y016633D01*
X019424Y016602D01*
X019413Y016573D01*
X019398Y016545D01*
X019379Y016520D01*
X019358Y016496D01*
X019334Y016476D01*
X019308Y016458D01*
X019280Y016444D01*
X019250Y016434D01*
X019219Y016427D01*
X019188Y016424D01*
X019156Y016425D01*
X019125Y016430D01*
X019095Y016439D01*
X019066Y016451D01*
X019039Y016467D01*
X019013Y016486D01*
X018991Y016508D01*
X018971Y016532D01*
X018954Y016559D01*
X018941Y016588D01*
X018932Y016618D01*
X018926Y016649D01*
X018924Y016680D01*
X019924Y016680D02*
X019926Y016711D01*
X019932Y016742D01*
X019941Y016772D01*
X019954Y016801D01*
X019971Y016828D01*
X019991Y016852D01*
X020013Y016874D01*
X020039Y016893D01*
X020066Y016909D01*
X020095Y016921D01*
X020125Y016930D01*
X020156Y016935D01*
X020188Y016936D01*
X020219Y016933D01*
X020250Y016926D01*
X020280Y016916D01*
X020308Y016902D01*
X020334Y016884D01*
X020358Y016864D01*
X020379Y016840D01*
X020398Y016815D01*
X020413Y016787D01*
X020424Y016758D01*
X020432Y016727D01*
X020436Y016696D01*
X020436Y016664D01*
X020432Y016633D01*
X020424Y016602D01*
X020413Y016573D01*
X020398Y016545D01*
X020379Y016520D01*
X020358Y016496D01*
X020334Y016476D01*
X020308Y016458D01*
X020280Y016444D01*
X020250Y016434D01*
X020219Y016427D01*
X020188Y016424D01*
X020156Y016425D01*
X020125Y016430D01*
X020095Y016439D01*
X020066Y016451D01*
X020039Y016467D01*
X020013Y016486D01*
X019991Y016508D01*
X019971Y016532D01*
X019954Y016559D01*
X019941Y016588D01*
X019932Y016618D01*
X019926Y016649D01*
X019924Y016680D01*
X013924Y016680D02*
X013926Y016711D01*
X013932Y016742D01*
X013941Y016772D01*
X013954Y016801D01*
X013971Y016828D01*
X013991Y016852D01*
X014013Y016874D01*
X014039Y016893D01*
X014066Y016909D01*
X014095Y016921D01*
X014125Y016930D01*
X014156Y016935D01*
X014188Y016936D01*
X014219Y016933D01*
X014250Y016926D01*
X014280Y016916D01*
X014308Y016902D01*
X014334Y016884D01*
X014358Y016864D01*
X014379Y016840D01*
X014398Y016815D01*
X014413Y016787D01*
X014424Y016758D01*
X014432Y016727D01*
X014436Y016696D01*
X014436Y016664D01*
X014432Y016633D01*
X014424Y016602D01*
X014413Y016573D01*
X014398Y016545D01*
X014379Y016520D01*
X014358Y016496D01*
X014334Y016476D01*
X014308Y016458D01*
X014280Y016444D01*
X014250Y016434D01*
X014219Y016427D01*
X014188Y016424D01*
X014156Y016425D01*
X014125Y016430D01*
X014095Y016439D01*
X014066Y016451D01*
X014039Y016467D01*
X014013Y016486D01*
X013991Y016508D01*
X013971Y016532D01*
X013954Y016559D01*
X013941Y016588D01*
X013932Y016618D01*
X013926Y016649D01*
X013924Y016680D01*
X012924Y016680D02*
X012926Y016711D01*
X012932Y016742D01*
X012941Y016772D01*
X012954Y016801D01*
X012971Y016828D01*
X012991Y016852D01*
X013013Y016874D01*
X013039Y016893D01*
X013066Y016909D01*
X013095Y016921D01*
X013125Y016930D01*
X013156Y016935D01*
X013188Y016936D01*
X013219Y016933D01*
X013250Y016926D01*
X013280Y016916D01*
X013308Y016902D01*
X013334Y016884D01*
X013358Y016864D01*
X013379Y016840D01*
X013398Y016815D01*
X013413Y016787D01*
X013424Y016758D01*
X013432Y016727D01*
X013436Y016696D01*
X013436Y016664D01*
X013432Y016633D01*
X013424Y016602D01*
X013413Y016573D01*
X013398Y016545D01*
X013379Y016520D01*
X013358Y016496D01*
X013334Y016476D01*
X013308Y016458D01*
X013280Y016444D01*
X013250Y016434D01*
X013219Y016427D01*
X013188Y016424D01*
X013156Y016425D01*
X013125Y016430D01*
X013095Y016439D01*
X013066Y016451D01*
X013039Y016467D01*
X013013Y016486D01*
X012991Y016508D01*
X012971Y016532D01*
X012954Y016559D01*
X012941Y016588D01*
X012932Y016618D01*
X012926Y016649D01*
X012924Y016680D01*
X012924Y013680D02*
X012926Y013711D01*
X012932Y013742D01*
X012941Y013772D01*
X012954Y013801D01*
X012971Y013828D01*
X012991Y013852D01*
X013013Y013874D01*
X013039Y013893D01*
X013066Y013909D01*
X013095Y013921D01*
X013125Y013930D01*
X013156Y013935D01*
X013188Y013936D01*
X013219Y013933D01*
X013250Y013926D01*
X013280Y013916D01*
X013308Y013902D01*
X013334Y013884D01*
X013358Y013864D01*
X013379Y013840D01*
X013398Y013815D01*
X013413Y013787D01*
X013424Y013758D01*
X013432Y013727D01*
X013436Y013696D01*
X013436Y013664D01*
X013432Y013633D01*
X013424Y013602D01*
X013413Y013573D01*
X013398Y013545D01*
X013379Y013520D01*
X013358Y013496D01*
X013334Y013476D01*
X013308Y013458D01*
X013280Y013444D01*
X013250Y013434D01*
X013219Y013427D01*
X013188Y013424D01*
X013156Y013425D01*
X013125Y013430D01*
X013095Y013439D01*
X013066Y013451D01*
X013039Y013467D01*
X013013Y013486D01*
X012991Y013508D01*
X012971Y013532D01*
X012954Y013559D01*
X012941Y013588D01*
X012932Y013618D01*
X012926Y013649D01*
X012924Y013680D01*
X013924Y013680D02*
X013926Y013711D01*
X013932Y013742D01*
X013941Y013772D01*
X013954Y013801D01*
X013971Y013828D01*
X013991Y013852D01*
X014013Y013874D01*
X014039Y013893D01*
X014066Y013909D01*
X014095Y013921D01*
X014125Y013930D01*
X014156Y013935D01*
X014188Y013936D01*
X014219Y013933D01*
X014250Y013926D01*
X014280Y013916D01*
X014308Y013902D01*
X014334Y013884D01*
X014358Y013864D01*
X014379Y013840D01*
X014398Y013815D01*
X014413Y013787D01*
X014424Y013758D01*
X014432Y013727D01*
X014436Y013696D01*
X014436Y013664D01*
X014432Y013633D01*
X014424Y013602D01*
X014413Y013573D01*
X014398Y013545D01*
X014379Y013520D01*
X014358Y013496D01*
X014334Y013476D01*
X014308Y013458D01*
X014280Y013444D01*
X014250Y013434D01*
X014219Y013427D01*
X014188Y013424D01*
X014156Y013425D01*
X014125Y013430D01*
X014095Y013439D01*
X014066Y013451D01*
X014039Y013467D01*
X014013Y013486D01*
X013991Y013508D01*
X013971Y013532D01*
X013954Y013559D01*
X013941Y013588D01*
X013932Y013618D01*
X013926Y013649D01*
X013924Y013680D01*
X007924Y013680D02*
X007926Y013711D01*
X007932Y013742D01*
X007941Y013772D01*
X007954Y013801D01*
X007971Y013828D01*
X007991Y013852D01*
X008013Y013874D01*
X008039Y013893D01*
X008066Y013909D01*
X008095Y013921D01*
X008125Y013930D01*
X008156Y013935D01*
X008188Y013936D01*
X008219Y013933D01*
X008250Y013926D01*
X008280Y013916D01*
X008308Y013902D01*
X008334Y013884D01*
X008358Y013864D01*
X008379Y013840D01*
X008398Y013815D01*
X008413Y013787D01*
X008424Y013758D01*
X008432Y013727D01*
X008436Y013696D01*
X008436Y013664D01*
X008432Y013633D01*
X008424Y013602D01*
X008413Y013573D01*
X008398Y013545D01*
X008379Y013520D01*
X008358Y013496D01*
X008334Y013476D01*
X008308Y013458D01*
X008280Y013444D01*
X008250Y013434D01*
X008219Y013427D01*
X008188Y013424D01*
X008156Y013425D01*
X008125Y013430D01*
X008095Y013439D01*
X008066Y013451D01*
X008039Y013467D01*
X008013Y013486D01*
X007991Y013508D01*
X007971Y013532D01*
X007954Y013559D01*
X007941Y013588D01*
X007932Y013618D01*
X007926Y013649D01*
X007924Y013680D01*
X007924Y016680D02*
X007926Y016711D01*
X007932Y016742D01*
X007941Y016772D01*
X007954Y016801D01*
X007971Y016828D01*
X007991Y016852D01*
X008013Y016874D01*
X008039Y016893D01*
X008066Y016909D01*
X008095Y016921D01*
X008125Y016930D01*
X008156Y016935D01*
X008188Y016936D01*
X008219Y016933D01*
X008250Y016926D01*
X008280Y016916D01*
X008308Y016902D01*
X008334Y016884D01*
X008358Y016864D01*
X008379Y016840D01*
X008398Y016815D01*
X008413Y016787D01*
X008424Y016758D01*
X008432Y016727D01*
X008436Y016696D01*
X008436Y016664D01*
X008432Y016633D01*
X008424Y016602D01*
X008413Y016573D01*
X008398Y016545D01*
X008379Y016520D01*
X008358Y016496D01*
X008334Y016476D01*
X008308Y016458D01*
X008280Y016444D01*
X008250Y016434D01*
X008219Y016427D01*
X008188Y016424D01*
X008156Y016425D01*
X008125Y016430D01*
X008095Y016439D01*
X008066Y016451D01*
X008039Y016467D01*
X008013Y016486D01*
X007991Y016508D01*
X007971Y016532D01*
X007954Y016559D01*
X007941Y016588D01*
X007932Y016618D01*
X007926Y016649D01*
X007924Y016680D01*
X007924Y021680D02*
X007926Y021711D01*
X007932Y021742D01*
X007941Y021772D01*
X007954Y021801D01*
X007971Y021828D01*
X007991Y021852D01*
X008013Y021874D01*
X008039Y021893D01*
X008066Y021909D01*
X008095Y021921D01*
X008125Y021930D01*
X008156Y021935D01*
X008188Y021936D01*
X008219Y021933D01*
X008250Y021926D01*
X008280Y021916D01*
X008308Y021902D01*
X008334Y021884D01*
X008358Y021864D01*
X008379Y021840D01*
X008398Y021815D01*
X008413Y021787D01*
X008424Y021758D01*
X008432Y021727D01*
X008436Y021696D01*
X008436Y021664D01*
X008432Y021633D01*
X008424Y021602D01*
X008413Y021573D01*
X008398Y021545D01*
X008379Y021520D01*
X008358Y021496D01*
X008334Y021476D01*
X008308Y021458D01*
X008280Y021444D01*
X008250Y021434D01*
X008219Y021427D01*
X008188Y021424D01*
X008156Y021425D01*
X008125Y021430D01*
X008095Y021439D01*
X008066Y021451D01*
X008039Y021467D01*
X008013Y021486D01*
X007991Y021508D01*
X007971Y021532D01*
X007954Y021559D01*
X007941Y021588D01*
X007932Y021618D01*
X007926Y021649D01*
X007924Y021680D01*
X012924Y021680D02*
X012926Y021711D01*
X012932Y021742D01*
X012941Y021772D01*
X012954Y021801D01*
X012971Y021828D01*
X012991Y021852D01*
X013013Y021874D01*
X013039Y021893D01*
X013066Y021909D01*
X013095Y021921D01*
X013125Y021930D01*
X013156Y021935D01*
X013188Y021936D01*
X013219Y021933D01*
X013250Y021926D01*
X013280Y021916D01*
X013308Y021902D01*
X013334Y021884D01*
X013358Y021864D01*
X013379Y021840D01*
X013398Y021815D01*
X013413Y021787D01*
X013424Y021758D01*
X013432Y021727D01*
X013436Y021696D01*
X013436Y021664D01*
X013432Y021633D01*
X013424Y021602D01*
X013413Y021573D01*
X013398Y021545D01*
X013379Y021520D01*
X013358Y021496D01*
X013334Y021476D01*
X013308Y021458D01*
X013280Y021444D01*
X013250Y021434D01*
X013219Y021427D01*
X013188Y021424D01*
X013156Y021425D01*
X013125Y021430D01*
X013095Y021439D01*
X013066Y021451D01*
X013039Y021467D01*
X013013Y021486D01*
X012991Y021508D01*
X012971Y021532D01*
X012954Y021559D01*
X012941Y021588D01*
X012932Y021618D01*
X012926Y021649D01*
X012924Y021680D01*
X013924Y021680D02*
X013926Y021711D01*
X013932Y021742D01*
X013941Y021772D01*
X013954Y021801D01*
X013971Y021828D01*
X013991Y021852D01*
X014013Y021874D01*
X014039Y021893D01*
X014066Y021909D01*
X014095Y021921D01*
X014125Y021930D01*
X014156Y021935D01*
X014188Y021936D01*
X014219Y021933D01*
X014250Y021926D01*
X014280Y021916D01*
X014308Y021902D01*
X014334Y021884D01*
X014358Y021864D01*
X014379Y021840D01*
X014398Y021815D01*
X014413Y021787D01*
X014424Y021758D01*
X014432Y021727D01*
X014436Y021696D01*
X014436Y021664D01*
X014432Y021633D01*
X014424Y021602D01*
X014413Y021573D01*
X014398Y021545D01*
X014379Y021520D01*
X014358Y021496D01*
X014334Y021476D01*
X014308Y021458D01*
X014280Y021444D01*
X014250Y021434D01*
X014219Y021427D01*
X014188Y021424D01*
X014156Y021425D01*
X014125Y021430D01*
X014095Y021439D01*
X014066Y021451D01*
X014039Y021467D01*
X014013Y021486D01*
X013991Y021508D01*
X013971Y021532D01*
X013954Y021559D01*
X013941Y021588D01*
X013932Y021618D01*
X013926Y021649D01*
X013924Y021680D01*
X018924Y021680D02*
X018926Y021711D01*
X018932Y021742D01*
X018941Y021772D01*
X018954Y021801D01*
X018971Y021828D01*
X018991Y021852D01*
X019013Y021874D01*
X019039Y021893D01*
X019066Y021909D01*
X019095Y021921D01*
X019125Y021930D01*
X019156Y021935D01*
X019188Y021936D01*
X019219Y021933D01*
X019250Y021926D01*
X019280Y021916D01*
X019308Y021902D01*
X019334Y021884D01*
X019358Y021864D01*
X019379Y021840D01*
X019398Y021815D01*
X019413Y021787D01*
X019424Y021758D01*
X019432Y021727D01*
X019436Y021696D01*
X019436Y021664D01*
X019432Y021633D01*
X019424Y021602D01*
X019413Y021573D01*
X019398Y021545D01*
X019379Y021520D01*
X019358Y021496D01*
X019334Y021476D01*
X019308Y021458D01*
X019280Y021444D01*
X019250Y021434D01*
X019219Y021427D01*
X019188Y021424D01*
X019156Y021425D01*
X019125Y021430D01*
X019095Y021439D01*
X019066Y021451D01*
X019039Y021467D01*
X019013Y021486D01*
X018991Y021508D01*
X018971Y021532D01*
X018954Y021559D01*
X018941Y021588D01*
X018932Y021618D01*
X018926Y021649D01*
X018924Y021680D01*
X019924Y021680D02*
X019926Y021711D01*
X019932Y021742D01*
X019941Y021772D01*
X019954Y021801D01*
X019971Y021828D01*
X019991Y021852D01*
X020013Y021874D01*
X020039Y021893D01*
X020066Y021909D01*
X020095Y021921D01*
X020125Y021930D01*
X020156Y021935D01*
X020188Y021936D01*
X020219Y021933D01*
X020250Y021926D01*
X020280Y021916D01*
X020308Y021902D01*
X020334Y021884D01*
X020358Y021864D01*
X020379Y021840D01*
X020398Y021815D01*
X020413Y021787D01*
X020424Y021758D01*
X020432Y021727D01*
X020436Y021696D01*
X020436Y021664D01*
X020432Y021633D01*
X020424Y021602D01*
X020413Y021573D01*
X020398Y021545D01*
X020379Y021520D01*
X020358Y021496D01*
X020334Y021476D01*
X020308Y021458D01*
X020280Y021444D01*
X020250Y021434D01*
X020219Y021427D01*
X020188Y021424D01*
X020156Y021425D01*
X020125Y021430D01*
X020095Y021439D01*
X020066Y021451D01*
X020039Y021467D01*
X020013Y021486D01*
X019991Y021508D01*
X019971Y021532D01*
X019954Y021559D01*
X019941Y021588D01*
X019932Y021618D01*
X019926Y021649D01*
X019924Y021680D01*
X024924Y021680D02*
X024926Y021711D01*
X024932Y021742D01*
X024941Y021772D01*
X024954Y021801D01*
X024971Y021828D01*
X024991Y021852D01*
X025013Y021874D01*
X025039Y021893D01*
X025066Y021909D01*
X025095Y021921D01*
X025125Y021930D01*
X025156Y021935D01*
X025188Y021936D01*
X025219Y021933D01*
X025250Y021926D01*
X025280Y021916D01*
X025308Y021902D01*
X025334Y021884D01*
X025358Y021864D01*
X025379Y021840D01*
X025398Y021815D01*
X025413Y021787D01*
X025424Y021758D01*
X025432Y021727D01*
X025436Y021696D01*
X025436Y021664D01*
X025432Y021633D01*
X025424Y021602D01*
X025413Y021573D01*
X025398Y021545D01*
X025379Y021520D01*
X025358Y021496D01*
X025334Y021476D01*
X025308Y021458D01*
X025280Y021444D01*
X025250Y021434D01*
X025219Y021427D01*
X025188Y021424D01*
X025156Y021425D01*
X025125Y021430D01*
X025095Y021439D01*
X025066Y021451D01*
X025039Y021467D01*
X025013Y021486D01*
X024991Y021508D01*
X024971Y021532D01*
X024954Y021559D01*
X024941Y021588D01*
X024932Y021618D01*
X024926Y021649D01*
X024924Y021680D01*
X028924Y021680D02*
X028926Y021711D01*
X028932Y021742D01*
X028941Y021772D01*
X028954Y021801D01*
X028971Y021828D01*
X028991Y021852D01*
X029013Y021874D01*
X029039Y021893D01*
X029066Y021909D01*
X029095Y021921D01*
X029125Y021930D01*
X029156Y021935D01*
X029188Y021936D01*
X029219Y021933D01*
X029250Y021926D01*
X029280Y021916D01*
X029308Y021902D01*
X029334Y021884D01*
X029358Y021864D01*
X029379Y021840D01*
X029398Y021815D01*
X029413Y021787D01*
X029424Y021758D01*
X029432Y021727D01*
X029436Y021696D01*
X029436Y021664D01*
X029432Y021633D01*
X029424Y021602D01*
X029413Y021573D01*
X029398Y021545D01*
X029379Y021520D01*
X029358Y021496D01*
X029334Y021476D01*
X029308Y021458D01*
X029280Y021444D01*
X029250Y021434D01*
X029219Y021427D01*
X029188Y021424D01*
X029156Y021425D01*
X029125Y021430D01*
X029095Y021439D01*
X029066Y021451D01*
X029039Y021467D01*
X029013Y021486D01*
X028991Y021508D01*
X028971Y021532D01*
X028954Y021559D01*
X028941Y021588D01*
X028932Y021618D01*
X028926Y021649D01*
X028924Y021680D01*
X033924Y021680D02*
X033926Y021711D01*
X033932Y021742D01*
X033941Y021772D01*
X033954Y021801D01*
X033971Y021828D01*
X033991Y021852D01*
X034013Y021874D01*
X034039Y021893D01*
X034066Y021909D01*
X034095Y021921D01*
X034125Y021930D01*
X034156Y021935D01*
X034188Y021936D01*
X034219Y021933D01*
X034250Y021926D01*
X034280Y021916D01*
X034308Y021902D01*
X034334Y021884D01*
X034358Y021864D01*
X034379Y021840D01*
X034398Y021815D01*
X034413Y021787D01*
X034424Y021758D01*
X034432Y021727D01*
X034436Y021696D01*
X034436Y021664D01*
X034432Y021633D01*
X034424Y021602D01*
X034413Y021573D01*
X034398Y021545D01*
X034379Y021520D01*
X034358Y021496D01*
X034334Y021476D01*
X034308Y021458D01*
X034280Y021444D01*
X034250Y021434D01*
X034219Y021427D01*
X034188Y021424D01*
X034156Y021425D01*
X034125Y021430D01*
X034095Y021439D01*
X034066Y021451D01*
X034039Y021467D01*
X034013Y021486D01*
X033991Y021508D01*
X033971Y021532D01*
X033954Y021559D01*
X033941Y021588D01*
X033932Y021618D01*
X033926Y021649D01*
X033924Y021680D01*
X033050Y027180D02*
X033052Y027230D01*
X033058Y027280D01*
X033068Y027329D01*
X033082Y027377D01*
X033099Y027424D01*
X033120Y027469D01*
X033145Y027513D01*
X033173Y027554D01*
X033205Y027593D01*
X033239Y027630D01*
X033276Y027664D01*
X033316Y027694D01*
X033358Y027721D01*
X033402Y027745D01*
X033448Y027766D01*
X033495Y027782D01*
X033543Y027795D01*
X033593Y027804D01*
X033642Y027809D01*
X033693Y027810D01*
X033743Y027807D01*
X033792Y027800D01*
X033841Y027789D01*
X033889Y027774D01*
X033935Y027756D01*
X033980Y027734D01*
X034023Y027708D01*
X034064Y027679D01*
X034103Y027647D01*
X034139Y027612D01*
X034171Y027574D01*
X034201Y027534D01*
X034228Y027491D01*
X034251Y027447D01*
X034270Y027401D01*
X034286Y027353D01*
X034298Y027304D01*
X034306Y027255D01*
X034310Y027205D01*
X034310Y027155D01*
X034306Y027105D01*
X034298Y027056D01*
X034286Y027007D01*
X034270Y026959D01*
X034251Y026913D01*
X034228Y026869D01*
X034201Y026826D01*
X034171Y026786D01*
X034139Y026748D01*
X034103Y026713D01*
X034064Y026681D01*
X034023Y026652D01*
X033980Y026626D01*
X033935Y026604D01*
X033889Y026586D01*
X033841Y026571D01*
X033792Y026560D01*
X033743Y026553D01*
X033693Y026550D01*
X033642Y026551D01*
X033593Y026556D01*
X033543Y026565D01*
X033495Y026578D01*
X033448Y026594D01*
X033402Y026615D01*
X033358Y026639D01*
X033316Y026666D01*
X033276Y026696D01*
X033239Y026730D01*
X033205Y026767D01*
X033173Y026806D01*
X033145Y026847D01*
X033120Y026891D01*
X033099Y026936D01*
X033082Y026983D01*
X033068Y027031D01*
X033058Y027080D01*
X033052Y027130D01*
X033050Y027180D01*
X004050Y027180D02*
X004052Y027230D01*
X004058Y027280D01*
X004068Y027329D01*
X004082Y027377D01*
X004099Y027424D01*
X004120Y027469D01*
X004145Y027513D01*
X004173Y027554D01*
X004205Y027593D01*
X004239Y027630D01*
X004276Y027664D01*
X004316Y027694D01*
X004358Y027721D01*
X004402Y027745D01*
X004448Y027766D01*
X004495Y027782D01*
X004543Y027795D01*
X004593Y027804D01*
X004642Y027809D01*
X004693Y027810D01*
X004743Y027807D01*
X004792Y027800D01*
X004841Y027789D01*
X004889Y027774D01*
X004935Y027756D01*
X004980Y027734D01*
X005023Y027708D01*
X005064Y027679D01*
X005103Y027647D01*
X005139Y027612D01*
X005171Y027574D01*
X005201Y027534D01*
X005228Y027491D01*
X005251Y027447D01*
X005270Y027401D01*
X005286Y027353D01*
X005298Y027304D01*
X005306Y027255D01*
X005310Y027205D01*
X005310Y027155D01*
X005306Y027105D01*
X005298Y027056D01*
X005286Y027007D01*
X005270Y026959D01*
X005251Y026913D01*
X005228Y026869D01*
X005201Y026826D01*
X005171Y026786D01*
X005139Y026748D01*
X005103Y026713D01*
X005064Y026681D01*
X005023Y026652D01*
X004980Y026626D01*
X004935Y026604D01*
X004889Y026586D01*
X004841Y026571D01*
X004792Y026560D01*
X004743Y026553D01*
X004693Y026550D01*
X004642Y026551D01*
X004593Y026556D01*
X004543Y026565D01*
X004495Y026578D01*
X004448Y026594D01*
X004402Y026615D01*
X004358Y026639D01*
X004316Y026666D01*
X004276Y026696D01*
X004239Y026730D01*
X004205Y026767D01*
X004173Y026806D01*
X004145Y026847D01*
X004120Y026891D01*
X004099Y026936D01*
X004082Y026983D01*
X004068Y027031D01*
X004058Y027080D01*
X004052Y027130D01*
X004050Y027180D01*
X033050Y003180D02*
X033052Y003230D01*
X033058Y003280D01*
X033068Y003329D01*
X033082Y003377D01*
X033099Y003424D01*
X033120Y003469D01*
X033145Y003513D01*
X033173Y003554D01*
X033205Y003593D01*
X033239Y003630D01*
X033276Y003664D01*
X033316Y003694D01*
X033358Y003721D01*
X033402Y003745D01*
X033448Y003766D01*
X033495Y003782D01*
X033543Y003795D01*
X033593Y003804D01*
X033642Y003809D01*
X033693Y003810D01*
X033743Y003807D01*
X033792Y003800D01*
X033841Y003789D01*
X033889Y003774D01*
X033935Y003756D01*
X033980Y003734D01*
X034023Y003708D01*
X034064Y003679D01*
X034103Y003647D01*
X034139Y003612D01*
X034171Y003574D01*
X034201Y003534D01*
X034228Y003491D01*
X034251Y003447D01*
X034270Y003401D01*
X034286Y003353D01*
X034298Y003304D01*
X034306Y003255D01*
X034310Y003205D01*
X034310Y003155D01*
X034306Y003105D01*
X034298Y003056D01*
X034286Y003007D01*
X034270Y002959D01*
X034251Y002913D01*
X034228Y002869D01*
X034201Y002826D01*
X034171Y002786D01*
X034139Y002748D01*
X034103Y002713D01*
X034064Y002681D01*
X034023Y002652D01*
X033980Y002626D01*
X033935Y002604D01*
X033889Y002586D01*
X033841Y002571D01*
X033792Y002560D01*
X033743Y002553D01*
X033693Y002550D01*
X033642Y002551D01*
X033593Y002556D01*
X033543Y002565D01*
X033495Y002578D01*
X033448Y002594D01*
X033402Y002615D01*
X033358Y002639D01*
X033316Y002666D01*
X033276Y002696D01*
X033239Y002730D01*
X033205Y002767D01*
X033173Y002806D01*
X033145Y002847D01*
X033120Y002891D01*
X033099Y002936D01*
X033082Y002983D01*
X033068Y003031D01*
X033058Y003080D01*
X033052Y003130D01*
X033050Y003180D01*
D11*
X033680Y003180D03*
X004680Y003180D03*
X004680Y027180D03*
X033680Y027180D03*
D12*
X007200Y023180D02*
X007200Y016400D01*
X000180Y016400D01*
X000180Y023180D01*
X007200Y023180D01*
D13*
X008908Y020680D03*
X010680Y020180D03*
X010680Y019180D03*
X010680Y018180D03*
X008908Y017680D03*
X014908Y017680D03*
X016680Y018180D03*
X016680Y019180D03*
X016680Y020180D03*
X014908Y020680D03*
X020908Y020680D03*
X022680Y020180D03*
X022680Y019180D03*
X022680Y018180D03*
X020908Y017680D03*
X020908Y012680D03*
X022680Y012180D03*
X022680Y011180D03*
X022680Y010180D03*
X020908Y009680D03*
X016680Y010180D03*
X016680Y011180D03*
X016680Y012180D03*
X014908Y012680D03*
X010680Y012180D03*
X010680Y011180D03*
X010680Y010180D03*
X008908Y009680D03*
X008908Y012680D03*
X014908Y009680D03*
X029908Y009680D03*
X031680Y010180D03*
X031680Y011180D03*
X031680Y012180D03*
X029908Y012680D03*
X029908Y017680D03*
X031680Y018180D03*
X031680Y019180D03*
X031680Y020180D03*
X029908Y020680D03*
D14*
X029180Y021680D03*
X025180Y021680D03*
X020180Y021680D03*
X019180Y021680D03*
X014180Y021680D03*
X013180Y021680D03*
X008180Y021680D03*
X008180Y016680D03*
X008180Y013680D03*
X013180Y013680D03*
X014180Y013680D03*
X014180Y016680D03*
X013180Y016680D03*
X019180Y016680D03*
X020180Y016680D03*
X020180Y013680D03*
X019180Y013680D03*
X025180Y013680D03*
X029180Y013680D03*
X029180Y016680D03*
X025180Y016680D03*
X034180Y016680D03*
X034180Y013680D03*
X034180Y008680D03*
X029180Y008680D03*
X025180Y008680D03*
X020180Y008680D03*
X019180Y008680D03*
X014180Y008680D03*
X013180Y008680D03*
X008180Y008680D03*
X034180Y021680D03*
D15*
X032180Y023696D03*
X032180Y025664D03*
X035680Y025180D03*
X035680Y026180D03*
X035680Y024180D03*
X041180Y024180D03*
X041180Y025180D03*
X041180Y026180D03*
X046180Y026180D03*
X046180Y025180D03*
X046180Y024180D03*
X025680Y026696D03*
X025680Y028664D03*
X024580Y024680D03*
X023580Y024680D03*
X022580Y024680D03*
X021580Y024680D03*
X020580Y024680D03*
X019580Y024680D03*
X018580Y024680D03*
X017580Y024680D03*
X016080Y024680D03*
X015080Y024680D03*
X014080Y024680D03*
X013080Y024680D03*
X012080Y024680D03*
X011080Y024680D03*
X010080Y024680D03*
X009080Y024680D03*
X024060Y021780D03*
X024060Y020780D03*
X024060Y019780D03*
X024060Y018780D03*
X024060Y017780D03*
X041180Y007680D03*
X041180Y006680D03*
X041180Y005680D03*
X046180Y005680D03*
X046180Y006680D03*
X046180Y007680D03*
X031680Y005164D03*
X031680Y003196D03*
X024580Y005680D03*
X023580Y005680D03*
X022580Y005680D03*
X021580Y005680D03*
X020580Y005680D03*
X019580Y005680D03*
X017580Y005680D03*
X016580Y005680D03*
X015580Y005680D03*
X014580Y005680D03*
X013580Y005680D03*
X012580Y005680D03*
X014196Y003680D03*
X016164Y003680D03*
X004117Y010600D03*
X004117Y011600D03*
X004117Y012600D03*
X004117Y013600D03*
X004117Y014600D03*
D16*
X042991Y029649D03*
X044369Y029649D03*
X044369Y000711D03*
D17*
X042026Y002345D03*
X045334Y002818D03*
X045334Y027542D03*
X042026Y028015D03*
D18*
X041180Y023180D03*
X046180Y023180D03*
X035680Y023180D03*
X024060Y022780D03*
X004117Y015600D03*
X041180Y004680D03*
X046180Y004680D03*
D19*
X035940Y011680D02*
X035420Y011680D01*
X035420Y012680D02*
X035940Y012680D01*
X035940Y013680D02*
X035420Y013680D01*
X035420Y014680D02*
X035940Y014680D01*
X035940Y015680D02*
X035420Y015680D01*
X035420Y016680D02*
X035940Y016680D01*
X035940Y017680D02*
X035420Y017680D01*
X035420Y018680D02*
X035940Y018680D01*
X025180Y015440D02*
X025180Y014920D01*
X024180Y014920D02*
X024180Y015440D01*
X023180Y015440D02*
X023180Y014920D01*
X022180Y014920D02*
X022180Y015440D01*
X021180Y015440D02*
X021180Y014920D01*
X020180Y014920D02*
X020180Y015440D01*
X019180Y015440D02*
X019180Y014920D01*
X018180Y014920D02*
X018180Y015440D01*
X016680Y015440D02*
X016680Y014920D01*
X015680Y014920D02*
X015680Y015440D01*
X014680Y015440D02*
X014680Y014920D01*
X013680Y014920D02*
X013680Y015440D01*
X012680Y015440D02*
X012680Y014920D01*
X011680Y014920D02*
X011680Y015440D01*
X010680Y015440D02*
X010680Y014920D01*
X009680Y014920D02*
X009680Y015440D01*
X017180Y007940D02*
X017180Y007420D01*
X018180Y007420D02*
X018180Y007940D01*
X019180Y007940D02*
X019180Y007420D01*
X020180Y007420D02*
X020180Y007940D01*
X021180Y007940D02*
X021180Y007420D01*
X022180Y007420D02*
X022180Y007940D01*
X023180Y007940D02*
X023180Y007420D01*
X024180Y007420D02*
X024180Y007940D01*
M02*
