%
M48
M72
T01C0.0120
T02C0.0320
T03C0.0354
T04C0.0394
T05C0.0400
T06C0.0591
T07C0.0787
T08C0.0866
T09C0.1260
%
T01
X12787Y2543
X14587Y3323
X14587Y4103
X13567Y4403
X15787Y3083
X16387Y2843
X15187Y2003
X14587Y1763
X13507Y1163
X17407Y1583
X18247Y1823
X18007Y2063
X20527Y1583
X21187Y1343
X23827Y3803
X25027Y4103
X25807Y4763
X25567Y5603
X24427Y5603
X22147Y4163
X19447Y5603
X18427Y5603
X16147Y8243
X13567Y6923
X17467Y10283
X17407Y10583
X16387Y12083
X14587Y12863
X13567Y13103
X15487Y14183
X16387Y13703
X17047Y14423
X17947Y15143
X20107Y14603
X22147Y13223
X21247Y12803
X22987Y13103
X23227Y13343
X23647Y12503
X22267Y11303
X21367Y10763
X24847Y11003
X26767Y11483
X27907Y11963
X27847Y12263
X27607Y12503
X27547Y13403
X26647Y14303
X25687Y13703
X25687Y13343
X25927Y15023
X25327Y15923
X27067Y15683
X27007Y15263
X27967Y14783
X28387Y14723
X28387Y15023
X28387Y15383
X28387Y15923
X28987Y15383
X29227Y14363
X29047Y13523
X29047Y12983
X29047Y12503
X29647Y12383
X30307Y12143
X30367Y11783
X31087Y12383
X31327Y12803
X31327Y11783
X33007Y11543
X33667Y10883
X31327Y10403
X31327Y9383
X32947Y8483
X33007Y8183
X32227Y7103
X29707Y7103
X29707Y8183
X29707Y8483
X28627Y7283
X27367Y6923
X27967Y6143
X29047Y4643
X29407Y4343
X29107Y3983
X29107Y3443
X29227Y2963
X30367Y2723
X31327Y2723
X30667Y3803
X30187Y5423
X27967Y3623
X26767Y3383
X25927Y3503
X25267Y2303
X26767Y2303
X28207Y1583
X29047Y1823
X29887Y1343
X33727Y3203
X34267Y4163
X28987Y9923
X29047Y10583
X28207Y10583
X27967Y9983
X27667Y9923
X27367Y9863
X25447Y8903
X32347Y15923
X32947Y16343
X28387Y18683
X27307Y18563
X25927Y18083
X26167Y17483
X23287Y21323
X21187Y21863
X21787Y24203
X12007Y21143
X17707Y17243
X15067Y16763
X12487Y17063
X32767Y24443
X43207Y24563
X47767Y26603
X51007Y28523
X52447Y27623
X52147Y27383
X49867Y30203
X55327Y32363
X43687Y35423
X60667Y24863
X62167Y24863
X61387Y22823
X61627Y22583
X54187Y19403
X53287Y19523
X52747Y18803
X51907Y19403
X51427Y19643
X50167Y19343
X47467Y20903
X48427Y22103
X50587Y22703
X51067Y22943
X50527Y23603
X49087Y23843
X51067Y21563
X53767Y18563
X55327Y17783
X54247Y17483
X55507Y16583
X55027Y16343
X54247Y16103
X52747Y16343
X51907Y16103
X51547Y16583
X51907Y16823
X51427Y17063
X51187Y17303
X50587Y17483
X56347Y17123
X58207Y17543
X45727Y12863
T02
X45987Y11923
X46987Y11923
X47987Y11923
X48987Y11923
X49987Y11923
X44987Y11923
X43987Y11923
X42987Y11923
X41487Y11923
X40487Y11923
X39487Y11923
X38487Y11923
X37487Y11923
X36487Y11923
X35487Y11923
X34487Y11923
X24987Y11923
X23987Y11923
X22987Y11923
X21987Y11923
X20987Y11923
X19987Y11923
X18987Y11923
X17987Y11923
X10987Y11923
X9987Y11923
X8987Y11923
X7987Y11923
X6987Y11923
X5987Y11923
X4987Y11923
X3987Y11923
X3987Y2923
X4987Y2923
X5987Y2923
X6987Y2923
X7987Y2923
X8987Y2923
X9987Y2923
X10987Y2923
X17987Y2923
X18987Y2923
X19987Y2923
X20987Y2923
X21987Y2923
X22987Y2923
X23987Y2923
X24987Y2923
X34487Y2923
X35487Y2923
X36487Y2923
X37487Y2923
X38487Y2923
X39487Y2923
X40487Y2923
X41487Y2923
X42987Y2923
X43987Y2923
X44987Y2923
X45987Y2923
X46987Y2923
X47987Y2923
X48987Y2923
X49987Y2923
X56987Y12423
X56987Y13423
X56987Y14423
X56987Y15423
X56987Y16423
X56987Y17423
X56987Y18423
X56987Y19423
X47487Y22923
X46487Y22923
X45487Y22923
X44487Y22923
X43487Y22923
X42487Y22923
X41487Y22923
X40487Y22923
X38487Y22923
X37487Y22923
X36487Y22923
X35487Y22923
X34487Y22923
X33487Y22923
X32487Y22923
X31487Y22923
X35987Y38923
X36987Y38923
X37987Y38923
X38987Y38923
X39987Y38923
X40987Y38923
X41987Y38923
X42987Y38923
X44487Y38923
X45487Y38923
X46487Y38923
X47487Y38923
X48487Y38923
X49487Y38923
X50487Y38923
X51487Y38923
X53487Y38923
X54487Y38923
X55487Y38923
X56487Y38923
X57487Y38923
X58487Y38923
X59487Y38923
X60487Y38923
T03
X50487Y34407
X50487Y32438
X62987Y23407
X62987Y21438
X49987Y17407
X49987Y15438
X29987Y12907
X29987Y10938
X29987Y3907
X29987Y1938
X12987Y1938
X12987Y3907
X12987Y10938
X12987Y12907
X27002Y20923
X28971Y20923
T04
X29258Y17923
X27487Y17423
X27487Y16423
X27487Y15423
X29258Y14923
X33487Y15423
X33487Y16423
X33487Y17423
X35258Y17923
X35258Y14923
X39487Y15423
X40487Y15423
X41258Y14923
X42258Y14923
X40487Y16423
X39487Y16423
X39487Y17423
X40487Y17423
X41258Y17923
X42258Y17923
X45487Y17423
X46487Y17423
X47258Y17923
X48258Y17923
X46487Y16423
X45487Y16423
X45487Y15423
X46487Y15423
X47258Y14923
X48258Y14923
X48258Y8923
X47258Y8923
X46487Y8423
X45487Y8423
X45487Y7423
X46487Y7423
X46487Y6423
X47258Y5923
X48258Y5923
X45487Y6423
X42258Y5923
X41258Y5923
X40487Y6423
X39487Y6423
X39487Y7423
X40487Y7423
X40487Y8423
X41258Y8923
X42258Y8923
X39487Y8423
X35258Y8923
X33487Y8423
X33487Y7423
X33487Y6423
X35258Y5923
X29258Y5923
X27487Y6423
X27487Y7423
X27487Y8423
X29258Y8923
X23258Y8923
X21487Y8423
X21487Y7423
X21487Y6423
X23258Y5923
X17258Y5923
X15487Y6423
X15487Y7423
X15487Y8423
X17258Y8923
X11258Y8923
X9487Y8423
X9487Y7423
X9487Y6423
X11258Y5923
X5258Y5923
X3487Y6423
X3487Y7423
X3487Y8423
X5258Y8923
X5258Y14923
X3487Y15423
X3487Y16423
X3487Y17423
X5258Y17923
X9487Y17423
X9487Y16423
X9487Y15423
X11258Y14923
X11258Y17923
X15487Y17423
X15487Y16423
X15487Y15423
X17258Y14923
X21487Y15423
X21487Y16423
X21487Y17423
X23258Y17923
X23258Y14923
X17258Y17923
X33002Y24970
X33987Y24970
X34971Y24970
X40487Y26923
X40487Y27923
X40487Y28923
X42258Y29423
X43487Y28923
X43487Y27923
X43487Y26923
X42258Y26423
X45258Y26423
X46487Y26923
X48258Y26423
X46487Y27923
X46487Y28923
X45258Y29423
X48258Y29423
X48258Y33423
X46487Y33923
X46487Y34923
X46487Y35923
X48258Y36423
X42258Y36423
X40487Y35923
X40487Y34923
X40487Y33923
X42258Y33423
X34971Y31970
X33987Y31970
X33002Y31970
X33002Y30678
X34971Y30678
X34971Y37678
X33002Y37678
X54487Y35923
X54487Y34923
X54487Y33923
X56258Y33423
X60487Y33923
X62258Y33423
X60487Y34923
X60487Y35923
X62258Y36423
X56258Y36423
X62258Y29423
X60487Y28923
X60487Y27923
X60487Y26923
X62258Y26423
X62258Y17923
X60487Y17423
X60487Y16423
X60487Y15423
X62258Y14923
X62258Y8923
X60487Y8423
X60487Y7423
X60487Y6423
X62258Y5923
T05
X55987Y5923
X55987Y6923
X55987Y7923
X55987Y8923
X50987Y8923
X50987Y7923
X50987Y6923
X50987Y5923
X22987Y20423
X21987Y20423
X20987Y20423
X19987Y20423
X18987Y20423
X17987Y20423
X15987Y20423
X14987Y20423
X13987Y20423
X12987Y20423
X11987Y20423
X10987Y20423
X1487Y23423
X1487Y24423
X1487Y25423
X7487Y39423
X8487Y39423
X9487Y39423
X10487Y39423
X11487Y39423
X12487Y39423
X13487Y39423
X14487Y39423
X15987Y39423
X16987Y39423
X17987Y39423
X18987Y39423
X19987Y39423
X20987Y39423
X21987Y39423
X22987Y39423
X30987Y32923
X30987Y31923
X30987Y30923
X30987Y29923
X36987Y29923
X36987Y30923
X36987Y31923
X36987Y32923
X50987Y27423
X50987Y26423
X50987Y25423
X50987Y24423
X55987Y24423
X55987Y25423
X55987Y26423
X55987Y27423
T06
X57987Y25423
X62987Y25423
X62987Y30423
X62987Y32423
X57987Y32423
X56987Y32423
X54176Y30891
X52798Y30891
X51987Y32423
X48987Y32423
X48987Y30423
X45987Y30423
X43987Y30423
X42987Y30423
X40987Y30423
X42987Y32423
X43987Y32423
X37987Y32423
X37987Y30423
X37987Y25423
X40987Y25423
X42987Y25423
X43987Y25423
X45987Y25423
X48987Y25423
X57987Y30423
X57987Y37423
X56987Y37423
X51987Y37423
X48987Y37423
X43987Y37423
X42987Y37423
X37987Y37423
X62987Y37423
X62987Y18923
X57987Y18923
X57987Y13923
X62987Y13923
X62987Y9923
X57987Y9923
X57987Y4923
X62987Y4923
X54176Y1954
X48987Y4923
X47987Y4923
X43987Y4923
X42987Y4923
X42987Y4923
X41987Y4923
X37987Y4923
X36987Y4923
X35987Y4923
X30987Y4923
X29987Y4923
X24987Y4923
X23987Y4923
X18987Y4923
X17987Y4923
X12987Y4923
X11987Y4923
X6987Y4923
X5987Y4923
X987Y4923
X987Y9923
X5987Y9923
X6987Y9923
X11987Y9923
X12987Y9923
X17987Y9923
X18987Y9923
X23987Y9923
X24987Y9923
X29987Y9923
X30987Y9923
X35987Y9923
X36987Y9923
X37987Y9923
X41987Y9923
X42987Y9923
X42987Y9923
X43987Y9923
X47987Y9923
X48987Y9923
X48987Y13923
X47987Y13923
X43987Y13923
X42987Y13923
X42987Y13923
X41987Y13923
X37987Y13923
X36987Y13923
X35987Y13923
X30987Y13923
X29987Y13923
X24987Y13923
X23987Y13923
X18987Y13923
X17987Y13923
X12987Y13923
X11987Y13923
X6987Y13923
X5987Y13923
X987Y13923
X987Y18923
X5987Y18923
X6987Y18923
X11987Y18923
X12987Y18923
X17987Y18923
X18987Y18923
X23987Y18923
X24987Y18923
X29987Y18923
X30987Y18923
X35987Y18923
X36987Y18923
X37987Y18923
X41987Y18923
X42987Y18923
X42987Y18923
X43987Y18923
X47987Y18923
X48987Y18923
T07
X55140Y28785
X51833Y29257
X55140Y4060
X51833Y3588
T08
X36388Y27923
X31585Y27923
X31585Y34923
X36388Y34923
T09
X1487Y1923
X31987Y1923
X62487Y1923
X27967Y25399
X27967Y37643
X31987Y39423
X62487Y39423
X1487Y39423
M30
