%
M48
M72
T01C0.0120
T02C0.0394
T03C0.0400
T04C0.0866
%
T01
X5100Y7080
T02
X4804Y7727
X4804Y6436
X3820Y7727
X2836Y7727
X2836Y6436
X2836Y727
X3820Y727
X4804Y727
X4804Y13436
X2836Y13436
T03
X820Y8680
X820Y7680
X820Y6680
X820Y5680
X6820Y5680
X6820Y6680
X6820Y7680
X6820Y8680
T04
X1418Y3680
X1418Y10680
X6222Y10680
X6222Y3680
M30
