G75*
G70*
%OFA0B0*%
%FSLAX24Y24*%
%IPPOS*%
%LPD*%
%AMOC8*
5,1,8,0,0,1.08239X$1,22.5*
%
%ADD10C,0.0000*%
%ADD11C,0.0040*%
%ADD12C,0.0080*%
%ADD13C,0.0010*%
%ADD14C,0.0020*%
%ADD15C,0.0050*%
D10*
X000807Y000180D02*
X000807Y030480D01*
X007107Y030480D01*
X007107Y000180D01*
X000807Y000180D01*
D11*
X004750Y010658D02*
X004826Y010658D01*
X004980Y010658D02*
X005287Y010658D01*
X005287Y010581D02*
X005287Y010735D01*
X005210Y010888D02*
X005287Y010965D01*
X005287Y011118D01*
X005210Y011195D01*
X005056Y011195D01*
X004980Y011118D01*
X004980Y010965D01*
X005056Y010888D01*
X005210Y010888D01*
X005210Y010428D02*
X005133Y010351D01*
X005133Y010198D01*
X005056Y010121D01*
X004980Y010198D01*
X004980Y010428D01*
X004980Y010581D02*
X004980Y010658D01*
X004980Y009967D02*
X005287Y009967D01*
X005287Y009737D01*
X005210Y009660D01*
X004980Y009660D01*
X005056Y009353D02*
X005056Y009200D01*
X004826Y009200D02*
X004826Y009507D01*
X004826Y009200D02*
X005287Y009200D01*
X005287Y010121D02*
X005287Y010351D01*
X005210Y010428D01*
X005287Y011348D02*
X004980Y011348D01*
X004980Y011579D01*
X005056Y011655D01*
X005287Y011655D01*
X005287Y011809D02*
X005210Y011809D01*
X005210Y011886D01*
X005287Y011886D01*
X005287Y011809D01*
X005210Y012499D02*
X005287Y012576D01*
X005287Y012730D01*
X005210Y012806D01*
X005056Y012806D01*
X004980Y012730D01*
X004980Y012653D01*
X005056Y012499D01*
X004826Y012499D01*
X004826Y012806D01*
X004826Y012960D02*
X005056Y012960D01*
X004980Y013113D01*
X004980Y013190D01*
X005056Y013267D01*
X005210Y013267D01*
X005287Y013190D01*
X005287Y013037D01*
X005210Y012960D01*
X005210Y013420D02*
X005287Y013497D01*
X005287Y013650D01*
X005210Y013727D01*
X005133Y013727D01*
X005056Y013650D01*
X005056Y013420D01*
X005210Y013420D01*
X005056Y013420D02*
X004903Y013574D01*
X004826Y013727D01*
X004903Y013881D02*
X004826Y013957D01*
X004826Y014111D01*
X004903Y014188D01*
X004980Y014188D01*
X005287Y013881D01*
X005287Y014188D01*
X005210Y014341D02*
X005287Y014418D01*
X005287Y014571D01*
X005210Y014648D01*
X004903Y014648D01*
X005210Y014341D01*
X004903Y014341D01*
X004826Y014418D01*
X004826Y014571D01*
X004903Y014648D01*
X004826Y013267D02*
X004826Y012960D01*
X004980Y011886D02*
X005056Y011886D01*
X005056Y011809D01*
X004980Y011809D01*
X004980Y011886D01*
X006326Y011809D02*
X006787Y011809D01*
X006710Y011962D02*
X006787Y012039D01*
X006787Y012193D01*
X006710Y012269D01*
X006403Y012269D01*
X006326Y012193D01*
X006326Y012039D01*
X006403Y011962D01*
X006710Y011962D01*
X006710Y012423D02*
X006787Y012499D01*
X006787Y012576D01*
X006710Y012653D01*
X006326Y012653D01*
X006326Y012576D02*
X006326Y012730D01*
X006403Y013344D02*
X006326Y013420D01*
X006326Y013574D01*
X006403Y013650D01*
X006480Y013650D01*
X006787Y013344D01*
X006787Y013650D01*
X006710Y013804D02*
X006403Y014111D01*
X006710Y014111D01*
X006787Y014034D01*
X006787Y013881D01*
X006710Y013804D01*
X006403Y013804D01*
X006326Y013881D01*
X006326Y014034D01*
X006403Y014111D01*
X006480Y014264D02*
X006326Y014418D01*
X006787Y014418D01*
X006787Y014571D02*
X006787Y014264D01*
X006787Y014725D02*
X006480Y015032D01*
X006403Y015032D01*
X006326Y014955D01*
X006326Y014801D01*
X006403Y014725D01*
X006787Y014725D02*
X006787Y015032D01*
X006710Y016700D02*
X006787Y016777D01*
X006787Y016930D01*
X006710Y017007D01*
X006710Y017160D02*
X006787Y017237D01*
X006787Y017391D01*
X006710Y017467D01*
X006556Y017467D01*
X006480Y017391D01*
X006480Y017237D01*
X006556Y017160D01*
X006710Y017160D01*
X006710Y016700D02*
X006403Y016700D01*
X006326Y016777D01*
X006326Y016930D01*
X006403Y017007D01*
X006480Y017621D02*
X006480Y017851D01*
X006556Y017928D01*
X006787Y017928D01*
X006787Y018081D02*
X006787Y018311D01*
X006710Y018388D01*
X006633Y018311D01*
X006633Y018158D01*
X006556Y018081D01*
X006480Y018158D01*
X006480Y018388D01*
X006556Y018542D02*
X006480Y018618D01*
X006480Y018772D01*
X006556Y018848D01*
X006710Y018848D01*
X006787Y018772D01*
X006787Y018618D01*
X006710Y018542D01*
X006556Y018542D01*
X006556Y019309D02*
X006480Y019386D01*
X006480Y019539D01*
X006556Y019616D01*
X006633Y019616D01*
X006633Y019309D01*
X006710Y019309D02*
X006556Y019309D01*
X006710Y019309D02*
X006787Y019386D01*
X006787Y019539D01*
X006787Y019155D02*
X006787Y019002D01*
X006787Y019079D02*
X006326Y019079D01*
X006326Y019002D01*
X006556Y020230D02*
X006480Y020306D01*
X006480Y020537D01*
X006633Y020306D02*
X006556Y020230D01*
X006633Y020306D02*
X006633Y020460D01*
X006710Y020537D01*
X006787Y020460D01*
X006787Y020230D01*
X006787Y020690D02*
X006787Y020844D01*
X006787Y020767D02*
X006326Y020767D01*
X006326Y020690D01*
X006326Y021074D02*
X006250Y021074D01*
X006326Y021611D02*
X006787Y021611D01*
X006787Y021381D01*
X006710Y021304D01*
X006556Y021304D01*
X006480Y021381D01*
X006480Y021611D01*
X006556Y021764D02*
X006480Y021841D01*
X006480Y021995D01*
X006556Y022071D01*
X006633Y022071D01*
X006633Y021764D01*
X006710Y021764D02*
X006556Y021764D01*
X006480Y022225D02*
X006787Y022225D01*
X006787Y021995D02*
X006787Y021841D01*
X006710Y021764D01*
X006633Y022225D02*
X006480Y022378D01*
X006480Y022455D01*
X006787Y021150D02*
X006787Y020997D01*
X006787Y021074D02*
X006480Y021074D01*
X006480Y020997D01*
X006480Y017621D02*
X006787Y017621D01*
X006556Y011809D02*
X006556Y011502D01*
X006556Y011348D02*
X006633Y011272D01*
X006633Y011042D01*
X006633Y011195D02*
X006787Y011348D01*
X006787Y011502D02*
X006326Y011502D01*
X006403Y011348D02*
X006326Y011272D01*
X006326Y011042D01*
X006787Y011042D01*
X006787Y010888D02*
X006480Y010888D01*
X006326Y010735D01*
X006480Y010581D01*
X006787Y010581D01*
X006787Y010428D02*
X006480Y010428D01*
X006326Y010274D01*
X006480Y010121D01*
X006787Y010121D01*
X006787Y009967D02*
X006556Y009737D01*
X006633Y009507D02*
X006556Y009430D01*
X006556Y009277D01*
X006480Y009200D01*
X006403Y009200D01*
X006326Y009277D01*
X006326Y009430D01*
X006403Y009507D01*
X006326Y009660D02*
X006787Y009660D01*
X006710Y009507D02*
X006787Y009430D01*
X006787Y009277D01*
X006710Y009200D01*
X006710Y009507D02*
X006633Y009507D01*
X006633Y009660D02*
X006326Y009967D01*
X006556Y010121D02*
X006556Y010428D01*
X006556Y010581D02*
X006556Y010888D01*
X006556Y011348D02*
X006403Y011348D01*
D12*
X006237Y008360D02*
X006737Y008360D01*
X006987Y008110D01*
X006987Y007610D01*
X006737Y007360D01*
X006987Y007110D01*
X006987Y006610D01*
X006737Y006360D01*
X006987Y006110D01*
X006987Y005610D01*
X006737Y005360D01*
X006987Y005110D01*
X006987Y004610D01*
X006737Y004360D01*
X006237Y004360D01*
X005987Y004610D01*
X005987Y005110D01*
X006237Y005360D01*
X005987Y005610D01*
X005987Y006110D01*
X006237Y006360D01*
X005987Y006610D01*
X005987Y007110D01*
X006237Y007360D01*
X005987Y007610D01*
X005987Y008110D01*
X006237Y008360D01*
X005758Y000596D02*
X002215Y000596D01*
X002215Y030124D01*
X005758Y030124D01*
X005758Y000596D01*
X001987Y004610D02*
X001987Y005110D01*
X001737Y005360D01*
X001987Y005610D01*
X001987Y006110D01*
X001737Y006360D01*
X001987Y006610D01*
X001987Y007110D01*
X001737Y007360D01*
X001987Y007610D01*
X001987Y008110D01*
X001737Y008360D01*
X001237Y008360D01*
X000987Y008110D01*
X000987Y007610D01*
X001237Y007360D01*
X000987Y007110D01*
X000987Y006610D01*
X001237Y006360D01*
X000987Y006110D01*
X000987Y005610D01*
X001237Y005360D01*
X000987Y005110D01*
X000987Y004610D01*
X001237Y004360D01*
X001737Y004360D01*
X001987Y004610D01*
X001327Y015351D02*
X001327Y015451D01*
X001027Y015451D01*
X001027Y016349D01*
X001327Y016349D01*
X001327Y016449D01*
X001327Y016349D02*
X001627Y016349D01*
X001627Y015451D01*
X001327Y015451D01*
X001237Y022860D02*
X000987Y023110D01*
X000987Y023610D01*
X001237Y023860D01*
X000987Y024110D01*
X000987Y024610D01*
X001237Y024860D01*
X000987Y025110D01*
X000987Y025610D01*
X001237Y025860D01*
X000987Y026110D01*
X000987Y026610D01*
X001237Y026860D01*
X001737Y026860D01*
X001987Y026610D01*
X001987Y026110D01*
X001737Y025860D01*
X001987Y025610D01*
X001987Y025110D01*
X001737Y024860D01*
X001987Y024610D01*
X001987Y024110D01*
X001737Y023860D01*
X001987Y023610D01*
X001987Y023110D01*
X001737Y022860D01*
X001237Y022860D01*
X005987Y023110D02*
X006237Y022860D01*
X006737Y022860D01*
X006987Y023110D01*
X006987Y023610D01*
X006737Y023860D01*
X006987Y024110D01*
X006987Y024610D01*
X006737Y024860D01*
X006987Y025110D01*
X006987Y025610D01*
X006737Y025860D01*
X006987Y026110D01*
X006987Y026610D01*
X006737Y026860D01*
X006237Y026860D01*
X005987Y026610D01*
X005987Y026110D01*
X006237Y025860D01*
X005987Y025610D01*
X005987Y025110D01*
X006237Y024860D01*
X005987Y024610D01*
X005987Y024110D01*
X006237Y023860D01*
X005987Y023610D01*
X005987Y023110D01*
D13*
X000836Y015293D02*
X000861Y015269D01*
X000861Y015220D01*
X000836Y015195D01*
X000738Y015293D01*
X000836Y015293D01*
X000738Y015293D02*
X000713Y015269D01*
X000713Y015220D01*
X000738Y015195D01*
X000836Y015195D01*
X000861Y015148D02*
X000861Y015050D01*
X000861Y015099D02*
X000713Y015099D01*
X000763Y015050D01*
X000738Y015003D02*
X000713Y014979D01*
X000713Y014930D01*
X000738Y014905D01*
X000836Y014905D01*
X000861Y014930D01*
X000861Y014979D01*
X000836Y015003D01*
D14*
X001307Y015504D02*
X001261Y015550D01*
X001399Y015550D01*
X001399Y015595D02*
X001399Y015504D01*
X001376Y015649D02*
X001284Y015740D01*
X001376Y015740D01*
X001399Y015718D01*
X001399Y015672D01*
X001376Y015649D01*
X001284Y015649D01*
X001261Y015672D01*
X001261Y015718D01*
X001284Y015740D01*
X001307Y015794D02*
X001307Y015863D01*
X001330Y015885D01*
X001399Y015885D01*
X001399Y015939D02*
X001261Y015939D01*
X001261Y016030D01*
X001330Y015985D02*
X001330Y015939D01*
X001307Y015794D02*
X001399Y015794D01*
D15*
X000667Y022855D02*
X000742Y022930D01*
X000742Y023005D01*
X000667Y023080D01*
X000291Y023080D01*
X000291Y023005D02*
X000291Y023155D01*
X000291Y023315D02*
X000291Y023541D01*
X000366Y023616D01*
X000516Y023616D01*
X000592Y023541D01*
X000592Y023315D01*
X000667Y023776D02*
X000742Y023851D01*
X000742Y024001D01*
X000667Y024076D01*
X000592Y024076D01*
X000516Y024001D01*
X000516Y023926D01*
X000516Y024001D02*
X000441Y024076D01*
X000366Y024076D01*
X000291Y024001D01*
X000291Y023851D01*
X000366Y023776D01*
X000291Y023315D02*
X000742Y023315D01*
X000667Y005576D02*
X000516Y005576D01*
X000441Y005501D01*
X000441Y005426D01*
X000516Y005276D01*
X000291Y005276D01*
X000291Y005576D01*
X000366Y005116D02*
X000291Y005041D01*
X000291Y004815D01*
X000742Y004815D01*
X000667Y004580D02*
X000291Y004580D01*
X000291Y004505D02*
X000291Y004655D01*
X000366Y005116D02*
X000516Y005116D01*
X000592Y005041D01*
X000592Y004815D01*
X000667Y004580D02*
X000742Y004505D01*
X000742Y004430D01*
X000667Y004355D01*
X000667Y005276D02*
X000742Y005351D01*
X000742Y005501D01*
X000667Y005576D01*
X005291Y005576D02*
X005366Y005426D01*
X005516Y005276D01*
X005516Y005501D01*
X005592Y005576D01*
X005667Y005576D01*
X005742Y005501D01*
X005742Y005351D01*
X005667Y005276D01*
X005516Y005276D01*
X005516Y005116D02*
X005592Y005041D01*
X005592Y004815D01*
X005667Y004580D02*
X005291Y004580D01*
X005291Y004505D02*
X005291Y004655D01*
X005291Y004815D02*
X005291Y005041D01*
X005366Y005116D01*
X005516Y005116D01*
X005667Y004580D02*
X005742Y004505D01*
X005742Y004430D01*
X005667Y004355D01*
X005742Y004815D02*
X005291Y004815D01*
X005667Y022855D02*
X005742Y022930D01*
X005742Y023005D01*
X005667Y023080D01*
X005291Y023080D01*
X005291Y023005D02*
X005291Y023155D01*
X005291Y023315D02*
X005291Y023541D01*
X005366Y023616D01*
X005516Y023616D01*
X005592Y023541D01*
X005592Y023315D01*
X005516Y023776D02*
X005516Y024076D01*
X005291Y024001D02*
X005516Y023776D01*
X005742Y024001D02*
X005291Y024001D01*
X005291Y023315D02*
X005742Y023315D01*
M02*
