G75*
G70*
%OFA0B0*%
%FSLAX24Y24*%
%IPPOS*%
%LPD*%
%AMOC8*
5,1,8,0,0,1.08239X$1,22.5*
%
%ADD10C,0.0000*%
%ADD11C,0.1000*%
%ADD12C,0.1181*%
%ADD13C,0.0740*%
%ADD14R,0.0740X0.0740*%
%ADD15C,0.0100*%
%ADD16C,0.0160*%
D10*
X000807Y000180D02*
X000807Y030480D01*
X007107Y030480D01*
X007107Y000180D01*
X000807Y000180D01*
D11*
X004676Y000891D03*
X004676Y029829D03*
X003298Y029829D03*
D12*
X002333Y028195D03*
X005640Y027722D03*
X005640Y002998D03*
X002333Y002525D03*
D13*
X001487Y005860D03*
X001487Y006860D03*
X001487Y007860D03*
X001327Y014916D03*
X001327Y016884D03*
X001487Y024360D03*
X001487Y025360D03*
X001487Y026360D03*
X006487Y026360D03*
X006487Y025360D03*
X006487Y024360D03*
X006487Y007860D03*
X006487Y006860D03*
X006487Y005860D03*
D14*
X006487Y004860D03*
X006487Y023360D03*
X001487Y023360D03*
X001487Y004860D03*
D15*
X004307Y001180D02*
X004307Y016680D01*
X001307Y016680D01*
X001327Y016884D01*
X001307Y017180D01*
X001307Y022680D01*
X001807Y022680D01*
X002307Y023180D01*
X002307Y026180D01*
X001807Y026180D01*
X001487Y026360D01*
X004307Y001180D02*
X004676Y000891D01*
D16*
X004537Y001570D02*
X004537Y016775D01*
X004402Y016910D01*
X001877Y016910D01*
X001877Y016994D01*
X001793Y017196D01*
X001638Y017351D01*
X001537Y017393D01*
X001537Y022450D01*
X001902Y022450D01*
X002402Y022950D01*
X002537Y023085D01*
X002537Y026275D01*
X002402Y026410D01*
X002037Y026410D01*
X002037Y026469D01*
X001953Y026672D01*
X001798Y026826D01*
X001596Y026910D01*
X001377Y026910D01*
X001175Y026826D01*
X001020Y026672D01*
X000987Y026590D01*
X000987Y030300D01*
X002808Y030300D01*
X002721Y030214D01*
X002618Y029964D01*
X002618Y029693D01*
X002721Y029443D01*
X002913Y029252D01*
X003162Y029149D01*
X003433Y029149D01*
X003683Y029252D01*
X003874Y029443D01*
X003978Y029693D01*
X003978Y029964D01*
X003874Y030214D01*
X003788Y030300D01*
X004185Y030300D01*
X004099Y030214D01*
X003996Y029964D01*
X003996Y029693D01*
X004099Y029443D01*
X004290Y029252D01*
X004540Y029149D01*
X004811Y029149D01*
X005061Y029252D01*
X005252Y029443D01*
X005356Y029693D01*
X005356Y029964D01*
X005252Y030214D01*
X005166Y030300D01*
X006927Y030300D01*
X006927Y026698D01*
X006798Y026826D01*
X006596Y026910D01*
X006377Y026910D01*
X006175Y026826D01*
X006020Y026672D01*
X005937Y026469D01*
X005937Y026251D01*
X006020Y026048D01*
X006175Y025894D01*
X006257Y025860D01*
X006175Y025826D01*
X006020Y025672D01*
X005937Y025469D01*
X005937Y025251D01*
X006020Y025048D01*
X006175Y024894D01*
X006257Y024860D01*
X006175Y024826D01*
X006020Y024672D01*
X005937Y024469D01*
X005937Y024251D01*
X006020Y024048D01*
X006159Y023910D01*
X006042Y023910D01*
X005937Y023805D01*
X005937Y022915D01*
X006042Y022810D01*
X006927Y022810D01*
X006927Y008198D01*
X006798Y008326D01*
X006596Y008410D01*
X006377Y008410D01*
X006175Y008326D01*
X006020Y008172D01*
X005937Y007969D01*
X005937Y007751D01*
X006020Y007548D01*
X006175Y007394D01*
X006257Y007360D01*
X006175Y007326D01*
X006020Y007172D01*
X005937Y006969D01*
X005937Y006751D01*
X006020Y006548D01*
X006175Y006394D01*
X006257Y006360D01*
X006175Y006326D01*
X006020Y006172D01*
X005937Y005969D01*
X005937Y005751D01*
X006020Y005548D01*
X006159Y005410D01*
X006042Y005410D01*
X005937Y005305D01*
X005937Y004415D01*
X006042Y004310D01*
X006927Y004310D01*
X006927Y000360D01*
X005106Y000360D01*
X005252Y000506D01*
X005356Y000756D01*
X005356Y001027D01*
X005252Y001277D01*
X005061Y001468D01*
X004811Y001571D01*
X004540Y001571D01*
X004537Y001570D01*
X004537Y001607D02*
X006927Y001607D01*
X006927Y001765D02*
X004537Y001765D01*
X004537Y001924D02*
X006927Y001924D01*
X006927Y002082D02*
X004537Y002082D01*
X004537Y002241D02*
X005455Y002241D01*
X005487Y002227D02*
X005793Y002227D01*
X006077Y002345D01*
X006293Y002561D01*
X006411Y002845D01*
X006411Y003151D01*
X006293Y003434D01*
X006077Y003651D01*
X005793Y003768D01*
X005487Y003768D01*
X005204Y003651D01*
X004987Y003434D01*
X004870Y003151D01*
X004870Y002845D01*
X004987Y002561D01*
X005204Y002345D01*
X005487Y002227D01*
X005825Y002241D02*
X006927Y002241D01*
X006927Y002399D02*
X006131Y002399D01*
X006290Y002558D02*
X006927Y002558D01*
X006927Y002716D02*
X006358Y002716D01*
X006411Y002875D02*
X006927Y002875D01*
X006927Y003033D02*
X006411Y003033D01*
X006394Y003192D02*
X006927Y003192D01*
X006927Y003350D02*
X006328Y003350D01*
X006219Y003509D02*
X006927Y003509D01*
X006927Y003667D02*
X006038Y003667D01*
X005937Y004460D02*
X004537Y004460D01*
X004537Y004618D02*
X005937Y004618D01*
X005937Y004777D02*
X004537Y004777D01*
X004537Y004935D02*
X005937Y004935D01*
X005937Y005094D02*
X004537Y005094D01*
X004537Y005252D02*
X005937Y005252D01*
X006012Y005569D02*
X004537Y005569D01*
X004537Y005411D02*
X006158Y005411D01*
X005946Y005728D02*
X004537Y005728D01*
X004537Y005886D02*
X005937Y005886D01*
X005968Y006045D02*
X004537Y006045D01*
X004537Y006203D02*
X006052Y006203D01*
X006049Y006520D02*
X004537Y006520D01*
X004537Y006362D02*
X006253Y006362D01*
X006013Y007154D02*
X004537Y007154D01*
X004537Y006996D02*
X005947Y006996D01*
X005937Y006837D02*
X004537Y006837D01*
X004537Y006679D02*
X005967Y006679D01*
X006161Y007313D02*
X004537Y007313D01*
X004537Y007471D02*
X006098Y007471D01*
X005987Y007630D02*
X004537Y007630D01*
X004537Y007788D02*
X005937Y007788D01*
X005937Y007947D02*
X004537Y007947D01*
X004537Y008105D02*
X005993Y008105D01*
X006112Y008264D02*
X004537Y008264D01*
X004537Y008422D02*
X006927Y008422D01*
X006927Y008264D02*
X006861Y008264D01*
X006927Y008581D02*
X004537Y008581D01*
X004537Y008739D02*
X006927Y008739D01*
X006927Y008898D02*
X004537Y008898D01*
X004537Y009056D02*
X006927Y009056D01*
X006927Y009215D02*
X004537Y009215D01*
X004537Y009373D02*
X006927Y009373D01*
X006927Y009532D02*
X004537Y009532D01*
X004537Y009690D02*
X006927Y009690D01*
X006927Y009849D02*
X004537Y009849D01*
X004537Y010007D02*
X006927Y010007D01*
X006927Y010166D02*
X004537Y010166D01*
X004537Y010324D02*
X006927Y010324D01*
X006927Y010483D02*
X004537Y010483D01*
X004537Y010641D02*
X006927Y010641D01*
X006927Y010800D02*
X004537Y010800D01*
X004537Y010958D02*
X006927Y010958D01*
X006927Y011117D02*
X004537Y011117D01*
X004537Y011275D02*
X006927Y011275D01*
X006927Y011434D02*
X004537Y011434D01*
X004537Y011592D02*
X006927Y011592D01*
X006927Y011751D02*
X004537Y011751D01*
X004537Y011909D02*
X006927Y011909D01*
X006927Y012068D02*
X004537Y012068D01*
X004537Y012226D02*
X006927Y012226D01*
X006927Y012385D02*
X004537Y012385D01*
X004537Y012543D02*
X006927Y012543D01*
X006927Y012702D02*
X004537Y012702D01*
X004537Y012860D02*
X006927Y012860D01*
X006927Y013019D02*
X004537Y013019D01*
X004537Y013177D02*
X006927Y013177D01*
X006927Y013336D02*
X004537Y013336D01*
X004537Y013494D02*
X006927Y013494D01*
X006927Y013653D02*
X004537Y013653D01*
X004537Y013811D02*
X006927Y013811D01*
X006927Y013970D02*
X004537Y013970D01*
X004537Y014128D02*
X006927Y014128D01*
X006927Y014287D02*
X004537Y014287D01*
X004537Y014445D02*
X006927Y014445D01*
X006927Y014604D02*
X004537Y014604D01*
X004537Y014762D02*
X006927Y014762D01*
X006927Y014921D02*
X004537Y014921D01*
X004537Y015079D02*
X006927Y015079D01*
X006927Y015238D02*
X004537Y015238D01*
X004537Y015396D02*
X006927Y015396D01*
X006927Y015555D02*
X004537Y015555D01*
X004537Y015713D02*
X006927Y015713D01*
X006927Y015872D02*
X004537Y015872D01*
X004537Y016030D02*
X006927Y016030D01*
X006927Y016189D02*
X004537Y016189D01*
X004537Y016347D02*
X006927Y016347D01*
X006927Y016506D02*
X004537Y016506D01*
X004537Y016664D02*
X006927Y016664D01*
X006927Y016823D02*
X004489Y016823D01*
X004077Y016450D02*
X004077Y001259D01*
X004067Y001247D01*
X004071Y001210D01*
X003996Y001027D01*
X003996Y000756D01*
X004099Y000506D01*
X004245Y000360D01*
X000987Y000360D01*
X000987Y004365D01*
X001042Y004310D01*
X001931Y004310D01*
X002037Y004415D01*
X002037Y005305D01*
X001931Y005410D01*
X001814Y005410D01*
X001953Y005548D01*
X002037Y005751D01*
X002037Y005969D01*
X001953Y006172D01*
X001798Y006326D01*
X001717Y006360D01*
X001798Y006394D01*
X001953Y006548D01*
X002037Y006751D01*
X002037Y006969D01*
X001953Y007172D01*
X001798Y007326D01*
X001717Y007360D01*
X001798Y007394D01*
X001953Y007548D01*
X002037Y007751D01*
X002037Y007969D01*
X001953Y008172D01*
X001798Y008326D01*
X001596Y008410D01*
X001377Y008410D01*
X001175Y008326D01*
X001020Y008172D01*
X000987Y008090D01*
X000987Y014478D01*
X001015Y014449D01*
X001217Y014366D01*
X001436Y014366D01*
X001638Y014449D01*
X001793Y014604D01*
X001877Y014806D01*
X001877Y015025D01*
X001793Y015227D01*
X001638Y015382D01*
X001436Y015466D01*
X001217Y015466D01*
X001015Y015382D01*
X000987Y015354D01*
X000987Y016446D01*
X001015Y016418D01*
X001217Y016334D01*
X001436Y016334D01*
X001638Y016418D01*
X001670Y016450D01*
X004077Y016450D01*
X004077Y016347D02*
X001467Y016347D01*
X001604Y015396D02*
X004077Y015396D01*
X004077Y015238D02*
X001783Y015238D01*
X001854Y015079D02*
X004077Y015079D01*
X004077Y014921D02*
X001877Y014921D01*
X001858Y014762D02*
X004077Y014762D01*
X004077Y014604D02*
X001792Y014604D01*
X001627Y014445D02*
X004077Y014445D01*
X004077Y014287D02*
X000987Y014287D01*
X000987Y014445D02*
X001026Y014445D01*
X000987Y014128D02*
X004077Y014128D01*
X004077Y013970D02*
X000987Y013970D01*
X000987Y013811D02*
X004077Y013811D01*
X004077Y013653D02*
X000987Y013653D01*
X000987Y013494D02*
X004077Y013494D01*
X004077Y013336D02*
X000987Y013336D01*
X000987Y013177D02*
X004077Y013177D01*
X004077Y013019D02*
X000987Y013019D01*
X000987Y012860D02*
X004077Y012860D01*
X004077Y012702D02*
X000987Y012702D01*
X000987Y012543D02*
X004077Y012543D01*
X004077Y012385D02*
X000987Y012385D01*
X000987Y012226D02*
X004077Y012226D01*
X004077Y012068D02*
X000987Y012068D01*
X000987Y011909D02*
X004077Y011909D01*
X004077Y011751D02*
X000987Y011751D01*
X000987Y011592D02*
X004077Y011592D01*
X004077Y011434D02*
X000987Y011434D01*
X000987Y011275D02*
X004077Y011275D01*
X004077Y011117D02*
X000987Y011117D01*
X000987Y010958D02*
X004077Y010958D01*
X004077Y010800D02*
X000987Y010800D01*
X000987Y010641D02*
X004077Y010641D01*
X004077Y010483D02*
X000987Y010483D01*
X000987Y010324D02*
X004077Y010324D01*
X004077Y010166D02*
X000987Y010166D01*
X000987Y010007D02*
X004077Y010007D01*
X004077Y009849D02*
X000987Y009849D01*
X000987Y009690D02*
X004077Y009690D01*
X004077Y009532D02*
X000987Y009532D01*
X000987Y009373D02*
X004077Y009373D01*
X004077Y009215D02*
X000987Y009215D01*
X000987Y009056D02*
X004077Y009056D01*
X004077Y008898D02*
X000987Y008898D01*
X000987Y008739D02*
X004077Y008739D01*
X004077Y008581D02*
X000987Y008581D01*
X000987Y008422D02*
X004077Y008422D01*
X004077Y008264D02*
X001861Y008264D01*
X001980Y008105D02*
X004077Y008105D01*
X004077Y007947D02*
X002037Y007947D01*
X002037Y007788D02*
X004077Y007788D01*
X004077Y007630D02*
X001987Y007630D01*
X001960Y007154D02*
X004077Y007154D01*
X004077Y006996D02*
X002026Y006996D01*
X002037Y006837D02*
X004077Y006837D01*
X004077Y006679D02*
X002007Y006679D01*
X001924Y006520D02*
X004077Y006520D01*
X004077Y006362D02*
X001720Y006362D01*
X001921Y006203D02*
X004077Y006203D01*
X004077Y006045D02*
X002006Y006045D01*
X002037Y005886D02*
X004077Y005886D01*
X004077Y005728D02*
X002027Y005728D01*
X001961Y005569D02*
X004077Y005569D01*
X004077Y005411D02*
X001815Y005411D01*
X002037Y005252D02*
X004077Y005252D01*
X004077Y005094D02*
X002037Y005094D01*
X002037Y004935D02*
X004077Y004935D01*
X004077Y004777D02*
X002037Y004777D01*
X002037Y004618D02*
X004077Y004618D01*
X004077Y004460D02*
X002037Y004460D01*
X002180Y003296D02*
X001897Y003179D01*
X001680Y002962D01*
X001563Y002679D01*
X001563Y002372D01*
X001680Y002089D01*
X001897Y001872D01*
X002180Y001755D01*
X002486Y001755D01*
X002770Y001872D01*
X002986Y002089D01*
X003104Y002372D01*
X003104Y002679D01*
X002986Y002962D01*
X002770Y003179D01*
X002486Y003296D01*
X002180Y003296D01*
X001928Y003192D02*
X000987Y003192D01*
X000987Y003350D02*
X004077Y003350D01*
X004077Y003192D02*
X002738Y003192D01*
X002915Y003033D02*
X004077Y003033D01*
X004077Y002875D02*
X003023Y002875D01*
X003088Y002716D02*
X004077Y002716D01*
X004077Y002558D02*
X003104Y002558D01*
X003104Y002399D02*
X004077Y002399D01*
X004077Y002241D02*
X003049Y002241D01*
X002979Y002082D02*
X004077Y002082D01*
X004077Y001924D02*
X002821Y001924D01*
X002511Y001765D02*
X004077Y001765D01*
X004077Y001607D02*
X000987Y001607D01*
X000987Y001765D02*
X002155Y001765D01*
X001845Y001924D02*
X000987Y001924D01*
X000987Y002082D02*
X001687Y002082D01*
X001617Y002241D02*
X000987Y002241D01*
X000987Y002399D02*
X001563Y002399D01*
X001563Y002558D02*
X000987Y002558D01*
X000987Y002716D02*
X001578Y002716D01*
X001644Y002875D02*
X000987Y002875D01*
X000987Y003033D02*
X001751Y003033D01*
X001159Y005410D02*
X001042Y005410D01*
X000987Y005355D01*
X000987Y005630D01*
X001020Y005548D01*
X001159Y005410D01*
X001158Y005411D02*
X000987Y005411D01*
X000987Y005569D02*
X001012Y005569D01*
X000987Y006090D02*
X000987Y006630D01*
X001020Y006548D01*
X001175Y006394D01*
X001257Y006360D01*
X001175Y006326D01*
X001020Y006172D01*
X000987Y006090D01*
X000987Y006203D02*
X001052Y006203D01*
X000987Y006362D02*
X001253Y006362D01*
X001049Y006520D02*
X000987Y006520D01*
X000987Y007090D02*
X000987Y007630D01*
X001020Y007548D01*
X001175Y007394D01*
X001257Y007360D01*
X001175Y007326D01*
X001020Y007172D01*
X000987Y007090D01*
X000987Y007154D02*
X001013Y007154D01*
X000987Y007313D02*
X001161Y007313D01*
X001098Y007471D02*
X000987Y007471D01*
X000987Y007630D02*
X000987Y007630D01*
X000987Y008105D02*
X000993Y008105D01*
X000987Y008264D02*
X001112Y008264D01*
X001812Y007313D02*
X004077Y007313D01*
X004077Y007471D02*
X001875Y007471D01*
X000987Y004301D02*
X004077Y004301D01*
X004077Y004143D02*
X000987Y004143D01*
X000987Y003984D02*
X004077Y003984D01*
X004077Y003826D02*
X000987Y003826D01*
X000987Y003667D02*
X004077Y003667D01*
X004077Y003509D02*
X000987Y003509D01*
X000987Y001448D02*
X004077Y001448D01*
X004077Y001290D02*
X000987Y001290D01*
X000987Y001131D02*
X004039Y001131D01*
X003996Y000973D02*
X000987Y000973D01*
X000987Y000814D02*
X003996Y000814D01*
X004037Y000656D02*
X000987Y000656D01*
X000987Y000497D02*
X004108Y000497D01*
X004537Y002399D02*
X005149Y002399D01*
X004991Y002558D02*
X004537Y002558D01*
X004537Y002716D02*
X004923Y002716D01*
X004870Y002875D02*
X004537Y002875D01*
X004537Y003033D02*
X004870Y003033D01*
X004886Y003192D02*
X004537Y003192D01*
X004537Y003350D02*
X004952Y003350D01*
X005061Y003509D02*
X004537Y003509D01*
X004537Y003667D02*
X005242Y003667D01*
X005081Y001448D02*
X006927Y001448D01*
X006927Y001290D02*
X005239Y001290D01*
X005312Y001131D02*
X006927Y001131D01*
X006927Y000973D02*
X005356Y000973D01*
X005356Y000814D02*
X006927Y000814D01*
X006927Y000656D02*
X005314Y000656D01*
X005243Y000497D02*
X006927Y000497D01*
X006927Y003826D02*
X004537Y003826D01*
X004537Y003984D02*
X006927Y003984D01*
X006927Y004143D02*
X004537Y004143D01*
X004537Y004301D02*
X006927Y004301D01*
X006927Y005410D02*
X006814Y005410D01*
X006927Y005522D01*
X006927Y005410D01*
X006927Y005411D02*
X006815Y005411D01*
X006927Y006198D02*
X006798Y006326D01*
X006717Y006360D01*
X006798Y006394D01*
X006927Y006522D01*
X006927Y006198D01*
X006927Y006203D02*
X006921Y006203D01*
X006927Y006362D02*
X006720Y006362D01*
X006924Y006520D02*
X006927Y006520D01*
X006927Y007198D02*
X006798Y007326D01*
X006717Y007360D01*
X006798Y007394D01*
X006927Y007522D01*
X006927Y007198D01*
X006927Y007313D02*
X006812Y007313D01*
X006875Y007471D02*
X006927Y007471D01*
X006927Y016981D02*
X001877Y016981D01*
X001816Y017140D02*
X006927Y017140D01*
X006927Y017298D02*
X001691Y017298D01*
X001537Y017457D02*
X006927Y017457D01*
X006927Y017615D02*
X001537Y017615D01*
X001537Y017774D02*
X006927Y017774D01*
X006927Y017932D02*
X001537Y017932D01*
X001537Y018091D02*
X006927Y018091D01*
X006927Y018249D02*
X001537Y018249D01*
X001537Y018408D02*
X006927Y018408D01*
X006927Y018566D02*
X001537Y018566D01*
X001537Y018725D02*
X006927Y018725D01*
X006927Y018883D02*
X001537Y018883D01*
X001537Y019042D02*
X006927Y019042D01*
X006927Y019200D02*
X001537Y019200D01*
X001537Y019359D02*
X006927Y019359D01*
X006927Y019517D02*
X001537Y019517D01*
X001537Y019676D02*
X006927Y019676D01*
X006927Y019834D02*
X001537Y019834D01*
X001537Y019993D02*
X006927Y019993D01*
X006927Y020151D02*
X001537Y020151D01*
X001537Y020310D02*
X006927Y020310D01*
X006927Y020468D02*
X001537Y020468D01*
X001537Y020627D02*
X006927Y020627D01*
X006927Y020785D02*
X001537Y020785D01*
X001537Y020944D02*
X006927Y020944D01*
X006927Y021102D02*
X001537Y021102D01*
X001537Y021261D02*
X006927Y021261D01*
X006927Y021419D02*
X001537Y021419D01*
X001537Y021578D02*
X006927Y021578D01*
X006927Y021736D02*
X001537Y021736D01*
X001537Y021895D02*
X006927Y021895D01*
X006927Y022053D02*
X001537Y022053D01*
X001537Y022212D02*
X006927Y022212D01*
X006927Y022370D02*
X001537Y022370D01*
X002037Y023805D02*
X001931Y023910D01*
X001814Y023910D01*
X001953Y024048D01*
X002037Y024251D01*
X002037Y024469D01*
X001953Y024672D01*
X001798Y024826D01*
X001717Y024860D01*
X001798Y024894D01*
X001953Y025048D01*
X002037Y025251D01*
X002037Y025469D01*
X001953Y025672D01*
X001798Y025826D01*
X001717Y025860D01*
X001798Y025894D01*
X001854Y025950D01*
X002077Y025950D01*
X002077Y023275D01*
X002037Y023235D01*
X002037Y023805D01*
X002037Y023797D02*
X002077Y023797D01*
X002077Y023955D02*
X001860Y023955D01*
X001980Y024114D02*
X002077Y024114D01*
X002077Y024272D02*
X002037Y024272D01*
X002037Y024431D02*
X002077Y024431D01*
X002077Y024589D02*
X001987Y024589D01*
X002077Y024748D02*
X001877Y024748D01*
X001811Y024906D02*
X002077Y024906D01*
X002077Y025065D02*
X001960Y025065D01*
X002025Y025223D02*
X002077Y025223D01*
X002077Y025382D02*
X002037Y025382D01*
X002007Y025540D02*
X002077Y025540D01*
X002077Y025699D02*
X001926Y025699D01*
X002077Y025857D02*
X001724Y025857D01*
X001962Y026650D02*
X006011Y026650D01*
X005946Y026491D02*
X002028Y026491D01*
X001816Y026808D02*
X006157Y026808D01*
X006077Y027069D02*
X006293Y027286D01*
X006411Y027569D01*
X006411Y027875D01*
X006293Y028159D01*
X006077Y028375D01*
X005793Y028493D01*
X005487Y028493D01*
X005204Y028375D01*
X004987Y028159D01*
X004870Y027875D01*
X004870Y027569D01*
X004987Y027286D01*
X005204Y027069D01*
X005487Y026952D01*
X005793Y026952D01*
X006077Y027069D01*
X006133Y027125D02*
X006927Y027125D01*
X006927Y026967D02*
X005829Y026967D01*
X005937Y026333D02*
X002479Y026333D01*
X002537Y026174D02*
X005968Y026174D01*
X006053Y026016D02*
X002537Y026016D01*
X002537Y025857D02*
X006249Y025857D01*
X006047Y025699D02*
X002537Y025699D01*
X002537Y025540D02*
X005966Y025540D01*
X005937Y025382D02*
X002537Y025382D01*
X002537Y025223D02*
X005948Y025223D01*
X006014Y025065D02*
X002537Y025065D01*
X002537Y024906D02*
X006163Y024906D01*
X006096Y024748D02*
X002537Y024748D01*
X002537Y024589D02*
X005986Y024589D01*
X005937Y024431D02*
X002537Y024431D01*
X002537Y024272D02*
X005937Y024272D01*
X005993Y024114D02*
X002537Y024114D01*
X002537Y023955D02*
X006114Y023955D01*
X005937Y023797D02*
X002537Y023797D01*
X002537Y023638D02*
X005937Y023638D01*
X005937Y023480D02*
X002537Y023480D01*
X002537Y023321D02*
X005937Y023321D01*
X005937Y023163D02*
X002537Y023163D01*
X002456Y023004D02*
X005937Y023004D01*
X006007Y022846D02*
X002297Y022846D01*
X002139Y022687D02*
X006927Y022687D01*
X006927Y022529D02*
X001980Y022529D01*
X002037Y023321D02*
X002077Y023321D01*
X002077Y023480D02*
X002037Y023480D01*
X002037Y023638D02*
X002077Y023638D01*
X001257Y024860D02*
X001175Y024826D01*
X001020Y024672D01*
X000987Y024590D01*
X000987Y025130D01*
X001020Y025048D01*
X001175Y024894D01*
X001257Y024860D01*
X001163Y024906D02*
X000987Y024906D01*
X000987Y024748D02*
X001096Y024748D01*
X001014Y025065D02*
X000987Y025065D01*
X000987Y025590D02*
X000987Y026130D01*
X001020Y026048D01*
X001175Y025894D01*
X001257Y025860D01*
X001175Y025826D01*
X001020Y025672D01*
X000987Y025590D01*
X000987Y025699D02*
X001047Y025699D01*
X000987Y025857D02*
X001249Y025857D01*
X001053Y026016D02*
X000987Y026016D01*
X000987Y026650D02*
X001011Y026650D01*
X000987Y026808D02*
X001157Y026808D01*
X000987Y026967D02*
X005451Y026967D01*
X005148Y027125D02*
X000987Y027125D01*
X000987Y027284D02*
X004989Y027284D01*
X004922Y027442D02*
X002530Y027442D01*
X002486Y027424D02*
X002770Y027541D01*
X002986Y027758D01*
X003104Y028041D01*
X003104Y028348D01*
X002986Y028631D01*
X002770Y028848D01*
X002486Y028965D01*
X002180Y028965D01*
X001897Y028848D01*
X001680Y028631D01*
X001563Y028348D01*
X001563Y028041D01*
X001680Y027758D01*
X001897Y027541D01*
X002180Y027424D01*
X002486Y027424D01*
X002829Y027601D02*
X004870Y027601D01*
X004870Y027759D02*
X002987Y027759D01*
X003052Y027918D02*
X004887Y027918D01*
X004953Y028076D02*
X003104Y028076D01*
X003104Y028235D02*
X005063Y028235D01*
X005246Y028393D02*
X003085Y028393D01*
X003019Y028552D02*
X006927Y028552D01*
X006927Y028710D02*
X002907Y028710D01*
X002720Y028869D02*
X006927Y028869D01*
X006927Y029027D02*
X000987Y029027D01*
X000987Y028869D02*
X001947Y028869D01*
X001759Y028710D02*
X000987Y028710D01*
X000987Y028552D02*
X001647Y028552D01*
X001581Y028393D02*
X000987Y028393D01*
X000987Y028235D02*
X001563Y028235D01*
X001563Y028076D02*
X000987Y028076D01*
X000987Y027918D02*
X001614Y027918D01*
X001680Y027759D02*
X000987Y027759D01*
X000987Y027601D02*
X001838Y027601D01*
X002137Y027442D02*
X000987Y027442D01*
X000987Y029186D02*
X003073Y029186D01*
X002820Y029344D02*
X000987Y029344D01*
X000987Y029503D02*
X002697Y029503D01*
X002631Y029661D02*
X000987Y029661D01*
X000987Y029820D02*
X002618Y029820D01*
X002624Y029978D02*
X000987Y029978D01*
X000987Y030137D02*
X002689Y030137D01*
X002803Y030295D02*
X000987Y030295D01*
X000987Y024130D02*
X001020Y024048D01*
X001159Y023910D01*
X001042Y023910D01*
X000987Y023855D01*
X000987Y024130D01*
X000987Y024114D02*
X000993Y024114D01*
X000987Y023955D02*
X001114Y023955D01*
X000987Y022865D02*
X001042Y022810D01*
X001111Y022810D01*
X001077Y022775D01*
X001077Y017376D01*
X001015Y017351D01*
X000987Y017322D01*
X000987Y022865D01*
X000987Y022846D02*
X001007Y022846D01*
X000987Y022687D02*
X001077Y022687D01*
X001077Y022529D02*
X000987Y022529D01*
X000987Y022370D02*
X001077Y022370D01*
X001077Y022212D02*
X000987Y022212D01*
X000987Y022053D02*
X001077Y022053D01*
X001077Y021895D02*
X000987Y021895D01*
X000987Y021736D02*
X001077Y021736D01*
X001077Y021578D02*
X000987Y021578D01*
X000987Y021419D02*
X001077Y021419D01*
X001077Y021261D02*
X000987Y021261D01*
X000987Y021102D02*
X001077Y021102D01*
X001077Y020944D02*
X000987Y020944D01*
X000987Y020785D02*
X001077Y020785D01*
X001077Y020627D02*
X000987Y020627D01*
X000987Y020468D02*
X001077Y020468D01*
X001077Y020310D02*
X000987Y020310D01*
X000987Y020151D02*
X001077Y020151D01*
X001077Y019993D02*
X000987Y019993D01*
X000987Y019834D02*
X001077Y019834D01*
X001077Y019676D02*
X000987Y019676D01*
X000987Y019517D02*
X001077Y019517D01*
X001077Y019359D02*
X000987Y019359D01*
X000987Y019200D02*
X001077Y019200D01*
X001077Y019042D02*
X000987Y019042D01*
X000987Y018883D02*
X001077Y018883D01*
X001077Y018725D02*
X000987Y018725D01*
X000987Y018566D02*
X001077Y018566D01*
X001077Y018408D02*
X000987Y018408D01*
X000987Y018249D02*
X001077Y018249D01*
X001077Y018091D02*
X000987Y018091D01*
X000987Y017932D02*
X001077Y017932D01*
X001077Y017774D02*
X000987Y017774D01*
X000987Y017615D02*
X001077Y017615D01*
X001077Y017457D02*
X000987Y017457D01*
X000987Y016347D02*
X001186Y016347D01*
X000987Y016189D02*
X004077Y016189D01*
X004077Y016030D02*
X000987Y016030D01*
X000987Y015872D02*
X004077Y015872D01*
X004077Y015713D02*
X000987Y015713D01*
X000987Y015555D02*
X004077Y015555D01*
X006798Y024826D02*
X006717Y024860D01*
X006798Y024894D01*
X006927Y025022D01*
X006927Y024698D01*
X006798Y024826D01*
X006811Y024906D02*
X006927Y024906D01*
X006927Y024748D02*
X006877Y024748D01*
X006927Y024022D02*
X006927Y023910D01*
X006814Y023910D01*
X006927Y024022D01*
X006927Y023955D02*
X006860Y023955D01*
X006927Y025698D02*
X006927Y026022D01*
X006798Y025894D01*
X006717Y025860D01*
X006798Y025826D01*
X006927Y025698D01*
X006926Y025699D02*
X006927Y025699D01*
X006927Y025857D02*
X006724Y025857D01*
X006920Y026016D02*
X006927Y026016D01*
X006927Y026808D02*
X006816Y026808D01*
X006927Y027284D02*
X006291Y027284D01*
X006358Y027442D02*
X006927Y027442D01*
X006927Y027601D02*
X006411Y027601D01*
X006411Y027759D02*
X006927Y027759D01*
X006927Y027918D02*
X006393Y027918D01*
X006328Y028076D02*
X006927Y028076D01*
X006927Y028235D02*
X006218Y028235D01*
X006034Y028393D02*
X006927Y028393D01*
X006927Y029186D02*
X004900Y029186D01*
X005153Y029344D02*
X006927Y029344D01*
X006927Y029503D02*
X005277Y029503D01*
X005342Y029661D02*
X006927Y029661D01*
X006927Y029820D02*
X005356Y029820D01*
X005350Y029978D02*
X006927Y029978D01*
X006927Y030137D02*
X005284Y030137D01*
X005171Y030295D02*
X006927Y030295D01*
X004451Y029186D02*
X003522Y029186D01*
X003775Y029344D02*
X004198Y029344D01*
X004075Y029503D02*
X003899Y029503D01*
X003964Y029661D02*
X004009Y029661D01*
X003996Y029820D02*
X003978Y029820D01*
X003972Y029978D02*
X004002Y029978D01*
X004067Y030137D02*
X003906Y030137D01*
X003793Y030295D02*
X004181Y030295D01*
X001049Y015396D02*
X000987Y015396D01*
M02*
