G75*
G70*
%OFA0B0*%
%FSLAX24Y24*%
%IPPOS*%
%LPD*%
%AMOC8*
5,1,8,0,0,1.08239X$1,22.5*
%
%ADD10C,0.0000*%
%ADD11R,0.0594X0.0594*%
%ADD12R,0.1266X0.1266*%
%ADD13R,0.0740X0.0740*%
%ADD14C,0.0740*%
%ADD15C,0.0100*%
%ADD16C,0.0240*%
%ADD17C,0.0160*%
D10*
X000180Y000180D02*
X000180Y014180D01*
X007380Y014180D01*
X007380Y000180D01*
X000180Y000180D01*
D11*
X002836Y000727D03*
X003820Y000727D03*
X004804Y000727D03*
X004804Y006436D03*
X004804Y007727D03*
X003820Y007727D03*
X002836Y007727D03*
X002836Y006436D03*
X002836Y013436D03*
X004804Y013436D03*
D12*
X006222Y010680D03*
X006222Y003680D03*
X001418Y003680D03*
X001418Y010680D03*
D13*
X000820Y005680D03*
X006820Y005680D03*
D14*
X006820Y006680D03*
X006820Y007680D03*
X006820Y008680D03*
X000820Y008680D03*
X000820Y007680D03*
X000820Y006680D03*
D15*
X001200Y007320D02*
X000840Y007680D01*
X000820Y007680D01*
X001200Y007320D02*
X004440Y007320D01*
X004800Y007680D01*
X004804Y007727D01*
X004920Y007320D02*
X006420Y007320D01*
X006780Y007680D01*
X006820Y007680D01*
X005100Y007080D02*
X006480Y005700D01*
X006780Y005700D01*
X006820Y005680D01*
X004920Y007320D02*
X003600Y006000D01*
X002880Y006000D01*
X002880Y000780D01*
X002836Y000727D01*
X002836Y007727D02*
X002820Y007740D01*
X001920Y008640D01*
X000840Y008640D01*
X000820Y008680D01*
D16*
X005100Y007080D03*
D17*
X004857Y006988D02*
X004880Y006933D01*
X004940Y006873D01*
X004741Y006873D01*
X004857Y006988D01*
X004461Y007130D02*
X003521Y006190D01*
X003273Y006190D01*
X003273Y006791D01*
X003191Y006873D01*
X002481Y006873D01*
X002399Y006791D01*
X002399Y006081D01*
X002481Y005999D01*
X002690Y005999D01*
X002690Y001164D01*
X002481Y001164D01*
X002399Y001082D01*
X002399Y000372D01*
X002411Y000360D01*
X000360Y000360D01*
X000360Y005202D01*
X000392Y005170D01*
X001248Y005170D01*
X001330Y005252D01*
X002690Y005252D01*
X002690Y005094D02*
X000360Y005094D01*
X000360Y004935D02*
X002690Y004935D01*
X002690Y004777D02*
X000360Y004777D01*
X000360Y004618D02*
X002690Y004618D01*
X002690Y004460D02*
X000360Y004460D01*
X000360Y004301D02*
X000645Y004301D01*
X000645Y004371D02*
X000645Y002989D01*
X000727Y002907D01*
X002109Y002907D01*
X002191Y002989D01*
X002191Y004371D01*
X002109Y004453D01*
X000727Y004453D01*
X000645Y004371D01*
X000645Y004143D02*
X000360Y004143D01*
X000360Y003984D02*
X000645Y003984D01*
X000645Y003826D02*
X000360Y003826D01*
X000360Y003667D02*
X000645Y003667D01*
X000645Y003509D02*
X000360Y003509D01*
X000360Y003350D02*
X000645Y003350D01*
X000645Y003192D02*
X000360Y003192D01*
X000360Y003033D02*
X000645Y003033D01*
X000360Y002875D02*
X002690Y002875D01*
X002690Y003033D02*
X002191Y003033D01*
X002191Y003192D02*
X002690Y003192D01*
X002690Y003350D02*
X002191Y003350D01*
X002191Y003509D02*
X002690Y003509D01*
X002690Y003667D02*
X002191Y003667D01*
X002191Y003826D02*
X002690Y003826D01*
X002690Y003984D02*
X002191Y003984D01*
X002191Y004143D02*
X002690Y004143D01*
X002690Y004301D02*
X002191Y004301D01*
X002690Y005411D02*
X001330Y005411D01*
X001330Y005569D02*
X002690Y005569D01*
X002690Y005728D02*
X001330Y005728D01*
X001330Y005886D02*
X002690Y005886D01*
X002435Y006045D02*
X001330Y006045D01*
X001330Y006108D02*
X001248Y006190D01*
X000970Y006190D01*
X001109Y006248D01*
X001252Y006391D01*
X001330Y006579D01*
X001330Y006781D01*
X001252Y006969D01*
X001109Y007112D01*
X000946Y007180D01*
X001034Y007217D01*
X001121Y007130D01*
X004461Y007130D01*
X004327Y006996D02*
X001226Y006996D01*
X001307Y006837D02*
X002445Y006837D01*
X002399Y006679D02*
X001330Y006679D01*
X001306Y006520D02*
X002399Y006520D01*
X002399Y006362D02*
X001223Y006362D01*
X001330Y006108D02*
X001330Y005252D01*
X001001Y006203D02*
X002399Y006203D01*
X003070Y005810D02*
X003679Y005810D01*
X004367Y006499D01*
X004367Y006081D01*
X004449Y005999D01*
X005159Y005999D01*
X005241Y006081D01*
X005241Y006670D01*
X006290Y005621D01*
X006310Y005601D01*
X006310Y005252D01*
X003070Y005252D01*
X003070Y005094D02*
X007200Y005094D01*
X007200Y005170D02*
X007200Y000360D01*
X005229Y000360D01*
X005241Y000372D01*
X005241Y001082D01*
X005159Y001164D01*
X004449Y001164D01*
X004367Y001082D01*
X004367Y000372D01*
X004380Y000360D01*
X004244Y000360D01*
X004257Y000372D01*
X004257Y001082D01*
X004175Y001164D01*
X003465Y001164D01*
X003383Y001082D01*
X003383Y000372D01*
X003396Y000360D01*
X003260Y000360D01*
X003273Y000372D01*
X003273Y001082D01*
X003191Y001164D01*
X003070Y001164D01*
X003070Y005810D01*
X003070Y005728D02*
X006184Y005728D01*
X006310Y005569D02*
X003070Y005569D01*
X003070Y005411D02*
X006310Y005411D01*
X006310Y005252D02*
X006392Y005170D01*
X007200Y005170D01*
X007200Y004935D02*
X003070Y004935D01*
X003070Y004777D02*
X007200Y004777D01*
X007200Y004618D02*
X003070Y004618D01*
X003070Y004460D02*
X007200Y004460D01*
X007200Y004301D02*
X006995Y004301D01*
X006995Y004371D02*
X006913Y004453D01*
X005531Y004453D01*
X005449Y004371D01*
X005449Y002989D01*
X005531Y002907D01*
X006913Y002907D01*
X006995Y002989D01*
X006995Y004371D01*
X006995Y004143D02*
X007200Y004143D01*
X007200Y003984D02*
X006995Y003984D01*
X006995Y003826D02*
X007200Y003826D01*
X007200Y003667D02*
X006995Y003667D01*
X006995Y003509D02*
X007200Y003509D01*
X007200Y003350D02*
X006995Y003350D01*
X006995Y003192D02*
X007200Y003192D01*
X007200Y003033D02*
X006995Y003033D01*
X007200Y002875D02*
X003070Y002875D01*
X003070Y003033D02*
X005449Y003033D01*
X005449Y003192D02*
X003070Y003192D01*
X003070Y003350D02*
X005449Y003350D01*
X005449Y003509D02*
X003070Y003509D01*
X003070Y003667D02*
X005449Y003667D01*
X005449Y003826D02*
X003070Y003826D01*
X003070Y003984D02*
X005449Y003984D01*
X005449Y004143D02*
X003070Y004143D01*
X003070Y004301D02*
X005449Y004301D01*
X006025Y005886D02*
X003755Y005886D01*
X003913Y006045D02*
X004404Y006045D01*
X004367Y006203D02*
X004072Y006203D01*
X004230Y006362D02*
X004367Y006362D01*
X004168Y006837D02*
X003226Y006837D01*
X003273Y006679D02*
X004010Y006679D01*
X003851Y006520D02*
X003273Y006520D01*
X003273Y006362D02*
X003693Y006362D01*
X003534Y006203D02*
X003273Y006203D01*
X003273Y007510D02*
X003273Y008082D01*
X003191Y008164D01*
X002665Y008164D01*
X002110Y008719D01*
X001999Y008830D01*
X001310Y008830D01*
X001252Y008969D01*
X001109Y009112D01*
X000921Y009190D01*
X000719Y009190D01*
X000531Y009112D01*
X000388Y008969D01*
X000360Y008902D01*
X000360Y014000D01*
X007200Y014000D01*
X007200Y009021D01*
X007109Y009112D01*
X006921Y009190D01*
X006719Y009190D01*
X006531Y009112D01*
X006388Y008969D01*
X006310Y008781D01*
X006310Y008579D01*
X006388Y008391D01*
X006531Y008248D01*
X006694Y008180D01*
X006531Y008112D01*
X006388Y007969D01*
X006310Y007781D01*
X006310Y007579D01*
X006338Y007510D01*
X005241Y007510D01*
X005241Y008082D01*
X005159Y008164D01*
X004449Y008164D01*
X004367Y008082D01*
X004367Y007516D01*
X004361Y007510D01*
X004257Y007510D01*
X004257Y008082D01*
X004175Y008164D01*
X003465Y008164D01*
X003383Y008082D01*
X003383Y007510D01*
X003273Y007510D01*
X003273Y007630D02*
X003383Y007630D01*
X003383Y007788D02*
X003273Y007788D01*
X003273Y007947D02*
X003383Y007947D01*
X003406Y008105D02*
X003250Y008105D01*
X002565Y008264D02*
X006515Y008264D01*
X006524Y008105D02*
X005218Y008105D01*
X005241Y007947D02*
X006378Y007947D01*
X006313Y007788D02*
X005241Y007788D01*
X005241Y007630D02*
X006310Y007630D01*
X006591Y007223D02*
X006499Y007130D01*
X005360Y007130D01*
X005360Y007089D01*
X006325Y006123D01*
X006392Y006190D01*
X006670Y006190D01*
X006531Y006248D01*
X006388Y006391D01*
X006310Y006579D01*
X006310Y006781D01*
X006388Y006969D01*
X006531Y007112D01*
X006694Y007180D01*
X006591Y007223D01*
X006632Y007154D02*
X006523Y007154D01*
X006414Y006996D02*
X005453Y006996D01*
X005612Y006837D02*
X006333Y006837D01*
X006310Y006679D02*
X005770Y006679D01*
X005929Y006520D02*
X006334Y006520D01*
X006417Y006362D02*
X006087Y006362D01*
X006246Y006203D02*
X006639Y006203D01*
X006970Y006190D02*
X007109Y006248D01*
X007200Y006339D01*
X007200Y006190D01*
X006970Y006190D01*
X007001Y006203D02*
X007200Y006203D01*
X007200Y007021D02*
X007200Y007339D01*
X007109Y007248D01*
X006946Y007180D01*
X007109Y007112D01*
X007200Y007021D01*
X007200Y007154D02*
X007008Y007154D01*
X007174Y007313D02*
X007200Y007313D01*
X007200Y008021D02*
X007200Y008339D01*
X007109Y008248D01*
X006946Y008180D01*
X007109Y008112D01*
X007200Y008021D01*
X007200Y008105D02*
X007116Y008105D01*
X007125Y008264D02*
X007200Y008264D01*
X007165Y009056D02*
X007200Y009056D01*
X007200Y009215D02*
X000360Y009215D01*
X000360Y009373D02*
X007200Y009373D01*
X007200Y009532D02*
X000360Y009532D01*
X000360Y009690D02*
X007200Y009690D01*
X007200Y009849D02*
X000360Y009849D01*
X000360Y010007D02*
X000645Y010007D01*
X000645Y009989D02*
X000727Y009907D01*
X002109Y009907D01*
X002191Y009989D01*
X002191Y011371D01*
X002109Y011453D01*
X000727Y011453D01*
X000645Y011371D01*
X000645Y009989D01*
X000645Y010166D02*
X000360Y010166D01*
X000360Y010324D02*
X000645Y010324D01*
X000645Y010483D02*
X000360Y010483D01*
X000360Y010641D02*
X000645Y010641D01*
X000645Y010800D02*
X000360Y010800D01*
X000360Y010958D02*
X000645Y010958D01*
X000645Y011117D02*
X000360Y011117D01*
X000360Y011275D02*
X000645Y011275D01*
X000708Y011434D02*
X000360Y011434D01*
X000360Y011592D02*
X007200Y011592D01*
X007200Y011434D02*
X006932Y011434D01*
X006913Y011453D02*
X005531Y011453D01*
X005449Y011371D01*
X005449Y009989D01*
X005531Y009907D01*
X006913Y009907D01*
X006995Y009989D01*
X006995Y011371D01*
X006913Y011453D01*
X006995Y011275D02*
X007200Y011275D01*
X007200Y011117D02*
X006995Y011117D01*
X006995Y010958D02*
X007200Y010958D01*
X007200Y010800D02*
X006995Y010800D01*
X006995Y010641D02*
X007200Y010641D01*
X007200Y010483D02*
X006995Y010483D01*
X006995Y010324D02*
X007200Y010324D01*
X007200Y010166D02*
X006995Y010166D01*
X006995Y010007D02*
X007200Y010007D01*
X006475Y009056D02*
X001165Y009056D01*
X001282Y008898D02*
X006358Y008898D01*
X006310Y008739D02*
X002090Y008739D01*
X002248Y008581D02*
X006310Y008581D01*
X006375Y008422D02*
X002407Y008422D01*
X002186Y008105D02*
X001116Y008105D01*
X001109Y008112D02*
X000946Y008180D01*
X001109Y008248D01*
X001252Y008391D01*
X001277Y008450D01*
X001841Y008450D01*
X002399Y007892D01*
X002399Y007510D01*
X001302Y007510D01*
X001330Y007579D01*
X001330Y007781D01*
X001252Y007969D01*
X001109Y008112D01*
X001125Y008264D02*
X002028Y008264D01*
X001869Y008422D02*
X001265Y008422D01*
X001262Y007947D02*
X002345Y007947D01*
X002399Y007788D02*
X001327Y007788D01*
X001330Y007630D02*
X002399Y007630D01*
X002191Y010007D02*
X005449Y010007D01*
X005449Y010166D02*
X002191Y010166D01*
X002191Y010324D02*
X005449Y010324D01*
X005449Y010483D02*
X002191Y010483D01*
X002191Y010641D02*
X005449Y010641D01*
X005449Y010800D02*
X002191Y010800D01*
X002191Y010958D02*
X005449Y010958D01*
X005449Y011117D02*
X002191Y011117D01*
X002191Y011275D02*
X005449Y011275D01*
X005511Y011434D02*
X002129Y011434D01*
X002481Y012999D02*
X003191Y012999D01*
X003273Y013081D01*
X003273Y013791D01*
X003191Y013873D01*
X002481Y013873D01*
X002399Y013791D01*
X002399Y013081D01*
X002481Y012999D01*
X002461Y013019D02*
X000360Y013019D01*
X000360Y013177D02*
X002399Y013177D01*
X002399Y013336D02*
X000360Y013336D01*
X000360Y013494D02*
X002399Y013494D01*
X002399Y013653D02*
X000360Y013653D01*
X000360Y013811D02*
X002419Y013811D01*
X003252Y013811D02*
X004388Y013811D01*
X004367Y013791D02*
X004367Y013081D01*
X004449Y012999D01*
X005159Y012999D01*
X005241Y013081D01*
X005241Y013791D01*
X005159Y013873D01*
X004449Y013873D01*
X004367Y013791D01*
X004367Y013653D02*
X003273Y013653D01*
X003273Y013494D02*
X004367Y013494D01*
X004367Y013336D02*
X003273Y013336D01*
X003273Y013177D02*
X004367Y013177D01*
X004430Y013019D02*
X003210Y013019D01*
X005179Y013019D02*
X007200Y013019D01*
X007200Y013177D02*
X005241Y013177D01*
X005241Y013336D02*
X007200Y013336D01*
X007200Y013494D02*
X005241Y013494D01*
X005241Y013653D02*
X007200Y013653D01*
X007200Y013811D02*
X005221Y013811D01*
X007200Y013970D02*
X000360Y013970D01*
X000360Y012860D02*
X007200Y012860D01*
X007200Y012702D02*
X000360Y012702D01*
X000360Y012543D02*
X007200Y012543D01*
X007200Y012385D02*
X000360Y012385D01*
X000360Y012226D02*
X007200Y012226D01*
X007200Y012068D02*
X000360Y012068D01*
X000360Y011909D02*
X007200Y011909D01*
X007200Y011751D02*
X000360Y011751D01*
X000360Y009056D02*
X000475Y009056D01*
X000360Y008458D02*
X000388Y008391D01*
X000531Y008248D01*
X000694Y008180D01*
X000531Y008112D01*
X000388Y007969D01*
X000360Y007902D01*
X000360Y008458D01*
X000360Y008422D02*
X000375Y008422D01*
X000360Y008264D02*
X000515Y008264D01*
X000524Y008105D02*
X000360Y008105D01*
X000360Y007947D02*
X000378Y007947D01*
X000360Y007458D02*
X000388Y007391D01*
X000531Y007248D01*
X000694Y007180D01*
X000531Y007112D01*
X000388Y006969D01*
X000360Y006902D01*
X000360Y007458D01*
X000360Y007313D02*
X000466Y007313D01*
X000360Y007154D02*
X000632Y007154D01*
X000414Y006996D02*
X000360Y006996D01*
X000360Y006458D02*
X000388Y006391D01*
X000531Y006248D01*
X000670Y006190D01*
X000392Y006190D01*
X000360Y006158D01*
X000360Y006458D01*
X000360Y006362D02*
X000417Y006362D01*
X000360Y006203D02*
X000639Y006203D01*
X001008Y007154D02*
X001097Y007154D01*
X000360Y002716D02*
X002690Y002716D01*
X002690Y002558D02*
X000360Y002558D01*
X000360Y002399D02*
X002690Y002399D01*
X002690Y002241D02*
X000360Y002241D01*
X000360Y002082D02*
X002690Y002082D01*
X002690Y001924D02*
X000360Y001924D01*
X000360Y001765D02*
X002690Y001765D01*
X002690Y001607D02*
X000360Y001607D01*
X000360Y001448D02*
X002690Y001448D01*
X002690Y001290D02*
X000360Y001290D01*
X000360Y001131D02*
X002448Y001131D01*
X002399Y000973D02*
X000360Y000973D01*
X000360Y000814D02*
X002399Y000814D01*
X002399Y000656D02*
X000360Y000656D01*
X000360Y000497D02*
X002399Y000497D01*
X003070Y001290D02*
X007200Y001290D01*
X007200Y001131D02*
X005192Y001131D01*
X005241Y000973D02*
X007200Y000973D01*
X007200Y000814D02*
X005241Y000814D01*
X005241Y000656D02*
X007200Y000656D01*
X007200Y000497D02*
X005241Y000497D01*
X004367Y000497D02*
X004257Y000497D01*
X004257Y000656D02*
X004367Y000656D01*
X004367Y000814D02*
X004257Y000814D01*
X004257Y000973D02*
X004367Y000973D01*
X004416Y001131D02*
X004208Y001131D01*
X003432Y001131D02*
X003224Y001131D01*
X003273Y000973D02*
X003383Y000973D01*
X003383Y000814D02*
X003273Y000814D01*
X003273Y000656D02*
X003383Y000656D01*
X003383Y000497D02*
X003273Y000497D01*
X003070Y001448D02*
X007200Y001448D01*
X007200Y001607D02*
X003070Y001607D01*
X003070Y001765D02*
X007200Y001765D01*
X007200Y001924D02*
X003070Y001924D01*
X003070Y002082D02*
X007200Y002082D01*
X007200Y002241D02*
X003070Y002241D01*
X003070Y002399D02*
X007200Y002399D01*
X007200Y002558D02*
X003070Y002558D01*
X003070Y002716D02*
X007200Y002716D01*
X005867Y006045D02*
X005205Y006045D01*
X005241Y006203D02*
X005708Y006203D01*
X005550Y006362D02*
X005241Y006362D01*
X005241Y006520D02*
X005391Y006520D01*
X004367Y007630D02*
X004257Y007630D01*
X004257Y007788D02*
X004367Y007788D01*
X004367Y007947D02*
X004257Y007947D01*
X004234Y008105D02*
X004390Y008105D01*
M02*
