%
M48
M72
T01C0.0354
T02C0.0400
T03C0.0591
T04C0.0787
%
T01
X1327Y14916
X1327Y16884
T02
X1487Y4860
X1487Y5860
X1487Y6860
X1487Y7860
X1487Y23360
X1487Y24360
X1487Y25360
X1487Y26360
X6487Y26360
X6487Y25360
X6487Y24360
X6487Y23360
X6487Y7860
X6487Y6860
X6487Y5860
X6487Y4860
T03
X4676Y891
X4676Y29829
X3298Y29829
T04
X2333Y28195
X5640Y27722
X5640Y2998
X2333Y2525
M30
